<?xml version="1.0" encoding="UTF-8" standalone="no"?>
<!-- Created with Inkscape (http://www.inkscape.org/) -->

<svg
   xmlns:dc="http://purl.org/dc/elements/1.1/"
   xmlns:cc="http://creativecommons.org/ns#"
   xmlns:rdf="http://www.w3.org/1999/02/22-rdf-syntax-ns#"
   xmlns:svg="http://www.w3.org/2000/svg"
   xmlns="http://www.w3.org/2000/svg"
   xmlns:xlink="http://www.w3.org/1999/xlink"
   xmlns:sodipodi="http://sodipodi.sourceforge.net/DTD/sodipodi-0.dtd"
   xmlns:inkscape="http://www.inkscape.org/namespaces/inkscape"
   width="128"
   height="128"
   id="svg3810"
   version="1.1"
   inkscape:version="0.48.4 r9939"
   sodipodi:docname="scrap1.svg">
  <defs
     id="defs3812">
    <linearGradient
       inkscape:collect="always"
       xlink:href="#linearGradient4757"
       id="linearGradient4763"
       x1="528.2132"
       y1="481.26144"
       x2="528.2132"
       y2="452.75565"
       gradientUnits="userSpaceOnUse" />
    <linearGradient
       id="linearGradient4757">
      <stop
         style="stop-color:#f8f9f9;stop-opacity:1"
         offset="0"
         id="stop4759" />
      <stop
         style="stop-color:#a5aeb4;stop-opacity:1"
         offset="1"
         id="stop4761" />
    </linearGradient>
    <linearGradient
       inkscape:collect="always"
       xlink:href="#linearGradient4757"
       id="linearGradient4786"
       gradientUnits="userSpaceOnUse"
       x1="528.2132"
       y1="481.26144"
       x2="528.2132"
       y2="452.75565" />
  </defs>
  <sodipodi:namedview
     id="base"
     pagecolor="#ffffff"
     bordercolor="#666666"
     borderopacity="1.0"
     inkscape:pageopacity="0.0"
     inkscape:pageshadow="2"
     inkscape:zoom="1.979899"
     inkscape:cx="57.660082"
     inkscape:cy="135.10115"
     inkscape:document-units="px"
     inkscape:current-layer="layer1"
     showgrid="false"
     fit-margin-top="0"
     fit-margin-left="0"
     fit-margin-right="0"
     fit-margin-bottom="0"
     inkscape:window-width="927"
     inkscape:window-height="1148"
     inkscape:window-x="992"
     inkscape:window-y="24"
     inkscape:window-maximized="0" />
  <metadata
     id="metadata3815">
    <rdf:RDF>
      <cc:Work
         rdf:about="">
        <dc:format>image/svg+xml</dc:format>
        <dc:type
           rdf:resource="http://purl.org/dc/dcmitype/StillImage" />
        <dc:title></dc:title>
      </cc:Work>
    </rdf:RDF>
  </metadata>
  <g
     inkscape:label="Layer 1"
     inkscape:groupmode="layer"
     id="layer1"
     transform="translate(-38.571426,-472.2193)">
    <g
       id="g4763"
       transform="matrix(1.1031375,0,0,1.1031375,-14.906282,-58.750251)">
      <path
         inkscape:connector-curvature="0"
         id="path4723"
         d="m 77.074751,511.88616 12.272954,-6.80262 -0.87922,21.01214 -12.902261,7.15229 z"
         style="fill:#d3d7da;fill-opacity:1;stroke:none" />
      <path
         inkscape:connector-curvature="0"
         id="path4745"
         d="m 54.62346,540.58755 -2.659738,22.8371 9.9598,-7.16298 2.173945,-22.48691 z"
         style="fill:#bdc3c7;fill-opacity:1;stroke:none" />
      <path
         sodipodi:nodetypes="ccccc"
         inkscape:connector-curvature="0"
         id="path4747"
         d="m 61.923522,556.26167 2.173945,-22.48691 6.049728,-1.00906 -1.863745,22.43504 z"
         style="fill:#abb3b8;fill-opacity:1;stroke:none" />
      <path
         inkscape:connector-curvature="0"
         id="path4749"
         d="m 85.912197,576.51295 0.793873,-23.05507 2.641635,-3.90911 -0.87922,23.29772 z"
         style="fill:#8d999f;fill-opacity:1;stroke:none" />
      <path
         inkscape:connector-curvature="0"
         id="path4753"
         d="m 143.58912,577.94227 -6.09596,-25.45501 -4.81027,-9.80937 5.93815,25.48374 z"
         style="fill:#abb2b8;fill-opacity:1;stroke:none" />
      <path
         sodipodi:nodetypes="cccc"
         inkscape:connector-curvature="0"
         id="path4751"
         d="m 139.0942,568.4902 -6.41131,-25.81231 0.15599,23.73579 z"
         style="fill:#8d999f;fill-opacity:1;stroke:none" />
      <path
         sodipodi:nodetypes="ccccc"
         inkscape:connector-curvature="0"
         id="path4739"
         d="m 132.68289,511.95443 6.8203,9.82532 3.67068,24.32317 -9.14812,-12.78318 z"
         style="fill:#b5bcc1;fill-opacity:1;stroke:none" />
      <path
         sodipodi:nodetypes="ccccc"
         inkscape:connector-curvature="0"
         id="path4741"
         d="m 139.50319,521.77975 6.07223,-0.92219 4.06116,23.3263 -8.44083,-0.5338 z"
         style="fill:#c9ced1;fill-opacity:1;stroke:none" />
      <path
         inkscape:connector-curvature="0"
         id="path4717"
         d="m 54.62346,514.04477 -2.659738,21.47276 4.171601,-6.00748 2.456268,-21.17906 z"
         style="fill:#bdc3c7;fill-opacity:1;stroke:none" />
      <path
         inkscape:connector-curvature="0"
         id="path4719"
         d="m 58.591591,508.33099 14.117248,1.13026 -1.732392,21.23716 -14.841124,-1.18836 z"
         style="fill:#ecf0f1;fill-opacity:1;stroke:none" />
      <path
         inkscape:connector-curvature="0"
         id="path4721"
         d="m 72.708839,509.46125 4.365912,2.42491 -1.508527,21.36181 -4.589777,-2.54956 z"
         style="fill:#bdc3c7;fill-opacity:1;stroke:none" />
      <path
         inkscape:connector-curvature="0"
         id="path4727"
         d="m 87.544563,512.11192 0.924283,-20.3285 8.911427,-1.41152 -0.467341,20.25594 z"
         style="fill:#eceeef;fill-opacity:1;stroke:none" />
      <path
         sodipodi:nodetypes="ccccc"
         inkscape:connector-curvature="0"
         id="path4733"
         d="m 120.21329,505.04632 2.40847,-3.49686 3.4052,22.0978 -6.29707,3.51702 z"
         style="fill:#b1b8bc;fill-opacity:1;stroke:none" />
      <path
         inkscape:connector-curvature="0"
         id="path4729"
         d="m 97.380273,490.3719 7.456187,7.93263 -0.085,20.66368 -7.838503,-8.34037 z"
         style="fill:#bdc3c7;fill-opacity:1;stroke:none" />
      <path
         inkscape:connector-curvature="0"
         id="path4731"
         d="m 104.81947,523.50495 0.0817,-20.88549 15.31214,2.42686 0.70346,21.01022 z"
         style="fill:#ecf0f1;fill-opacity:1;stroke:none" />
      <path
         sodipodi:nodetypes="ccccc"
         inkscape:connector-curvature="0"
         id="path4735"
         d="m 122.62176,501.54946 12.01692,-5.27106 2.9465,22.77503 -13.77371,2.93222 z"
         style="fill:#c9ced1;fill-opacity:1;stroke:none" />
      <path
         inkscape:connector-curvature="0"
         id="path4737"
         d="m 134.63868,496.2784 7.14114,3.9585 1.8093,20.76301 -7.50731,-4.16196 z"
         style="fill:#e6e8ea;fill-opacity:1;stroke:none" />
      <path
         inkscape:connector-curvature="0"
         id="path4743"
         d="m 145.57542,520.85756 12.78954,3.2866 2.65972,21.99186 -13.44534,-3.45553 z"
         style="fill:#ecf0f1;fill-opacity:1;stroke:none" />
      <path
         inkscape:connector-curvature="0"
         id="path4725"
         d="m 85.691395,521.98565 1.224704,-20.38931 1.552747,-9.81292 -0.924283,20.3285 z"
         style="fill:#afb6bb;fill-opacity:1;stroke:none" />
      <path
         sodipodi:nodetypes="ccccccccccccccccccccccccccccccccccccccccccccccccccccccccc"
         id="path4675"
         style="fill:#97a0a6;fill-opacity:1;stroke:none"
         d="m 141.19575,543.65006 5.7133,-0.91481 0.67029,-0.0548 13.44534,3.45553 0,6.6701 -13.44534,3.45554 -0.67029,-0.0548 -5.7133,-0.91481 -7.17,10.33034 4.59529,2.53919 0.47316,0.32857 4.49492,9.45207 -7.50731,4.16196 -12.27034,-5.1477 -0.36275,-0.39429 -2.53197,-3.6766 -16.09728,2.55159 0.0108,4.07672 -0.0789,0.46001 -7.838503,8.34037 -9.368369,-1.48407 -1.853168,-9.87373 0.220802,-0.44358 2.556288,-3.66646 -12.902261,-7.15228 -4.589777,2.54956 -0.56778,0.24643 -14.273344,0.94193 -4.171601,-6.00748 9.9598,-7.16298 0.638751,-0.15881 5.721177,-0.90212 0,-11.4593 -5.721177,-0.90212 -0.638751,-0.15882 -9.9598,-7.16297 4.171601,-6.00748 14.273344,0.94192 0.56778,0.24644 4.589777,2.54956 12.902261,-7.15229 -2.556288,-3.66645 -0.220802,-0.44358 1.853168,-9.87373 9.368369,-1.48408 7.838503,8.34037 0.0789,0.46002 -0.0108,4.07672 16.09728,2.55159 2.53197,-3.6766 0.36275,-0.39429 12.27034,-5.1477 7.50731,4.16196 -4.49492,9.45206 -0.47316,0.32858 -4.59529,2.53919 z"
         inkscape:connector-curvature="0" />
      <path
         transform="matrix(0.63299685,0,0,0.74603199,-230.98964,202.6789)"
         d="m 552.30494,466.86218 c 0,7.73199 -10.14186,14 -22.65247,14 -12.51062,0 -22.65248,-6.26801 -22.65248,-14 0,-7.73198 10.14186,-14 22.65248,-14 12.51061,0 22.65247,6.26802 22.65247,14 z"
         sodipodi:ry="14"
         sodipodi:rx="22.652475"
         sodipodi:cy="466.86218"
         sodipodi:cx="529.65247"
         id="path4755"
         style="color:#000000;fill:url(#linearGradient4786);fill-opacity:1;fill-rule:nonzero;stroke:none;stroke-width:6;marker:none;visibility:visible;display:inline;overflow:visible;enable-background:new"
         sodipodi:type="arc" />
    </g>
  </g>
</svg>
