<?xml version="1.0" encoding="UTF-8" standalone="no"?>
<svg
   xmlns:dc="http://purl.org/dc/elements/1.1/"
   xmlns:cc="http://creativecommons.org/ns#"
   xmlns:rdf="http://www.w3.org/1999/02/22-rdf-syntax-ns#"
   xmlns:svg="http://www.w3.org/2000/svg"
   xmlns="http://www.w3.org/2000/svg"
   version="1.1"
   width="4608"
   height="2304"
   id="svg2">
  <defs
     id="defs4" />
  <metadata
     id="metadata7">
    <rdf:RDF>
      <cc:Work
         rdf:about="">
        <dc:format>image/svg+xml</dc:format>
        <dc:type
           rdf:resource="http://purl.org/dc/dcmitype/StillImage" />
        <dc:title></dc:title>
      </cc:Work>
    </rdf:RDF>
  </metadata>
  <g
     transform="translate(0,1804)"
     id="layer2"
     style="color:#000000;clip-rule:nonzero;display:inline;overflow:visible;visibility:visible;opacity:1;isolation:auto;mix-blend-mode:normal;color-interpolation:sRGB;color-interpolation-filters:linearRGB;solid-color:#000000;solid-opacity:1;fill:#009e73;fill-opacity:1;fill-rule:nonzero;stroke:none;stroke-width:1px;stroke-linecap:butt;stroke-linejoin:miter;stroke-miterlimit:4;stroke-dasharray:none;stroke-dashoffset:0;stroke-opacity:1;marker:none;filter-blend-mode:normal;filter-gaussianBlur-deviation:0;color-rendering:auto;image-rendering:auto;shape-rendering:auto;text-rendering:auto;enable-background:accumulate">
    <rect
       width="4608"
       height="2304"
       x="0"
       y="-1804"
       id="rect30518"
       style="color:#000000;fill:#009e73;fill-opacity:1;fill-rule:nonzero;stroke:none;stroke-width:1px;marker:none;visibility:visible;display:inline;overflow:visible;enable-background:accumulate;clip-rule:nonzero;isolation:auto;mix-blend-mode:normal;color-interpolation:sRGB;color-interpolation-filters:linearRGB;solid-color:#000000;solid-opacity:1;stroke-linecap:butt;stroke-linejoin:miter;stroke-miterlimit:4;stroke-dasharray:none;stroke-dashoffset:0;stroke-opacity:1;filter-blend-mode:normal;filter-gaussianBlur-deviation:0;color-rendering:auto;image-rendering:auto;shape-rendering:auto;text-rendering:auto" />
  </g>
  <g
     transform="translate(-772.224,0)"
     id="g5979">
    <path
       d="m 2276.3407,953.54938 q -1.5906,-1.59063 -2.6972,-2.97379 -1.1065,-1.45231 -2.4205,-2.48968 -1.2448,-1.03737 -3.0429,-1.65979 -1.7981,-0.69158 -4.6336,-0.69158 l 0,-25.65755 60.7897,0 0,25.65755 q -6.0859,0 -8.0915,2.00558 -1.9364,2.00558 0.1384,4.97936 l 9.5437,13.27831 0.5533,0 9.4746,-13.27831 q 2.4206,-2.69715 0.4841,-4.84105 -1.8672,-2.14389 -8.4372,-2.14389 l 0,-25.65755 41.633,0 0,25.65755 q -2.0747,0 -3.6654,0.41495 -1.5214,0.41495 -2.9046,1.38316 -1.314,0.89905 -2.7663,2.42052 -1.3832,1.45231 -3.3887,3.59621 l -19.8483,24.34355 0,10.65031 q 0,4.49526 2.628,6.15505 2.628,1.59063 8.7138,1.59063 l 0,25.65758 -63.4177,0 0,-25.65758 q 6.0859,0 8.7139,-1.59063 2.628,-1.65979 2.628,-6.15505 l 0,-10.65031 -19.9866,-24.34355 z"
       style="color:#000000;font-style:normal;font-variant:normal;font-weight:normal;font-stretch:normal;font-size:medium;line-height:125%;font-family:Ultra;-inkscape-font-specification:Ultra;text-align:end;letter-spacing:0px;word-spacing:0px;text-anchor:end;clip-rule:nonzero;visibility:visible;isolation:auto;mix-blend-mode:normal;color-interpolation:sRGB;color-interpolation-filters:linearRGB;solid-color:#000000;solid-opacity:1;fill:#f0e442;fill-opacity:1;fill-rule:nonzero;stroke:none;stroke-width:1px;stroke-linecap:butt;stroke-linejoin:miter;stroke-miterlimit:4;stroke-dasharray:none;stroke-dashoffset:0;stroke-opacity:1;color-rendering:auto;image-rendering:auto;shape-rendering:auto;text-rendering:auto"
       id="path7203" />
    <path
       d="m 2372.885,971.11547 q 0,-13.34747 4.357,-23.37535 4.4261,-10.09704 12.4484,-16.87451 8.0223,-6.77747 19.0184,-10.1662 11.0652,-3.38874 24.4127,-3.38874 13.2783,0 24.3435,3.38874 11.0653,3.38873 19.0184,10.1662 8.0224,6.77747 12.3793,16.87451 4.4261,10.02788 4.4261,23.37535 0,13.2783 -4.4261,23.37534 -4.3569,10.02789 -12.3793,16.87449 -7.9531,6.7775 -19.0184,10.1662 -11.0652,3.3888 -24.3435,3.3888 -13.3475,0 -24.4127,-3.3888 -10.9961,-3.3887 -19.0184,-10.1662 -8.0223,-6.8466 -12.4484,-16.87449 -4.357,-10.09704 -4.357,-23.37534 z m 46.4741,0 q 0,8.36809 0.6224,14.03904 0.6224,5.60178 2.1439,9.12883 1.5906,3.45789 4.2186,5.04852 2.628,1.52144 6.7775,1.52144 3.942,0 6.6391,-1.52144 2.6972,-1.59063 4.2187,-5.04852 1.5906,-3.52705 2.213,-9.12883 0.6224,-5.67095 0.6224,-14.03904 0,-8.22979 -0.6224,-13.96989 -0.6224,-5.7401 -2.213,-9.19799 -1.5215,-3.45789 -4.2187,-4.97936 -2.6971,-1.59063 -6.6391,-1.59063 -4.1495,0 -6.7775,1.59063 -2.628,1.52147 -4.2186,4.97936 -1.5215,3.45789 -2.1439,9.19799 -0.6224,5.7401 -0.6224,13.96989 z"
       style="color:#000000;font-style:normal;font-variant:normal;font-weight:normal;font-stretch:normal;font-size:medium;line-height:125%;font-family:Ultra;-inkscape-font-specification:Ultra;text-align:end;letter-spacing:0px;word-spacing:0px;text-anchor:end;clip-rule:nonzero;visibility:visible;isolation:auto;mix-blend-mode:normal;color-interpolation:sRGB;color-interpolation-filters:linearRGB;solid-color:#000000;solid-opacity:1;fill:#f0e442;fill-opacity:1;fill-rule:nonzero;stroke:none;stroke-width:1px;stroke-linecap:butt;stroke-linejoin:miter;stroke-miterlimit:4;stroke-dasharray:none;stroke-dashoffset:0;stroke-opacity:1;color-rendering:auto;image-rendering:auto;shape-rendering:auto;text-rendering:auto"
       id="path7205" />
    <path
       d="m 2561.3401,920.07699 0,25.65755 q -5.256,0 -7.3307,1.65979 -2.0056,1.59063 -2.0056,5.32515 l 0,31.95092 q 0,2.55884 0.5532,4.91021 0.5533,2.35136 1.8673,4.21862 1.3832,1.79811 3.5962,2.90463 2.2822,1.03737 5.7401,1.03737 6.6392,0 9.6821,-3.45789 3.043,-3.52705 3.043,-9.47462 l 0,-31.81261 q 0,-4.28778 -2.5589,-5.7401 -2.5588,-1.52147 -7.0541,-1.52147 l 0,-25.65755 45.575,0 0,25.65755 q -4.6335,0 -7.1232,1.38316 -2.4897,1.314 -2.4897,5.60178 l 0,32.98829 q 0,6.36252 -1.6598,13.2783 -1.5906,6.84663 -6.3625,12.58673 -4.7027,5.6709 -13.4858,9.4746 -8.783,3.7345 -23.237,3.7345 -10.512,0 -18.1194,-1.9364 -7.5382,-1.8672 -12.7942,-4.9793 -5.256,-3.1121 -8.3681,-7.0541 -3.1121,-4.0112 -4.841,-8.2298 -1.6598,-4.28781 -2.2131,-8.29896 -0.5532,-4.08031 -0.5532,-7.46905 l 0,-33.26491 q 0,-4.56442 -2.628,-6.15505 -2.628,-1.65979 -8.7139,-1.65979 l 0,-25.65755 61.4813,0 z"
       style="color:#000000;font-style:normal;font-variant:normal;font-weight:normal;font-stretch:normal;font-size:medium;line-height:125%;font-family:Ultra;-inkscape-font-specification:Ultra;text-align:end;letter-spacing:0px;word-spacing:0px;text-anchor:end;clip-rule:nonzero;visibility:visible;isolation:auto;mix-blend-mode:normal;color-interpolation:sRGB;color-interpolation-filters:linearRGB;solid-color:#000000;solid-opacity:1;fill:#f0e442;fill-opacity:1;fill-rule:nonzero;stroke:none;stroke-width:1px;stroke-linecap:butt;stroke-linejoin:miter;stroke-miterlimit:4;stroke-dasharray:none;stroke-dashoffset:0;stroke-opacity:1;color-rendering:auto;image-rendering:auto;shape-rendering:auto;text-rendering:auto"
       id="path7207" />
    <path
       d="m 2736.7935,976.50978 -23.7903,0 0,12.86335 q 0,3.66537 2.0056,5.32516 2.0747,1.59063 7.3307,1.59063 l 0,25.65758 -61.4813,0 0,-25.65758 q 6.0859,0 8.7139,-1.59063 2.628,-1.65979 2.628,-6.15505 l 0,-34.99386 q 0,-4.56442 -2.628,-6.15505 -2.628,-1.65979 -8.7139,-1.65979 l 0,-25.65755 61.4813,0 0,25.65755 q -5.256,0 -7.3307,1.65979 -2.0056,1.59063 -2.0056,5.32515 l 0,11.13441 23.7903,0 0,-11.13441 q 0,-3.73452 -2.0747,-5.32515 -2.0747,-1.65979 -7.2616,-1.65979 l 0,-25.65755 61.4122,0 0,25.65755 q -6.0859,0 -8.7139,1.65979 -2.5588,1.59063 -2.5588,6.15505 l 0,34.99386 q 0,4.49526 2.5588,6.15505 2.628,1.59063 8.7139,1.59063 l 0,25.65758 -61.4122,0 0,-25.65758 q 5.1869,0 7.2616,-1.59063 2.0747,-1.65979 2.0747,-5.32516 l 0,-12.86335 z"
       style="color:#000000;font-style:normal;font-variant:normal;font-weight:normal;font-stretch:normal;font-size:medium;line-height:125%;font-family:Ultra;-inkscape-font-specification:Ultra;text-align:end;letter-spacing:0px;word-spacing:0px;text-anchor:end;clip-rule:nonzero;visibility:visible;isolation:auto;mix-blend-mode:normal;color-interpolation:sRGB;color-interpolation-filters:linearRGB;solid-color:#000000;solid-opacity:1;fill:#f0e442;fill-opacity:1;fill-rule:nonzero;stroke:none;stroke-width:1px;stroke-linecap:butt;stroke-linejoin:miter;stroke-miterlimit:4;stroke-dasharray:none;stroke-dashoffset:0;stroke-opacity:1;color-rendering:auto;image-rendering:auto;shape-rendering:auto;text-rendering:auto"
       id="path7209" />
    <path
       d="m 2849.5899,986.39935 -21.8538,0 -0.9682,2.97378 q -1.1066,2.97379 0.1383,4.97937 1.2448,1.93642 5.256,1.93642 l 3.942,0 0,25.65758 -43.0854,0 0,-25.65758 2.8355,0 q 4.9794,0 6.6392,-1.93642 1.7289,-2.00558 3.3195,-5.80926 l 14.1774,-34.99386 q 1.5215,-4.01116 0.4841,-5.87842 -0.9682,-1.93642 -6.0167,-1.93642 l -1.4524,0 0,-25.65755 71.0943,0 0,25.65755 -1.3832,0 q -5.1176,0 -6.155,2.00558 -0.9682,2.00558 0.6224,5.80926 l 14.1774,34.99386 q 0.8299,1.93642 1.4523,3.38873 0.6916,1.38316 1.6598,2.42053 0.9682,0.96821 2.5588,1.45231 1.6598,0.48411 4.2186,0.48411 l 2.8355,0 0,25.65758 -62.8645,0 0,-25.65758 3.8037,0 q 3.942,0 5.256,-1.93642 1.3832,-2.00558 0.2766,-4.97937 l -0.9682,-2.97378 z m -18.3268,-10.78862 14.7306,0 -6.9158,-21.23146 -0.5532,0 -7.2616,21.23146 z"
       style="color:#000000;font-style:normal;font-variant:normal;font-weight:normal;font-stretch:normal;font-size:medium;line-height:125%;font-family:Ultra;-inkscape-font-specification:Ultra;text-align:end;letter-spacing:0px;word-spacing:0px;text-anchor:end;clip-rule:nonzero;visibility:visible;isolation:auto;mix-blend-mode:normal;color-interpolation:sRGB;color-interpolation-filters:linearRGB;solid-color:#000000;solid-opacity:1;fill:#f0e442;fill-opacity:1;fill-rule:nonzero;stroke:none;stroke-width:1px;stroke-linecap:butt;stroke-linejoin:miter;stroke-miterlimit:4;stroke-dasharray:none;stroke-dashoffset:0;stroke-opacity:1;color-rendering:auto;image-rendering:auto;shape-rendering:auto;text-rendering:auto"
       id="path7211" />
    <path
       d="m 2916.9497,953.54938 q -0.8299,-2.1439 -1.5907,-3.52705 -0.6915,-1.45232 -1.9364,-2.42053 -1.1757,-1.03736 -3.0429,-1.45231 -1.7981,-0.41495 -4.7719,-0.41495 l 0,-25.65755 60.029,0 0,25.65755 q -10.3045,0 -7.884,6.98494 l 10.7195,33.54155 0.6224,0 10.9961,-33.54155 q 2.4205,-6.98494 -7.884,-6.98494 l 0,-25.65755 40.1807,0 0,25.65755 q -2.9738,0 -4.8411,0.41495 -1.7981,0.41495 -3.0429,1.45231 -1.1757,0.96821 -1.8673,2.42053 -0.6916,1.38315 -1.5906,3.52705 l -26.7641,68.39712 -30.7061,0 -26.6257,-68.39712 z"
       style="color:#000000;font-style:normal;font-variant:normal;font-weight:normal;font-stretch:normal;font-size:medium;line-height:125%;font-family:Ultra;-inkscape-font-specification:Ultra;text-align:end;letter-spacing:0px;word-spacing:0px;text-anchor:end;clip-rule:nonzero;visibility:visible;isolation:auto;mix-blend-mode:normal;color-interpolation:sRGB;color-interpolation-filters:linearRGB;solid-color:#000000;solid-opacity:1;fill:#f0e442;fill-opacity:1;fill-rule:nonzero;stroke:none;stroke-width:1px;stroke-linecap:butt;stroke-linejoin:miter;stroke-miterlimit:4;stroke-dasharray:none;stroke-dashoffset:0;stroke-opacity:1;color-rendering:auto;image-rendering:auto;shape-rendering:auto;text-rendering:auto"
       id="path7213" />
    <path
       d="m 3079.8164,996.28892 q 2.8355,0 4.7027,-0.48411 1.9364,-0.4841 3.043,-1.7981 1.1757,-1.38316 1.5906,-3.73452 0.4149,-2.35137 0.4149,-6.01674 l 24.2053,0 0,37.69105 -98.5499,0 0,-25.65758 q 6.0859,0 8.7139,-1.59063 2.628,-1.65979 2.628,-6.15505 l 0,-34.99386 q 0,-4.56442 -2.628,-6.15505 -2.628,-1.65979 -8.7139,-1.65979 l 0,-25.65755 98.5499,0 0,37.69101 -24.2053,0 q 0,-3.66536 -0.4149,-6.01673 -0.4149,-2.35136 -1.5906,-3.66536 -1.1066,-1.314 -3.043,-1.79811 -1.8672,-0.55326 -4.7027,-0.55326 l -12.4484,0 0,18.39599 22.0613,0 0,12.24093 -22.0613,0 0,19.91746 12.4484,0 z"
       style="color:#000000;font-style:normal;font-variant:normal;font-weight:normal;font-stretch:normal;font-size:medium;line-height:125%;font-family:Ultra;-inkscape-font-specification:Ultra;text-align:end;letter-spacing:0px;word-spacing:0px;text-anchor:end;clip-rule:nonzero;visibility:visible;isolation:auto;mix-blend-mode:normal;color-interpolation:sRGB;color-interpolation-filters:linearRGB;solid-color:#000000;solid-opacity:1;fill:#f0e442;fill-opacity:1;fill-rule:nonzero;stroke:none;stroke-width:1px;stroke-linecap:butt;stroke-linejoin:miter;stroke-miterlimit:4;stroke-dasharray:none;stroke-dashoffset:0;stroke-opacity:1;color-rendering:auto;image-rendering:auto;shape-rendering:auto;text-rendering:auto"
       id="path7215" />
  </g>
  <g
     transform="translate(-611.9853,0)"
     id="g5968">
    <path
       d="m 2155.0378,1094.3547 q 4.6336,0 8.6448,0.7608 4.0803,0.7607 7.3999,2.0055 3.3195,1.1757 5.7401,2.5589 2.4205,1.314 3.942,2.4205 l 0,-4.9794 22.822,0 0,37.6911 -24.2052,0 q 0,-4.6336 -1.1757,-7.7457 -1.1065,-3.1121 -3.0429,-5.0485 -1.8673,-1.9365 -4.4261,-2.7664 -2.5589,-0.8299 -5.5327,-0.8299 -4.0803,0 -6.9849,1.5907 -2.9046,1.5214 -4.7719,4.9793 -1.7981,3.4579 -2.7663,9.198 -0.8991,5.7401 -0.8991,13.9699 0,8.3681 0.9683,14.0391 1.0373,5.6017 3.0429,9.1288 2.0747,3.4579 5.256,5.0485 3.1813,1.5215 7.6074,1.5215 2.9737,0 5.7401,-1.1065 2.7663,-1.1757 4.841,-3.5271 2.1439,-2.3514 3.3196,-5.8784 1.2448,-3.5271 1.2448,-8.5064 l 24.067,0 q 0,8.783 -2.7664,16.5979 -2.7663,7.8148 -8.6447,13.6932 -5.8784,5.8784 -14.9381,9.3363 -9.0597,3.4579 -21.5081,3.4579 -11.2035,0 -21.2314,-3.0429 -9.9588,-3.043 -17.4278,-9.5438 -7.3999,-6.5009 -11.7568,-16.6671 -4.2878,-10.2353 -4.2878,-24.551 0,-14.3157 4.3569,-24.4819 4.4261,-10.2353 11.6185,-16.7362 7.2616,-6.5008 16.5288,-9.5437 9.2671,-3.043 19.2258,-3.043 z"
       style="color:#000000;font-style:normal;font-variant:normal;font-weight:normal;font-stretch:normal;font-size:medium;line-height:125%;font-family:Ultra;-inkscape-font-specification:Ultra;text-align:end;letter-spacing:0px;word-spacing:0px;text-anchor:end;clip-rule:nonzero;visibility:visible;isolation:auto;mix-blend-mode:normal;color-interpolation:sRGB;color-interpolation-filters:linearRGB;solid-color:#000000;solid-opacity:1;fill:#f0e442;fill-opacity:1;fill-rule:nonzero;stroke:none;stroke-width:1px;stroke-linecap:butt;stroke-linejoin:miter;stroke-miterlimit:4;stroke-dasharray:none;stroke-dashoffset:0;stroke-opacity:1;color-rendering:auto;image-rendering:auto;shape-rendering:auto;text-rendering:auto"
       id="path7217" />
    <path
       d="m 2215.0668,1148.1595 q 0,-13.3474 4.357,-23.3753 4.4261,-10.0971 12.4484,-16.8745 8.0223,-6.7775 19.0184,-10.1662 11.0653,-3.3888 24.4127,-3.3888 13.2783,0 24.3436,3.3888 11.0652,3.3887 19.0184,10.1662 8.0223,6.7774 12.3792,16.8745 4.4261,10.0279 4.4261,23.3753 0,13.2783 -4.4261,23.3754 -4.3569,10.0278 -12.3792,16.8745 -7.9532,6.7774 -19.0184,10.1662 -11.0653,3.3887 -24.3436,3.3887 -13.3474,0 -24.4127,-3.3887 -10.9961,-3.3888 -19.0184,-10.1662 -8.0223,-6.8467 -12.4484,-16.8745 -4.357,-10.0971 -4.357,-23.3754 z m 46.4741,0 q 0,8.3681 0.6224,14.0391 0.6224,5.6017 2.1439,9.1288 1.5906,3.4579 4.2186,5.0485 2.628,1.5215 6.7775,1.5215 3.942,0 6.6392,-1.5215 2.6971,-1.5906 4.2186,-5.0485 1.5906,-3.5271 2.213,-9.1288 0.6225,-5.671 0.6225,-14.0391 0,-8.2298 -0.6225,-13.9699 -0.6224,-5.7401 -2.213,-9.198 -1.5215,-3.4579 -4.2186,-4.9793 -2.6972,-1.5907 -6.6392,-1.5907 -4.1495,0 -6.7775,1.5907 -2.628,1.5214 -4.2186,4.9793 -1.5215,3.4579 -2.1439,9.198 -0.6224,5.7401 -0.6224,13.9699 z"
       style="color:#000000;font-style:normal;font-variant:normal;font-weight:normal;font-stretch:normal;font-size:medium;line-height:125%;font-family:Ultra;-inkscape-font-specification:Ultra;text-align:end;letter-spacing:0px;word-spacing:0px;text-anchor:end;clip-rule:nonzero;visibility:visible;isolation:auto;mix-blend-mode:normal;color-interpolation:sRGB;color-interpolation-filters:linearRGB;solid-color:#000000;solid-opacity:1;fill:#f0e442;fill-opacity:1;fill-rule:nonzero;stroke:none;stroke-width:1px;stroke-linecap:butt;stroke-linejoin:miter;stroke-miterlimit:4;stroke-dasharray:none;stroke-dashoffset:0;stroke-opacity:1;color-rendering:auto;image-rendering:auto;shape-rendering:auto;text-rendering:auto"
       id="path7219" />
    <path
       d="m 2405.32,1122.7786 q -6.0858,0 -8.7138,1.6598 -2.5589,1.5906 -2.5589,6.155 l 0,42.7396 13.8316,0 q 2.8355,0 4.7719,-0.5533 1.9364,-0.5533 3.0429,-2.2822 1.1065,-1.7981 1.5215,-4.9794 0.4841,-3.1812 0.4841,-8.4372 l 24.2052,0 0,41.9096 -100.0022,0 0,-25.6575 q 6.0859,0 8.7139,-1.5907 2.628,-1.6598 2.628,-6.155 l 0,-34.9939 q 0,-4.5644 -2.628,-6.155 -2.628,-1.6598 -8.7139,-1.6598 l 0,-25.6576 63.4177,0 0,25.6576 z"
       style="color:#000000;font-style:normal;font-variant:normal;font-weight:normal;font-stretch:normal;font-size:medium;line-height:125%;font-family:Ultra;-inkscape-font-specification:Ultra;text-align:end;letter-spacing:0px;word-spacing:0px;text-anchor:end;clip-rule:nonzero;visibility:visible;isolation:auto;mix-blend-mode:normal;color-interpolation:sRGB;color-interpolation-filters:linearRGB;solid-color:#000000;solid-opacity:1;fill:#f0e442;fill-opacity:1;fill-rule:nonzero;stroke:none;stroke-width:1px;stroke-linecap:butt;stroke-linejoin:miter;stroke-miterlimit:4;stroke-dasharray:none;stroke-dashoffset:0;stroke-opacity:1;color-rendering:auto;image-rendering:auto;shape-rendering:auto;text-rendering:auto"
       id="path7221" />
    <path
       d="m 2510.9932,1122.7786 q -6.0859,0 -8.7139,1.6598 -2.5588,1.5906 -2.5588,6.155 l 0,42.7396 13.8315,0 q 2.8355,0 4.7719,-0.5533 1.9364,-0.5533 3.043,-2.2822 1.1065,-1.7981 1.5214,-4.9794 0.4842,-3.1812 0.4842,-8.4372 l 24.2052,0 0,41.9096 -100.0022,0 0,-25.6575 q 6.0859,0 8.7139,-1.5907 2.628,-1.6598 2.628,-6.155 l 0,-34.9939 q 0,-4.5644 -2.628,-6.155 -2.628,-1.6598 -8.7139,-1.6598 l 0,-25.6576 63.4177,0 0,25.6576 z"
       style="color:#000000;font-style:normal;font-variant:normal;font-weight:normal;font-stretch:normal;font-size:medium;line-height:125%;font-family:Ultra;-inkscape-font-specification:Ultra;text-align:end;letter-spacing:0px;word-spacing:0px;text-anchor:end;clip-rule:nonzero;visibility:visible;isolation:auto;mix-blend-mode:normal;color-interpolation:sRGB;color-interpolation-filters:linearRGB;solid-color:#000000;solid-opacity:1;fill:#f0e442;fill-opacity:1;fill-rule:nonzero;stroke:none;stroke-width:1px;stroke-linecap:butt;stroke-linejoin:miter;stroke-miterlimit:4;stroke-dasharray:none;stroke-dashoffset:0;stroke-opacity:1;color-rendering:auto;image-rendering:auto;shape-rendering:auto;text-rendering:auto"
       id="path7223" />
    <path
       d="m 2617.842,1173.333 q 2.8355,0 4.7028,-0.4841 1.9364,-0.4841 3.0429,-1.7981 1.1757,-1.3832 1.5906,-3.7346 0.415,-2.3513 0.415,-6.0167 l 24.2052,0 0,37.691 -98.5499,0 0,-25.6575 q 6.0859,0 8.7139,-1.5907 2.628,-1.6598 2.628,-6.155 l 0,-34.9939 q 0,-4.5644 -2.628,-6.155 -2.628,-1.6598 -8.7139,-1.6598 l 0,-25.6576 98.5499,0 0,37.6911 -24.2052,0 q 0,-3.6654 -0.415,-6.0168 -0.4149,-2.3513 -1.5906,-3.6653 -1.1065,-1.314 -3.0429,-1.7981 -1.8673,-0.5533 -4.7028,-0.5533 l -12.4484,0 0,18.396 22.0614,0 0,12.2409 -22.0614,0 0,19.9175 12.4484,0 z"
       style="color:#000000;font-style:normal;font-variant:normal;font-weight:normal;font-stretch:normal;font-size:medium;line-height:125%;font-family:Ultra;-inkscape-font-specification:Ultra;text-align:end;letter-spacing:0px;word-spacing:0px;text-anchor:end;clip-rule:nonzero;visibility:visible;isolation:auto;mix-blend-mode:normal;color-interpolation:sRGB;color-interpolation-filters:linearRGB;solid-color:#000000;solid-opacity:1;fill:#f0e442;fill-opacity:1;fill-rule:nonzero;stroke:none;stroke-width:1px;stroke-linecap:butt;stroke-linejoin:miter;stroke-miterlimit:4;stroke-dasharray:none;stroke-dashoffset:0;stroke-opacity:1;color-rendering:auto;image-rendering:auto;shape-rendering:auto;text-rendering:auto"
       id="path7225" />
    <path
       d="m 2709.9603,1094.3547 q 4.6335,0 8.6447,0.7608 4.0803,0.7607 7.3999,2.0055 3.3196,1.1757 5.7401,2.5589 2.4205,1.314 3.942,2.4205 l 0,-4.9794 22.8221,0 0,37.6911 -24.2053,0 q 0,-4.6336 -1.1757,-7.7457 -1.1065,-3.1121 -3.0429,-5.0485 -1.8673,-1.9365 -4.4261,-2.7664 -2.5588,-0.8299 -5.5326,-0.8299 -4.0803,0 -6.985,1.5907 -2.9046,1.5214 -4.7719,4.9793 -1.7981,3.4579 -2.7663,9.198 -0.899,5.7401 -0.899,13.9699 0,8.3681 0.9682,14.0391 1.0374,5.6017 3.0429,9.1288 2.0748,3.4579 5.256,5.0485 3.1813,1.5215 7.6074,1.5215 2.9738,0 5.7401,-1.1065 2.7663,-1.1757 4.841,-3.5271 2.1439,-2.3514 3.3196,-5.8784 1.2449,-3.5271 1.2449,-8.5064 l 24.0669,0 q 0,8.783 -2.7663,16.5979 -2.7664,7.8148 -8.6448,13.6932 -5.8784,5.8784 -14.9381,9.3363 -9.0596,3.4579 -21.508,3.4579 -11.2036,0 -21.2315,-3.0429 -9.9587,-3.043 -17.4278,-9.5438 -7.3999,-6.5009 -11.7568,-16.6671 -4.2878,-10.2353 -4.2878,-24.551 0,-14.3157 4.357,-24.4819 4.4261,-10.2353 11.6185,-16.7362 7.2615,-6.5008 16.5287,-9.5437 9.2671,-3.043 19.2259,-3.043 z"
       style="color:#000000;font-style:normal;font-variant:normal;font-weight:normal;font-stretch:normal;font-size:medium;line-height:125%;font-family:Ultra;-inkscape-font-specification:Ultra;text-align:end;letter-spacing:0px;word-spacing:0px;text-anchor:end;clip-rule:nonzero;visibility:visible;isolation:auto;mix-blend-mode:normal;color-interpolation:sRGB;color-interpolation-filters:linearRGB;solid-color:#000000;solid-opacity:1;fill:#f0e442;fill-opacity:1;fill-rule:nonzero;stroke:none;stroke-width:1px;stroke-linecap:butt;stroke-linejoin:miter;stroke-miterlimit:4;stroke-dasharray:none;stroke-dashoffset:0;stroke-opacity:1;color-rendering:auto;image-rendering:auto;shape-rendering:auto;text-rendering:auto"
       id="path7227" />
    <path
       d="m 2879.4662,1097.121 0,40.5265 -22.753,0 q 0,-4.6336 -0.2766,-8.0223 -0.2075,-3.4579 -1.0374,-5.5326 -0.8299,-2.1439 -2.5588,-3.1121 -1.6598,-1.0374 -4.4953,-1.0374 l -4.2878,0 0,45.6442 q 0,4.4952 2.628,6.155 2.628,1.5907 8.7139,1.5907 l 0,25.6575 -63.4177,0 0,-25.6575 q 6.0859,0 8.6447,-1.5907 2.628,-1.6598 2.628,-6.155 l 0,-45.6442 -4.2186,0 q -2.8355,0 -4.5644,1.0374 -1.6598,0.9682 -2.5589,3.1121 -0.8299,2.0747 -1.0373,5.5326 -0.2075,3.3887 -0.2075,8.0223 l -22.8221,0 0,-40.5265 111.6208,0 z"
       style="color:#000000;font-style:normal;font-variant:normal;font-weight:normal;font-stretch:normal;font-size:medium;line-height:125%;font-family:Ultra;-inkscape-font-specification:Ultra;text-align:end;letter-spacing:0px;word-spacing:0px;text-anchor:end;clip-rule:nonzero;visibility:visible;isolation:auto;mix-blend-mode:normal;color-interpolation:sRGB;color-interpolation-filters:linearRGB;solid-color:#000000;solid-opacity:1;fill:#f0e442;fill-opacity:1;fill-rule:nonzero;stroke:none;stroke-width:1px;stroke-linecap:butt;stroke-linejoin:miter;stroke-miterlimit:4;stroke-dasharray:none;stroke-dashoffset:0;stroke-opacity:1;color-rendering:auto;image-rendering:auto;shape-rendering:auto;text-rendering:auto"
       id="path7229" />
    <path
       d="m 2948.4165,1173.333 q 2.8354,0 4.7027,-0.4841 1.9364,-0.4841 3.0429,-1.7981 1.1757,-1.3832 1.5907,-3.7346 0.4149,-2.3513 0.4149,-6.0167 l 24.2053,0 0,37.691 -98.5499,0 0,-25.6575 q 6.0858,0 8.7138,-1.5907 2.628,-1.6598 2.628,-6.155 l 0,-34.9939 q 0,-4.5644 -2.628,-6.155 -2.628,-1.6598 -8.7138,-1.6598 l 0,-25.6576 98.5499,0 0,37.6911 -24.2053,0 q 0,-3.6654 -0.4149,-6.0168 -0.415,-2.3513 -1.5907,-3.6653 -1.1065,-1.314 -3.0429,-1.7981 -1.8673,-0.5533 -4.7027,-0.5533 l -12.4484,0 0,18.396 22.0613,0 0,12.2409 -22.0613,0 0,19.9175 12.4484,0 z"
       style="color:#000000;font-style:normal;font-variant:normal;font-weight:normal;font-stretch:normal;font-size:medium;line-height:125%;font-family:Ultra;-inkscape-font-specification:Ultra;text-align:end;letter-spacing:0px;word-spacing:0px;text-anchor:end;clip-rule:nonzero;visibility:visible;isolation:auto;mix-blend-mode:normal;color-interpolation:sRGB;color-interpolation-filters:linearRGB;solid-color:#000000;solid-opacity:1;fill:#f0e442;fill-opacity:1;fill-rule:nonzero;stroke:none;stroke-width:1px;stroke-linecap:butt;stroke-linejoin:miter;stroke-miterlimit:4;stroke-dasharray:none;stroke-dashoffset:0;stroke-opacity:1;color-rendering:auto;image-rendering:auto;shape-rendering:auto;text-rendering:auto"
       id="path7231" />
    <path
       d="m 3046.7589,1173.333 q 3.8037,0 7.3999,-0.8299 3.6654,-0.8299 6.3625,-3.4579 2.7664,-2.628 4.4953,-7.5382 1.729,-4.9794 1.729,-13.3475 0,-8.2298 -1.6598,-13.2091 -1.6598,-5.0486 -4.357,-7.7457 -2.628,-2.6972 -6.3625,-3.5271 -3.6654,-0.899 -7.6074,-0.899 l -6.5008,0 0,50.5544 6.5008,0 z m -58.6458,25.6575 0,-25.6575 q 6.0859,0 8.7139,-1.5907 2.628,-1.6598 2.628,-6.155 l 0,-34.9939 q 0,-4.5644 -2.628,-6.155 -2.628,-1.6598 -8.7139,-1.6598 l 0,-25.6576 73.3765,0 q 9.8895,0 19.1567,2.628 9.2671,2.628 16.4595,8.5756 7.2616,5.9476 11.6186,15.768 4.4261,9.7512 4.4261,24.0669 0,14.3157 -4.357,24.0669 -4.2878,9.7513 -11.7568,15.6989 -7.3999,5.9475 -17.3586,8.5755 -9.9588,2.628 -21.1623,2.628 l -70.4027,-0.1383 z"
       style="color:#000000;font-style:normal;font-variant:normal;font-weight:normal;font-stretch:normal;font-size:medium;line-height:125%;font-family:Ultra;-inkscape-font-specification:Ultra;text-align:end;letter-spacing:0px;word-spacing:0px;text-anchor:end;clip-rule:nonzero;visibility:visible;isolation:auto;mix-blend-mode:normal;color-interpolation:sRGB;color-interpolation-filters:linearRGB;solid-color:#000000;solid-opacity:1;fill:#f0e442;fill-opacity:1;fill-rule:nonzero;stroke:none;stroke-width:1px;stroke-linecap:butt;stroke-linejoin:miter;stroke-miterlimit:4;stroke-dasharray:none;stroke-dashoffset:0;stroke-opacity:1;color-rendering:auto;image-rendering:auto;shape-rendering:auto;text-rendering:auto"
       id="path7233" />
  </g>
  <g
     transform="translate(-587.5034,0)"
     id="g5988">
    <path
       d="m 2143.4193,1350.377 q 2.8355,0 4.7028,-0.4841 1.9364,-0.4841 3.0429,-1.7981 1.1757,-1.3832 1.5906,-3.7345 0.415,-2.3514 0.415,-6.0167 l 24.2052,0 0,37.691 -98.5499,0 0,-25.6576 q 6.0859,0 8.7139,-1.5906 2.628,-1.6598 2.628,-6.1551 l 0,-34.9938 q 0,-4.5644 -2.628,-6.1551 -2.628,-1.6598 -8.7139,-1.6598 l 0,-25.6575 98.5499,0 0,37.691 -24.2052,0 q 0,-3.6654 -0.415,-6.0167 -0.4149,-2.3514 -1.5906,-3.6654 -1.1065,-1.314 -3.0429,-1.7981 -1.8673,-0.5533 -4.7028,-0.5533 l -12.4484,0 0,18.396 22.0614,0 0,12.241 -22.0614,0 0,19.9174 12.4484,0 z"
       style="color:#000000;font-style:normal;font-variant:normal;font-weight:normal;font-stretch:normal;font-size:medium;line-height:125%;font-family:Ultra;-inkscape-font-specification:Ultra;text-align:end;letter-spacing:0px;word-spacing:0px;text-anchor:end;clip-rule:nonzero;visibility:visible;isolation:auto;mix-blend-mode:normal;color-interpolation:sRGB;color-interpolation-filters:linearRGB;solid-color:#000000;solid-opacity:1;fill:#f0e442;fill-opacity:1;fill-rule:nonzero;stroke:none;stroke-width:1px;stroke-linecap:butt;stroke-linejoin:miter;stroke-miterlimit:4;stroke-dasharray:none;stroke-dashoffset:0;stroke-opacity:1;color-rendering:auto;image-rendering:auto;shape-rendering:auto;text-rendering:auto"
       id="path7235" />
    <path
       d="m 2191.6223,1307.6375 q -0.8299,-2.1439 -1.5906,-3.5271 -0.6916,-1.4523 -1.9364,-2.4205 -1.1757,-1.0374 -3.043,-1.4523 -1.7981,-0.415 -4.7718,-0.415 l 0,-25.6575 60.0289,0 0,25.6575 q -10.3045,0 -7.8839,6.985 l 10.7194,33.5415 0.6224,0 10.9961,-33.5415 q 2.4206,-6.985 -7.884,-6.985 l 0,-25.6575 40.1807,0 0,25.6575 q -2.9737,0 -4.841,0.415 -1.7981,0.4149 -3.0429,1.4523 -1.1757,0.9682 -1.8673,2.4205 -0.6916,1.3832 -1.5906,3.5271 l -26.7641,68.3971 -30.7061,0 -26.6258,-68.3971 z"
       style="color:#000000;font-style:normal;font-variant:normal;font-weight:normal;font-stretch:normal;font-size:medium;line-height:125%;font-family:Ultra;-inkscape-font-specification:Ultra;text-align:end;letter-spacing:0px;word-spacing:0px;text-anchor:end;clip-rule:nonzero;visibility:visible;isolation:auto;mix-blend-mode:normal;color-interpolation:sRGB;color-interpolation-filters:linearRGB;solid-color:#000000;solid-opacity:1;fill:#f0e442;fill-opacity:1;fill-rule:nonzero;stroke:none;stroke-width:1px;stroke-linecap:butt;stroke-linejoin:miter;stroke-miterlimit:4;stroke-dasharray:none;stroke-dashoffset:0;stroke-opacity:1;color-rendering:auto;image-rendering:auto;shape-rendering:auto;text-rendering:auto"
       id="path7237" />
    <path
       d="m 2354.489,1350.377 q 2.8355,0 4.7028,-0.4841 1.9364,-0.4841 3.0429,-1.7981 1.1757,-1.3832 1.5906,-3.7345 0.415,-2.3514 0.415,-6.0167 l 24.2052,0 0,37.691 -98.5499,0 0,-25.6576 q 6.0859,0 8.7139,-1.5906 2.628,-1.6598 2.628,-6.1551 l 0,-34.9938 q 0,-4.5644 -2.628,-6.1551 -2.628,-1.6598 -8.7139,-1.6598 l 0,-25.6575 98.5499,0 0,37.691 -24.2052,0 q 0,-3.6654 -0.415,-6.0167 -0.4149,-2.3514 -1.5906,-3.6654 -1.1065,-1.314 -3.0429,-1.7981 -1.8673,-0.5533 -4.7028,-0.5533 l -12.4484,0 0,18.396 22.0614,0 0,12.241 -22.0614,0 0,19.9174 12.4484,0 z"
       style="color:#000000;font-style:normal;font-variant:normal;font-weight:normal;font-stretch:normal;font-size:medium;line-height:125%;font-family:Ultra;-inkscape-font-specification:Ultra;text-align:end;letter-spacing:0px;word-spacing:0px;text-anchor:end;clip-rule:nonzero;visibility:visible;isolation:auto;mix-blend-mode:normal;color-interpolation:sRGB;color-interpolation-filters:linearRGB;solid-color:#000000;solid-opacity:1;fill:#f0e442;fill-opacity:1;fill-rule:nonzero;stroke:none;stroke-width:1px;stroke-linecap:butt;stroke-linejoin:miter;stroke-miterlimit:4;stroke-dasharray:none;stroke-dashoffset:0;stroke-opacity:1;color-rendering:auto;image-rendering:auto;shape-rendering:auto;text-rendering:auto"
       id="path7239" />
    <path
       d="m 2394.1856,1376.0346 0,-25.6576 q 6.0859,0 8.7139,-1.5906 2.628,-1.6598 2.628,-6.1551 l 0,-34.9938 q 0,-4.5644 -2.628,-6.1551 -2.628,-1.6598 -8.7139,-1.6598 l 0,-25.6575 73.2382,0 q 10.1662,0 17.082,2.0056 6.9849,2.0055 11.1344,5.7401 4.2186,3.7345 5.9475,8.9213 1.7981,5.1869 1.7981,11.5494 0,11.6185 -5.6017,18.6034 -5.6018,6.9158 -17.9119,7.4691 l 0,0.8299 q 5.9476,0.4149 9.8204,2.213 3.942,1.7981 6.155,4.7028 2.2822,2.8354 3.1813,6.9157 0.9682,4.0112 0.9682,9.1289 l 0,3.6653 q 0,1.729 0.8991,3.043 0.899,1.2448 2.7663,1.2448 2.0055,0 2.8354,-1.2448 0.8299,-1.314 0.8299,-3.043 l 0,-17.566 7.9532,0 0,17.566 q 0,4.9794 -1.5215,9.198 -1.4523,4.1495 -4.841,7.2616 -3.3888,3.1121 -8.9214,4.7719 -5.5326,1.7289 -13.6241,1.7289 -8.0915,0 -13.2783,-1.7981 -5.1177,-1.7289 -8.0223,-4.841 -2.9046,-3.1121 -4.0803,-7.1924 -1.1065,-4.1495 -1.1065,-8.7139 l 0,-5.3252 q 0,-5.5326 -0.6225,-8.9213 -0.6224,-3.4579 -2.0747,-5.3252 -1.3831,-1.9364 -3.6654,-2.5588 -2.2822,-0.6224 -5.5326,-0.6224 l -1.6598,0 0,9.8895 q 0,3.6654 2.0056,5.3252 2.0747,1.5906 7.3307,1.5906 l 0,25.6576 -61.4813,0 z m 52.145,-54.7039 6.0859,0 q 5.8093,0 7.9532,-2.7663 2.213,-2.8355 2.213,-7.8148 0,-5.8093 -2.213,-8.3681 -2.1439,-2.5589 -7.9532,-2.5589 l -6.0859,0 0,21.5081 z"
       style="color:#000000;font-style:normal;font-variant:normal;font-weight:normal;font-stretch:normal;font-size:medium;line-height:125%;font-family:Ultra;-inkscape-font-specification:Ultra;text-align:end;letter-spacing:0px;word-spacing:0px;text-anchor:end;clip-rule:nonzero;visibility:visible;isolation:auto;mix-blend-mode:normal;color-interpolation:sRGB;color-interpolation-filters:linearRGB;solid-color:#000000;solid-opacity:1;fill:#f0e442;fill-opacity:1;fill-rule:nonzero;stroke:none;stroke-width:1px;stroke-linecap:butt;stroke-linejoin:miter;stroke-miterlimit:4;stroke-dasharray:none;stroke-dashoffset:0;stroke-opacity:1;color-rendering:auto;image-rendering:auto;shape-rendering:auto;text-rendering:auto"
       id="path7241" />
    <path
       d="m 2526.692,1307.6375 q -1.5906,-1.5907 -2.6971,-2.9738 -1.1066,-1.4523 -2.4205,-2.4897 -1.2449,-1.0374 -3.043,-1.6598 -1.7981,-0.6916 -4.6336,-0.6916 l 0,-25.6575 60.7898,0 0,25.6575 q -6.0859,0 -8.0915,2.0056 -1.9364,2.0056 0.1383,4.9794 l 9.5438,13.2783 0.5533,0 9.4746,-13.2783 q 2.4205,-2.6972 0.4841,-4.8411 -1.8673,-2.1439 -8.4373,-2.1439 l 0,-25.6575 41.633,0 0,25.6575 q -2.0747,0 -3.6653,0.415 -1.5215,0.4149 -2.9046,1.3831 -1.314,0.8991 -2.7664,2.4206 -1.3831,1.4523 -3.3887,3.5962 l -19.8483,24.3435 0,10.6503 q 0,4.4953 2.628,6.1551 2.628,1.5906 8.7139,1.5906 l 0,25.6576 -63.4177,0 0,-25.6576 q 6.0858,0 8.7138,-1.5906 2.628,-1.6598 2.628,-6.1551 l 0,-10.6503 -19.9866,-24.3435 z"
       style="color:#000000;font-style:normal;font-variant:normal;font-weight:normal;font-stretch:normal;font-size:medium;line-height:125%;font-family:Ultra;-inkscape-font-specification:Ultra;text-align:end;letter-spacing:0px;word-spacing:0px;text-anchor:end;clip-rule:nonzero;visibility:visible;isolation:auto;mix-blend-mode:normal;color-interpolation:sRGB;color-interpolation-filters:linearRGB;solid-color:#000000;solid-opacity:1;fill:#f0e442;fill-opacity:1;fill-rule:nonzero;stroke:none;stroke-width:1px;stroke-linecap:butt;stroke-linejoin:miter;stroke-miterlimit:4;stroke-dasharray:none;stroke-dashoffset:0;stroke-opacity:1;color-rendering:auto;image-rendering:auto;shape-rendering:auto;text-rendering:auto"
       id="path7243" />
    <path
       d="m 2761.2754,1311.1645 -22.8221,0 q -0.5532,-3.527 -2.4896,-6.57 -1.8673,-3.0429 -4.6336,-5.256 -2.7663,-2.213 -6.1551,-3.3887 -3.3887,-1.2448 -6.9849,-1.2448 -4.357,0 -7.0541,1.6597 -2.6972,1.6598 -2.6972,4.6336 0,2.8355 2.4206,4.6336 2.4205,1.7289 6.3625,3.0429 3.942,1.2449 8.9905,2.4206 5.0485,1.1756 10.2354,2.9046 5.256,1.7289 10.3045,4.2186 5.0485,2.4205 8.9905,6.2934 3.942,3.8037 6.3625,9.3363 2.4205,5.5326 2.4205,13.2783 0,8.2298 -3.527,14.039 -3.5271,5.8093 -9.4746,9.5438 -5.9476,3.7345 -13.6933,5.4635 -7.7457,1.7289 -16.0446,1.7289 -8.0915,0 -15.4914,-1.8672 -7.3307,-1.8673 -15.0072,-6.0859 l 0,6.0859 -22.8221,0 0,-37.691 22.8221,0 q 2.0056,8.0914 8.0223,12.7941 6.0167,4.6336 13.5549,4.6336 5.0486,0 7.5382,-1.8672 2.4897,-1.9365 2.4897,-4.357 0,-3.8037 -4.1494,-5.8784 -4.0804,-2.0747 -10.1662,-3.6654 -6.0859,-1.6597 -13.3475,-3.6653 -7.1924,-2.0748 -13.2783,-5.8784 -6.0859,-3.8729 -10.2354,-10.1662 -4.0803,-6.2934 -4.0803,-16.4596 0,-7.5382 3.2504,-13.3475 3.2505,-5.8092 8.7139,-9.7512 5.4635,-4.0112 12.5867,-6.0168 7.1925,-2.0747 15.1456,-2.0747 10.9961,0 18.8801,2.5589 7.884,2.5588 12.2409,5.3943 l 0,-6.4317 22.8221,0 0,36.9994 z"
       style="color:#000000;font-style:normal;font-variant:normal;font-weight:normal;font-stretch:normal;font-size:medium;line-height:125%;font-family:Ultra;-inkscape-font-specification:Ultra;text-align:end;letter-spacing:0px;word-spacing:0px;text-anchor:end;clip-rule:nonzero;visibility:visible;isolation:auto;mix-blend-mode:normal;color-interpolation:sRGB;color-interpolation-filters:linearRGB;solid-color:#000000;solid-opacity:1;fill:#f0e442;fill-opacity:1;fill-rule:nonzero;stroke:none;stroke-width:1px;stroke-linecap:butt;stroke-linejoin:miter;stroke-miterlimit:4;stroke-dasharray:none;stroke-dashoffset:0;stroke-opacity:1;color-rendering:auto;image-rendering:auto;shape-rendering:auto;text-rendering:auto"
       id="path7245" />
    <path
       d="m 2881.1259,1274.1651 0,40.5265 -22.7529,0 q 0,-4.6336 -0.2766,-8.0223 -0.2075,-3.4579 -1.0374,-5.5327 -0.8299,-2.1439 -2.5588,-3.1121 -1.6598,-1.0373 -4.4953,-1.0373 l -4.2878,0 0,45.6441 q 0,4.4953 2.628,6.1551 2.628,1.5906 8.7139,1.5906 l 0,25.6576 -63.4177,0 0,-25.6576 q 6.0859,0 8.6447,-1.5906 2.628,-1.6598 2.628,-6.1551 l 0,-45.6441 -4.2186,0 q -2.8355,0 -4.5644,1.0373 -1.6598,0.9682 -2.5589,3.1121 -0.8299,2.0748 -1.0373,5.5327 -0.2075,3.3887 -0.2075,8.0223 l -22.8221,0 0,-40.5265 111.6207,0 z"
       style="color:#000000;font-style:normal;font-variant:normal;font-weight:normal;font-stretch:normal;font-size:medium;line-height:125%;font-family:Ultra;-inkscape-font-specification:Ultra;text-align:end;letter-spacing:0px;word-spacing:0px;text-anchor:end;clip-rule:nonzero;visibility:visible;isolation:auto;mix-blend-mode:normal;color-interpolation:sRGB;color-interpolation-filters:linearRGB;solid-color:#000000;solid-opacity:1;fill:#f0e442;fill-opacity:1;fill-rule:nonzero;stroke:none;stroke-width:1px;stroke-linecap:butt;stroke-linejoin:miter;stroke-miterlimit:4;stroke-dasharray:none;stroke-dashoffset:0;stroke-opacity:1;color-rendering:auto;image-rendering:auto;shape-rendering:auto;text-rendering:auto"
       id="path7247" />
    <path
       d="m 2936.7288,1340.4874 -21.8538,0 -0.9683,2.9738 q -1.1065,2.9738 0.1384,4.9794 1.2448,1.9364 5.256,1.9364 l 3.9419,0 0,25.6576 -43.0853,0 0,-25.6576 2.8355,0 q 4.9794,0 6.6391,-1.9364 1.729,-2.0056 3.3196,-5.8093 l 14.1774,-34.9938 q 1.5214,-4.0112 0.4841,-5.8784 -0.9682,-1.9365 -6.0168,-1.9365 l -1.4523,0 0,-25.6575 71.0943,0 0,25.6575 -1.3832,0 q -5.1177,0 -6.155,2.0056 -0.9682,2.0056 0.6224,5.8093 l 14.1774,34.9938 q 0.8298,1.9365 1.4523,3.3888 0.6915,1.3831 1.6598,2.4205 0.9682,0.9682 2.5588,1.4523 1.6598,0.4841 4.2186,0.4841 l 2.8355,0 0,25.6576 -62.8645,0 0,-25.6576 3.8037,0 q 3.942,0 5.256,-1.9364 1.3832,-2.0056 0.2766,-4.9794 l -0.9682,-2.9738 z m -18.3268,-10.7886 14.7306,0 -6.9158,-21.2314 -0.5532,0 -7.2616,21.2314 z"
       style="color:#000000;font-style:normal;font-variant:normal;font-weight:normal;font-stretch:normal;font-size:medium;line-height:125%;font-family:Ultra;-inkscape-font-specification:Ultra;text-align:end;letter-spacing:0px;word-spacing:0px;text-anchor:end;clip-rule:nonzero;visibility:visible;isolation:auto;mix-blend-mode:normal;color-interpolation:sRGB;color-interpolation-filters:linearRGB;solid-color:#000000;solid-opacity:1;fill:#f0e442;fill-opacity:1;fill-rule:nonzero;stroke:none;stroke-width:1px;stroke-linecap:butt;stroke-linejoin:miter;stroke-miterlimit:4;stroke-dasharray:none;stroke-dashoffset:0;stroke-opacity:1;color-rendering:auto;image-rendering:auto;shape-rendering:auto;text-rendering:auto"
       id="path7249" />
    <path
       d="m 2995.5821,1376.0346 0,-25.6576 q 6.0859,0 8.7139,-1.5906 2.628,-1.6598 2.628,-6.1551 l 0,-34.9938 q 0,-4.5644 -2.628,-6.1551 -2.628,-1.6598 -8.7139,-1.6598 l 0,-25.6575 73.2382,0 q 10.1662,0 17.082,2.0056 6.9849,2.0055 11.1344,5.7401 4.2186,3.7345 5.9476,8.9213 1.7981,5.1869 1.7981,11.5494 0,11.6185 -5.6018,18.6034 -5.6018,6.9158 -17.9119,7.4691 l 0,0.8299 q 5.9476,0.4149 9.8204,2.213 3.942,1.7981 6.1551,4.7028 2.2822,2.8354 3.1812,6.9157 0.9682,4.0112 0.9682,9.1289 l 0,3.6653 q 0,1.729 0.8991,3.043 0.899,1.2448 2.7663,1.2448 2.0056,0 2.8355,-1.2448 0.8299,-1.314 0.8299,-3.043 l 0,-17.566 7.9531,0 0,17.566 q 0,4.9794 -1.5215,9.198 -1.4523,4.1495 -4.841,7.2616 -3.3888,3.1121 -8.9214,4.7719 -5.5326,1.7289 -13.6241,1.7289 -8.0914,0 -13.2783,-1.7981 -5.1177,-1.7289 -8.0223,-4.841 -2.9046,-3.1121 -4.0803,-7.1924 -1.1065,-4.1495 -1.1065,-8.7139 l 0,-5.3252 q 0,-5.5326 -0.6224,-8.9213 -0.6225,-3.4579 -2.0748,-5.3252 -1.3831,-1.9364 -3.6653,-2.5588 -2.2822,-0.6224 -5.5327,-0.6224 l -1.6598,0 0,9.8895 q 0,3.6654 2.0056,5.3252 2.0748,1.5906 7.3308,1.5906 l 0,25.6576 -61.4814,0 z m 52.145,-54.7039 6.0859,0 q 5.8093,0 7.9532,-2.7663 2.213,-2.8355 2.213,-7.8148 0,-5.8093 -2.213,-8.3681 -2.1439,-2.5589 -7.9532,-2.5589 l -6.0859,0 0,21.5081 z"
       style="color:#000000;font-style:normal;font-variant:normal;font-weight:normal;font-stretch:normal;font-size:medium;line-height:125%;font-family:Ultra;-inkscape-font-specification:Ultra;text-align:end;letter-spacing:0px;word-spacing:0px;text-anchor:end;clip-rule:nonzero;visibility:visible;isolation:auto;mix-blend-mode:normal;color-interpolation:sRGB;color-interpolation-filters:linearRGB;solid-color:#000000;solid-opacity:1;fill:#f0e442;fill-opacity:1;fill-rule:nonzero;stroke:none;stroke-width:1px;stroke-linecap:butt;stroke-linejoin:miter;stroke-miterlimit:4;stroke-dasharray:none;stroke-dashoffset:0;stroke-opacity:1;color-rendering:auto;image-rendering:auto;shape-rendering:auto;text-rendering:auto"
       id="path7251" />
  </g>
  <g
     transform="translate(-565.0963,0)"
     id="g5957">
    <path
       d="m 2108.5638,1515.5259 0,4.1495 q 0,3.6653 1.7981,5.7401 1.8672,2.0056 6.7083,2.0056 l 7.0541,0 0,25.6575 -67.7055,0 0,-25.6575 q 6.0859,0 8.7139,-1.5907 2.628,-1.6598 2.628,-6.155 l 0,-34.9939 q 0,-4.5644 -2.628,-6.155 -2.628,-1.6598 -8.7139,-1.6598 l 0,-25.6576 74.6213,0 q 10.2353,0 17.1511,2.4206 6.9158,2.4205 11.0653,6.7774 4.2186,4.2878 5.9475,10.4429 1.7981,6.155 1.7981,13.5549 0,7.469 -1.7981,13.2091 -1.7289,5.7401 -5.9475,9.8204 -4.1495,4.0112 -11.0653,6.0859 -6.9158,2.0056 -17.1511,2.0056 l -22.4763,0 z m 0,-16.3904 7.469,0 q 5.8093,0 8.0223,-3.0429 2.2131,-3.043 2.2131,-8.0223 0,-4.7028 -2.2131,-7.9532 -2.213,-3.2504 -8.0223,-3.2504 l -7.469,0 0,22.2688 z"
       style="color:#000000;font-style:normal;font-variant:normal;font-weight:normal;font-stretch:normal;font-size:medium;line-height:125%;font-family:Ultra;-inkscape-font-specification:Ultra;text-align:end;letter-spacing:0px;word-spacing:0px;text-anchor:end;clip-rule:nonzero;visibility:visible;isolation:auto;mix-blend-mode:normal;color-interpolation:sRGB;color-interpolation-filters:linearRGB;solid-color:#000000;solid-opacity:1;fill:#f0e442;fill-opacity:1;fill-rule:nonzero;stroke:none;stroke-width:1px;stroke-linecap:butt;stroke-linejoin:miter;stroke-miterlimit:4;stroke-dasharray:none;stroke-dashoffset:0;stroke-opacity:1;color-rendering:auto;image-rendering:auto;shape-rendering:auto;text-rendering:auto"
       id="path7253" />
    <path
       d="m 2234.6385,1476.8667 q -6.0859,0 -8.7139,1.6598 -2.5588,1.5906 -2.5588,6.155 l 0,42.7396 13.8316,0 q 2.8354,0 4.7718,-0.5533 1.9365,-0.5533 3.043,-2.2822 1.1065,-1.7981 1.5215,-4.9794 0.4841,-3.1812 0.4841,-8.4372 l 24.2052,0 0,41.9096 -100.0022,0 0,-25.6575 q 6.0859,0 8.7139,-1.5907 2.628,-1.6598 2.628,-6.155 l 0,-34.9939 q 0,-4.5644 -2.628,-6.155 -2.628,-1.6598 -8.7139,-1.6598 l 0,-25.6576 63.4177,0 0,25.6576 z"
       style="color:#000000;font-style:normal;font-variant:normal;font-weight:normal;font-stretch:normal;font-size:medium;line-height:125%;font-family:Ultra;-inkscape-font-specification:Ultra;text-align:end;letter-spacing:0px;word-spacing:0px;text-anchor:end;clip-rule:nonzero;visibility:visible;isolation:auto;mix-blend-mode:normal;color-interpolation:sRGB;color-interpolation-filters:linearRGB;solid-color:#000000;solid-opacity:1;fill:#f0e442;fill-opacity:1;fill-rule:nonzero;stroke:none;stroke-width:1px;stroke-linecap:butt;stroke-linejoin:miter;stroke-miterlimit:4;stroke-dasharray:none;stroke-dashoffset:0;stroke-opacity:1;color-rendering:auto;image-rendering:auto;shape-rendering:auto;text-rendering:auto"
       id="path7255" />
    <path
       d="m 2332.0127,1517.5315 -21.8538,0 -0.9683,2.9738 q -1.1065,2.9738 0.1384,4.9793 1.2448,1.9365 5.256,1.9365 l 3.942,0 0,25.6575 -43.0854,0 0,-25.6575 2.8355,0 q 4.9794,0 6.6391,-1.9365 1.729,-2.0055 3.3196,-5.8092 l 14.1774,-34.9939 q 1.5214,-4.0111 0.4841,-5.8784 -0.9682,-1.9364 -6.0168,-1.9364 l -1.4523,0 0,-25.6576 71.0943,0 0,25.6576 -1.3832,0 q -5.1177,0 -6.155,2.0056 -0.9682,2.0055 0.6224,5.8092 l 14.1774,34.9939 q 0.8299,1.9364 1.4523,3.3887 0.6916,1.3832 1.6598,2.4205 0.9682,0.9683 2.5588,1.4524 1.6598,0.4841 4.2186,0.4841 l 2.8355,0 0,25.6575 -62.8645,0 0,-25.6575 3.8037,0 q 3.942,0 5.256,-1.9365 1.3832,-2.0055 0.2766,-4.9793 l -0.9682,-2.9738 z m -18.3268,-10.7886 14.7306,0 -6.9158,-21.2315 -0.5532,0 -7.2616,21.2315 z"
       style="color:#000000;font-style:normal;font-variant:normal;font-weight:normal;font-stretch:normal;font-size:medium;line-height:125%;font-family:Ultra;-inkscape-font-specification:Ultra;text-align:end;letter-spacing:0px;word-spacing:0px;text-anchor:end;clip-rule:nonzero;visibility:visible;isolation:auto;mix-blend-mode:normal;color-interpolation:sRGB;color-interpolation-filters:linearRGB;solid-color:#000000;solid-opacity:1;fill:#f0e442;fill-opacity:1;fill-rule:nonzero;stroke:none;stroke-width:1px;stroke-linecap:butt;stroke-linejoin:miter;stroke-miterlimit:4;stroke-dasharray:none;stroke-dashoffset:0;stroke-opacity:1;color-rendering:auto;image-rendering:auto;shape-rendering:auto;text-rendering:auto"
       id="path7257" />
    <path
       d="m 2402.2079,1484.6815 q -1.5906,-1.5906 -2.6971,-2.9738 -1.1066,-1.4523 -2.4206,-2.4896 -1.2448,-1.0374 -3.0429,-1.6598 -1.7981,-0.6916 -4.6336,-0.6916 l 0,-25.6576 60.7898,0 0,25.6576 q -6.0859,0 -8.0915,2.0056 -1.9364,2.0055 0.1383,4.9793 l 9.5438,13.2783 0.5533,0 9.4746,-13.2783 q 2.4205,-2.6971 0.4841,-4.841 -1.8673,-2.1439 -8.4373,-2.1439 l 0,-25.6576 41.633,0 0,25.6576 q -2.0747,0 -3.6653,0.4149 -1.5215,0.415 -2.9047,1.3832 -1.314,0.899 -2.7663,2.4205 -1.3831,1.4523 -3.3887,3.5962 l -19.8483,24.3436 0,10.6503 q 0,4.4952 2.628,6.155 2.628,1.5907 8.7139,1.5907 l 0,25.6575 -63.4177,0 0,-25.6575 q 6.0858,0 8.7138,-1.5907 2.628,-1.6598 2.628,-6.155 l 0,-10.6503 -19.9866,-24.3436 z"
       style="color:#000000;font-style:normal;font-variant:normal;font-weight:normal;font-stretch:normal;font-size:medium;line-height:125%;font-family:Ultra;-inkscape-font-specification:Ultra;text-align:end;letter-spacing:0px;word-spacing:0px;text-anchor:end;clip-rule:nonzero;visibility:visible;isolation:auto;mix-blend-mode:normal;color-interpolation:sRGB;color-interpolation-filters:linearRGB;solid-color:#000000;solid-opacity:1;fill:#f0e442;fill-opacity:1;fill-rule:nonzero;stroke:none;stroke-width:1px;stroke-linecap:butt;stroke-linejoin:miter;stroke-miterlimit:4;stroke-dasharray:none;stroke-dashoffset:0;stroke-opacity:1;color-rendering:auto;image-rendering:auto;shape-rendering:auto;text-rendering:auto"
       id="path7259" />
    <path
       d="m 2499.8588,1553.0786 0,-25.6575 q 6.0859,0 8.7139,-1.5907 2.628,-1.6598 2.628,-6.155 l 0,-34.9939 q 0,-4.5644 -2.628,-6.155 -2.628,-1.6598 -8.7139,-1.6598 l 0,-25.6576 63.4177,0 0,25.6576 q -6.0859,0 -8.7139,1.6598 -2.5588,1.5906 -2.5588,6.155 l 0,34.9939 q 0,4.4952 2.5588,6.155 2.628,1.5907 8.7139,1.5907 l 0,25.6575 -63.4177,0 z"
       style="color:#000000;font-style:normal;font-variant:normal;font-weight:normal;font-stretch:normal;font-size:medium;line-height:125%;font-family:Ultra;-inkscape-font-specification:Ultra;text-align:end;letter-spacing:0px;word-spacing:0px;text-anchor:end;clip-rule:nonzero;visibility:visible;isolation:auto;mix-blend-mode:normal;color-interpolation:sRGB;color-interpolation-filters:linearRGB;solid-color:#000000;solid-opacity:1;fill:#f0e442;fill-opacity:1;fill-rule:nonzero;stroke:none;stroke-width:1px;stroke-linecap:butt;stroke-linejoin:miter;stroke-miterlimit:4;stroke-dasharray:none;stroke-dashoffset:0;stroke-opacity:1;color-rendering:auto;image-rendering:auto;shape-rendering:auto;text-rendering:auto"
       id="path7261" />
    <path
       d="m 2692.8091,1451.2091 0,25.6576 q -6.0859,0 -8.0223,2.0056 -1.8672,2.0055 -1.8672,5.8092 l 0,68.3971 -41.5639,0 -36.1004,-56.5019 0,23.9286 q 0,4.4952 2.628,5.7401 2.628,1.1757 8.7139,1.1757 l 0,25.6575 -47.5806,0 0,-25.6575 q 6.0859,0 8.7139,-1.5907 2.628,-1.6598 2.628,-6.155 l 0,-34.9939 q 0,-4.5644 -2.628,-6.155 -2.628,-1.6598 -8.7139,-1.6598 l 0,-25.6576 54.3581,0 34.5789,54.1506 0,-20.6782 q 0,-4.5644 -1.9364,-6.155 -1.8673,-1.6598 -7.9532,-1.6598 l 0,-25.6576 44.7451,0 z"
       style="color:#000000;font-style:normal;font-variant:normal;font-weight:normal;font-stretch:normal;font-size:medium;line-height:125%;font-family:Ultra;-inkscape-font-specification:Ultra;text-align:end;letter-spacing:0px;word-spacing:0px;text-anchor:end;clip-rule:nonzero;visibility:visible;isolation:auto;mix-blend-mode:normal;color-interpolation:sRGB;color-interpolation-filters:linearRGB;solid-color:#000000;solid-opacity:1;fill:#f0e442;fill-opacity:1;fill-rule:nonzero;stroke:none;stroke-width:1px;stroke-linecap:butt;stroke-linejoin:miter;stroke-miterlimit:4;stroke-dasharray:none;stroke-dashoffset:0;stroke-opacity:1;color-rendering:auto;image-rendering:auto;shape-rendering:auto;text-rendering:auto"
       id="path7263" />
    <path
       d="m 2782.9218,1553.0786 -2.2822,-6.9158 q -4.3569,3.942 -12.0335,6.9158 -7.6073,2.9738 -17.5661,2.9738 -11.2035,0 -21.1622,-3.0429 -9.9588,-3.043 -17.4278,-9.5438 -7.3999,-6.5009 -11.7569,-16.6671 -4.2877,-10.2353 -4.2877,-24.551 0,-14.3157 4.5644,-24.4819 4.6336,-10.2353 12.1026,-16.7362 7.5382,-6.5008 17.0128,-9.5437 9.4746,-3.043 19.4334,-3.043 5.8092,0 10.4428,0.8991 4.7027,0.899 8.2298,2.2822 3.527,1.314 5.9476,2.8354 2.4205,1.4524 3.942,2.4206 l 0,-5.671 22.822,0 0,37.691 -24.2052,0 q -0.2766,-7.3307 -4.4261,-11.8259 -4.0803,-4.5645 -11.411,-4.5645 -3.7346,0 -6.985,1.3832 -3.2504,1.314 -5.7401,4.7027 -2.4897,3.3888 -3.942,9.1289 -1.3831,5.7401 -1.3831,14.5231 0,8.3681 0.899,14.0391 0.9682,5.6017 2.9046,9.1288 2.0056,3.4579 5.0486,5.0485 3.0429,1.5215 7.3307,1.5215 0.9682,0 2.4205,-0.2075 1.5215,-0.2075 2.8355,-0.6916 1.3831,-0.5532 2.3514,-1.3831 1.0373,-0.8299 1.0373,-2.2822 l 0,-3.8037 q 0,-3.2504 -2.213,-4.9102 -2.2131,-1.729 -8.299,-1.729 l 0,-22.8221 58.3692,0 0,22.8221 q -6.0858,0 -8.7138,1.6598 -2.628,1.5906 -2.628,6.0859 l 0,28.3547 -21.2315,0 z"
       style="color:#000000;font-style:normal;font-variant:normal;font-weight:normal;font-stretch:normal;font-size:medium;line-height:125%;font-family:Ultra;-inkscape-font-specification:Ultra;text-align:end;letter-spacing:0px;word-spacing:0px;text-anchor:end;clip-rule:nonzero;visibility:visible;isolation:auto;mix-blend-mode:normal;color-interpolation:sRGB;color-interpolation-filters:linearRGB;solid-color:#000000;solid-opacity:1;fill:#f0e442;fill-opacity:1;fill-rule:nonzero;stroke:none;stroke-width:1px;stroke-linecap:butt;stroke-linejoin:miter;stroke-miterlimit:4;stroke-dasharray:none;stroke-dashoffset:0;stroke-opacity:1;color-rendering:auto;image-rendering:auto;shape-rendering:auto;text-rendering:auto"
       id="path7265" />
    <path
       d="m 2864.5972,1502.2476 q 0,-13.3475 4.3569,-23.3753 4.4261,-10.0971 12.4484,-16.8745 8.0223,-6.7775 19.0184,-10.1662 11.0653,-3.3888 24.4127,-3.3888 13.2783,0 24.3436,3.3888 11.0653,3.3887 19.0184,10.1662 8.0223,6.7774 12.3793,16.8745 4.4261,10.0278 4.4261,23.3753 0,13.2783 -4.4261,23.3754 -4.357,10.0278 -12.3793,16.8745 -7.9531,6.7774 -19.0184,10.1662 -11.0653,3.3887 -24.3436,3.3887 -13.3474,0 -24.4127,-3.3887 -10.9961,-3.3888 -19.0184,-10.1662 -8.0223,-6.8467 -12.4484,-16.8745 -4.3569,-10.0971 -4.3569,-23.3754 z m 46.474,0 q 0,8.3681 0.6225,14.0391 0.6224,5.6017 2.1438,9.1288 1.5907,3.4579 4.2187,5.0485 2.628,1.5215 6.7774,1.5215 3.942,0 6.6392,-1.5215 2.6972,-1.5906 4.2186,-5.0485 1.5907,-3.5271 2.2131,-9.1288 0.6224,-5.671 0.6224,-14.0391 0,-8.2298 -0.6224,-13.9699 -0.6224,-5.7401 -2.2131,-9.198 -1.5214,-3.4579 -4.2186,-4.9793 -2.6972,-1.5907 -6.6392,-1.5907 -4.1494,0 -6.7774,1.5907 -2.628,1.5214 -4.2187,4.9793 -1.5214,3.4579 -2.1438,9.198 -0.6225,5.7401 -0.6225,13.9699 z"
       style="color:#000000;font-style:normal;font-variant:normal;font-weight:normal;font-stretch:normal;font-size:medium;line-height:125%;font-family:Ultra;-inkscape-font-specification:Ultra;text-align:end;letter-spacing:0px;word-spacing:0px;text-anchor:end;clip-rule:nonzero;visibility:visible;isolation:auto;mix-blend-mode:normal;color-interpolation:sRGB;color-interpolation-filters:linearRGB;solid-color:#000000;solid-opacity:1;fill:#f0e442;fill-opacity:1;fill-rule:nonzero;stroke:none;stroke-width:1px;stroke-linecap:butt;stroke-linejoin:miter;stroke-miterlimit:4;stroke-dasharray:none;stroke-dashoffset:0;stroke-opacity:1;color-rendering:auto;image-rendering:auto;shape-rendering:auto;text-rendering:auto"
       id="path7267" />
    <path
       d="m 3115.2252,1451.2091 0,25.6576 q -6.0859,0 -8.0224,2.0056 -1.8672,2.0055 -1.8672,5.8092 l 0,68.3971 -41.5639,0 -36.1004,-56.5019 0,23.9286 q 0,4.4952 2.628,5.7401 2.628,1.1757 8.7139,1.1757 l 0,25.6575 -47.5806,0 0,-25.6575 q 6.0859,0 8.7139,-1.5907 2.628,-1.6598 2.628,-6.155 l 0,-34.9939 q 0,-4.5644 -2.628,-6.155 -2.628,-1.6598 -8.7139,-1.6598 l 0,-25.6576 54.3581,0 34.5789,54.1506 0,-20.6782 q 0,-4.5644 -1.9364,-6.155 -1.8673,-1.6598 -7.9532,-1.6598 l 0,-25.6576 44.7452,0 z"
       style="color:#000000;font-style:normal;font-variant:normal;font-weight:normal;font-stretch:normal;font-size:medium;line-height:125%;font-family:Ultra;-inkscape-font-specification:Ultra;text-align:end;letter-spacing:0px;word-spacing:0px;text-anchor:end;clip-rule:nonzero;visibility:visible;isolation:auto;mix-blend-mode:normal;color-interpolation:sRGB;color-interpolation-filters:linearRGB;solid-color:#000000;solid-opacity:1;fill:#f0e442;fill-opacity:1;fill-rule:nonzero;stroke:none;stroke-width:1px;stroke-linecap:butt;stroke-linejoin:miter;stroke-miterlimit:4;stroke-dasharray:none;stroke-dashoffset:0;stroke-opacity:1;color-rendering:auto;image-rendering:auto;shape-rendering:auto;text-rendering:auto"
       id="path7269" />
  </g>
  <g
     transform="translate(-248.0768,0)"
     id="g5999">
    <path
       d="m 1838.7099,1730.1227 0,-25.6576 q 6.0859,0 7.9532,-1.5906 1.9364,-1.6598 1.9364,-6.1551 l 0,-39.6966 -23.652,73.0999 -26.6257,0 -24.067,-69.227 0,36.6536 q 0,2.2822 0.415,3.6654 0.4149,1.314 1.4523,2.0747 1.1065,0.7608 3.0429,0.9682 2.0056,0.2075 4.9794,0.2075 l 0,25.6576 -44.7451,0 0,-25.6576 q 6.0859,0 8.7139,-1.5906 2.628,-1.6598 2.628,-6.1551 l 0,-34.9938 q 0,-4.5644 -2.628,-6.1551 -2.628,-1.6598 -8.7139,-1.6598 l 0,-25.6575 65.8382,0 15.9063,47.788 13.8316,-47.788 65.0084,0 0,25.6575 q -6.0859,0 -8.7139,1.6598 -2.5589,1.5907 -2.5589,6.1551 l 0,34.9938 q 0,4.4953 2.5589,6.1551 2.628,1.5906 8.7139,1.5906 l 0,25.6576 -61.2739,0 z"
       style="color:#000000;font-style:normal;font-variant:normal;font-weight:normal;font-stretch:normal;font-size:medium;line-height:125%;font-family:Ultra;-inkscape-font-specification:Ultra;text-align:end;letter-spacing:0px;word-spacing:0px;text-anchor:end;clip-rule:nonzero;visibility:visible;isolation:auto;mix-blend-mode:normal;color-interpolation:sRGB;color-interpolation-filters:linearRGB;solid-color:#000000;solid-opacity:1;fill:#56b4e9;fill-opacity:1;fill-rule:nonzero;stroke:none;stroke-width:1px;stroke-linecap:butt;stroke-linejoin:miter;stroke-miterlimit:4;stroke-dasharray:none;stroke-dashoffset:0;stroke-opacity:1;color-rendering:auto;image-rendering:auto;shape-rendering:auto;text-rendering:auto"
       id="path7271" />
    <path
       d="m 1970.2481,1704.4651 q 2.8355,0 4.7028,-0.4841 1.9364,-0.4841 3.0429,-1.7981 1.1757,-1.3832 1.5906,-3.7345 0.415,-2.3514 0.415,-6.0168 l 24.2052,0 0,37.6911 -98.5499,0 0,-25.6576 q 6.0859,0 8.7139,-1.5906 2.628,-1.6598 2.628,-6.1551 l 0,-34.9938 q 0,-4.5644 -2.628,-6.1551 -2.628,-1.6598 -8.7139,-1.6598 l 0,-25.6575 98.5499,0 0,37.691 -24.2052,0 q 0,-3.6654 -0.415,-6.0167 -0.4149,-2.3514 -1.5906,-3.6654 -1.1065,-1.314 -3.0429,-1.7981 -1.8673,-0.5533 -4.7028,-0.5533 l -12.4484,0 0,18.396 22.0614,0 0,12.241 -22.0614,0 0,19.9174 12.4484,0 z"
       style="color:#000000;font-style:normal;font-variant:normal;font-weight:normal;font-stretch:normal;font-size:medium;line-height:125%;font-family:Ultra;-inkscape-font-specification:Ultra;text-align:end;letter-spacing:0px;word-spacing:0px;text-anchor:end;clip-rule:nonzero;visibility:visible;isolation:auto;mix-blend-mode:normal;color-interpolation:sRGB;color-interpolation-filters:linearRGB;solid-color:#000000;solid-opacity:1;fill:#56b4e9;fill-opacity:1;fill-rule:nonzero;stroke:none;stroke-width:1px;stroke-linecap:butt;stroke-linejoin:miter;stroke-miterlimit:4;stroke-dasharray:none;stroke-dashoffset:0;stroke-opacity:1;color-rendering:auto;image-rendering:auto;shape-rendering:auto;text-rendering:auto"
       id="path7273" />
    <path
       d="m 2068.5906,1704.4651 q 3.8036,0 7.3998,-0.8299 3.6654,-0.8299 6.3626,-3.4579 2.7663,-2.628 4.4952,-7.5382 1.729,-4.9793 1.729,-13.3474 0,-8.2298 -1.6598,-13.2092 -1.6598,-5.0485 -4.357,-7.7457 -2.628,-2.6971 -6.3625,-3.527 -3.6653,-0.8991 -7.6073,-0.8991 l -6.5009,0 0,50.5544 6.5009,0 z m -58.6459,25.6576 0,-25.6576 q 6.0859,0 8.7139,-1.5906 2.628,-1.6598 2.628,-6.1551 l 0,-34.9938 q 0,-4.5644 -2.628,-6.1551 -2.628,-1.6598 -8.7139,-1.6598 l 0,-25.6575 73.3765,0 q 9.8895,0 19.1567,2.628 9.2671,2.628 16.4596,8.5755 7.2615,5.9476 11.6185,15.768 4.4261,9.7513 4.4261,24.067 0,14.3156 -4.357,24.0669 -4.2878,9.7512 -11.7568,15.6988 -7.3999,5.9476 -17.3586,8.5756 -9.9587,2.628 -21.1623,2.628 l -70.4027,-0.1383 z"
       style="color:#000000;font-style:normal;font-variant:normal;font-weight:normal;font-stretch:normal;font-size:medium;line-height:125%;font-family:Ultra;-inkscape-font-specification:Ultra;text-align:end;letter-spacing:0px;word-spacing:0px;text-anchor:end;clip-rule:nonzero;visibility:visible;isolation:auto;mix-blend-mode:normal;color-interpolation:sRGB;color-interpolation-filters:linearRGB;solid-color:#000000;solid-opacity:1;fill:#56b4e9;fill-opacity:1;fill-rule:nonzero;stroke:none;stroke-width:1px;stroke-linecap:butt;stroke-linejoin:miter;stroke-miterlimit:4;stroke-dasharray:none;stroke-dashoffset:0;stroke-opacity:1;color-rendering:auto;image-rendering:auto;shape-rendering:auto;text-rendering:auto"
       id="path7275" />
    <path
       d="m 2141.3446,1730.1227 0,-25.6576 q 6.0859,0 8.7139,-1.5906 2.628,-1.6598 2.628,-6.1551 l 0,-34.9938 q 0,-4.5644 -2.628,-6.1551 -2.628,-1.6598 -8.7139,-1.6598 l 0,-25.6575 63.4177,0 0,25.6575 q -6.0859,0 -8.7139,1.6598 -2.5588,1.5907 -2.5588,6.1551 l 0,34.9938 q 0,4.4953 2.5588,6.1551 2.628,1.5906 8.7139,1.5906 l 0,25.6576 -63.4177,0 z"
       style="color:#000000;font-style:normal;font-variant:normal;font-weight:normal;font-stretch:normal;font-size:medium;line-height:125%;font-family:Ultra;-inkscape-font-specification:Ultra;text-align:end;letter-spacing:0px;word-spacing:0px;text-anchor:end;clip-rule:nonzero;visibility:visible;isolation:auto;mix-blend-mode:normal;color-interpolation:sRGB;color-interpolation-filters:linearRGB;solid-color:#000000;solid-opacity:1;fill:#56b4e9;fill-opacity:1;fill-rule:nonzero;stroke:none;stroke-width:1px;stroke-linecap:butt;stroke-linejoin:miter;stroke-miterlimit:4;stroke-dasharray:none;stroke-dashoffset:0;stroke-opacity:1;color-rendering:auto;image-rendering:auto;shape-rendering:auto;text-rendering:auto"
       id="path7277" />
    <path
       d="m 2271.9837,1628.2532 0,25.6575 q -5.256,0 -7.3307,1.6598 -2.0056,1.5907 -2.0056,5.3252 l 0,31.9509 q 0,2.5588 0.5533,4.9102 0.5533,2.3514 1.8673,4.2186 1.3831,1.7981 3.5962,2.9047 2.2822,1.0373 5.7401,1.0373 6.6391,0 9.6821,-3.4579 3.0429,-3.527 3.0429,-9.4746 l 0,-31.8126 q 0,-4.2878 -2.5588,-5.7401 -2.5589,-1.5215 -7.0541,-1.5215 l 0,-25.6575 45.575,0 0,25.6575 q -4.6336,0 -7.1233,1.3832 -2.4897,1.314 -2.4897,5.6018 l 0,32.9883 q 0,6.3625 -1.6597,13.2783 -1.5907,6.8466 -6.3626,12.5867 -4.7027,5.6709 -13.4857,9.4746 -8.7831,3.7345 -23.2371,3.7345 -10.512,0 -18.1193,-1.9364 -7.5382,-1.8672 -12.7942,-4.9793 -5.256,-3.1121 -8.3681,-7.0541 -3.1121,-4.0112 -4.8411,-8.2298 -1.6598,-4.2878 -2.213,-8.299 -0.5533,-4.0803 -0.5533,-7.469 l 0,-33.2649 q 0,-4.5644 -2.628,-6.1551 -2.628,-1.6598 -8.7139,-1.6598 l 0,-25.6575 61.4813,0 z"
       style="color:#000000;font-style:normal;font-variant:normal;font-weight:normal;font-stretch:normal;font-size:medium;line-height:125%;font-family:Ultra;-inkscape-font-specification:Ultra;text-align:end;letter-spacing:0px;word-spacing:0px;text-anchor:end;clip-rule:nonzero;visibility:visible;isolation:auto;mix-blend-mode:normal;color-interpolation:sRGB;color-interpolation-filters:linearRGB;solid-color:#000000;solid-opacity:1;fill:#56b4e9;fill-opacity:1;fill-rule:nonzero;stroke:none;stroke-width:1px;stroke-linecap:butt;stroke-linejoin:miter;stroke-miterlimit:4;stroke-dasharray:none;stroke-dashoffset:0;stroke-opacity:1;color-rendering:auto;image-rendering:auto;shape-rendering:auto;text-rendering:auto"
       id="path7279" />
    <path
       d="m 2428.2113,1730.1227 0,-25.6576 q 6.0859,0 7.9531,-1.5906 1.9364,-1.6598 1.9364,-6.1551 l 0,-39.6966 -23.6519,73.0999 -26.6258,0 -24.0669,-69.227 0,36.6536 q 0,2.2822 0.4149,3.6654 0.415,1.314 1.4523,2.0747 1.1066,0.7608 3.043,0.9682 2.0056,0.2075 4.9793,0.2075 l 0,25.6576 -44.7451,0 0,-25.6576 q 6.0859,0 8.7139,-1.5906 2.628,-1.6598 2.628,-6.1551 l 0,-34.9938 q 0,-4.5644 -2.628,-6.1551 -2.628,-1.6598 -8.7139,-1.6598 l 0,-25.6575 65.8383,0 15.9063,47.788 13.8315,-47.788 65.0084,0 0,25.6575 q -6.0859,0 -8.7139,1.6598 -2.5588,1.5907 -2.5588,6.1551 l 0,34.9938 q 0,4.4953 2.5588,6.1551 2.628,1.5906 8.7139,1.5906 l 0,25.6576 -61.2738,0 z"
       style="color:#000000;font-style:normal;font-variant:normal;font-weight:normal;font-stretch:normal;font-size:medium;line-height:125%;font-family:Ultra;-inkscape-font-specification:Ultra;text-align:end;letter-spacing:0px;word-spacing:0px;text-anchor:end;clip-rule:nonzero;visibility:visible;isolation:auto;mix-blend-mode:normal;color-interpolation:sRGB;color-interpolation-filters:linearRGB;solid-color:#000000;solid-opacity:1;fill:#56b4e9;fill-opacity:1;fill-rule:nonzero;stroke:none;stroke-width:1px;stroke-linecap:butt;stroke-linejoin:miter;stroke-miterlimit:4;stroke-dasharray:none;stroke-dashoffset:0;stroke-opacity:1;color-rendering:auto;image-rendering:auto;shape-rendering:auto;text-rendering:auto"
       id="path7281" />
    <path
       d="m 2637.068,1730.1227 0,-25.6576 q 6.0858,0 7.9531,-1.5906 1.9364,-1.6598 1.9364,-6.1551 l 0,-39.6966 -23.652,73.0999 -26.6257,0 -24.0669,-69.227 0,36.6536 q 0,2.2822 0.4149,3.6654 0.415,1.314 1.4523,2.0747 1.1065,0.7608 3.043,0.9682 2.0055,0.2075 4.9793,0.2075 l 0,25.6576 -44.7451,0 0,-25.6576 q 6.0859,0 8.7139,-1.5906 2.628,-1.6598 2.628,-6.1551 l 0,-34.9938 q 0,-4.5644 -2.628,-6.1551 -2.628,-1.6598 -8.7139,-1.6598 l 0,-25.6575 65.8383,0 15.9063,47.788 13.8315,-47.788 65.0084,0 0,25.6575 q -6.0859,0 -8.7139,1.6598 -2.5588,1.5907 -2.5588,6.1551 l 0,34.9938 q 0,4.4953 2.5588,6.1551 2.628,1.5906 8.7139,1.5906 l 0,25.6576 -61.2738,0 z"
       style="color:#000000;font-style:normal;font-variant:normal;font-weight:normal;font-stretch:normal;font-size:medium;line-height:125%;font-family:Ultra;-inkscape-font-specification:Ultra;text-align:end;letter-spacing:0px;word-spacing:0px;text-anchor:end;clip-rule:nonzero;visibility:visible;isolation:auto;mix-blend-mode:normal;color-interpolation:sRGB;color-interpolation-filters:linearRGB;solid-color:#000000;solid-opacity:1;fill:#f0e442;fill-opacity:1;fill-rule:nonzero;stroke:none;stroke-width:1px;stroke-linecap:butt;stroke-linejoin:miter;stroke-miterlimit:4;stroke-dasharray:none;stroke-dashoffset:0;stroke-opacity:1;color-rendering:auto;image-rendering:auto;shape-rendering:auto;text-rendering:auto"
       id="path7283" />
    <path
       d="m 2704.7043,1679.2917 q 0,-13.3475 4.357,-23.3754 4.4261,-10.097 12.4484,-16.8745 8.0223,-6.7775 19.0184,-10.1662 11.0652,-3.3887 24.4127,-3.3887 13.2783,0 24.3435,3.3887 11.0653,3.3887 19.0185,10.1662 8.0223,6.7775 12.3792,16.8745 4.4261,10.0279 4.4261,23.3754 0,13.2783 -4.4261,23.3753 -4.3569,10.0279 -12.3792,16.8745 -7.9532,6.7775 -19.0185,10.1662 -11.0652,3.3888 -24.3435,3.3888 -13.3475,0 -24.4127,-3.3888 -10.9961,-3.3887 -19.0184,-10.1662 -8.0223,-6.8466 -12.4484,-16.8745 -4.357,-10.097 -4.357,-23.3753 z m 46.4741,0 q 0,8.3681 0.6224,14.039 0.6224,5.6018 2.1439,9.1288 1.5906,3.4579 4.2186,5.0486 2.628,1.5214 6.7775,1.5214 3.942,0 6.6391,-1.5214 2.6972,-1.5907 4.2187,-5.0486 1.5906,-3.527 2.213,-9.1288 0.6224,-5.6709 0.6224,-14.039 0,-8.2298 -0.6224,-13.9699 -0.6224,-5.7401 -2.213,-9.198 -1.5215,-3.4579 -4.2187,-4.9794 -2.6971,-1.5906 -6.6391,-1.5906 -4.1495,0 -6.7775,1.5906 -2.628,1.5215 -4.2186,4.9794 -1.5215,3.4579 -2.1439,9.198 -0.6224,5.7401 -0.6224,13.9699 z"
       style="color:#000000;font-style:normal;font-variant:normal;font-weight:normal;font-stretch:normal;font-size:medium;line-height:125%;font-family:Ultra;-inkscape-font-specification:Ultra;text-align:end;letter-spacing:0px;word-spacing:0px;text-anchor:end;clip-rule:nonzero;visibility:visible;isolation:auto;mix-blend-mode:normal;color-interpolation:sRGB;color-interpolation-filters:linearRGB;solid-color:#000000;solid-opacity:1;fill:#f0e442;fill-opacity:1;fill-rule:nonzero;stroke:none;stroke-width:1px;stroke-linecap:butt;stroke-linejoin:miter;stroke-miterlimit:4;stroke-dasharray:none;stroke-dashoffset:0;stroke-opacity:1;color-rendering:auto;image-rendering:auto;shape-rendering:auto;text-rendering:auto"
       id="path7285" />
    <path
       d="m 2890.1856,1704.4651 q 3.8037,0 7.3999,-0.8299 3.6654,-0.8299 6.3625,-3.4579 2.7663,-2.628 4.4953,-7.5382 1.7289,-4.9793 1.7289,-13.3474 0,-8.2298 -1.6598,-13.2092 -1.6597,-5.0485 -4.3569,-7.7457 -2.628,-2.6971 -6.3625,-3.527 -3.6654,-0.8991 -7.6074,-0.8991 l -6.5008,0 0,50.5544 6.5008,0 z m -58.6458,25.6576 0,-25.6576 q 6.0859,0 8.7139,-1.5906 2.628,-1.6598 2.628,-6.1551 l 0,-34.9938 q 0,-4.5644 -2.628,-6.1551 -2.628,-1.6598 -8.7139,-1.6598 l 0,-25.6575 73.3764,0 q 9.8896,0 19.1568,2.628 9.2671,2.628 16.4595,8.5755 7.2616,5.9476 11.6185,15.768 4.4261,9.7513 4.4261,24.067 0,14.3156 -4.3569,24.0669 -4.2878,9.7512 -11.7568,15.6988 -7.3999,5.9476 -17.3586,8.5756 -9.9588,2.628 -21.1623,2.628 l -70.4027,-0.1383 z"
       style="color:#000000;font-style:normal;font-variant:normal;font-weight:normal;font-stretch:normal;font-size:medium;line-height:125%;font-family:Ultra;-inkscape-font-specification:Ultra;text-align:end;letter-spacing:0px;word-spacing:0px;text-anchor:end;clip-rule:nonzero;visibility:visible;isolation:auto;mix-blend-mode:normal;color-interpolation:sRGB;color-interpolation-filters:linearRGB;solid-color:#000000;solid-opacity:1;fill:#f0e442;fill-opacity:1;fill-rule:nonzero;stroke:none;stroke-width:1px;stroke-linecap:butt;stroke-linejoin:miter;stroke-miterlimit:4;stroke-dasharray:none;stroke-dashoffset:0;stroke-opacity:1;color-rendering:auto;image-rendering:auto;shape-rendering:auto;text-rendering:auto"
       id="path7287" />
    <path
       d="m 3027.5331,1704.4651 q 2.8355,0 4.7027,-0.4841 1.9365,-0.4841 3.043,-1.7981 1.1757,-1.3832 1.5906,-3.7345 0.415,-2.3514 0.415,-6.0168 l 24.2052,0 0,37.6911 -98.5499,0 0,-25.6576 q 6.0859,0 8.7139,-1.5906 2.628,-1.6598 2.628,-6.1551 l 0,-34.9938 q 0,-4.5644 -2.628,-6.1551 -2.628,-1.6598 -8.7139,-1.6598 l 0,-25.6575 98.5499,0 0,37.691 -24.2052,0 q 0,-3.6654 -0.415,-6.0167 -0.4149,-2.3514 -1.5906,-3.6654 -1.1065,-1.314 -3.043,-1.7981 -1.8672,-0.5533 -4.7027,-0.5533 l -12.4484,0 0,18.396 22.0613,0 0,12.241 -22.0613,0 0,19.9174 12.4484,0 z"
       style="color:#000000;font-style:normal;font-variant:normal;font-weight:normal;font-stretch:normal;font-size:medium;line-height:125%;font-family:Ultra;-inkscape-font-specification:Ultra;text-align:end;letter-spacing:0px;word-spacing:0px;text-anchor:end;clip-rule:nonzero;visibility:visible;isolation:auto;mix-blend-mode:normal;color-interpolation:sRGB;color-interpolation-filters:linearRGB;solid-color:#000000;solid-opacity:1;fill:#f0e442;fill-opacity:1;fill-rule:nonzero;stroke:none;stroke-width:1px;stroke-linecap:butt;stroke-linejoin:miter;stroke-miterlimit:4;stroke-dasharray:none;stroke-dashoffset:0;stroke-opacity:1;color-rendering:auto;image-rendering:auto;shape-rendering:auto;text-rendering:auto"
       id="path7289" />
    <path
       d="m 3072.9007,1642.9838 q 0,-3.5271 1.3831,-6.7775 1.4523,-3.2504 3.7345,-5.6018 2.3514,-2.3513 5.5327,-3.7345 3.2504,-1.3831 6.9158,-1.3831 3.527,0 6.7774,1.3831 3.2504,1.3832 5.6018,3.7345 2.3514,2.3514 3.7345,5.6018 1.4523,3.2504 1.4523,6.7775 0,1.314 -0.1383,2.9738 -0.1383,1.5906 -0.4149,2.6971 l -7.8149,44.676 -18.1193,0 -8.0915,-44.676 q -0.2766,-1.2448 -0.4149,-2.6971 -0.1383,-1.5215 -0.1383,-2.9738 z m 0,72.5466 q 0,-3.5271 1.3831,-6.7775 1.4523,-3.2504 3.7345,-5.6018 2.3514,-2.3514 5.5327,-3.7345 3.2504,-1.4523 6.9158,-1.4523 3.527,0 6.7774,1.4523 3.2504,1.3831 5.6018,3.7345 2.3514,2.3514 3.7345,5.6018 1.4523,3.2504 1.4523,6.7775 0,3.6653 -1.4523,6.8466 -1.3831,3.1812 -3.7345,5.5326 -2.3514,2.3514 -5.6018,3.7345 -3.2504,1.4524 -6.7774,1.4524 -3.6654,0 -6.9158,-1.4524 -3.1813,-1.3831 -5.5327,-3.7345 -2.2822,-2.3514 -3.7345,-5.5326 -1.3831,-3.1813 -1.3831,-6.8466 z"
       style="color:#000000;font-style:normal;font-variant:normal;font-weight:normal;font-stretch:normal;font-size:medium;line-height:125%;font-family:Ultra;-inkscape-font-specification:Ultra;text-align:end;letter-spacing:0px;word-spacing:0px;text-anchor:end;clip-rule:nonzero;visibility:visible;isolation:auto;mix-blend-mode:normal;color-interpolation:sRGB;color-interpolation-filters:linearRGB;solid-color:#000000;solid-opacity:1;fill:#f0e442;fill-opacity:1;fill-rule:nonzero;stroke:none;stroke-width:1px;stroke-linecap:butt;stroke-linejoin:miter;stroke-miterlimit:4;stroke-dasharray:none;stroke-dashoffset:0;stroke-opacity:1;color-rendering:auto;image-rendering:auto;shape-rendering:auto;text-rendering:auto"
       id="path7291" />
  </g>
  <g
     style="font-style:normal;font-variant:normal;font-weight:normal;font-stretch:normal;font-size:130.3134613px;line-height:125%;font-family:Ultra;-inkscape-font-specification:Ultra;letter-spacing:0px;word-spacing:0px;fill:#000000;fill-opacity:1;stroke:none;stroke-width:1px;stroke-linecap:butt;stroke-linejoin:miter;stroke-opacity:1"
     id="text5217">
    <path
       d="m 1538.9175,738.49059 q 4.2631,0 7.9537,0.69993 3.7541,0.69992 6.8083,1.84526 3.0543,1.0817 5.2813,2.35429 2.227,1.20897 3.6269,2.22704 l 0,-4.58133 20.9978,0 0,34.67814 -22.2704,0 q 0,-4.26318 -1.0817,-7.12652 -1.0181,-2.86333 -2.7997,-4.64496 -1.718,-1.78163 -4.0723,-2.54518 -2.3543,-0.76356 -5.0904,-0.76356 -3.7541,0 -6.4266,1.46348 -2.6724,1.39985 -4.3904,4.58133 -1.6544,3.18148 -2.5452,8.46274 -0.8272,5.28126 -0.8272,12.85319 0,7.69918 0.8908,12.91681 0.9545,5.154 2.7997,8.39911 1.9089,3.18148 4.8359,4.64496 2.9269,1.39985 6.9992,1.39985 2.7361,0 5.2813,-1.01807 2.5452,-1.0817 4.4541,-3.24511 1.9725,-2.16341 3.0542,-5.40852 1.1453,-3.24511 1.1453,-7.82644 l 22.1431,0 q 0,8.08096 -2.5452,15.27111 -2.5451,7.19014 -7.9537,12.59866 -5.4085,5.40852 -13.744,8.59 -8.3354,3.18148 -19.7888,3.18148 -10.308,0 -19.5343,-2.7997 -9.1626,-2.79971 -16.0346,-8.78089 -6.8084,-5.98118 -10.8171,-15.33474 -3.945,-9.41718 -3.945,-22.58851 0,-13.17133 4.0087,-22.52489 4.0723,-9.41718 10.6897,-15.39837 6.6812,-5.98118 15.2075,-8.78088 8.5264,-2.79971 17.6891,-2.79971 z"
       style=""
       id="path7170" />
    <path
       d="m 1594.148,787.99444 q 0,-12.28052 4.0086,-21.50681 4.0723,-9.28993 11.4534,-15.52563 7.381,-6.2357 17.4981,-9.35356 10.1807,-3.11785 22.4613,-3.11785 12.2169,0 22.3976,3.11785 10.1807,3.11786 17.4981,9.35356 7.3811,6.2357 11.3897,15.52563 4.0723,9.22629 4.0723,21.50681 0,12.21688 -4.0723,21.50681 -4.0086,9.22629 -11.3897,15.52563 -7.3174,6.2357 -17.4981,9.35355 -10.1807,3.11785 -22.3976,3.11785 -12.2806,0 -22.4613,-3.11785 -10.1171,-3.11785 -17.4981,-9.35355 -7.3811,-6.29934 -11.4534,-15.52563 -4.0086,-9.28993 -4.0086,-21.50681 z m 42.7591,0 q 0,7.69918 0.5726,12.91681 0.5727,5.154 1.9726,8.39911 1.4634,3.18148 3.8814,4.64496 2.4179,1.39985 6.2357,1.39985 3.6269,0 6.1084,-1.39985 2.4816,-1.46348 3.8814,-4.64496 1.4635,-3.24511 2.0362,-8.39911 0.5726,-5.21763 0.5726,-12.91681 0,-7.57193 -0.5726,-12.85319 -0.5727,-5.28126 -2.0362,-8.46274 -1.3998,-3.18148 -3.8814,-4.58133 -2.4815,-1.46348 -6.1084,-1.46348 -3.8178,0 -6.2357,1.46348 -2.418,1.39985 -3.8814,4.58133 -1.3999,3.18148 -1.9726,8.46274 -0.5726,5.28126 -0.5726,12.85319 z"
       style=""
       id="path7172" />
    <path
       d="m 1824.7417,741.03578 0,23.60659 q -5.5994,0 -7.381,1.84526 -1.718,1.84525 -1.718,5.34488 l 0,62.9297 -38.2414,0 -33.2147,-51.9854 0,22.01585 q 0,4.13592 2.4179,5.28125 2.418,1.08171 8.0174,1.08171 l 0,23.60659 -43.7772,0 0,-23.60659 q 5.5994,0 8.0173,-1.46348 2.4179,-1.52711 2.4179,-5.66304 l 0,-32.19659 q 0,-4.19955 -2.4179,-5.66303 -2.4179,-1.52711 -8.0173,-1.52711 l 0,-23.60659 50.0129,0 31.8148,49.82199 0,-19.02526 q 0,-4.19955 -1.7817,-5.66303 -1.718,-1.52711 -7.3174,-1.52711 l 0,-23.60659 41.1684,0 z"
       style=""
       id="path7174" />
    <path
       d="m 1907.6511,834.76221 -2.0998,-6.36296 q -4.0086,3.62688 -11.0715,6.36296 -6.9993,2.73607 -16.1619,2.73607 -10.308,0 -19.4707,-2.7997 -9.1627,-2.79971 -16.0347,-8.78089 -6.8083,-5.98118 -10.817,-15.33474 -3.945,-9.41718 -3.945,-22.58851 0,-13.17133 4.1995,-22.52489 4.2632,-9.41718 11.1352,-15.39837 6.9356,-5.98118 15.6529,-8.78088 8.7172,-2.79971 17.8799,-2.79971 5.3449,0 9.6081,0.82719 4.3268,0.82718 7.5719,2.09977 3.2451,1.20897 5.4722,2.60882 2.227,1.33622 3.6268,2.22704 l 0,-5.21763 20.9978,0 0,34.67814 -22.2704,0 q -0.2545,-6.74474 -4.0722,-10.88067 -3.7542,-4.19955 -10.4989,-4.19955 -3.436,0 -6.4266,1.27259 -2.9906,1.20897 -5.2813,4.32682 -2.2907,3.11785 -3.6269,8.39911 -1.2726,5.28125 -1.2726,13.36222 0,7.69918 0.8272,12.91681 0.8908,5.154 2.6725,8.39911 1.8452,3.18148 4.6449,4.64496 2.7997,1.39985 6.7448,1.39985 0.8908,0 2.227,-0.19089 1.3999,-0.19088 2.6088,-0.63629 1.2726,-0.50904 2.1634,-1.27259 0.9545,-0.76356 0.9545,-2.09978 l 0,-3.49963 q 0,-2.99059 -2.0362,-4.5177 -2.0361,-1.59074 -7.6355,-1.59074 l 0,-20.99778 53.7034,0 0,20.99778 q -5.5994,0 -8.0174,1.52711 -2.4179,1.46348 -2.4179,5.5994 l 0,26.08815 -19.5343,0 z"
       style=""
       id="path7176" />
    <path
       d="m 1942.9655,834.76221 0,-23.60659 q 5.5994,0 8.0174,-1.46348 2.4179,-1.52711 2.4179,-5.66304 l 0,-32.19659 q 0,-4.19955 -2.4179,-5.66303 -2.418,-1.52711 -8.0174,-1.52711 l 0,-23.60659 67.3838,0 q 9.3536,0 15.7165,1.84526 6.4266,1.84526 10.2444,5.28125 3.8814,3.436 5.4721,8.20823 1.6544,4.77222 1.6544,10.62614 0,10.68978 -5.154,17.11637 -5.154,6.36296 -16.4801,6.872 l 0,0.76355 q 5.4722,0.38178 9.0354,2.03615 3.6269,1.65437 5.6631,4.32682 2.0998,2.60881 2.9269,6.36296 0.8909,3.69052 0.8909,8.39911 l 0,3.37237 q 0,1.59074 0.8271,2.7997 0.8272,1.14533 2.5452,1.14533 1.8453,0 2.6088,-1.14533 0.7636,-1.20896 0.7636,-2.7997 l 0,-16.16193 7.3174,0 0,16.16193 q 0,4.58133 -1.3999,8.46274 -1.3362,3.81777 -4.454,6.68111 -3.1179,2.86333 -8.2082,4.39044 -5.0904,1.59074 -12.5351,1.59074 -7.4446,0 -12.2169,-1.65437 -4.7086,-1.59074 -7.381,-4.45407 -2.6724,-2.86333 -3.7542,-6.61748 -1.018,-3.81778 -1.018,-8.01733 l 0,-4.89949 q 0,-5.09036 -0.5727,-8.20822 -0.5727,-3.18148 -1.9089,-4.89948 -1.2726,-1.78163 -3.3724,-2.35429 -2.0997,-0.57267 -5.0903,-0.57267 l -1.5271,0 0,9.09904 q 0,3.37237 1.8452,4.89948 1.9089,1.46348 6.7448,1.46348 l 0,23.60659 -56.5668,0 z m 47.9768,-50.33103 5.5994,0 q 5.3449,0 7.3174,-2.54519 2.0361,-2.60881 2.0361,-7.19014 0,-5.34489 -2.0361,-7.69919 -1.9725,-2.35429 -7.3174,-2.35429 l -5.5994,0 0,19.78881 z"
       style=""
       id="path7178" />
    <path
       d="m 2108.5934,802.05658 -20.1069,0 -0.8909,2.73608 q -1.018,2.73607 0.1273,4.58133 1.1453,1.78163 4.8358,1.78163 l 3.6269,0 0,23.60659 -39.6412,0 0,-23.60659 2.6088,0 q 4.5813,0 6.1084,-1.78163 1.5908,-1.84526 3.0543,-5.34489 l 13.044,-32.19659 q 1.3999,-3.69051 0.4454,-5.40851 -0.8908,-1.78163 -5.5357,-1.78163 l -1.3363,0 0,-23.60659 65.4113,0 0,23.60659 -1.2726,0 q -4.7086,0 -5.663,1.84526 -0.8909,1.84525 0.5726,5.34488 l 13.0441,32.19659 q 0.7636,1.78163 1.3362,3.11785 0.6363,1.27259 1.5271,2.22704 0.8908,0.89081 2.3543,1.33622 1.5271,0.44541 3.8814,0.44541 l 2.6089,0 0,23.60659 -57.8394,0 0,-23.60659 3.4997,0 q 3.6268,0 4.8358,-1.78163 1.2726,-1.84526 0.2545,-4.58133 l -0.8908,-2.73608 z m -16.8618,-9.92622 13.5531,0 -6.363,-19.53429 -0.509,0 -6.6811,19.53429 z"
       style=""
       id="path7180" />
    <path
       d="m 2264.2315,741.03578 0,37.28695 -20.9342,0 q 0,-4.26318 -0.2545,-7.38103 -0.1909,-3.18148 -0.9544,-5.09037 -0.7636,-1.97252 -2.3543,-2.86333 -1.5271,-0.95445 -4.1359,-0.95445 l -3.9451,0 0,41.99555 q 0,4.13593 2.4179,5.66304 2.418,1.46348 8.0174,1.46348 l 0,23.60659 -58.3484,0 0,-23.60659 q 5.5994,0 7.9537,-1.46348 2.4179,-1.52711 2.4179,-5.66304 l 0,-41.99555 -3.8814,0 q -2.6088,0 -4.1995,0.95445 -1.5271,0.89081 -2.3543,2.86333 -0.7636,1.90889 -0.9545,5.09037 -0.1909,3.11785 -0.1909,7.38103 l -20.9977,0 0,-37.28695 102.6982,0 z"
       style=""
       id="path7182" />
    <path
       d="m 2324.8069,741.03578 0,23.60659 q -4.8359,0 -6.7447,1.52711 -1.8453,1.46348 -1.8453,4.89948 l 0,29.39688 q 0,2.3543 0.509,4.5177 0.5091,2.16341 1.718,3.88141 1.2726,1.65437 3.3088,2.67245 2.0997,0.95444 5.2812,0.95444 6.1085,0 8.9082,-3.18148 2.7997,-3.24511 2.7997,-8.71726 l 0,-29.26962 q 0,-3.94504 -2.3543,-5.28126 -2.3543,-1.39985 -6.4902,-1.39985 l 0,-23.60659 41.9319,0 0,23.60659 q -4.2632,0 -6.5539,1.27259 -2.2906,1.20896 -2.2906,5.154 l 0,30.35133 q 0,5.85392 -1.5271,12.21688 -1.4635,6.29934 -5.854,11.58059 -4.3268,5.21763 -12.4077,8.71726 -8.081,3.436 -21.3796,3.436 -9.6717,0 -16.671,-1.78163 -6.9356,-1.718 -11.7714,-4.58133 -4.8359,-2.86333 -7.6992,-6.49022 -2.8634,-3.69052 -4.4541,-7.57193 -1.5271,-3.94503 -2.0361,-7.63555 -0.5091,-3.75415 -0.5091,-6.872 l 0,-30.60585 q 0,-4.19955 -2.4179,-5.66303 -2.4179,-1.52711 -8.0173,-1.52711 l 0,-23.60659 56.5667,0 z"
       style=""
       id="path7184" />
    <path
       d="m 2435.5224,764.64237 q -5.5994,0 -8.0173,1.52711 -2.3543,1.46348 -2.3543,5.66303 l 0,39.32311 12.7259,0 q 2.6088,0 4.3905,-0.50904 1.7816,-0.50904 2.7997,-2.09978 1.018,-1.65437 1.3998,-4.58133 0.4454,-2.92696 0.4454,-7.76281 l 22.2704,0 0,38.55955 -92.0084,0 0,-23.60659 q 5.5994,0 8.0173,-1.46348 2.4179,-1.52711 2.4179,-5.66304 l 0,-32.19659 q 0,-4.19955 -2.4179,-5.66303 -2.4179,-1.52711 -8.0173,-1.52711 l 0,-23.60659 58.3483,0 0,23.60659 z"
       style=""
       id="path7186" />
    <path
       d="m 2525.1129,802.05658 -20.1069,0 -0.8908,2.73608 q -1.0181,2.73607 0.1272,4.58133 1.1454,1.78163 4.8359,1.78163 l 3.6269,0 0,23.60659 -39.6413,0 0,-23.60659 2.6088,0 q 4.5814,0 6.1085,-1.78163 1.5907,-1.84526 3.0542,-5.34489 l 13.0441,-32.19659 q 1.3998,-3.69051 0.4454,-5.40851 -0.8908,-1.78163 -5.5358,-1.78163 l -1.3362,0 0,-23.60659 65.4112,0 0,23.60659 -1.2726,0 q -4.7086,0 -5.663,1.84526 -0.8908,1.84525 0.5727,5.34488 l 13.044,32.19659 q 0.7636,1.78163 1.3363,3.11785 0.6363,1.27259 1.5271,2.22704 0.8908,0.89081 2.3543,1.33622 1.5271,0.44541 3.8814,0.44541 l 2.6088,0 0,23.60659 -57.8393,0 0,-23.60659 3.4996,0 q 3.6269,0 4.8358,-1.78163 1.2726,-1.84526 0.2546,-4.58133 l -0.8909,-2.73608 z m -16.8618,-9.92622 13.5531,0 -6.363,-19.53429 -0.509,0 -6.6811,19.53429 z"
       style=""
       id="path7188" />
    <path
       d="m 2680.6238,741.03578 0,37.28695 -20.9342,0 q 0,-4.26318 -0.2545,-7.38103 -0.1909,-3.18148 -0.9545,-5.09037 -0.7635,-1.97252 -2.3543,-2.86333 -1.5271,-0.95445 -4.1359,-0.95445 l -3.945,0 0,41.99555 q 0,4.13593 2.4179,5.66304 2.4179,1.46348 8.0173,1.46348 l 0,23.60659 -58.3483,0 0,-23.60659 q 5.5994,0 7.9537,-1.46348 2.4179,-1.52711 2.4179,-5.66304 l 0,-41.99555 -3.8814,0 q -2.6088,0 -4.1995,0.95445 -1.5272,0.89081 -2.3543,2.86333 -0.7636,1.90889 -0.9545,5.09037 -0.1909,3.11785 -0.1909,7.38103 l -20.9978,0 0,-37.28695 102.6983,0 z"
       style=""
       id="path7190" />
    <path
       d="m 2684.6324,834.76221 0,-23.60659 q 5.5994,0 8.0173,-1.46348 2.4179,-1.52711 2.4179,-5.66304 l 0,-32.19659 q 0,-4.19955 -2.4179,-5.66303 -2.4179,-1.52711 -8.0173,-1.52711 l 0,-23.60659 58.3483,0 0,23.60659 q -5.5994,0 -8.0173,1.52711 -2.3543,1.46348 -2.3543,5.66303 l 0,32.19659 q 0,4.13593 2.3543,5.66304 2.4179,1.46348 8.0173,1.46348 l 0,23.60659 -58.3483,0 z"
       style=""
       id="path7192" />
    <path
       d="m 2748.8983,787.99444 q 0,-12.28052 4.0087,-21.50681 4.0723,-9.28993 11.4533,-15.52563 7.381,-6.2357 17.4982,-9.35356 10.1807,-3.11785 22.4612,-3.11785 12.2169,0 22.3976,3.11785 10.1808,3.11786 17.4982,9.35356 7.381,6.2357 11.3897,15.52563 4.0723,9.22629 4.0723,21.50681 0,12.21688 -4.0723,21.50681 -4.0087,9.22629 -11.3897,15.52563 -7.3174,6.2357 -17.4982,9.35355 -10.1807,3.11785 -22.3976,3.11785 -12.2805,0 -22.4612,-3.11785 -10.1172,-3.11785 -17.4982,-9.35355 -7.381,-6.29934 -11.4533,-15.52563 -4.0087,-9.28993 -4.0087,-21.50681 z m 42.7591,0 q 0,7.69918 0.5727,12.91681 0.5726,5.154 1.9725,8.39911 1.4635,3.18148 3.8814,4.64496 2.4179,1.39985 6.2357,1.39985 3.6269,0 6.1085,-1.39985 2.4815,-1.46348 3.8814,-4.64496 1.4634,-3.24511 2.0361,-8.39911 0.5727,-5.21763 0.5727,-12.91681 0,-7.57193 -0.5727,-12.85319 -0.5727,-5.28126 -2.0361,-8.46274 -1.3999,-3.18148 -3.8814,-4.58133 -2.4816,-1.46348 -6.1085,-1.46348 -3.8178,0 -6.2357,1.46348 -2.4179,1.39985 -3.8814,4.58133 -1.3999,3.18148 -1.9725,8.46274 -0.5727,5.28126 -0.5727,12.85319 z"
       style=""
       id="path7194" />
    <path
       d="m 2979.492,741.03578 0,23.60659 q -5.5994,0 -7.381,1.84526 -1.718,1.84525 -1.718,5.34488 l 0,62.9297 -38.2414,0 -33.2147,-51.9854 0,22.01585 q 0,4.13592 2.418,5.28125 2.4179,1.08171 8.0173,1.08171 l 0,23.60659 -43.7772,0 0,-23.60659 q 5.5994,0 8.0174,-1.46348 2.4179,-1.52711 2.4179,-5.66304 l 0,-32.19659 q 0,-4.19955 -2.4179,-5.66303 -2.418,-1.52711 -8.0174,-1.52711 l 0,-23.60659 50.0129,0 31.8148,49.82199 0,-19.02526 q 0,-4.19955 -1.7816,-5.66303 -1.718,-1.52711 -7.3174,-1.52711 l 0,-23.60659 41.1683,0 z"
       style=""
       id="path7196" />
    <path
       d="m 3070.2279,775.07762 -20.9978,0 q -0.509,-3.24511 -2.2907,-6.04481 -1.718,-2.7997 -4.2632,-4.83585 -2.5451,-2.03615 -5.663,-3.11785 -3.1179,-1.14534 -6.4266,-1.14534 -4.0087,0 -6.4902,1.52712 -2.4816,1.52711 -2.4816,4.26318 0,2.60881 2.2271,4.26318 2.227,1.59074 5.8539,2.79971 3.6269,1.14533 8.2718,2.22703 4.645,1.08171 9.4172,2.67245 4.8359,1.59074 9.4808,3.8814 4.645,2.22704 8.2719,5.7903 3.6269,3.49963 5.8539,8.59 2.2271,5.09037 2.2271,12.21689 0,7.57192 -3.2452,12.91681 -3.2451,5.34489 -8.7172,8.78089 -5.4722,3.436 -12.5987,5.02674 -7.1265,1.59074 -14.7621,1.59074 -7.4446,0 -14.253,-1.718 -6.7447,-1.718 -13.8076,-5.59941 l 0,5.59941 -20.9978,0 0,-34.67815 20.9978,0 q 1.8452,7.44467 7.381,11.77148 5.5358,4.26319 12.4714,4.26319 4.645,0 6.9357,-1.718 2.2906,-1.78163 2.2906,-4.00867 0,-3.49963 -3.8178,-5.40852 -3.7541,-1.90888 -9.3535,-3.37236 -5.5994,-1.52712 -12.2805,-3.37237 -6.6175,-1.90889 -12.2169,-5.40852 -5.5994,-3.56326 -9.4172,-9.35356 -3.7541,-5.79029 -3.7541,-15.14385 0,-6.93562 2.9905,-12.28051 2.9906,-5.34489 8.0174,-8.97178 5.0267,-3.69052 11.5806,-5.53578 6.6175,-1.90888 13.9349,-1.90888 10.1171,0 17.3708,2.35429 7.2538,2.3543 11.2625,4.96311 l 0,-5.91755 20.9978,0 0,34.04184 z"
       style=""
       id="path7198" />
    <path
       d="m 3084.3537,754.58889 q 0,-3.24511 1.2726,-6.23571 1.3362,-2.99059 3.436,-5.154 2.1634,-2.1634 5.0903,-3.436 2.9906,-1.27259 6.363,-1.27259 3.2451,0 6.2357,1.27259 2.9906,1.2726 5.154,3.436 2.1634,2.16341 3.436,5.154 1.3362,2.9906 1.3362,6.23571 0,1.20896 -0.1272,2.73607 -0.1273,1.46348 -0.3818,2.48155 l -7.1902,41.10474 -16.6709,0 -7.4447,-41.10474 q -0.2545,-1.14533 -0.3818,-2.48155 -0.1272,-1.39985 -0.1272,-2.73607 z m 0,66.74747 q 0,-3.24511 1.2726,-6.23571 1.3362,-2.99059 3.436,-5.15399 2.1634,-2.16341 5.0903,-3.436 2.9906,-1.33623 6.363,-1.33623 3.2451,0 6.2357,1.33623 2.9906,1.27259 5.154,3.436 2.1634,2.1634 3.436,5.15399 1.3362,2.9906 1.3362,6.23571 0,3.37237 -1.3362,6.29933 -1.2726,2.92696 -3.436,5.09037 -2.1634,2.16341 -5.154,3.436 -2.9906,1.33622 -6.2357,1.33622 -3.3724,0 -6.363,-1.33622 -2.9269,-1.27259 -5.0903,-3.436 -2.0998,-2.16341 -3.436,-5.09037 -1.2726,-2.92696 -1.2726,-6.29933 z"
       style=""
       id="path7200" />
  </g>
</svg>
