<?xml version="1.0" encoding="UTF-8" standalone="no"?>
<!-- Created with Inkscape (http://www.inkscape.org/) -->

<svg
   xmlns:dc="http://purl.org/dc/elements/1.1/"
   xmlns:cc="http://creativecommons.org/ns#"
   xmlns:rdf="http://www.w3.org/1999/02/22-rdf-syntax-ns#"
   xmlns:svg="http://www.w3.org/2000/svg"
   xmlns="http://www.w3.org/2000/svg"
   xmlns:sodipodi="http://sodipodi.sourceforge.net/DTD/sodipodi-0.dtd"
   xmlns:inkscape="http://www.inkscape.org/namespaces/inkscape"
   width="1000"
   height="500"
   viewBox="0 0 1000 500.00001"
   id="svg2"
   version="1.1"
   inkscape:version="0.91 r"
   sodipodi:docname="title.svg">
  <defs
     id="defs4" />
  <sodipodi:namedview
     id="base"
     pagecolor="#ffffff"
     bordercolor="#666666"
     borderopacity="1.0"
     inkscape:pageopacity="0.0"
     inkscape:pageshadow="2"
     inkscape:zoom="0.35355339"
     inkscape:cx="784.50144"
     inkscape:cy="647.29123"
     inkscape:document-units="px"
     inkscape:current-layer="layer1"
     showgrid="false"
     units="px"
     showguides="true"
     inkscape:guide-bbox="true"
     inkscape:snap-bbox="true"
     inkscape:bbox-paths="false"
     inkscape:bbox-nodes="true"
     inkscape:snap-global="false"
     inkscape:window-width="1855"
     inkscape:window-height="1176"
     inkscape:window-x="65"
     inkscape:window-y="24"
     inkscape:window-maximized="1" />
  <metadata
     id="metadata7">
    <rdf:RDF>
      <cc:Work
         rdf:about="">
        <dc:format>image/svg+xml</dc:format>
        <dc:type
           rdf:resource="http://purl.org/dc/dcmitype/StillImage" />
        <dc:title></dc:title>
      </cc:Work>
    </rdf:RDF>
  </metadata>
  <g
     inkscape:label="Layer 1"
     inkscape:groupmode="layer"
     id="layer1"
     transform="translate(0,-552.36216)">
    <rect
       style="color:#000000;clip-rule:nonzero;display:inline;overflow:visible;visibility:visible;opacity:1;isolation:auto;mix-blend-mode:normal;color-interpolation:sRGB;color-interpolation-filters:linearRGB;solid-color:#000000;solid-opacity:1;fill:#d0cfb4;fill-opacity:1;fill-rule:nonzero;stroke:none;stroke-width:1px;stroke-linecap:butt;stroke-linejoin:miter;stroke-miterlimit:4;stroke-dasharray:none;stroke-dashoffset:0;stroke-opacity:1;marker:none;color-rendering:auto;image-rendering:auto;shape-rendering:auto;text-rendering:auto;enable-background:accumulate"
       id="rect5874"
       width="1000"
       height="500"
       x="0"
       y="552.36218" />
    <g
       style="font-style:normal;font-variant:normal;font-weight:normal;font-stretch:normal;font-size:145.8215332px;line-height:105.99999428%;font-family:Ultra;-inkscape-font-specification:'Ultra, Normal';text-align:start;letter-spacing:0px;word-spacing:0px;writing-mode:lr-tb;text-anchor:start;fill:#3a91b0;fill-opacity:1;stroke:none;stroke-width:1px;stroke-linecap:butt;stroke-linejoin:miter;stroke-opacity:1"
       id="text5866">
      <path
         d="m 106.7874,621.73147 q -6.26577,0 -8.97144,1.70884 -2.634471,1.63765 -2.634471,6.33697 l 0,44.00279 14.240381,0 q 2.91928,0 4.91294,-0.56961 1.99365,-0.56962 3.13288,-2.34967 1.13923,-1.85125 1.56644,-5.12654 0.49842,-3.27528 0.49842,-8.68663 l 24.92067,0 0,43.14836 -102.957979,0 0,-26.41591 q 6.265769,0 8.971442,-1.63764 2.705673,-1.70885 2.705673,-6.33697 l 0,-36.02818 q 0,-4.69932 -2.705673,-6.33697 -2.705673,-1.70884 -8.971442,-1.70884 l 0,-26.41592 65.292159,0 0,26.41592 z"
         style=""
         id="path7718" />
      <path
         d="m 216.79437,673.78007 q 2.91927,0 4.84173,-0.49841 1.99365,-0.49842 3.13288,-1.85125 1.21043,-1.42404 1.63765,-3.84491 0.42721,-2.42086 0.42721,-6.19456 l 24.92067,0 0,38.80504 -101.46274,0 0,-26.41591 q 6.26577,0 8.97144,-1.63764 2.70568,-1.70885 2.70568,-6.33697 l 0,-36.02818 q 0,-4.69932 -2.70568,-6.33697 -2.70567,-1.70884 -8.97144,-1.70884 l 0,-26.41592 101.46274,0 0,38.80505 -24.92067,0 q 0,-3.7737 -0.42721,-6.19457 -0.42722,-2.42086 -1.63765,-3.7737 -1.13923,-1.35283 -3.13288,-1.85125 -1.92246,-0.56961 -4.84173,-0.56961 l -12.81635,0 0,18.93971 22.71341,0 0,12.60274 -22.71341,0 0,20.50615 12.81635,0 z"
         style=""
         id="path7720" />
      <path
         d="m 371.08894,595.31555 0,41.72433 -23.42543,0 q 0,-4.77053 -0.28481,-8.25942 -0.21361,-3.5601 -1.06803,-5.69616 -0.85442,-2.20726 -2.63447,-3.20408 -1.70885,-1.06803 -4.62813,-1.06803 l -4.41452,0 0,46.99327 q 0,4.62812 2.70568,6.33697 2.70567,1.63764 8.97144,1.63764 l 0,26.41591 -65.29216,0 0,-26.41591 q 6.26577,0 8.90024,-1.63764 2.70567,-1.70885 2.70567,-6.33697 l 0,-46.99327 -4.34332,0 q -2.91928,0 -4.69932,1.06803 -1.70885,0.99682 -2.63447,3.20408 -0.85443,2.13606 -1.06803,5.69616 -0.21361,3.48889 -0.21361,8.25942 l -23.49663,0 0,-41.72433 114.9199,0 z"
         style=""
         id="path7722" />
      <path
         d="m 391.73748,592.46748 q 6.69298,0 9.89707,3.7025 3.27529,3.7025 3.27529,8.54423 0,4.48572 -1.42404,13.10115 -1.35284,8.61543 -5.90976,22.57101 l -11.67711,0 q -2.27847,-6.97779 -3.77371,-12.60274 -1.42403,-5.62495 -2.27846,-9.89707 -0.78322,-4.34331 -1.06803,-7.5474 -0.2848,-3.20409 -0.2848,-5.34014 0,-4.98414 3.27528,-8.75784 3.27529,-3.7737 9.96827,-3.7737 z"
         style=""
         id="path7724" />
      <path
         d="m 510.85831,633.40858 -23.49663,0 q -0.56962,-3.6313 -2.56327,-6.76418 -1.92245,-3.13288 -4.77053,-5.41135 -2.84808,-2.27846 -6.33697,-3.48889 -3.48889,-1.28163 -7.19139,-1.28163 -4.48572,0 -7.2626,1.70884 -2.77687,1.70885 -2.77687,4.77053 0,2.91928 2.49206,4.77053 2.49207,1.78005 6.55058,3.13288 4.05851,1.28164 9.25625,2.49207 5.19774,1.21043 10.53788,2.99048 5.41135,1.78005 10.60909,4.34332 5.19774,2.49207 9.25625,6.47937 4.05851,3.91611 6.55058,9.61226 2.49206,5.69616 2.49206,13.67077 0,8.47303 -3.63129,14.45399 -3.6313,5.98096 -9.75467,9.82587 -6.12336,3.8449 -14.09798,5.62495 -7.97461,1.78005 -16.51884,1.78005 -8.33063,0 -15.94923,-1.92246 -7.54741,-1.92245 -15.45082,-6.26577 l 0,6.26577 -23.49663,0 0,-38.80504 23.49663,0 q 2.06485,8.33062 8.25942,13.17235 6.19457,4.77053 13.95558,4.77053 5.19774,0 7.76101,-1.92245 2.56327,-1.99365 2.56327,-4.48572 0,-3.91611 -4.27212,-6.05216 -4.20091,-2.13606 -10.46668,-3.77371 -6.26577,-1.70884 -13.74197,-3.7737 -7.405,-2.13606 -13.67077,-6.05216 -6.26577,-3.98731 -10.53788,-10.46668 -4.20092,-6.47938 -4.20092,-16.94606 0,-7.76101 3.34649,-13.74197 3.34649,-5.98096 8.97144,-10.03947 5.62496,-4.12971 12.95875,-6.19457 7.405,-2.13606 15.59322,-2.13606 11.32111,0 19.43813,2.63447 8.11702,2.63447 12.60274,5.55375 l 0,-6.62178 23.49663,0 0,38.09303 z"
         style=""
         id="path7726" />
      <path
         d="m 138.61466,787.9794 -23.49663,0 q -0.56962,-3.6313 -2.56327,-6.76418 -1.92245,-3.13289 -4.77053,-5.41135 -2.84808,-2.27846 -6.33697,-3.48889 -3.488896,-1.28164 -7.191396,-1.28164 -4.485721,0 -7.262596,1.70885 -2.776875,1.70884 -2.776875,4.77053 0,2.91928 2.492067,4.77053 2.492068,1.78004 6.550577,3.13288 4.058509,1.28163 9.256253,2.49207 5.19774,1.21043 10.53788,2.99048 5.41135,1.78005 10.60909,4.34332 5.19774,2.49206 9.25625,6.47937 4.05851,3.91611 6.55057,9.61226 2.49207,5.69615 2.49207,13.67077 0,8.47303 -3.6313,14.45399 -3.6313,5.98096 -9.75466,9.82586 -6.12337,3.84491 -14.09798,5.62495 -7.97462,1.78005 -16.518846,1.78005 -8.330625,0 -15.94923,-1.92245 -7.547404,-1.92245 -15.450817,-6.26577 l 0,6.26577 -23.496634,0 0,-38.80505 23.496634,0 q 2.064856,8.33063 8.259423,13.17236 6.194567,4.77053 13.955576,4.77053 5.19774,0 7.761009,-1.92245 2.563269,-1.99366 2.563269,-4.48572 0,-3.91611 -4.272115,-6.05217 -4.200913,-2.13606 -10.466682,-3.7737 -6.265769,-1.70885 -13.741971,-3.7737 -7.404999,-2.13606 -13.670768,-6.05216 -6.265769,-3.98731 -10.537885,-10.46669 -4.200913,-6.47937 -4.200913,-16.94605 0,-7.76101 3.34649,-13.74197 3.346491,-5.98097 8.971442,-10.03948 5.624952,-4.12971 12.95875,-6.19456 7.405,-2.13606 15.59322,-2.13606 11.321106,0 19.438128,2.63447 8.11702,2.63447 12.60274,5.55375 l 0,-6.62178 23.49663,0 0,38.09303 z"
         style=""
         id="path7728" />
      <path
         d="m 226.76264,807.98714 -24.49346,0 0,13.24356 q 0,3.7737 2.06486,5.48254 2.13605,1.63765 7.5474,1.63765 l 0,26.41591 -63.29851,0 0,-26.41591 q 6.26577,0 8.97145,-1.63765 2.70567,-1.70884 2.70567,-6.33697 l 0,-36.02817 q 0,-4.69933 -2.70567,-6.33697 -2.70568,-1.70885 -8.97145,-1.70885 l 0,-26.41591 63.29851,0 0,26.41591 q -5.41135,0 -7.5474,1.70885 -2.06486,1.63764 -2.06486,5.48255 l 0,11.46351 24.49346,0 0,-11.46351 q 0,-3.84491 -2.13606,-5.48255 -2.13605,-1.70885 -7.4762,-1.70885 l 0,-26.41591 63.22731,0 0,26.41591 q -6.26577,0 -8.97144,1.70885 -2.63448,1.63764 -2.63448,6.33697 l 0,36.02817 q 0,4.62813 2.63448,6.33697 2.70567,1.63765 8.97144,1.63765 l 0,26.41591 -63.22731,0 0,-26.41591 q 5.34015,0 7.4762,-1.63765 2.13606,-1.70884 2.13606,-5.48254 l 0,-13.24356 z"
         style=""
         id="path7730" />
      <path
         d="m 286.85706,802.43339 q 0,-13.74197 4.48572,-24.06625 4.55692,-10.39548 12.81634,-17.37327 8.25943,-6.97779 19.58053,-10.46668 11.39231,-3.48889 25.13428,-3.48889 13.67077,0 25.06307,3.48889 11.39231,3.48889 19.58053,10.46668 8.25943,6.97779 12.74515,17.37327 4.55692,10.32428 4.55692,24.06625 0,13.67077 -4.55692,24.06625 -4.48572,10.32428 -12.74515,17.37327 -8.18822,6.97779 -19.58053,10.46668 -11.3923,3.48889 -25.06307,3.48889 -13.74197,0 -25.13428,-3.48889 -11.3211,-3.48889 -19.58053,-10.46668 -8.25942,-7.04899 -12.81634,-17.37327 -4.48572,-10.39548 -4.48572,-24.06625 z m 47.84769,0 q 0,8.61543 0.64081,14.45399 0.64082,5.76735 2.20726,9.39865 1.63765,3.5601 4.34332,5.19774 2.70567,1.56644 6.97779,1.56644 4.05851,0 6.83538,-1.56644 2.77688,-1.63764 4.34332,-5.19774 1.63764,-3.6313 2.27846,-9.39865 0.64082,-5.83856 0.64082,-14.45399 0,-8.47303 -0.64082,-14.38279 -0.64082,-5.90976 -2.27846,-9.46985 -1.56644,-3.5601 -4.34332,-5.12654 -2.77687,-1.63765 -6.83538,-1.63765 -4.27212,0 -6.97779,1.63765 -2.70567,1.56644 -4.34332,5.12654 -1.56644,3.56009 -2.20726,9.46985 -0.64081,5.90976 -0.64081,14.38279 z"
         style=""
         id="path7732" />
      <path
         d="m 418.1534,802.43339 q 0,-13.74197 4.48572,-24.06625 4.55692,-10.39548 12.81634,-17.37327 8.25943,-6.97779 19.58053,-10.46668 11.39231,-3.48889 25.13428,-3.48889 13.67077,0 25.06308,3.48889 11.3923,3.48889 19.58052,10.46668 8.25943,6.97779 12.74515,17.37327 4.55692,10.32428 4.55692,24.06625 0,13.67077 -4.55692,24.06625 -4.48572,10.32428 -12.74515,17.37327 -8.18822,6.97779 -19.58052,10.46668 -11.39231,3.48889 -25.06308,3.48889 -13.74197,0 -25.13428,-3.48889 -11.3211,-3.48889 -19.58053,-10.46668 -8.25942,-7.04899 -12.81634,-17.37327 -4.48572,-10.39548 -4.48572,-24.06625 z m 47.84769,0 q 0,8.61543 0.64081,14.45399 0.64082,5.76735 2.20726,9.39865 1.63765,3.5601 4.34332,5.19774 2.70567,1.56644 6.97779,1.56644 4.05851,0 6.83538,-1.56644 2.77688,-1.63764 4.34332,-5.19774 1.63764,-3.6313 2.27846,-9.39865 0.64082,-5.83856 0.64082,-14.45399 0,-8.47303 -0.64082,-14.38279 -0.64082,-5.90976 -2.27846,-9.46985 -1.56644,-3.5601 -4.34332,-5.12654 -2.77687,-1.63765 -6.83538,-1.63765 -4.27212,0 -6.97779,1.63765 -2.70567,1.56644 -4.34332,5.12654 -1.56644,3.56009 -2.20726,9.46985 -0.64081,5.90976 -0.64081,14.38279 z"
         style=""
         id="path7734" />
      <path
         d="m 662.16239,749.88637 0,41.72433 -23.42543,0 q 0,-4.77053 -0.28481,-8.25943 -0.2136,-3.56009 -1.06803,-5.69615 -0.85442,-2.20726 -2.63447,-3.20409 -1.70884,-1.06802 -4.62812,-1.06802 l -4.41452,0 0,46.99326 q 0,4.62813 2.70567,6.33697 2.70568,1.63765 8.97144,1.63765 l 0,26.41591 -65.29216,0 0,-26.41591 q 6.26577,0 8.90024,-1.63765 2.70568,-1.70884 2.70568,-6.33697 l 0,-46.99326 -4.34332,0 q -2.91928,0 -4.69933,1.06802 -1.70884,0.99683 -2.63447,3.20409 -0.85442,2.13606 -1.06803,5.69615 -0.2136,3.4889 -0.2136,8.25943 l -23.49664,0 0,-41.72433 114.9199,0 z"
         style=""
         id="path7736" />
      <path
         d="m 154.9199,904.45719 0,41.72432 -23.42543,0 q 0,-4.77052 -0.28481,-8.25942 -0.21361,-3.56009 -1.06803,-5.69615 -0.85442,-2.20726 -2.63447,-3.20409 -1.70885,-1.06803 -4.62812,-1.06803 l -4.41452,0 0,46.99327 q 0,4.62812 2.70567,6.33697 2.70567,1.63765 8.97144,1.63765 l 0,26.41589 -65.292159,0 0,-26.41589 q 6.265769,0 8.90024,-1.63765 2.705673,-1.70885 2.705673,-6.33697 l 0,-46.99327 -4.343317,0 q -2.919279,0 -4.699327,1.06803 -1.708846,0.99683 -2.634471,3.20409 -0.854423,2.13606 -1.068029,5.69615 -0.213606,3.4889 -0.213606,8.25942 l -23.496634,0 0,-41.72432 114.9199,0 z"
         style=""
         id="path7738" />
      <path
         d="m 237.58533,962.55796 -24.49346,0 0,13.24355 q 0,3.7737 2.06485,5.48255 2.13606,1.63765 7.54741,1.63765 l 0,26.41589 -63.29851,0 0,-26.41589 q 6.26577,0 8.97144,-1.63765 2.70567,-1.70885 2.70567,-6.33697 l 0,-36.02817 q 0,-4.69933 -2.70567,-6.33697 -2.70567,-1.70885 -8.97144,-1.70885 l 0,-26.41591 63.29851,0 0,26.41591 q -5.41135,0 -7.54741,1.70885 -2.06485,1.63764 -2.06485,5.48255 l 0,11.4635 24.49346,0 0,-11.4635 q 0,-3.84491 -2.13606,-5.48255 -2.13606,-1.70885 -7.4762,-1.70885 l 0,-26.41591 63.2273,0 0,26.41591 q -6.26577,0 -8.97144,1.70885 -2.63447,1.63764 -2.63447,6.33697 l 0,36.02817 q 0,4.62812 2.63447,6.33697 2.70567,1.63765 8.97144,1.63765 l 0,26.41589 -63.2273,0 0,-26.41589 q 5.34014,0 7.4762,-1.63765 2.13606,-1.70885 2.13606,-5.48255 l 0,-13.24355 z"
         style=""
         id="path7740" />
      <path
         d="m 363.47031,982.92171 q 2.91928,0 4.84173,-0.49842 1.99365,-0.49841 3.13288,-1.85125 1.21044,-1.42404 1.63765,-3.8449 0.42721,-2.42087 0.42721,-6.19457 l 24.92067,0 0,38.80503 -101.46274,0 0,-26.41589 q 6.26577,0 8.97145,-1.63765 2.70567,-1.70885 2.70567,-6.33697 l 0,-36.02817 q 0,-4.69933 -2.70567,-6.33697 -2.70568,-1.70885 -8.97145,-1.70885 l 0,-26.41591 101.46274,0 0,38.80505 -24.92067,0 q 0,-3.77371 -0.42721,-6.19457 -0.42721,-2.42087 -1.63765,-3.7737 -1.13923,-1.35284 -3.13288,-1.85125 -1.92245,-0.56962 -4.84173,-0.56962 l -12.81635,0 0,18.93971 22.71341,0 0,12.60274 -22.71341,0 0,20.50616 12.81635,0 z"
         style=""
         id="path7742" />
      <path
         d="m 545.32001,942.55022 -23.49663,0 q -0.56962,-3.6313 -2.56327,-6.76419 -1.92245,-3.13288 -4.77053,-5.41134 -2.84808,-2.27846 -6.33697,-3.4889 -3.48889,-1.28163 -7.19139,-1.28163 -4.48572,0 -7.2626,1.70885 -2.77687,1.70884 -2.77687,4.77052 0,2.91928 2.49206,4.77053 2.49207,1.78005 6.55058,3.13289 4.05851,1.28163 9.25625,2.49206 5.19774,1.21044 10.53788,2.99048 5.41135,1.78005 10.60909,4.34332 5.19774,2.49207 9.25625,6.47938 4.05851,3.9161 6.55058,9.61226 2.49206,5.69615 2.49206,13.67076 0,8.47303 -3.63129,14.45399 -3.6313,5.981 -9.75467,9.8259 -6.12336,3.8449 -14.09798,5.6249 -7.97461,1.7801 -16.51884,1.7801 -8.33063,0 -15.94923,-1.9225 -7.54741,-1.9224 -15.45082,-6.2658 l 0,6.2658 -23.49663,0 0,-38.80503 23.49663,0 q 2.06486,8.33063 8.25942,13.17236 6.19457,4.77052 13.95558,4.77052 5.19774,0 7.76101,-1.92245 2.56327,-1.99365 2.56327,-4.48572 0,-3.9161 -4.27212,-6.05216 -4.20091,-2.13606 -10.46668,-3.7737 -6.26577,-1.70885 -13.74197,-3.7737 -7.405,-2.13606 -13.67077,-6.05217 -6.26577,-3.98731 -10.53788,-10.46668 -4.20092,-6.47938 -4.20092,-16.94606 0,-7.76101 3.34649,-13.74197 3.34649,-5.98096 8.97145,-10.03947 5.62495,-4.12971 12.95874,-6.19457 7.405,-2.13605 15.59323,-2.13605 11.3211,0 19.43812,2.63447 8.11702,2.63447 12.60274,5.55375 l 0,-6.62178 23.49663,0 0,38.09303 z"
         style=""
         id="path7744" />
      <path
         d="m 621.79086,982.92171 q 2.91928,0 4.84173,-0.49842 1.99366,-0.49841 3.13289,-1.85125 1.21043,-1.42404 1.63764,-3.8449 0.42722,-2.42087 0.42722,-6.19457 l 24.92067,0 0,38.80503 -101.46274,0 0,-26.41589 q 6.26577,0 8.97144,-1.63765 2.70568,-1.70885 2.70568,-6.33697 l 0,-36.02817 q 0,-4.69933 -2.70568,-6.33697 -2.70567,-1.70885 -8.97144,-1.70885 l 0,-26.41591 101.46274,0 0,38.80505 -24.92067,0 q 0,-3.77371 -0.42722,-6.19457 -0.42721,-2.42087 -1.63764,-3.7737 -1.13923,-1.35284 -3.13289,-1.85125 -1.92245,-0.56962 -4.84173,-0.56962 l -12.81634,0 0,18.93971 22.71341,0 0,12.60274 -22.71341,0 0,20.50616 12.81634,0 z"
         style=""
         id="path7746" />
      <path
         d="m 662.66077,1009.3376 0,-26.41589 q 6.26577,0 8.97144,-1.63765 2.70567,-1.70885 2.70567,-6.33697 l 0,-36.02817 q 0,-4.69933 -2.70567,-6.33697 -2.70567,-1.70885 -8.97144,-1.70885 l 0,-26.41591 75.40283,0 q 10.46668,0 17.58688,2.06485 7.19139,2.06486 11.46351,5.90976 4.34331,3.84491 6.12336,9.18505 1.85125,5.34015 1.85125,11.89072 0,11.96192 -5.76735,19.15332 -5.76736,7.12019 -18.4413,7.68981 l 0,0.85442 q 6.12336,0.42721 10.11067,2.27846 4.05851,1.85125 6.33697,4.84173 2.34966,2.91928 3.27529,7.12019 0.99683,4.12971 0.99683,9.39866 l 0,3.7737 q 0,1.78005 0.92562,3.13288 0.92563,1.28164 2.84808,1.28164 2.06485,0 2.91928,-1.28164 0.85442,-1.35283 0.85442,-3.13288 l 0,-18.08529 8.18822,0 0,18.08529 q 0,5.12654 -1.56644,9.46985 -1.49524,4.27209 -4.98414,7.47619 -3.48889,3.2041 -9.18504,4.9129 -5.69616,1.7801 -14.02678,1.7801 -8.33063,0 -13.67077,-1.8513 -5.26894,-1.78 -8.25942,-4.9841 -2.99048,-3.2041 -4.20092,-7.40499 -1.13923,-4.27211 -1.13923,-8.97144 l 0,-5.48255 q 0,-5.69615 -0.64081,-9.18505 -0.64082,-3.56009 -2.13606,-5.48254 -1.42404,-1.99366 -3.7737,-2.63447 -2.34967,-0.64082 -5.69616,-0.64082 l -1.70884,0 0,10.18187 q 0,3.7737 2.06485,5.48255 2.13606,1.63765 7.54741,1.63765 l 0,26.41589 -63.29851,0 z m 53.68625,-56.3207 6.26577,0 q 5.98096,0 8.18822,-2.84808 2.27846,-2.91928 2.27846,-8.04582 0,-5.98096 -2.27846,-8.61543 -2.20726,-2.63447 -8.18822,-2.63447 l -6.26577,0 0,22.1438 z"
         style=""
         id="path7748" />
      <path
         d="m 790.25464,1009.3376 0,-26.41589 q 6.26577,0 8.97144,-1.63765 2.70568,-1.70885 2.70568,-6.33697 l 0,-36.02817 q 0,-4.69933 -2.70568,-6.33697 -2.70567,-1.70885 -8.97144,-1.70885 l 0,-26.41591 65.29216,0 0,26.41591 q -6.26577,0 -8.97144,1.70885 -2.63447,1.63764 -2.63447,6.33697 l 0,36.02817 q 0,4.62812 2.63447,6.33697 2.70567,1.63765 8.97144,1.63765 l 0,26.41589 -65.29216,0 z"
         style=""
         id="path7750" />
      <path
         d="m 861.45654,1009.3376 0,-26.41589 q 6.26577,0 8.97145,-1.63765 2.70567,-1.70885 2.70567,-6.33697 l 0,-36.02817 q 0,-4.69933 -2.70567,-6.33697 -2.70568,-1.70885 -8.97145,-1.70885 l 0,-26.41591 98.54346,0 0,40.30029 -24.92067,0 q 0,-4.41452 -0.42721,-7.04899 -0.42721,-2.70568 -1.63765,-4.20092 -1.13923,-1.56644 -3.13288,-2.06485 -1.92245,-0.56962 -4.84173,-0.56962 l -9.89707,0 0,20.57736 22.71342,0 0,12.53153 -22.71342,0 0,10.9651 q 0,3.7737 1.85125,5.90976 1.92245,2.06486 6.90659,2.06486 l 7.26259,0 0,26.41589 -69.70668,0 z"
         style=""
         id="path7752" />
    </g>
  </g>
</svg>
