<?xml version="1.0" encoding="UTF-8" standalone="no"?>
<!-- Created with Inkscape (http://www.inkscape.org/) -->

<svg
   xmlns:dc="http://purl.org/dc/elements/1.1/"
   xmlns:cc="http://creativecommons.org/ns#"
   xmlns:rdf="http://www.w3.org/1999/02/22-rdf-syntax-ns#"
   xmlns:svg="http://www.w3.org/2000/svg"
   xmlns="http://www.w3.org/2000/svg"
   version="1.1"
   width="40"
   height="40"
   id="svg3597">
  <defs
     id="defs3599" />
  <metadata
     id="metadata3602">
    <rdf:RDF>
      <cc:Work
         rdf:about="">
        <dc:format>image/svg+xml</dc:format>
        <dc:type
           rdf:resource="http://purl.org/dc/dcmitype/StillImage" />
        <dc:title></dc:title>
      </cc:Work>
    </rdf:RDF>
  </metadata>
  <g
     transform="translate(-309.71429,-669.93359)"
     id="layer1">
    <rect
       width="40"
       height="40"
       x="309.71429"
       y="669.93359"
       id="rect3699"
       style="opacity:0;color:#000000;fill:#f44800;fill-opacity:1;fill-rule:nonzero;stroke:none;stroke-width:10;marker:none;visibility:visible;display:inline;overflow:visible;enable-background:accumulate" />
    <path
       d="M 29,13.5 C 29,17.089851 26.089851,20 22.5,20 18.910149,20 16,17.089851 16,13.5 16,9.9101491 18.910149,7 22.5,7 26.089851,7 29,9.9101491 29,13.5 z"
       transform="matrix(1.2307692,0,0,1.2307692,302.02198,668.31821)"
       id="path4478"
       style="color:#000000;fill:#333333;fill-opacity:1;fill-rule:nonzero;stroke:none;stroke-width:0.8125;marker:none;visibility:visible;display:inline;overflow:visible;enable-background:accumulate" />
    <path
       d="M 14.53125,22.125 C 9.5213264,23.758271 6,27.565629 6,32 l 14,0 14,0 C 34,27.565629 30.478674,23.758271 25.46875,22.125 23.950829,23.292322 22.062895,24 20,24 17.937105,24 16.049171,23.292322 14.53125,22.125 z"
       transform="translate(309.71429,669.93359)"
       id="path4480"
       style="color:#000000;fill:#333333;fill-opacity:1;fill-rule:nonzero;stroke:none;stroke-width:0;marker:none;visibility:visible;display:inline;overflow:visible;enable-background:accumulate" />
  </g>
</svg>
