<?xml version="1.0" encoding="UTF-8" standalone="no"?>
<!-- Created with Inkscape (http://www.inkscape.org/) -->

<svg
   xmlns:dc="http://purl.org/dc/elements/1.1/"
   xmlns:cc="http://creativecommons.org/ns#"
   xmlns:rdf="http://www.w3.org/1999/02/22-rdf-syntax-ns#"
   xmlns:svg="http://www.w3.org/2000/svg"
   xmlns="http://www.w3.org/2000/svg"
   xmlns:sodipodi="http://sodipodi.sourceforge.net/DTD/sodipodi-0.dtd"
   xmlns:inkscape="http://www.inkscape.org/namespaces/inkscape"
   width="40"
   height="40"
   id="svg3720"
   version="1.1"
   inkscape:version="0.48.4 r9939"
   sodipodi:docname="Nowy dokument 4">
  <defs
     id="defs3722" />
  <sodipodi:namedview
     id="base"
     pagecolor="#ffffff"
     bordercolor="#666666"
     borderopacity="1.0"
     inkscape:pageopacity="0.0"
     inkscape:pageshadow="2"
     inkscape:zoom="5.6568542"
     inkscape:cx="39.403456"
     inkscape:cy="5.9763376"
     inkscape:document-units="px"
     inkscape:current-layer="layer1"
     showgrid="false"
     fit-margin-top="0"
     fit-margin-left="0"
     fit-margin-right="0"
     fit-margin-bottom="0"
     inkscape:window-width="927"
     inkscape:window-height="1148"
     inkscape:window-x="992"
     inkscape:window-y="24"
     inkscape:window-maximized="0" />
  <metadata
     id="metadata3725">
    <rdf:RDF>
      <cc:Work
         rdf:about="">
        <dc:format>image/svg+xml</dc:format>
        <dc:type
           rdf:resource="http://purl.org/dc/dcmitype/StillImage" />
        <dc:title></dc:title>
      </cc:Work>
    </rdf:RDF>
  </metadata>
  <g
     inkscape:label="Layer 1"
     inkscape:groupmode="layer"
     id="layer1"
     transform="translate(-500,-638.07648)">
    <rect
       y="638.07648"
       x="500"
       height="40"
       width="40"
       id="rect3707"
       style="color:#000000;fill:#f44800;fill-opacity:1;fill-rule:nonzero;stroke:none;stroke-width:10;marker:none;visibility:visible;display:inline;overflow:visible;enable-background:accumulate;opacity:0" />
    <path
       inkscape:connector-curvature="0"
       id="path3717"
       style="font-size:25.38276863px;font-style:normal;font-variant:normal;font-weight:500;font-stretch:normal;line-height:125%;letter-spacing:0px;word-spacing:0px;fill:#ededed;fill-opacity:1;stroke:none;font-family:Ubuntu;-inkscape-font-specification:Ubuntu Medium"
       d="m 518.74297,666.04379 c -1.24407,-0.083 -2.25486,-0.2403 -3.03239,-0.4723 -0.76027,-0.2486 -1.33046,-0.4724 -1.71059,-0.6712 l 0.88122,-2.3616 c 0.5529,0.2652 1.21814,0.5054 1.99567,0.7209 0.79481,0.2155 1.6933,0.3232 2.69546,0.3232 1.19222,0 2.01295,-0.1657 2.4622,-0.4972 0.46651,-0.348 0.69978,-0.8038 0.69979,-1.3672 -10e-6,-0.3812 -0.0951,-0.7127 -0.2851,-0.9944 -0.19007,-0.2817 -0.45789,-0.5303 -0.80346,-0.7457 -0.34557,-0.2155 -0.76026,-0.4144 -1.24405,-0.5967 -0.46654,-0.1822 -0.98489,-0.3728 -1.55508,-0.5717 -0.53564,-0.1823 -1.07128,-0.3895 -1.60691,-0.6215 -0.51836,-0.232 -0.99352,-0.5138 -1.42548,-0.8452 -0.41469,-0.3479 -0.75162,-0.7623 -1.0108,-1.2429 -0.25918,-0.4806 -0.38877,-1.0689 -0.38877,-1.765 0,-1.1435 0.35421,-2.1129 1.06263,-2.9084 0.70842,-0.8121 1.79698,-1.3341 3.26566,-1.5661 l 0,-2.7842 2.69546,0 0,2.6848 c 0.82937,0.067 1.57235,0.1822 2.22894,0.3479 0.65658,0.1492 1.17493,0.2983 1.55507,0.4475 l -0.64795,2.461 c -0.50108,-0.1822 -1.09719,-0.3563 -1.78833,-0.522 -0.67388,-0.1657 -1.45141,-0.2486 -2.33261,-0.2486 -0.93305,0 -1.63284,0.1658 -2.09935,0.4972 -0.46653,0.3148 -0.69979,0.754 -0.69979,1.3175 0,0.3314 0.0691,0.6132 0.20736,0.8452 0.13822,0.2154 0.34556,0.4142 0.62202,0.5966 0.27646,0.1657 0.61338,0.3314 1.0108,0.4971 0.3974,0.1492 0.84664,0.3067 1.34773,0.4724 0.70841,0.2652 1.37364,0.5468 1.99568,0.8451 0.6393,0.2818 1.1922,0.6215 1.65875,1.0193 0.4665,0.3811 0.82935,0.8369 1.08854,1.3672 0.27645,0.5304 0.41467,1.1601 0.41469,1.8893 -2e-5,1.0937 -0.35422,2.0383 -1.06264,2.8339 -0.70842,0.7954 -1.87473,1.3092 -3.49891,1.5412 l 0,3.1074 -2.69546,0 0,-3.0328" />
  </g>
</svg>
