<?xml version="1.0" encoding="UTF-8" standalone="no"?>
<!-- Created with Inkscape (http://www.inkscape.org/) -->

<svg
   xmlns:dc="http://purl.org/dc/elements/1.1/"
   xmlns:cc="http://creativecommons.org/ns#"
   xmlns:rdf="http://www.w3.org/1999/02/22-rdf-syntax-ns#"
   xmlns:svg="http://www.w3.org/2000/svg"
   xmlns="http://www.w3.org/2000/svg"
   xmlns:sodipodi="http://sodipodi.sourceforge.net/DTD/sodipodi-0.dtd"
   xmlns:inkscape="http://www.inkscape.org/namespaces/inkscape"
   width="256"
   height="256"
   id="svg8971"
   version="1.1"
   inkscape:version="0.48.4 r9939"
   sodipodi:docname="Nowy dokument 12">
  <defs
     id="defs8973" />
  <sodipodi:namedview
     id="base"
     pagecolor="#ffffff"
     bordercolor="#666666"
     borderopacity="1.0"
     inkscape:pageopacity="0.0"
     inkscape:pageshadow="2"
     inkscape:zoom="1"
     inkscape:cx="165.85714"
     inkscape:cy="139.42857"
     inkscape:document-units="px"
     inkscape:current-layer="layer1"
     showgrid="false"
     fit-margin-top="0"
     fit-margin-left="0"
     fit-margin-right="0"
     fit-margin-bottom="0"
     inkscape:window-width="524"
     inkscape:window-height="415"
     inkscape:window-x="531"
     inkscape:window-y="321"
     inkscape:window-maximized="0" />
  <metadata
     id="metadata8976">
    <rdf:RDF>
      <cc:Work
         rdf:about="">
        <dc:format>image/svg+xml</dc:format>
        <dc:type
           rdf:resource="http://purl.org/dc/dcmitype/StillImage" />
        <dc:title></dc:title>
      </cc:Work>
    </rdf:RDF>
  </metadata>
  <g
     inkscape:label="Layer 1"
     inkscape:groupmode="layer"
     id="layer1"
     transform="translate(-209.14286,-535.79076)">
    <g
       id="g6620"
       transform="translate(-225.54263,441.01921)">
      <rect
         ry="34"
         rx="34"
         y="94.771545"
         x="434.68549"
         height="256"
         width="256"
         id="rect6606"
         style="opacity:0.5;color:#000000;fill:#eeeeee;fill-opacity:1;fill-rule:nonzero;stroke:none;stroke-width:10;marker:none;visibility:visible;display:inline;overflow:visible;enable-background:accumulate" />
      <path
         sodipodi:nodetypes="cssccsscccssccsscccssccsscccssccsscc"
         inkscape:connector-curvature="0"
         id="rect6608"
         d="m 677.8855,176.31998 0,-46.45163 c 0,-12.28812 -10.00866,-22.29678 -22.29679,-22.29678 l -46.45162,0 0,7.43227 46.45162,0 c 8.29927,0 14.86452,6.56525 14.86452,14.86451 l 0,46.45163 z m -7.43227,92.90321 0,46.45159 c 0,8.29926 -6.56525,14.86451 -14.86452,14.86451 l -46.45162,0 0,7.43227 46.45162,0 c 12.28813,0 22.29679,-10.00866 22.29679,-22.29678 l 0,-46.45159 z m -222.96773,0 0,46.45159 c 0,12.28812 10.00866,22.29678 22.29679,22.29678 l 46.45163,0 0,-7.43227 -46.45163,0 c -8.29926,0 -14.86451,-6.56525 -14.86451,-14.86451 l 0,-46.45159 z m 7.43228,-92.90321 0,-46.45163 c 0,-8.29926 6.56525,-14.86451 14.86451,-14.86451 l 46.45163,0 0,-7.43227 -46.45163,0 c -12.28813,0 -22.29679,10.00866 -22.29679,22.29678 l 0,46.45163 z"
         style="font-size:medium;font-style:normal;font-variant:normal;font-weight:normal;font-stretch:normal;text-indent:0;text-align:start;text-decoration:none;line-height:normal;letter-spacing:normal;word-spacing:normal;text-transform:none;direction:ltr;block-progression:tb;writing-mode:lr-tb;text-anchor:start;baseline-shift:baseline;opacity:0.5;color:#000000;fill:#000000;fill-opacity:1;fill-rule:nonzero;stroke:none;stroke-width:2;marker:none;visibility:visible;display:inline;overflow:visible;enable-background:accumulate;font-family:Sans;-inkscape-font-specification:Sans" />
    </g>
  </g>
</svg>
