<?xml version="1.0" encoding="UTF-8" standalone="no"?>
<!-- Created with Inkscape (http://www.inkscape.org/) -->

<svg
   xmlns:dc="http://purl.org/dc/elements/1.1/"
   xmlns:cc="http://creativecommons.org/ns#"
   xmlns:rdf="http://www.w3.org/1999/02/22-rdf-syntax-ns#"
   xmlns:svg="http://www.w3.org/2000/svg"
   xmlns="http://www.w3.org/2000/svg"
   xmlns:xlink="http://www.w3.org/1999/xlink"
   version="1.1"
   width="60"
   height="60"
   id="svg3171">
  <defs
     id="defs3173">
    <linearGradient
       id="linearGradient3936-3">
      <stop
         id="stop3938-39"
         style="stop-color:#e6e6e6;stop-opacity:1"
         offset="0" />
      <stop
         id="stop3940-19"
         style="stop-color:#cdcdcd;stop-opacity:1"
         offset="1" />
    </linearGradient>
    <linearGradient
       id="linearGradient3919-8">
      <stop
         id="stop3921-8"
         style="stop-color:#ffffff;stop-opacity:1"
         offset="0" />
      <stop
         id="stop3923-3"
         style="stop-color:#ffffff;stop-opacity:0"
         offset="1" />
    </linearGradient>
    <linearGradient
       x1="204"
       y1="698"
       x2="204"
       y2="764.38715"
       id="linearGradient3252"
       xlink:href="#linearGradient3936-3"
       gradientUnits="userSpaceOnUse" />
    <linearGradient
       x1="200.65308"
       y1="765.9588"
       x2="200.65308"
       y2="745.9184"
       id="linearGradient5509"
       xlink:href="#linearGradient3919-8"
       gradientUnits="userSpaceOnUse"
       gradientTransform="matrix(0.57047835,0,0,0.57047835,346.90813,92.32736)" />
  </defs>
  <metadata
     id="metadata3176">
    <rdf:RDF>
      <cc:Work
         rdf:about="">
        <dc:format>image/svg+xml</dc:format>
        <dc:type
           rdf:resource="http://purl.org/dc/dcmitype/StillImage" />
        <dc:title></dc:title>
      </cc:Work>
    </rdf:RDF>
  </metadata>
  <g
     transform="translate(-433.28571,-481.79071)"
     id="layer1">
    <rect
       width="60"
       height="60"
       x="433.28571"
       y="481.79071"
       id="rect5024"
       style="opacity:0;color:#000000;fill:#ad7fa8;fill-opacity:1;fill-rule:nonzero;stroke:none;stroke-width:1;marker:none;visibility:visible;display:inline;overflow:visible;enable-background:accumulate" />
    <path
       d="m 238,732 a 34,34 0 1 1 -68,0 34,34 0 1 1 68,0 z"
       transform="matrix(0.64705882,0,0,0.64705885,331.28571,38.143635)"
       id="path5028"
       style="color:#000000;fill:#505050;fill-opacity:1;fill-rule:nonzero;stroke:none;stroke-width:1;marker:none;visibility:visible;display:inline;overflow:visible;enable-background:accumulate" />
    <path
       d="m 238,732 a 34,34 0 1 1 -68,0 34,34 0 1 1 68,0 z"
       transform="matrix(0.58823529,0,0,0.58204342,343.28571,83.94988)"
       id="path5032"
       style="color:#000000;fill:url(#linearGradient3252);fill-opacity:1;fill-rule:nonzero;stroke:none;stroke-width:1.70000005;marker:none;visibility:visible;display:inline;overflow:visible;enable-background:accumulate" />
    <path
       d="m 483.28266,510.00729 c 0,10.4502 -9.54675,18.82511 -19.99695,18.82511 -10.4502,0 -19.99305,-8.3788 -19.99305,-18.829 l 0,0 c 0,10.9743 9.01873,19.7917 19.99305,19.7917 10.97433,0 19.99695,-8.8135 19.99695,-19.78781 z"
       id="path5034"
       style="font-size:medium;font-style:normal;font-variant:normal;font-weight:normal;font-stretch:normal;text-indent:0;text-align:start;text-decoration:none;line-height:normal;letter-spacing:normal;word-spacing:normal;text-transform:none;direction:ltr;block-progression:tb;writing-mode:lr-tb;text-anchor:start;baseline-shift:baseline;color:#000000;fill:url(#linearGradient5509);fill-opacity:1;fill-rule:nonzero;stroke:none;stroke-width:1.70000005;marker:none;visibility:visible;display:inline;overflow:visible;enable-background:accumulate;font-family:Sans;-inkscape-font-specification:Sans" />
    <path
       d="m 462.28571,498.79068 -6,6.00003 -8,0 0,9.99997 8,0 6,5.99998 z"
       id="rect2987-5"
       style="color:#000000;fill:#db3131;fill-opacity:1;fill-rule:nonzero;stroke:none;stroke-width:0.25;marker:none;visibility:visible;display:inline;overflow:visible;enable-background:accumulate" />
    <path
       d="m 465.61442,503.38483 c -0.42672,0.44362 -0.42672,1.15791 0,1.60145 l 4.62151,4.80442 -4.62151,4.80434 c -0.42672,0.44354 -0.42672,1.15783 0,1.60152 0.42672,0.44354 1.11378,0.44354 1.5405,0 l 4.62152,-4.80442 4.62151,4.80442 c 0.42672,0.44354 1.11378,0.44354 1.5405,0 0.42672,-0.44369 0.42672,-1.15798 0,-1.60152 l -4.62151,-4.80434 4.62151,-4.80442 c 0.42672,-0.44354 0.42672,-1.15783 0,-1.60145 -0.42672,-0.44354 -1.11378,-0.44354 -1.5405,0 l -4.62151,4.80442 -4.62152,-4.80442 c -0.42672,-0.44354 -1.11378,-0.44354 -1.5405,0 z"
       id="rect13257"
       style="color:#000000;fill:#db3131;fill-opacity:1;fill-rule:nonzero;stroke:none;stroke-width:0.25;marker:none;visibility:visible;display:inline;overflow:visible;enable-background:accumulate" />
  </g>
</svg>
