<?xml version="1.0" encoding="UTF-8" standalone="no"?>
<!-- Created with Inkscape (http://www.inkscape.org/) -->

<svg
   xmlns:dc="http://purl.org/dc/elements/1.1/"
   xmlns:cc="http://creativecommons.org/ns#"
   xmlns:rdf="http://www.w3.org/1999/02/22-rdf-syntax-ns#"
   xmlns:svg="http://www.w3.org/2000/svg"
   xmlns="http://www.w3.org/2000/svg"
   xmlns:xlink="http://www.w3.org/1999/xlink"
   version="1.1"
   width="60"
   height="60"
   id="svg3171">
  <defs
     id="defs3173">
    <linearGradient
       id="linearGradient3936-3">
      <stop
         id="stop3938-39"
         style="stop-color:#e6e6e6;stop-opacity:1"
         offset="0" />
      <stop
         id="stop3940-19"
         style="stop-color:#cdcdcd;stop-opacity:1"
         offset="1" />
    </linearGradient>
    <linearGradient
       id="linearGradient3919-8">
      <stop
         id="stop3921-8"
         style="stop-color:#ffffff;stop-opacity:1"
         offset="0" />
      <stop
         id="stop3923-3"
         style="stop-color:#ffffff;stop-opacity:0"
         offset="1" />
    </linearGradient>
    <linearGradient
       x1="204"
       y1="698"
       x2="204"
       y2="764.38715"
       id="linearGradient3252"
       xlink:href="#linearGradient3936-3"
       gradientUnits="userSpaceOnUse" />
    <linearGradient
       x1="200.65308"
       y1="765.9588"
       x2="200.65308"
       y2="745.9184"
       id="linearGradient5509"
       xlink:href="#linearGradient3919-8"
       gradientUnits="userSpaceOnUse"
       gradientTransform="matrix(0.57047835,0,0,0.57047835,346.90813,92.32736)" />
  </defs>
  <metadata
     id="metadata3176">
    <rdf:RDF>
      <cc:Work
         rdf:about="">
        <dc:format>image/svg+xml</dc:format>
        <dc:type
           rdf:resource="http://purl.org/dc/dcmitype/StillImage" />
        <dc:title></dc:title>
      </cc:Work>
    </rdf:RDF>
  </metadata>
  <g
     transform="translate(-433.28571,-481.79071)"
     id="layer1">
    <rect
       width="60"
       height="60"
       x="433.28571"
       y="481.79071"
       id="rect5024"
       style="opacity:0;color:#000000;fill:#ad7fa8;fill-opacity:1;fill-rule:nonzero;stroke:none;stroke-width:1;marker:none;visibility:visible;display:inline;overflow:visible;enable-background:accumulate" />
    <path
       d="m 238,732 a 34,34 0 1 1 -68,0 34,34 0 1 1 68,0 z"
       transform="matrix(0.64705882,0,0,0.64705885,331.28571,38.143635)"
       id="path5028"
       style="color:#000000;fill:#505050;fill-opacity:1;fill-rule:nonzero;stroke:none;stroke-width:1;marker:none;visibility:visible;display:inline;overflow:visible;enable-background:accumulate" />
    <path
       d="m 238,732 a 34,34 0 1 1 -68,0 34,34 0 1 1 68,0 z"
       transform="matrix(0.58823529,0,0,0.58204342,343.28571,83.94988)"
       id="path5032"
       style="color:#000000;fill:url(#linearGradient3252);fill-opacity:1;fill-rule:nonzero;stroke:none;stroke-width:1.70000005;marker:none;visibility:visible;display:inline;overflow:visible;enable-background:accumulate" />
    <path
       d="m 483.28266,510.00729 c 0,10.4502 -9.54675,18.82511 -19.99695,18.82511 -10.4502,0 -19.99305,-8.3788 -19.99305,-18.829 l 0,0 c 0,10.9743 9.01873,19.7917 19.99305,19.7917 10.97433,0 19.99695,-8.8135 19.99695,-19.78781 z"
       id="path5034"
       style="font-size:medium;font-style:normal;font-variant:normal;font-weight:normal;font-stretch:normal;text-indent:0;text-align:start;text-decoration:none;line-height:normal;letter-spacing:normal;word-spacing:normal;text-transform:none;direction:ltr;block-progression:tb;writing-mode:lr-tb;text-anchor:start;baseline-shift:baseline;color:#000000;fill:url(#linearGradient5509);fill-opacity:1;fill-rule:nonzero;stroke:none;stroke-width:1.70000005;marker:none;visibility:visible;display:inline;overflow:visible;enable-background:accumulate;font-family:Sans;-inkscape-font-specification:Sans" />
    <path
       d="m 462.28571,498.79068 -6,6.00003 -8,0 0,9.99997 8,0 6,5.99998 z"
       id="rect2987"
       style="color:#000000;fill:#35af44;fill-opacity:1;fill-rule:nonzero;stroke:none;stroke-width:0.25;marker:none;visibility:visible;display:inline;overflow:visible;enable-background:accumulate" />
    <path
       d="m 466.19414,502.94864 c -0.18061,0 -0.34791,0.0716 -0.45553,0.18015 -0.10762,0.10854 -0.18141,0.24058 -0.21866,0.37842 -0.0745,0.27581 -0.036,0.62545 0.2551,0.82885 0,0 0.5546,0.39587 1.12972,1.2794 0.57513,0.88346 1.16617,2.23181 1.16617,4.16238 0,1.93051 -0.59104,3.29687 -1.16617,4.1804 -0.57512,0.88353 -1.12972,1.27933 -1.12972,1.27933 -0.33966,0.2449 -0.41369,0.69222 -0.20043,1.04515 0.21326,0.35287 0.70155,0.4644 1.03862,0.21623 0,0 2.89718,-2.19273 2.89718,-6.72111 0,-4.52844 -2.89718,-6.7031 -2.89718,-6.7031 -0.12077,-0.0898 -0.2666,-0.12644 -0.4191,-0.1261 z"
       id="path5406"
       style="font-size:medium;font-style:normal;font-variant:normal;font-weight:normal;font-stretch:normal;text-indent:0;text-align:start;text-decoration:none;line-height:normal;letter-spacing:normal;word-spacing:normal;text-transform:none;direction:ltr;block-progression:tb;writing-mode:lr-tb;text-anchor:start;baseline-shift:baseline;color:#000000;fill:#35af44;fill-opacity:1;fill-rule:nonzero;stroke:none;stroke-width:0.99999994;marker:none;visibility:visible;display:inline;overflow:visible;enable-background:accumulate;font-family:Sans;-inkscape-font-specification:Sans" />
    <path
       d="m 468.08916,499.64203 c -0.34086,0.0564 -0.519,0.35826 -0.56486,0.63067 -0.0446,0.26494 0.0219,0.59183 0.29154,0.77482 0.003,0.002 0.0148,-0.002 0.0182,0 0.035,0.0222 4.17268,2.66183 4.17268,8.73925 0,6.0766 -4.13677,8.71643 -4.17268,8.73922 -1.6e-4,6e-5 -0.0182,0 -0.0182,0 l 0,0.0179 c -0.17552,0.10791 -0.28093,0.27246 -0.32798,0.45042 -0.0492,0.18608 -0.0465,0.38862 0.0547,0.57659 0.1993,0.37042 0.69115,0.49601 1.03861,0.25232 l 0,0.0179 c 0,0 0.0178,-0.0179 0.0182,-0.0179 0.0626,-0.0414 4.86509,-3.22453 4.86509,-10.03657 0,-6.85666 -4.88332,-10.03662 -4.88332,-10.03662 -0.1466,-0.10018 -0.31463,-0.13635 -0.49197,-0.10812 z"
       id="path5408"
       style="font-size:medium;font-style:normal;font-variant:normal;font-weight:normal;font-stretch:normal;text-indent:0;text-align:start;text-decoration:none;line-height:normal;letter-spacing:normal;word-spacing:normal;text-transform:none;direction:ltr;block-progression:tb;writing-mode:lr-tb;text-anchor:start;baseline-shift:baseline;color:#000000;fill:#35af44;fill-opacity:1;fill-rule:nonzero;stroke:none;stroke-width:0.99999994;marker:none;visibility:visible;display:inline;overflow:visible;enable-background:accumulate;font-family:Sans;-inkscape-font-specification:Sans" />
    <path
       d="m 470.62192,495.97912 c -0.1788,0.0144 -0.33916,0.1187 -0.43731,0.23425 -0.0982,0.11554 -0.1547,0.23898 -0.18221,0.37839 -0.055,0.27883 0.006,0.62875 0.30976,0.81086 0,0 6.10414,3.76551 6.10414,12.37905 0,8.56748 -6.02128,12.33889 -6.08592,12.37901 -0.005,0 0.005,0.0155 0,0.0179 -0.003,0 -0.0147,0 -0.0182,0 -0.18133,0.10303 -0.29454,0.27195 -0.34621,0.45048 -0.054,0.18642 -0.0443,0.40307 0.0547,0.59461 0.19499,0.37727 0.66881,0.49762 1.02039,0.25226 l 0,0.0179 c 0,0 0.0179,-0.0179 0.0182,-0.0179 0.0634,-0.0403 6.81477,-4.35099 6.81477,-13.69443 0,-9.34352 -6.75135,-13.63613 -6.81477,-13.67642 -1.3e-4,-8e-5 8e-5,-0.0179 0,-0.0179 -0.005,-0.003 -0.0131,0.003 -0.0182,0 -0.12418,-0.0775 -0.27117,-0.11843 -0.41909,-0.10811 z"
       id="path5410"
       style="font-size:medium;font-style:normal;font-variant:normal;font-weight:normal;font-stretch:normal;text-indent:0;text-align:start;text-decoration:none;line-height:normal;letter-spacing:normal;word-spacing:normal;text-transform:none;direction:ltr;block-progression:tb;writing-mode:lr-tb;text-anchor:start;baseline-shift:baseline;color:#000000;fill:#35af44;fill-opacity:1;fill-rule:nonzero;stroke:none;stroke-width:0.99999994;marker:none;visibility:visible;display:inline;overflow:visible;enable-background:accumulate;font-family:Sans;-inkscape-font-specification:Sans" />
  </g>
</svg>
