<?xml version="1.0" encoding="UTF-8" standalone="no"?>
<!-- Created with Inkscape (http://www.inkscape.org/) -->

<svg
   xmlns:dc="http://purl.org/dc/elements/1.1/"
   xmlns:cc="http://creativecommons.org/ns#"
   xmlns:rdf="http://www.w3.org/1999/02/22-rdf-syntax-ns#"
   xmlns:svg="http://www.w3.org/2000/svg"
   xmlns="http://www.w3.org/2000/svg"
   xmlns:xlink="http://www.w3.org/1999/xlink"
   version="1.1"
   width="420"
   height="150"
   id="svg13145">
  <defs
     id="defs13147">
    <linearGradient
       id="linearGradient12439">
      <stop
         id="stop12441"
         style="stop-color:#e8e8e8;stop-opacity:1"
         offset="0" />
      <stop
         id="stop12443"
         style="stop-color:#bbbbbb;stop-opacity:1"
         offset="1" />
    </linearGradient>
    <linearGradient
       x1="1103.8696"
       y1="991.56415"
       x2="1152.4639"
       y2="1138.2841"
       id="linearGradient13251"
       xlink:href="#linearGradient12439"
       gradientUnits="userSpaceOnUse"
       gradientTransform="matrix(-0.66224723,0,0,0.66224723,1280.2285,-276.47317)" />
    <linearGradient
       x1="946.32422"
       y1="580.91785"
       x2="953.05475"
       y2="644.56726"
       id="linearGradient13258"
       xlink:href="#linearGradient12439"
       gradientUnits="userSpaceOnUse"
       gradientTransform="matrix(1.3317108,0,0,1.3317108,-900.67245,-404.65622)" />
    <linearGradient
       x1="1103.8696"
       y1="991.56415"
       x2="1152.4639"
       y2="1138.2841"
       id="linearGradient13261"
       xlink:href="#linearGradient12439"
       gradientUnits="userSpaceOnUse"
       gradientTransform="matrix(0.66224723,0,0,0.66224723,-531.65707,-276.47317)" />
  </defs>
  <metadata
     id="metadata13150">
    <rdf:RDF>
      <cc:Work
         rdf:about="">
        <dc:format>image/svg+xml</dc:format>
        <dc:type
           rdf:resource="http://purl.org/dc/dcmitype/StillImage" />
        <dc:title></dc:title>
      </cc:Work>
    </rdf:RDF>
  </metadata>
  <g
     transform="translate(-164.28572,-345.93362)"
     id="layer1">
    <path
       d="m 249.88882,484.84012 c -8.38542,1.44114 -16.58645,-19.5357 -24.24662,-23.13458 -7.6602,-3.59887 -29.78892,3.1286 -33.79792,-4.13562 -4.00904,-7.2642 14.09383,-21.28641 15.26729,-29.44127 1.17346,-8.15487 -12.28322,-26.42111 -6.3755,-32.35176 5.9077,-5.93062 25.29693,6.38002 33.68235,4.93889 8.38541,-1.44112 22.19746,-19.45772 29.85765,-15.85885 7.66018,3.59886 1.54051,25.22947 5.54951,32.49369 4.00903,7.26421 26.002,14.39553 24.82852,22.5504 -1.17347,8.15488 -24.34481,9.21268 -30.25251,15.14333 -5.90771,5.93064 -6.12735,28.35467 -14.51277,29.79577 z"
       id="path12505"
       style="color:#000000;fill:#505050;fill-opacity:1;fill-rule:nonzero;stroke:none;stroke-width:0.99472302;marker:none;visibility:visible;display:inline;overflow:visible;enable-background:accumulate" />
    <path
       d="m 384.44991,485.06531 c -9.9926,1.72579 -19.7655,-23.39467 -28.8939,-27.70445 -9.12843,-4.30975 -35.49854,3.74662 -40.27597,-4.95251 -4.77743,-8.69914 16.7952,-25.49119 18.19357,-35.25692 1.39839,-9.76573 -14.63752,-31.64013 -7.59748,-38.74228 7.04003,-7.10213 30.14558,7.64026 40.13818,5.91447 9.9926,-1.72578 26.4521,-23.30127 35.5804,-18.99151 9.1285,4.30977 1.8359,30.21313 6.6132,38.91228 4.7774,8.69912 30.9859,17.23912 29.5874,27.00485 -1.3984,9.76574 -29.0109,11.0325 -36.051,18.13464 -7.04,7.10215 -7.3017,33.95566 -17.2944,35.68143 z"
       id="path12138-0"
       style="color:#000000;fill:#595959;fill-opacity:1;fill-rule:nonzero;stroke:none;stroke-width:5.07236385;marker:none;visibility:visible;display:inline;overflow:visible;enable-background:accumulate" />
    <path
       d="m 245.62046,477.48402 c -7.93953,1.41148 -13.9367,-16.83573 -21.18956,-20.36057 -7.25286,-3.52483 -28.60265,0.81034 -32.00074,-4.05054 l -7.29764,-9.91755 c 0,0 19.39212,-16.95164 19.98534,-21.21618 1.11106,-7.98711 -11.63006,-25.87757 -6.03649,-31.68621 5.59357,-5.80864 23.95178,6.24875 31.89132,4.83728 5.36693,-0.95413 16.87219,-18.71108 23.54852,-22.94784 1.10367,0.84987 6.7544,12.23239 6.7544,12.23239 4.00532,7.40057 -2.26289,21.18264 4.45894,30.89716 2.58202,3.73158 9.17439,1.89153 15.15156,6.01456 2.98962,4.95293 5.79205,8.70945 6.95435,12.02834 3.26421,8.69423 -22.88536,9.17769 -28.47893,14.98633 -5.59357,5.80864 -5.80153,27.77137 -13.74107,29.18283 z"
       id="path11589-9"
       style="color:#000000;fill:url(#linearGradient13261);fill-opacity:1;fill-rule:nonzero;stroke:none;stroke-width:0.88824123;marker:none;visibility:visible;display:inline;overflow:visible;enable-background:accumulate" />
    <path
       d="m 384.02321,476.13516 c -9.39152,1.66961 -18.57652,-22.63304 -27.15579,-26.8025 -8.57926,-4.16946 -33.36301,3.62463 -37.85305,-4.7913 -1.39782,-2.62001 -0.89278,-6.58334 -0.7611,-11.46416 4.60841,-8.17688 16.95509,-16.13839 17.8602,-22.64495 1.01812,-7.31901 -7.79713,-21.6682 -8.74528,-30.95731 -0.27577,-2.7018 -0.45893,-9.24887 -0.18584,-11.25197 6.61653,-6.87093 30.12277,12.11981 39.51429,10.4502 9.39151,-1.6696 24.86075,-22.54268 33.44001,-18.37322 8.57927,4.16945 1.72535,29.22952 6.21538,37.64545 3.01365,5.64866 20.51062,10.48361 27.73636,16.39869 0.16021,4.70104 0.50326,6.62046 0.0706,9.72701 -1.31426,9.44781 -27.26574,10.67333 -33.88226,17.54425 -6.61653,6.87094 -6.86252,32.85022 -16.25404,34.51981 z"
       id="path11591-3"
       style="color:#000000;fill:url(#linearGradient13258);fill-opacity:1;fill-rule:nonzero;stroke:none;stroke-width:5.07236385;marker:none;visibility:visible;display:inline;overflow:visible;enable-background:accumulate" />
    <path
       d="m 239.37782,468.87742 c -7.93953,1.41148 -15.70447,-19.13383 -22.95733,-22.65867 -7.25286,-3.52483 -28.2049,3.06424 -32.00074,-4.05054 -3.79585,-7.11477 13.34441,-20.84852 14.45547,-28.83563 1.11106,-7.98711 -11.63006,-25.87757 -6.03649,-31.68621 5.59357,-5.80864 23.95179,6.24875 31.89132,4.83728 7.93953,-1.41148 21.01713,-19.05745 28.26999,-15.53262 7.25286,3.52483 1.4586,24.71046 5.25443,31.82524 3.79584,7.11477 24.61936,14.0994 23.50828,22.08651 -1.11107,7.98712 -23.05029,9.02317 -28.64386,14.83181 -5.59357,5.80864 -5.80153,27.77137 -13.74107,29.18283 z"
       id="path11579-2"
       style="color:#000000;fill:#ffffff;fill-opacity:1;fill-rule:nonzero;stroke:none;stroke-width:0.99472302;marker:none;visibility:visible;display:inline;overflow:visible;enable-background:accumulate" />
    <path
       d="m 250.41575,373.36746 c -2.2319,0.30936 -6.92767,3.59463 -11.43411,7.28265 -4.50645,3.68801 -8.7506,7.76487 -13.75612,8.65474 -2.86129,0.50868 -5.74867,-0.16795 -8.83065,-1.05546 -3.08198,-0.8875 -6.30867,-2.09258 -9.39356,-3.13118 -3.0849,-1.03861 -6.04456,-1.89861 -8.26775,-2.1461 -2.22319,-0.24749 -3.35508,0.0985 -3.87001,0.63327 -0.51518,0.53501 -0.82338,1.69347 -0.49254,3.90519 0.33083,2.21172 1.309,5.11936 2.46273,8.1622 1.15373,3.04285 2.48026,6.20701 3.48301,9.25284 1.00274,3.04582 1.77247,5.91729 1.37209,8.79547 -0.40026,2.87737 -1.9347,5.43492 -3.72928,8.09183 -1.79458,2.65691 -3.93663,5.37324 -5.87537,7.98629 -1.93875,2.61305 -3.65274,5.13912 -4.57365,7.1771 -0.92091,2.03799 -0.91278,3.21423 -0.56291,3.87001 0.34973,0.65552 1.31261,1.28429 3.51819,1.65355 2.20558,0.36926 5.26383,0.36739 8.51402,0.21109 3.25018,-0.1563 6.71489,-0.44545 9.92129,-0.45736 3.20639,-0.0119 6.147,0.13723 8.76029,1.40727 2.61308,1.26994 4.57419,3.52409 6.54383,6.05129 1.96963,2.52719 3.88753,5.40658 5.76982,8.05665 1.8823,2.65007 3.73228,5.03965 5.38283,6.54383 1.65056,1.50417 2.78552,1.88935 3.51819,1.75909 0.73151,-0.13004 1.63971,-0.86565 2.67382,-2.84973 1.03412,-1.98408 1.95701,-4.88174 2.81456,-8.02147 0.85754,-3.13973 1.65773,-6.51629 2.63864,-9.56947 0.9809,-3.05318 2.06603,-5.82339 4.08109,-7.91593 2.0154,-2.09289 4.72768,-3.27054 7.74002,-4.36255 3.01233,-1.09201 6.36171,-2.01955 9.46393,-2.99046 3.10222,-0.97091 5.97523,-1.99131 7.91592,-3.09601 1.94069,-1.1047 2.64167,-2.04241 2.74419,-2.77937 0.10256,-0.7371 -0.33435,-1.8526 -1.89982,-3.44782 -1.56548,-1.59522 -4.03632,-3.38749 -6.75492,-5.17174 -2.71861,-1.78424 -5.66886,-3.5779 -8.26775,-5.45319 -2.59889,-1.87529 -4.93044,-3.73508 -6.29756,-6.29756 -1.36701,-2.56228 -1.61225,-5.52093 -1.72391,-8.7251 -0.11168,-3.20418 0.0401,-6.66766 0.0704,-9.9213 0.0303,-3.25363 -0.0734,-6.2884 -0.52773,-8.47883 -0.45438,-2.19043 -1.12538,-3.15793 -1.79427,-3.48301 -0.3229,-0.15692 -0.66844,-0.23338 -1.33692,-0.14072 z"
       id="path11587-9"
       style="color:#000000;fill:#1abc9c;fill-opacity:1;fill-rule:nonzero;stroke:none;stroke-width:1;marker:none;visibility:visible;display:inline;overflow:visible;enable-background:accumulate" />
    <path
       d="m 383.90191,467.06406 c -9.39152,1.66961 -18.57652,-22.63304 -27.15579,-26.8025 -8.57926,-4.16946 -33.36303,3.62463 -37.85305,-4.7913 -4.49004,-8.41593 15.78485,-24.66131 17.0991,-34.10911 1.31425,-9.44779 -13.75697,-30.61006 -7.14045,-37.481 6.61653,-6.87092 28.3321,7.39153 37.72362,5.72192 9.39151,-1.6696 24.86075,-22.54268 33.44001,-18.37322 8.57927,4.16945 1.72535,29.22952 6.21538,37.64545 4.49002,8.41592 29.12174,16.67791 27.80748,26.1257 -1.31427,9.44781 -27.26574,10.67333 -33.88227,17.54425 -6.61652,6.87094 -6.86252,32.85022 -16.25403,34.51981 z"
       id="path11581-6"
       style="color:#000000;fill:#ffffff;fill-opacity:1;fill-rule:nonzero;stroke:none;stroke-width:6;marker:none;visibility:visible;display:inline;overflow:visible;enable-background:accumulate" />
    <path
       d="m 498.68261,484.84012 c 8.3854,1.44114 16.5864,-19.5357 24.2466,-23.13458 7.6602,-3.59887 29.7889,3.1286 33.7979,-4.13562 4.0091,-7.2642 -14.0938,-21.28641 -15.2673,-29.44127 -1.1734,-8.15487 12.2833,-26.42111 6.3755,-32.35176 -5.9077,-5.93062 -25.2969,6.38002 -33.6823,4.93889 -8.3854,-1.44112 -22.1975,-19.45772 -29.8577,-15.85885 -7.6601,3.59886 -1.5405,25.22947 -5.5495,32.49369 -4.009,7.26421 -26.002,14.39553 -24.8285,22.5504 1.1735,8.15488 24.3448,9.21268 30.2525,15.14333 5.9077,5.93064 6.1274,28.35467 14.5128,29.79577 z"
       id="path13089"
       style="color:#000000;fill:#505050;fill-opacity:1;fill-rule:nonzero;stroke:none;stroke-width:0.99472302;marker:none;visibility:visible;display:inline;overflow:visible;enable-background:accumulate" />
    <path
       d="m 502.95091,477.48402 c 7.9396,1.41148 13.9367,-16.83573 21.1896,-20.36057 7.2529,-3.52483 28.6027,0.81034 32.0007,-4.05054 l 7.2977,-9.91755 c 0,0 -19.3921,-16.95164 -19.9854,-21.21618 -1.111,-7.98711 11.6301,-25.87757 6.0365,-31.68621 -5.5935,-5.80864 -23.9517,6.24875 -31.8913,4.83728 -5.3669,-0.95413 -16.8722,-18.71108 -23.5485,-22.94784 -1.1037,0.84987 -6.7544,12.23239 -6.7544,12.23239 -4.0053,7.40057 2.2629,21.18264 -4.4589,30.89716 -2.5821,3.73158 -9.1744,1.89153 -15.1516,6.01456 -2.9896,4.95293 -5.7921,8.70945 -6.9544,12.02834 -3.2642,8.69423 22.8854,9.17769 28.479,14.98633 5.5935,5.80864 5.8015,27.77137 13.741,29.18283 z"
       id="path13091"
       style="color:#000000;fill:url(#linearGradient13251);fill-opacity:1;fill-rule:nonzero;stroke:none;stroke-width:0.88824123;marker:none;visibility:visible;display:inline;overflow:visible;enable-background:accumulate" />
    <path
       d="m 509.19361,468.87742 c 7.9395,1.41148 15.7045,-19.13383 22.9573,-22.65867 7.2529,-3.52483 28.2049,3.06424 32.0008,-4.05054 3.7958,-7.11477 -13.3445,-20.84852 -14.4555,-28.83563 -1.1111,-7.98711 11.63,-25.87757 6.0365,-31.68621 -5.5936,-5.80864 -23.9518,6.24875 -31.8913,4.83728 -7.9396,-1.41148 -21.0172,-19.05745 -28.27,-15.53262 -7.2529,3.52483 -1.4586,24.71046 -5.2545,31.82524 -3.7958,7.11477 -24.6193,14.0994 -23.5082,22.08651 1.111,7.98712 23.0502,9.02317 28.6438,14.83181 5.5936,5.80864 5.8015,27.77137 13.7411,29.18283 z"
       id="path13093"
       style="color:#000000;fill:#ffffff;fill-opacity:1;fill-rule:nonzero;stroke:none;stroke-width:0.99472302;marker:none;visibility:visible;display:inline;overflow:visible;enable-background:accumulate" />
    <path
       d="m 396.87522,353.5878 c -2.90131,0.40215 -8.40002,4.3747 -13.73327,8.73935 -5.33325,4.36466 -10.40905,9.1074 -16.06376,10.11268 -3.23228,0.57463 -6.6189,-0.16481 -10.23753,-1.20686 -3.61863,-1.04205 -7.45232,-2.47188 -11.11146,-3.70382 -3.65914,-1.23194 -7.16191,-2.27951 -9.86298,-2.58019 -2.70107,-0.30069 -4.18968,0.12358 -4.9523,0.91555 -0.76289,0.79222 -1.10942,2.30676 -0.70747,4.99391 0.40195,2.68716 1.54461,6.17047 2.91311,9.77976 1.36851,3.60928 2.94263,7.3688 4.11998,10.94499 1.17736,3.57619 2.0337,6.94453 1.58141,10.19591 -0.45217,3.25056 -2.17937,6.20241 -4.28644,9.32198 -2.10708,3.11957 -4.65022,6.30573 -6.94987,9.40521 -2.29965,3.09947 -4.37444,6.13844 -5.49331,8.6145 -1.11886,2.47606 -1.18382,4.02307 -0.66585,4.99392 0.51782,0.97057 1.85644,1.79862 4.53614,2.24726 2.67969,0.44864 6.34069,0.43508 10.19591,0.24969 3.85522,-0.18538 7.92938,-0.52702 11.69408,-0.541 3.76471,-0.014 7.20212,0.18829 10.1543,1.62302 2.95196,1.43464 5.26155,4.02428 7.5741,6.99148 2.31256,2.9672 4.5507,6.38666 6.78341,9.53006 2.2327,3.14339 4.44498,5.99616 6.45047,7.8238 2.00549,1.82764 3.49349,2.39841 4.57776,2.20564 1.08309,-0.19255 2.28099,-1.21008 3.53735,-3.62059 1.25637,-2.4105 2.35371,-5.88907 3.3709,-9.61328 1.01718,-3.72421 1.96948,-7.69307 3.12119,-11.27793 1.15172,-3.58486 2.38458,-6.83318 4.66099,-9.19713 2.27676,-2.36429 5.45225,-3.75338 8.98905,-5.03553 3.5368,-1.28214 7.47336,-2.3441 11.15308,-3.49574 3.67971,-1.15164 7.1304,-2.40316 9.48844,-3.74543 2.35803,-1.34228 3.34399,-2.57155 3.4958,-3.66221 0.15169,-1.09082 -0.47016,-2.51475 -2.37217,-4.45291 -1.90202,-1.93816 -4.89042,-4.04275 -8.11511,-6.15916 -3.2247,-2.11641 -6.68671,-4.24864 -9.73814,-6.45047 -3.05143,-2.20184 -5.73832,-4.3879 -7.28279,-7.2828 -1.54438,-2.89471 -1.86646,-6.35051 -1.99757,-10.11268 -0.13104,-3.76216 0.0473,-7.83476 0.0832,-11.69408 0.036,-3.85933 -0.0722,-7.5347 -0.62424,-10.19591 -0.55204,-2.66121 -1.42365,-3.97174 -2.41372,-4.45291 -0.48339,-0.23491 -1.0127,-0.32728 -1.87272,-0.20808 z"
       id="path13101"
       style="color:#000000;fill:#1abc9c;fill-opacity:1;fill-rule:nonzero;stroke:none;stroke-width:6;marker:none;visibility:visible;display:inline;overflow:visible;enable-background:accumulate" />
  </g>
</svg>
