<?xml version="1.0" encoding="UTF-8" standalone="no"?>
<!-- Created with Inkscape (http://www.inkscape.org/) -->

<svg
   xmlns:dc="http://purl.org/dc/elements/1.1/"
   xmlns:cc="http://creativecommons.org/ns#"
   xmlns:rdf="http://www.w3.org/1999/02/22-rdf-syntax-ns#"
   xmlns:svg="http://www.w3.org/2000/svg"
   xmlns="http://www.w3.org/2000/svg"
   xmlns:xlink="http://www.w3.org/1999/xlink"
   version="1.1"
   width="420"
   height="150"
   id="svg13145">
  <defs
     id="defs13147">
    <linearGradient
       id="linearGradient12439">
      <stop
         id="stop12441"
         style="stop-color:#e8e8e8;stop-opacity:1"
         offset="0" />
      <stop
         id="stop12443"
         style="stop-color:#bbbbbb;stop-opacity:1"
         offset="1" />
    </linearGradient>
    <linearGradient
       x1="1103.8696"
       y1="991.56415"
       x2="1152.4639"
       y2="1138.2841"
       id="linearGradient13251"
       xlink:href="#linearGradient12439"
       gradientUnits="userSpaceOnUse"
       gradientTransform="matrix(-0.66224723,0,0,0.66224723,1280.2285,-276.47317)" />
    <linearGradient
       x1="946.32422"
       y1="580.91785"
       x2="953.05475"
       y2="644.56726"
       id="linearGradient13258"
       xlink:href="#linearGradient12439"
       gradientUnits="userSpaceOnUse"
       gradientTransform="matrix(1.3317108,0,0,1.3317108,-900.67245,-404.65622)" />
    <linearGradient
       x1="1103.8696"
       y1="991.56415"
       x2="1152.4639"
       y2="1138.2841"
       id="linearGradient13261"
       xlink:href="#linearGradient12439"
       gradientUnits="userSpaceOnUse"
       gradientTransform="matrix(0.66224723,0,0,0.66224723,-531.65707,-276.47317)" />
  </defs>
  <metadata
     id="metadata13150">
    <rdf:RDF>
      <cc:Work
         rdf:about="">
        <dc:format>image/svg+xml</dc:format>
        <dc:type
           rdf:resource="http://purl.org/dc/dcmitype/StillImage" />
        <dc:title></dc:title>
      </cc:Work>
    </rdf:RDF>
  </metadata>
  <g
     transform="translate(-164.28572,-345.93362)"
     id="layer1">
    <path
       d="m 249.88882,484.84012 c -8.38542,1.44114 -16.58645,-19.5357 -24.24662,-23.13458 -7.6602,-3.59887 -29.78892,3.1286 -33.79792,-4.13562 -4.00904,-7.2642 14.09383,-21.28641 15.26729,-29.44127 1.17346,-8.15487 -12.28322,-26.42111 -6.3755,-32.35176 5.9077,-5.93062 25.29693,6.38002 33.68235,4.93889 8.38541,-1.44112 22.19746,-19.45772 29.85765,-15.85885 7.66018,3.59886 1.54051,25.22947 5.54951,32.49369 4.00903,7.26421 26.002,14.39553 24.82852,22.5504 -1.17347,8.15488 -24.34481,9.21268 -30.25251,15.14333 -5.90771,5.93064 -6.12735,28.35467 -14.51277,29.79577 z"
       id="path12505"
       style="color:#000000;fill:#505050;fill-opacity:1;fill-rule:nonzero;stroke:none;stroke-width:0.99472302;marker:none;visibility:visible;display:inline;overflow:visible;enable-background:accumulate" />
    <path
       d="m 384.44991,485.06531 c -9.9926,1.72579 -19.7655,-23.39467 -28.8939,-27.70445 -9.12843,-4.30975 -35.49854,3.74662 -40.27597,-4.95251 -4.77743,-8.69914 16.7952,-25.49119 18.19357,-35.25692 1.39839,-9.76573 -14.63752,-31.64013 -7.59748,-38.74228 7.04003,-7.10213 30.14558,7.64026 40.13818,5.91447 9.9926,-1.72578 26.4521,-23.30127 35.5804,-18.99151 9.1285,4.30977 1.8359,30.21313 6.6132,38.91228 4.7774,8.69912 30.9859,17.23912 29.5874,27.00485 -1.3984,9.76574 -29.0109,11.0325 -36.051,18.13464 -7.04,7.10215 -7.3017,33.95566 -17.2944,35.68143 z"
       id="path12138-0"
       style="color:#000000;fill:#595959;fill-opacity:1;fill-rule:nonzero;stroke:none;stroke-width:5.07236385;marker:none;visibility:visible;display:inline;overflow:visible;enable-background:accumulate" />
    <path
       d="m 245.62046,477.48402 c -7.93953,1.41148 -13.9367,-16.83573 -21.18956,-20.36057 -7.25286,-3.52483 -28.60265,0.81034 -32.00074,-4.05054 l -7.29764,-9.91755 c 0,0 19.39212,-16.95164 19.98534,-21.21618 1.11106,-7.98711 -11.63006,-25.87757 -6.03649,-31.68621 5.59357,-5.80864 23.95178,6.24875 31.89132,4.83728 5.36693,-0.95413 16.87219,-18.71108 23.54852,-22.94784 1.10367,0.84987 6.7544,12.23239 6.7544,12.23239 4.00532,7.40057 -2.26289,21.18264 4.45894,30.89716 2.58202,3.73158 9.17439,1.89153 15.15156,6.01456 2.98962,4.95293 5.79205,8.70945 6.95435,12.02834 3.26421,8.69423 -22.88536,9.17769 -28.47893,14.98633 -5.59357,5.80864 -5.80153,27.77137 -13.74107,29.18283 z"
       id="path11589-9"
       style="color:#000000;fill:url(#linearGradient13261);fill-opacity:1;fill-rule:nonzero;stroke:none;stroke-width:0.88824123;marker:none;visibility:visible;display:inline;overflow:visible;enable-background:accumulate" />
    <path
       d="m 384.02321,476.13516 c -9.39152,1.66961 -18.57652,-22.63304 -27.15579,-26.8025 -8.57926,-4.16946 -33.36301,3.62463 -37.85305,-4.7913 -1.39782,-2.62001 -0.89278,-6.58334 -0.7611,-11.46416 4.60841,-8.17688 16.95509,-16.13839 17.8602,-22.64495 1.01812,-7.31901 -7.79713,-21.6682 -8.74528,-30.95731 -0.27577,-2.7018 -0.45893,-9.24887 -0.18584,-11.25197 6.61653,-6.87093 30.12277,12.11981 39.51429,10.4502 9.39151,-1.6696 24.86075,-22.54268 33.44001,-18.37322 8.57927,4.16945 1.72535,29.22952 6.21538,37.64545 3.01365,5.64866 20.51062,10.48361 27.73636,16.39869 0.16021,4.70104 0.50326,6.62046 0.0706,9.72701 -1.31426,9.44781 -27.26574,10.67333 -33.88226,17.54425 -6.61653,6.87094 -6.86252,32.85022 -16.25404,34.51981 z"
       id="path11591-3"
       style="color:#000000;fill:url(#linearGradient13258);fill-opacity:1;fill-rule:nonzero;stroke:none;stroke-width:5.07236385;marker:none;visibility:visible;display:inline;overflow:visible;enable-background:accumulate" />
    <path
       d="m 239.37782,468.87742 c -7.93953,1.41148 -15.70447,-19.13383 -22.95733,-22.65867 -7.25286,-3.52483 -28.2049,3.06424 -32.00074,-4.05054 -3.79585,-7.11477 13.34441,-20.84852 14.45547,-28.83563 1.11106,-7.98711 -11.63006,-25.87757 -6.03649,-31.68621 5.59357,-5.80864 23.95179,6.24875 31.89132,4.83728 7.93953,-1.41148 21.01713,-19.05745 28.26999,-15.53262 7.25286,3.52483 1.4586,24.71046 5.25443,31.82524 3.79584,7.11477 24.61936,14.0994 23.50828,22.08651 -1.11107,7.98712 -23.05029,9.02317 -28.64386,14.83181 -5.59357,5.80864 -5.80153,27.77137 -13.74107,29.18283 z"
       id="path11579-2"
       style="color:#000000;fill:#ffffff;fill-opacity:1;fill-rule:nonzero;stroke:none;stroke-width:0.99472302;marker:none;visibility:visible;display:inline;overflow:visible;enable-background:accumulate" />
    <path
       d="m 383.90191,467.06406 c -9.39152,1.66961 -18.57652,-22.63304 -27.15579,-26.8025 -8.57926,-4.16946 -33.36303,3.62463 -37.85305,-4.7913 -4.49004,-8.41593 15.78485,-24.66131 17.0991,-34.10911 1.31425,-9.44779 -13.75697,-30.61006 -7.14045,-37.481 6.61653,-6.87092 28.3321,7.39153 37.72362,5.72192 9.39151,-1.6696 24.86075,-22.54268 33.44001,-18.37322 8.57927,4.16945 1.72535,29.22952 6.21538,37.64545 4.49002,8.41592 29.12174,16.67791 27.80748,26.1257 -1.31427,9.44781 -27.26574,10.67333 -33.88227,17.54425 -6.61652,6.87094 -6.86252,32.85022 -16.25403,34.51981 z"
       id="path11581-6"
       style="color:#000000;fill:#ffffff;fill-opacity:1;fill-rule:nonzero;stroke:none;stroke-width:6;marker:none;visibility:visible;display:inline;overflow:visible;enable-background:accumulate" />
    <path
       d="m 498.68261,484.84012 c 8.3854,1.44114 16.5864,-19.5357 24.2466,-23.13458 7.6602,-3.59887 29.7889,3.1286 33.7979,-4.13562 4.0091,-7.2642 -14.0938,-21.28641 -15.2673,-29.44127 -1.1734,-8.15487 12.2833,-26.42111 6.3755,-32.35176 -5.9077,-5.93062 -25.2969,6.38002 -33.6823,4.93889 -8.3854,-1.44112 -22.1975,-19.45772 -29.8577,-15.85885 -7.6601,3.59886 -1.5405,25.22947 -5.5495,32.49369 -4.009,7.26421 -26.002,14.39553 -24.8285,22.5504 1.1735,8.15488 24.3448,9.21268 30.2525,15.14333 5.9077,5.93064 6.1274,28.35467 14.5128,29.79577 z"
       id="path13089"
       style="color:#000000;fill:#505050;fill-opacity:1;fill-rule:nonzero;stroke:none;stroke-width:0.99472302;marker:none;visibility:visible;display:inline;overflow:visible;enable-background:accumulate" />
    <path
       d="m 502.95091,477.48402 c 7.9396,1.41148 13.9367,-16.83573 21.1896,-20.36057 7.2529,-3.52483 28.6027,0.81034 32.0007,-4.05054 l 7.2977,-9.91755 c 0,0 -19.3921,-16.95164 -19.9854,-21.21618 -1.111,-7.98711 11.6301,-25.87757 6.0365,-31.68621 -5.5935,-5.80864 -23.9517,6.24875 -31.8913,4.83728 -5.3669,-0.95413 -16.8722,-18.71108 -23.5485,-22.94784 -1.1037,0.84987 -6.7544,12.23239 -6.7544,12.23239 -4.0053,7.40057 2.2629,21.18264 -4.4589,30.89716 -2.5821,3.73158 -9.1744,1.89153 -15.1516,6.01456 -2.9896,4.95293 -5.7921,8.70945 -6.9544,12.02834 -3.2642,8.69423 22.8854,9.17769 28.479,14.98633 5.5935,5.80864 5.8015,27.77137 13.741,29.18283 z"
       id="path13091"
       style="color:#000000;fill:url(#linearGradient13251);fill-opacity:1;fill-rule:nonzero;stroke:none;stroke-width:0.88824123;marker:none;visibility:visible;display:inline;overflow:visible;enable-background:accumulate" />
    <path
       d="m 509.19361,468.87742 c 7.9395,1.41148 15.7045,-19.13383 22.9573,-22.65867 7.2529,-3.52483 28.2049,3.06424 32.0008,-4.05054 3.7958,-7.11477 -13.3445,-20.84852 -14.4555,-28.83563 -1.1111,-7.98711 11.63,-25.87757 6.0365,-31.68621 -5.5936,-5.80864 -23.9518,6.24875 -31.8913,4.83728 -7.9396,-1.41148 -21.0172,-19.05745 -28.27,-15.53262 -7.2529,3.52483 -1.4586,24.71046 -5.2545,31.82524 -3.7958,7.11477 -24.6193,14.0994 -23.5082,22.08651 1.111,7.98712 23.0502,9.02317 28.6438,14.83181 5.5936,5.80864 5.8015,27.77137 13.7411,29.18283 z"
       id="path13093"
       style="color:#000000;fill:#ffffff;fill-opacity:1;fill-rule:nonzero;stroke:none;stroke-width:0.99472302;marker:none;visibility:visible;display:inline;overflow:visible;enable-background:accumulate" />
  </g>
</svg>
