<?xml version="1.0" encoding="UTF-8" standalone="no"?>
<!-- Created with Inkscape (http://www.inkscape.org/) -->

<svg
   xmlns:dc="http://purl.org/dc/elements/1.1/"
   xmlns:cc="http://creativecommons.org/ns#"
   xmlns:rdf="http://www.w3.org/1999/02/22-rdf-syntax-ns#"
   xmlns:svg="http://www.w3.org/2000/svg"
   xmlns="http://www.w3.org/2000/svg"
   version="1.1"
   width="80"
   height="80"
   id="svg3597">
  <defs
     id="defs3599" />
  <metadata
     id="metadata3602">
    <rdf:RDF>
      <cc:Work
         rdf:about="">
        <dc:format>image/svg+xml</dc:format>
        <dc:type
           rdf:resource="http://purl.org/dc/dcmitype/StillImage" />
        <dc:title></dc:title>
      </cc:Work>
    </rdf:RDF>
  </metadata>
  <rect
     width="80"
     height="80"
     x="4.4335939e-06"
     y="3.7499999e-06"
     id="rect3585"
     style="opacity:0;color:#000000;fill:#f44800;stroke:none;stroke-width:10;marker:none;visibility:visible;display:inline;overflow:visible;enable-background:accumulate" />
  <path
     d="m 42,21.5 a 4.5,4.5 0 1 1 -9,0 4.5,4.5 0 1 1 9,0 z"
     transform="matrix(0.88888889,0,0,0.88888889,6.6666666,11.888889)"
     id="path3447"
     style="font-size:69.73147583px;font-style:normal;font-variant:normal;font-weight:normal;font-stretch:normal;text-align:start;line-height:125%;letter-spacing:0px;word-spacing:0px;writing-mode:lr-tb;text-anchor:start;color:#000000;fill:#333333;fill-opacity:1;fill-rule:nonzero;stroke:none;stroke-width:4;marker:none;visibility:visible;display:inline;overflow:visible;enable-background:accumulate;font-family:Hoverunit;-inkscape-font-specification:Hoverunit" />
  <path
     d="m 42,21.5 a 4.5,4.5 0 1 1 -9,0 4.5,4.5 0 1 1 9,0 z"
     transform="matrix(5.4444445,0,0,5.4444445,-164.16667,-77.055557)"
     id="path3584"
     style="font-size:69.73147583px;font-style:normal;font-variant:normal;font-weight:normal;font-stretch:normal;text-align:start;line-height:125%;letter-spacing:0px;word-spacing:0px;writing-mode:lr-tb;text-anchor:start;color:#000000;fill:none;stroke:#333333;stroke-width:0.55102038;stroke-opacity:1;marker:none;visibility:visible;display:inline;overflow:visible;enable-background:accumulate;font-family:Hoverunit;-inkscape-font-specification:Hoverunit" />
  <path
     d="m 37,39 6,-2 0,19 -6,0 z"
     id="path3637"
     style="fill:#333333;fill-opacity:1;stroke:none" />
  <g
     transform="translate(80,0)"
     id="g3720" />
</svg>
