<?xml version="1.0" encoding="UTF-8" standalone="no"?>
<!-- Created with Inkscape (http://www.inkscape.org/) -->

<svg
   xmlns:dc="http://purl.org/dc/elements/1.1/"
   xmlns:cc="http://creativecommons.org/ns#"
   xmlns:rdf="http://www.w3.org/1999/02/22-rdf-syntax-ns#"
   xmlns:svg="http://www.w3.org/2000/svg"
   xmlns="http://www.w3.org/2000/svg"
   version="1.1"
   width="80"
   height="80"
   id="svg3597">
  <defs
     id="defs3599" />
  <metadata
     id="metadata3602">
    <rdf:RDF>
      <cc:Work
         rdf:about="">
        <dc:format>image/svg+xml</dc:format>
        <dc:type
           rdf:resource="http://purl.org/dc/dcmitype/StillImage" />
        <dc:title></dc:title>
      </cc:Work>
    </rdf:RDF>
  </metadata>
  <rect
     width="80"
     height="80"
     x="4.4335939e-06"
     y="3.7499999e-06"
     id="rect3585"
     style="opacity:0;color:#000000;fill:#f44800;stroke:none;stroke-width:10;marker:none;visibility:visible;display:inline;overflow:visible;enable-background:accumulate" />
  <path
     d="M 31.1875,14 C 30.525517,14 30,14.525517 30,15.1875 L 30,18 20.96875,18 C 20.438225,18 20,18.438225 20,18.96875 L 20,23 60,23 60,18.96875 C 60,18.438225 59.561775,18 59.03125,18 L 50,18 50,15.1875 C 50,14.525517 49.474483,14 48.8125,14 z M 32,16 l 16,0 0,2 -16,0 z m -12,9 0,40 40,0 0,-40 -5,0 0,32 -2,0 0,-32 -7,0 0,32 -2,0 0,-32 -8,0 0,32 -2,0 0,-32 -7,0 0,32 -2,0 0,-32 z"
     id="rect3066"
     style="color:#000000;fill:#333333;fill-opacity:1;fill-rule:nonzero;stroke:none;stroke-width:2;marker:none;visibility:visible;display:inline;overflow:visible;enable-background:accumulate" />
</svg>
