<?xml version="1.0" encoding="UTF-8" standalone="no"?>
<svg
   xmlns:dc="http://purl.org/dc/elements/1.1/"
   xmlns:cc="http://creativecommons.org/ns#"
   xmlns:rdf="http://www.w3.org/1999/02/22-rdf-syntax-ns#"
   xmlns:svg="http://www.w3.org/2000/svg"
   xmlns="http://www.w3.org/2000/svg"
   version="1.1"
   id="svg2"
   height="2304"
   width="4608">
  <defs
     id="defs4" />
  <metadata
     id="metadata7">
    <rdf:RDF>
      <cc:Work
         rdf:about="">
        <dc:format>image/svg+xml</dc:format>
        <dc:type
           rdf:resource="http://purl.org/dc/dcmitype/StillImage" />
        <dc:title></dc:title>
      </cc:Work>
    </rdf:RDF>
  </metadata>
  <g
     style="display:inline"
     transform="translate(-1024,1763.6378)"
     id="layer1">
    <rect
       transform="translate(0,-1251.6378)"
       y="-512"
       x="1024"
       height="2304"
       width="4608"
       id="rect7101"
       style="color:#000000;display:inline;overflow:visible;visibility:visible;fill:#f1f1ec;fill-opacity:1;fill-rule:nonzero;stroke:none;stroke-width:6;marker:none;enable-background:accumulate" />
    <text
       id="text6193"
       y="328.30576"
       x="2672.2598"
       style="font-style:normal;font-variant:normal;font-weight:normal;font-stretch:normal;font-size:103.16069031px;line-height:125%;font-family:Euphorigenic;-inkscape-font-specification:Euphorigenic;text-align:start;letter-spacing:0px;word-spacing:0px;writing-mode:lr-tb;text-anchor:start;display:inline;fill:#222222;fill-opacity:1;stroke:none"
       xml:space="preserve"
       transform="translate(0,-1251.6378)"><tspan
         y="328.30576"
         x="2672.2598"
         id="tspan6195" /></text>
  </g>
  <g
     id="layer6">
    <rect
       y="906.5"
       x="1824.7638"
       height="565.84521"
       width="958.47247"
       id="rect3793"
       style="color:#000000;display:inline;overflow:visible;visibility:visible;fill:#27ae60;fill-opacity:1;fill-rule:nonzero;stroke:none;marker:none;enable-background:accumulate" />
    <path
       id="rect5021-6"
       d="m 2029,1076 c -14.3694,0 -26,11.6306 -26,26 l 0,39 c 0,14.3694 11.6306,26 26,26 l 39,0 c 14.3694,0 26,-11.6306 26,-26 l 0,-39 c 0,-14.3694 -11.6306,-26 -26,-26 l -39,0 z m 0,4 39,0 c 12.2226,0 22,9.7774 22,22 l 0,39 c 0,12.2226 -9.7774,22 -22,22 l -39,0 c -12.2226,0 -22,-9.7774 -22,-22 l 0,-39 c 0,-12.2226 9.7774,-22 22,-22 z"
       style="color:#000000;font-style:normal;font-variant:normal;font-weight:normal;font-stretch:normal;font-size:medium;line-height:normal;font-family:sans-serif;text-indent:0;text-align:start;text-decoration:none;text-decoration-line:none;text-decoration-style:solid;text-decoration-color:#000000;letter-spacing:normal;word-spacing:normal;text-transform:none;direction:ltr;block-progression:tb;writing-mode:lr-tb;baseline-shift:baseline;text-anchor:start;white-space:normal;clip-rule:nonzero;display:inline;overflow:visible;visibility:visible;opacity:1;isolation:auto;mix-blend-mode:normal;color-interpolation:sRGB;color-interpolation-filters:linearRGB;solid-color:#000000;solid-opacity:1;fill:#ecf0f1;fill-opacity:1;fill-rule:nonzero;stroke:none;stroke-width:4;stroke-linecap:butt;stroke-linejoin:miter;stroke-miterlimit:4;stroke-dasharray:none;stroke-dashoffset:0;stroke-opacity:1;marker:none;color-rendering:auto;image-rendering:auto;shape-rendering:auto;text-rendering:auto;enable-background:accumulate" />
    <circle
       r="12.5"
       cy="1121.5"
       cx="2048.5"
       id="path5023-6"
       style="color:#000000;display:inline;overflow:visible;visibility:visible;fill:#ecf0f1;stroke:none;stroke-width:4;marker:none;enable-background:accumulate" />
    <path
       id="path5025-9"
       d="m 2046,1093 0,26 -26,0 0,5 25.963,0.082 0.037,25.918 5,0 0,-26 26,0 0,-5 -26,0 0,-26 z"
       style="color:#000000;font-style:normal;font-variant:normal;font-weight:normal;font-stretch:normal;font-size:medium;line-height:normal;font-family:Sans;-inkscape-font-specification:Sans;text-indent:0;text-align:start;text-decoration:none;text-decoration-line:none;letter-spacing:normal;word-spacing:normal;text-transform:none;direction:ltr;block-progression:tb;writing-mode:lr-tb;baseline-shift:baseline;text-anchor:start;display:inline;overflow:visible;visibility:visible;fill:#ecf0f1;fill-opacity:1;stroke:none;stroke-width:4;marker:none;enable-background:accumulate" />
    <path
       id="rect5034"
       d="m 1824.7638,986.8811 0,69.2872 288.802,0 0,266.7556 69.3125,0 352.3385,0 0,-69.2872 0,-106.2403 248.0194,0 0,-69.2872 -248.0194,0 -69.3124,0 0,69.2872 0,106.2403 -283.0261,0 0,-266.7556 z"
       style="color:#000000;display:inline;overflow:visible;visibility:visible;fill:#2c3e50;fill-opacity:1;fill-rule:nonzero;stroke:none;stroke-width:4;marker:none;enable-background:accumulate" />
    <rect
       y="1358.0214"
       x="1824.7638"
       height="115.47861"
       width="958.47247"
       id="rect5072"
       style="color:#000000;display:inline;overflow:visible;visibility:visible;fill:#bdc3c7;fill-opacity:1;fill-rule:nonzero;stroke:none;stroke-width:4;marker:none;enable-background:accumulate" />
  </g>
  <g
     id="text2985"
     style="font-style:normal;font-variant:normal;font-weight:normal;font-stretch:normal;font-size:107.5px;line-height:125%;font-family:Euphorigenic;-inkscape-font-specification:Euphorigenic;text-align:center;letter-spacing:0px;word-spacing:0px;writing-mode:lr-tb;text-anchor:middle;display:inline;fill:#222222;fill-opacity:1;stroke:none">
    <path
       id="path6808"
       style=""
       d="m 1705.6323,612.77262 0,4.8375 c 4.8375,0 5.59,0.86 5.59,25.8 0,9.03 -0.1075,21.285 -0.1075,38.27 0,19.6725 -0.1075,21.715 -1.1825,23.5425 -0.7525,1.29 -1.6125,1.6125 -3.225,1.6125 l -1.075,0 0,4.945 23.005,0 0,-4.945 -2.2575,0 c -1.6125,0 -2.9025,-0.43 -3.7625,-2.0425 -1.29,-2.365 -1.935,-4.1925 -1.935,-46.655 l 8.9225,0 c 6.45,0 11.61,-1.935 14.9425,-6.02 3.1175,-3.9775 4.3,-8.0625 4.3,-16.4475 0,-9.03 -1.3975,-13.6525 -4.6225,-17.5225 -3.225,-3.87 -7.8475,-5.375 -13.76,-5.375 l -24.8325,0 z m 21.6075,4.8375 c 3.225,0 6.1275,0.9675 7.8475,3.44 1.8275,2.365 2.58,6.45 2.58,16.0175 0,6.665 -0.645,9.675 -2.0425,11.9325 -1.6125,2.795 -4.515,4.1925 -8.385,4.1925 l -6.5575,0 c 0,-28.165 0.3225,-30.8525 1.3975,-33.11 0.645,-1.505 1.8275,-2.4725 3.225,-2.4725 l 1.935,0 z" />
    <path
       id="path6810"
       style=""
       d="m 1801.8062,699.52512 -4.6225,0 c 0,4.1925 -0.9675,5.9125 -3.01,5.9125 l -22.6825,0 c -2.9025,0 -3.87,-2.4725 -3.9775,-8.0625 -0.3225,-12.255 -0.43,-25.8 -0.43,-41.1725 0,-27.735 0.5375,-33.0025 0.86,-35.26 0.43,-2.2575 1.505,-3.3325 3.44,-3.3325 l 2.9025,0 0,-4.8375 -22.2525,0 0,4.8375 1.505,0 c 2.15,0 3.01,0.7525 3.225,3.3325 0.5375,5.2675 0.7525,9.89 0.7525,32.68 0,29.3475 -0.1075,38.915 -0.3225,43.7525 -0.43,7.8475 -0.3225,9.46 -3.5475,9.46 l -1.6125,0 0,4.945 49.7725,0 0,-12.255 z" />
    <path
       id="path6812"
       style=""
       d="m 1856.4313,706.83512 -1.075,0 c -1.3975,0 -1.935,-0.215 -2.4725,-0.86 -0.5375,-0.645 -0.9675,-1.505 -3.5475,-14.0825 -4.945,-23.22 -10.535,-56.545 -13.2225,-79.12 l -10.535,0 c -3.5475,23.7575 -14.0825,84.065 -16.125,90.945 -0.5375,2.15 -1.505,3.1175 -3.44,3.1175 l -1.29,0 0,4.945 15.05,0 0,-4.945 -1.3975,0 c -2.4725,0 -3.655,-0.3225 -3.655,-1.8275 0,-0.645 0,-1.1825 0.1075,-2.0425 l 1.72,-10.75 20.855,0 c 0.9675,5.805 1.505,10.75 1.505,12.685 0,1.3975 -1.29,1.935 -3.87,1.935 l -1.29,0 0,4.945 22.6825,0 0,-4.945 z m -39.13,-19.4575 c 0.86,-5.59 9.89,-53.6425 10.75,-57.7275 l 8.7075,57.7275 -19.4575,0 z" />
    <path
       id="path6814"
       style=""
       d="m 1900.7818,626.10262 c 0,-7.955 -7.095,-14.5125 -18.1675,-14.5125 -9.5675,0 -16.2325,4.085 -20.3175,10.6425 -4.4075,7.095 -5.2675,13.8675 -5.2675,41.495 0,28.38 1.6125,35.045 6.1275,40.7425 4.3,5.375 10.75,8.6 18.92,8.6 8.815,0 14.405,-3.44 16.985,-12.47 l -3.44,-1.3975 c -1.72,5.805 -5.805,8.9225 -12.685,8.9225 -5.59,0 -8.4925,-1.6125 -11.5025,-5.805 -2.0425,-2.9025 -3.1175,-6.7725 -3.1175,-41.8175 0,-30.53 1.29,-35.7975 4.085,-39.2375 2.4725,-3.1175 6.02,-4.8375 10.535,-4.8375 4.1925,0 7.095,0.9675 8.9225,3.1175 -3.5475,1.505 -4.1925,3.44 -4.1925,7.6325 0,4.8375 2.0425,7.2025 6.02,7.2025 4.1925,0 7.095,-4.085 7.095,-8.2775 z" />
    <path
       id="path6816"
       style=""
       d="m 1954.2379,699.52512 -4.515,0 c 0,4.1925 -0.9675,5.9125 -3.01,5.9125 l -21.93,0 c -2.795,0 -4.085,-0.5375 -4.4075,-2.2575 -0.645,-4.8375 -0.86,-17.2 -0.86,-36.55 l 0,-9.9975 7.6325,0 c 2.4725,0 3.655,2.15 3.655,6.5575 l 4.6225,0 0,-17.63 -4.6225,0 c 0,4.1925 -1.1825,6.3425 -3.655,6.3425 l -7.525,0 c 0.1075,-17.415 0.43,-27.4125 0.7525,-30.96 0.43,-3.1175 1.1825,-3.3325 4.4075,-3.3325 l 7.6325,0 c 1.935,0 3.01,2.15 3.01,6.3425 l 4.515,0 0,-11.18 -35.475,0 0,4.8375 1.72,0 c 2.2575,0 3.01,1.1825 3.3325,4.085 0.5375,8.17 0.5375,11.61 0.5375,55.1475 0,10.6425 0,19.4575 -0.3225,26.015 -0.215,3.44 -1.3975,3.9775 -3.87,3.9775 l -1.3975,0 0,4.945 49.7725,0 0,-12.255 z" />
    <path
       id="path6818"
       style=""
       d="m 2035.7732,612.77262 -16.6625,0 0,4.8375 2.4725,0 c 1.505,0 2.2575,0.9675 2.2575,2.0425 0,1.935 -3.87,12.9 -12.1475,34.9375 -8.2775,-22.0375 -12.685,-33.0025 -12.685,-34.9375 0,-1.3975 1.1825,-2.0425 3.1175,-2.0425 l 1.935,0 0,-4.8375 -22.36,0 0,4.8375 1.075,0 c 1.8275,0 2.6875,0.7525 3.7625,3.3325 8.2775,18.5975 13.4375,30.96 17.415,42.4625 -0.215,19.565 -0.3225,30.315 -0.7525,36.2275 -0.43,6.235 -1.505,7.2025 -3.5475,7.2025 l -2.9025,0 0,4.945 23.1125,0 0,-4.945 -1.935,0 c -3.44,0 -4.515,-0.9675 -4.515,-6.665 0,-6.88 0.1075,-17.2 0.1075,-37.3025 5.4825,-13.545 12.47,-31.39 17.3075,-41.3875 1.6125,-3.44 2.365,-3.87 4.085,-3.87 l 0.86,0 0,-4.8375 z" />
    <path
       id="path6820"
       style=""
       d="m 2061.4238,713.07012 c 7.525,0 13.3299,-2.365 17.5225,-6.665 4.945,-5.16 7.2024,-12.9 7.2024,-42.14 0,-30.2075 -2.0425,-39.775 -7.7399,-45.795 -4.1925,-4.3 -10.105,-6.88 -18.3826,-6.88 -7.6324,0 -13.3299,2.365 -17.1999,6.45 -5.9125,6.02 -8.17,15.8025 -8.17,46.1175 0,29.455 2.2575,37.195 7.525,42.355 4.1925,4.1925 10.4274,6.5575 19.2425,6.5575 z m -0.9675,-4.945 c -4.8375,0 -8.6001,-2.0425 -11.1801,-5.375 -2.2574,-2.9025 -3.4399,-6.9875 -3.4399,-38.5925 0,-33.6475 1.1825,-38.5925 3.5475,-42.0325 2.4724,-3.655 6.1275,-5.6975 11.0725,-5.6975 4.8374,0 8.385,2.0425 10.8574,5.59 2.3651,3.44 3.5476,8.4925 3.5476,42.2475 0,30.745 -0.8601,34.2925 -2.58,37.0875 -2.365,4.3 -6.665,6.7725 -11.825,6.7725 z" />
    <path
       id="path6822"
       style=""
       d="m 2144.0157,612.77262 -16.0175,0 0,4.8375 1.1825,0 c 1.3975,0 2.365,0.5375 3.1175,1.3975 0.86,1.29 0.9675,2.58 1.075,6.665 0.3225,9.9975 0.645,18.49 0.645,47.1925 0,20.21 -1.075,25.8 -4.945,31.39 -1.8275,2.795 -4.945,3.87 -9.5675,3.87 -5.375,0 -8.9225,-1.8275 -11.0725,-6.665 -1.72,-3.87 -2.4725,-6.665 -2.4725,-23.3275 0,-17.3075 0.215,-30.4225 0.215,-34.9375 0,-17.9525 0.1075,-20.425 1.29,-23.3275 0.645,-1.6125 1.72,-2.2575 3.1175,-2.2575 l 1.3975,0 0,-4.8375 -21.5,0 0,4.8375 1.29,0 c 2.4725,0 2.9025,0.645 3.3325,2.4725 0.5375,2.6875 0.5375,5.16 0.5375,19.35 0,17.2 -0.43,31.0675 -0.43,44.8275 0,11.61 1.3975,16.4475 4.8375,21.1775 3.9775,5.375 10.535,7.6325 18.3825,7.6325 8.0625,0 12.685,-1.935 15.695,-6.1275 3.7625,-5.0525 5.0525,-13.6525 5.0525,-25.155 0,-16.6625 -0.43,-40.635 -0.43,-49.1275 0,-9.7825 0.215,-11.61 1.3975,-13.6525 0.645,-0.9675 1.3975,-1.3975 2.4725,-1.3975 l 1.3975,0 0,-4.8375 z" />
    <path
       id="path6824"
       style=""
       d="m 2147.6001,612.77262 0,4.8375 1.29,0 c 1.3975,0 2.15,0.215 2.58,1.1825 1.29,2.4725 1.6125,4.085 1.6125,35.26 0,42.4625 -0.1075,44.72 -0.7525,49.665 -0.3225,2.58 -1.075,3.1175 -3.7625,3.1175 l -0.9675,0 0,4.945 20.64,0 0,-4.945 -1.075,0 c -2.2575,0 -3.1175,-0.3225 -3.655,-3.1175 -0.5375,-3.3325 -0.86,-9.89 -0.86,-46.1175 1.935,0.215 3.5475,0.7525 5.4825,1.8275 3.44,2.0425 5.9125,6.45 9.1375,13.4375 3.44,7.6325 5.6975,17.0925 9.1375,25.4775 4.3,10.75 7.955,13.4375 16.34,13.4375 l 7.095,0 0,-4.945 -3.87,0 c -3.225,0 -5.0525,-1.29 -6.9875,-4.8375 -4.73,-9.245 -7.4175,-20.9625 -11.0725,-30.315 -2.4725,-5.805 -5.59,-10.4275 -8.0625,-12.255 -2.0425,-1.505 -3.3325,-2.4725 -5.4825,-2.9025 4.8375,-0.215 7.8475,-1.3975 10.535,-3.7625 3.87,-3.44 5.9125,-8.0625 5.9125,-17.0925 0,-10.105 -1.6125,-13.6525 -4.945,-17.5225 -3.1175,-3.7625 -7.6325,-5.375 -13.4375,-5.375 l -24.8325,0 z m 21.6075,4.8375 c 4.085,0 6.5575,1.3975 8.2775,3.9775 1.72,2.4725 2.2575,4.945 2.2575,13.76 0,7.095 -0.645,10.105 -2.15,12.3625 -1.72,2.58 -4.6225,4.1925 -8.385,4.1925 l -6.5575,0 c 0,-25.2625 0.1075,-28.165 1.505,-31.82 0.645,-1.6125 1.505,-2.4725 2.9025,-2.4725 l 2.15,0 z" />
    <path
       id="path6826"
       style=""
       d="m 2238.3032,612.77262 0,4.8375 1.1825,0 c 1.8275,0 3.01,0.215 3.225,1.505 0.645,3.01 1.1825,10.8575 1.1825,40.635 0,45.0425 -0.43,47.085 -4.515,47.085 l -1.075,0 0,4.945 30.2075,0 c 6.665,0 12.1475,-2.58 16.0175,-8.385 4.085,-6.1275 6.3425,-16.0175 6.3425,-41.71 0,-25.37 -1.935,-34.83 -6.02,-41.065 -3.44,-5.16 -8.4925,-7.8475 -14.0825,-7.8475 l -32.465,0 z m 26.9825,4.8375 c 4.945,0 8.6,2.2575 11.0725,7.74 2.15,4.6225 3.3325,11.5025 3.3325,38.3775 0,27.52 -1.505,33.54 -3.9775,37.41 -2.58,4.085 -6.235,5.6975 -10.535,5.6975 l -6.665,0 c -3.5475,0 -4.3,-1.72 -4.73,-7.31 -0.43,-6.02 -0.43,-12.04 -0.43,-43.3225 0,-26.23 0.43,-31.4975 0.86,-35.26 0.3225,-2.365 1.72,-3.3325 3.655,-3.3325 l 7.4175,0 z" />
    <path
       id="path6828"
       style=""
       d="m 2345.1851,699.52512 -4.515,0 c 0,4.1925 -0.9675,5.9125 -3.01,5.9125 l -21.93,0 c -2.795,0 -4.085,-0.5375 -4.4075,-2.2575 -0.645,-4.8375 -0.86,-17.2 -0.86,-36.55 l 0,-9.9975 7.6325,0 c 2.4725,0 3.655,2.15 3.655,6.5575 l 4.6225,0 0,-17.63 -4.6225,0 c 0,4.1925 -1.1825,6.3425 -3.655,6.3425 l -7.525,0 c 0.1075,-17.415 0.43,-27.4125 0.7525,-30.96 0.43,-3.1175 1.1825,-3.3325 4.4075,-3.3325 l 7.6325,0 c 1.935,0 3.01,2.15 3.01,6.3425 l 4.515,0 0,-11.18 -35.475,0 0,4.8375 1.72,0 c 2.2575,0 3.01,1.1825 3.3325,4.085 0.5375,8.17 0.5375,11.61 0.5375,55.1475 0,10.6425 0,19.4575 -0.3225,26.015 -0.215,3.44 -1.3975,3.9775 -3.87,3.9775 l -1.3975,0 0,4.945 49.7725,0 0,-12.255 z" />
    <path
       id="path6830"
       style=""
       d="m 2383.3779,612.77262 -35.475,0 0,4.8375 1.075,0 c 2.2575,0 2.795,0.645 3.44,2.365 0.7525,1.935 1.075,3.44 1.075,39.2375 0,35.26 -0.3225,40.3125 -0.7525,43.3225 -0.3225,3.01 -1.1825,4.3 -3.225,4.3 l -1.6125,0 0,4.945 22.575,0 0,-4.945 -2.0425,0 c -3.3325,0 -4.1925,-0.7525 -4.6225,-3.225 -0.5375,-5.16 -0.86,-14.5125 -0.86,-34.7225 l 0,-9.89 7.6325,0 c 2.4725,0 3.655,2.15 3.655,6.3425 l 4.6225,0 0,-17.415 -4.6225,0 c 0,4.1925 -1.1825,6.235 -3.655,6.235 l -7.525,0 c 0.1075,-17.415 0.43,-29.67 0.7525,-33.2175 0.43,-3.1175 1.1825,-3.3325 4.4075,-3.3325 l 7.6325,0 c 1.935,0 3.01,2.15 3.01,6.3425 l 4.515,0 0,-11.18 z" />
    <path
       id="path6832"
       style=""
       d="m 2435.8882,699.52512 -4.515,0 c 0,4.1925 -0.9675,5.9125 -3.01,5.9125 l -21.93,0 c -2.795,0 -4.085,-0.5375 -4.4075,-2.2575 -0.645,-4.8375 -0.86,-17.2 -0.86,-36.55 l 0,-9.9975 7.6325,0 c 2.4725,0 3.655,2.15 3.655,6.5575 l 4.6225,0 0,-17.63 -4.6225,0 c 0,4.1925 -1.1825,6.3425 -3.655,6.3425 l -7.525,0 c 0.1075,-17.415 0.43,-27.4125 0.7525,-30.96 0.43,-3.1175 1.1825,-3.3325 4.4075,-3.3325 l 7.6325,0 c 1.935,0 3.01,2.15 3.01,6.3425 l 4.515,0 0,-11.18 -35.475,0 0,4.8375 1.72,0 c 2.2575,0 3.01,1.1825 3.3325,4.085 0.5375,8.17 0.5375,11.61 0.5375,55.1475 0,10.6425 0,19.4575 -0.3225,26.015 -0.215,3.44 -1.3975,3.9775 -3.87,3.9775 l -1.3975,0 0,4.945 49.7725,0 0,-12.255 z" />
    <path
       id="path6834"
       style=""
       d="m 2488.701,612.77262 -16.0175,0 0,4.8375 2.2575,0 c 0.86,0 1.3975,0.1075 1.935,1.1825 0.86,1.3975 1.3975,4.3 1.3975,35.26 0,10.4275 -0.1075,21.715 -0.43,34.185 -7.955,-23.22 -15.91,-49.235 -22.8975,-75.465 l -16.34,0 0,4.8375 2.0425,0 c 1.505,0 1.935,0.43 2.365,1.505 0.7525,1.935 1.075,6.235 1.075,39.6675 0,42.57 -0.215,44.29 -1.72,46.5475 -0.86,1.3975 -1.505,1.505 -2.6875,1.505 l -1.075,0 0,4.945 15.91,0 0,-4.945 -1.075,0 c -1.8275,0 -2.6875,-0.3225 -3.3325,-1.72 -1.075,-2.2575 -1.29,-3.5475 -1.29,-28.2725 0,-32.68 0.1075,-43.5375 0.215,-46.3325 6.5575,16.8775 19.8875,65.79 23.65,81.27 l 11.18,0 c -0.5375,-6.88 -0.86,-17.3075 -0.86,-56.0075 0,-33.325 0.215,-35.26 1.3975,-36.98 0.5375,-0.7525 1.6125,-1.1825 3.3325,-1.1825 l 0.9675,0 0,-4.8375 z" />
    <path
       id="path6836"
       style=""
       d="m 2527.3187,691.57012 c 0,-6.3425 -1.075,-9.89 -3.44,-15.05 -2.365,-5.2675 -4.3,-8.0625 -9.46,-17.3075 -8.815,-15.695 -11.18,-21.285 -11.18,-30.53 0,-4.085 0.3225,-6.665 1.1825,-8.4925 1.29,-2.6875 3.9775,-3.9775 6.5575,-3.9775 5.805,0 8.9225,3.9775 8.9225,9.1375 l 5.0525,0 0,-14.835 -5.0525,0 0,4.945 c -1.6125,-2.2575 -4.4075,-3.87 -9.7825,-3.87 -11.5025,0 -17.0925,9.3525 -17.0925,20.5325 0,5.0525 1.29,10.32 2.9025,14.9425 1.8275,5.16 4.3,10.105 8.2775,16.77 7.525,12.255 12.685,19.135 12.685,30.4225 0,7.8475 -3.5475,13.975 -11.5025,13.975 -5.2675,0 -9.675,-3.7625 -11.0725,-9.03 l -3.44,1.3975 c 2.2575,8.4925 8.2775,12.47 16.2325,12.47 12.255,0 20.21,-7.4175 20.21,-21.5 z" />
    <path
       id="path6838"
       style=""
       d="m 2580.9713,699.52512 -4.515,0 c 0,4.1925 -0.9675,5.9125 -3.01,5.9125 l -21.93,0 c -2.795,0 -4.085,-0.5375 -4.4076,-2.2575 -0.645,-4.8375 -0.8599,-17.2 -0.8599,-36.55 l 0,-9.9975 7.6325,0 c 2.4725,0 3.655,2.15 3.655,6.5575 l 4.6225,0 0,-17.63 -4.6225,0 c 0,4.1925 -1.1825,6.3425 -3.655,6.3425 l -7.5251,0 c 0.1075,-17.415 0.4301,-27.4125 0.7525,-30.96 0.4301,-3.1175 1.1826,-3.3325 4.4076,-3.3325 l 7.6324,0 c 1.935,0 3.0101,2.15 3.0101,6.3425 l 4.515,0 0,-11.18 -35.475,0 0,4.8375 1.7199,0 c 2.2576,0 3.0101,1.1825 3.3325,4.085 0.5376,8.17 0.5376,11.61 0.5376,55.1475 0,10.6425 0,19.4575 -0.3225,26.015 -0.2151,3.44 -1.3975,3.9775 -3.87,3.9775 l -1.3975,0 0,4.945 49.7725,0 0,-12.255 z" />
    <path
       id="path6840"
       style=""
       d="m 2674.9766,637.06762 c -0.7525,5.59 -8.815,53.75 -9.5675,57.835 -3.5475,-18.92 -6.665,-38.1625 -9.9975,-57.62 l -7.74,0 c -4.73,25.155 -10.8575,54.5025 -11.61,57.62 -2.795,-19.0275 -5.16,-38.3775 -7.74,-57.835 -0.9675,-7.8475 -1.8275,-15.695 -1.72,-17.415 0.1075,-1.3975 1.29,-2.0425 3.87,-2.0425 l 1.3975,0 0,-4.8375 -22.575,0 0,4.8375 0.9675,0 c 1.29,0 1.935,0.215 2.4725,0.9675 2.0425,3.1175 12.1475,65.6825 15.05,93.2025 l 10.535,0 c 2.0425,-12.3625 6.5575,-36.4425 10.4275,-56.0075 3.655,18.705 7.525,40.7425 9.675,56.0075 l 9.89,0 c 3.3325,-24.725 12.47,-83.9575 14.2975,-90.945 0.5375,-2.15 1.29,-3.225 3.3325,-3.225 l 1.29,0 0,-4.8375 -15.05,0 0,4.8375 1.3975,0 c 2.365,0 3.7625,0.43 3.7625,1.935 0,1.935 -0.215,3.44 -2.365,17.5225 z" />
    <path
       id="path6842"
       style=""
       d="m 2690.979,711.78012 20.5325,0 0,-4.945 -1.8275,0 c -1.8275,0 -2.365,-0.43 -2.9025,-1.935 -0.43,-1.72 -0.645,-33.0025 -0.645,-48.2675 0,-13.6525 0.1075,-35.1525 0.645,-36.98 0.5375,-1.505 1.075,-2.0425 2.9025,-2.0425 l 1.8275,0 0,-4.8375 -20.5325,0 0,4.8375 1.72,0 c 1.935,0 2.4725,0.5375 2.9025,2.0425 0.645,1.8275 0.7525,23.3275 0.7525,36.98 0,15.265 -0.215,46.5475 -0.7525,48.2675 -0.43,1.505 -0.9675,1.935 -2.9025,1.935 l -1.72,0 0,4.945 z" />
    <path
       id="path6844"
       style=""
       d="m 2751.557,691.57012 c 0,-6.3425 -1.075,-9.89 -3.44,-15.05 -2.365,-5.2675 -4.3,-8.0625 -9.46,-17.3075 -8.815,-15.695 -11.18,-21.285 -11.18,-30.53 0,-4.085 0.3225,-6.665 1.1825,-8.4925 1.29,-2.6875 3.9775,-3.9775 6.5575,-3.9775 5.805,0 8.9225,3.9775 8.9225,9.1375 l 5.0525,0 0,-14.835 -5.0525,0 0,4.945 c -1.6125,-2.2575 -4.4075,-3.87 -9.7825,-3.87 -11.5025,0 -17.0925,9.3525 -17.0925,20.5325 0,5.0525 1.29,10.32 2.9025,14.9425 1.8275,5.16 4.3,10.105 8.2775,16.77 7.525,12.255 12.685,19.135 12.685,30.4225 0,7.8475 -3.5475,13.975 -11.5025,13.975 -5.2675,0 -9.675,-3.7625 -11.0725,-9.03 l -3.44,1.3975 c 2.2575,8.4925 8.2775,12.47 16.2325,12.47 12.255,0 20.21,-7.4175 20.21,-21.5 z" />
    <path
       id="path6846"
       style=""
       d="m 2805.2095,699.52512 -4.515,0 c 0,4.1925 -0.9675,5.9125 -3.01,5.9125 l -21.93,0 c -2.795,0 -4.085,-0.5375 -4.4075,-2.2575 -0.645,-4.8375 -0.86,-17.2 -0.86,-36.55 l 0,-9.9975 7.6325,0 c 2.4725,0 3.655,2.15 3.655,6.5575 l 4.6225,0 0,-17.63 -4.6225,0 c 0,4.1925 -1.1825,6.3425 -3.655,6.3425 l -7.525,0 c 0.1075,-17.415 0.43,-27.4125 0.7525,-30.96 0.43,-3.1175 1.1825,-3.3325 4.4075,-3.3325 l 7.6325,0 c 1.935,0 3.01,2.15 3.01,6.3425 l 4.515,0 0,-11.18 -35.475,0 0,4.8375 1.72,0 c 2.2575,0 3.01,1.1825 3.3325,4.085 0.5375,8.17 0.5375,11.61 0.5375,55.1475 0,10.6425 0,19.4575 -0.3225,26.015 -0.215,3.44 -1.3975,3.9775 -3.87,3.9775 l -1.3975,0 0,4.945 49.7725,0 0,-12.255 z" />
    <path
       id="path6848"
       style=""
       d="m 2857.6998,699.52512 -4.6225,0 c 0,4.1925 -0.9675,5.9125 -3.01,5.9125 l -22.6825,0 c -2.9025,0 -3.87,-2.4725 -3.9775,-8.0625 -0.3225,-12.255 -0.43,-25.8 -0.43,-41.1725 0,-27.735 0.5375,-33.0025 0.86,-35.26 0.43,-2.2575 1.505,-3.3325 3.44,-3.3325 l 2.9025,0 0,-4.8375 -22.2525,0 0,4.8375 1.505,0 c 2.15,0 3.01,0.7525 3.225,3.3325 0.5375,5.2675 0.7525,9.89 0.7525,32.68 0,29.3475 -0.1075,38.915 -0.3225,43.7525 -0.43,7.8475 -0.3225,9.46 -3.5475,9.46 l -1.6125,0 0,4.945 49.7725,0 0,-12.255 z" />
    <path
       id="path6850"
       style=""
       d="m 2902.702,612.77262 -16.6625,0 0,4.8375 2.4725,0 c 1.505,0 2.2575,0.9675 2.2575,2.0425 0,1.935 -3.87,12.9 -12.1475,34.9375 -8.2775,-22.0375 -12.685,-33.0025 -12.685,-34.9375 0,-1.3975 1.1825,-2.0425 3.1175,-2.0425 l 1.935,0 0,-4.8375 -22.36,0 0,4.8375 1.075,0 c 1.8275,0 2.6875,0.7525 3.7625,3.3325 8.2775,18.5975 13.4375,30.96 17.415,42.4625 -0.215,19.565 -0.3225,30.315 -0.7525,36.2275 -0.43,6.235 -1.505,7.2025 -3.5475,7.2025 l -2.9025,0 0,4.945 23.1125,0 0,-4.945 -1.935,0 c -3.44,0 -4.515,-0.9675 -4.515,-6.665 0,-6.88 0.1075,-17.2 0.1075,-37.3025 5.4825,-13.545 12.47,-31.39 17.3075,-41.3875 1.6125,-3.44 2.365,-3.87 4.085,-3.87 l 0.86,0 0,-4.8375 z" />
  </g>
  <g
     id="text5080"
     style="font-style:normal;font-variant:normal;font-weight:normal;font-stretch:normal;font-size:97.96407318px;line-height:125%;font-family:Euphorigenic;-inkscape-font-specification:Euphorigenic;text-align:start;letter-spacing:0px;word-spacing:0px;writing-mode:lr-tb;text-anchor:start;display:inline;fill:#222222;fill-opacity:1;stroke:none">
    <path
       id="path6853"
       style=""
       d="m 1785.4263,1621.5677 -1.0776,0 c -1.9592,0 -2.743,-0.6857 -3.2328,-2.645 -0.5878,-2.8409 -0.9796,-7.0534 -0.9796,-29.1933 0,-17.4376 0.098,-29.879 0.1959,-35.8548 l -4.6043,0 c -0.2939,4.4084 -4.8002,7.8371 -9.2086,8.131 l 0,4.4084 4.4084,0 c 0.3918,3.8206 0.6857,12.6373 0.6857,23.3154 0,23.4134 -0.3918,27.234 -0.6857,28.8994 -0.196,1.9593 -1.1756,2.9389 -2.841,2.9389 l -1.5674,0 0,4.5064 18.907,0 0,-4.5064 z" />
    <path
       id="path6855"
       style=""
       d="m 1797.7178,1626.8578 c 3.9185,0 6.4656,-3.0369 6.4656,-7.4453 0,-4.3104 -2.5471,-7.4452 -6.4656,-7.4452 -3.8206,0 -6.3677,3.1348 -6.3677,7.4452 0,4.4084 2.5471,7.4453 6.3677,7.4453 z" />
    <path
       id="path6857"
       style=""
       d="m 1848.3637,1577.9737 c -7.6412,0 -13.2252,4.9962 -13.2252,12.6374 0,3.3308 1.1756,6.5636 3.9186,9.3066 3.2328,3.2328 10.3842,5.9758 13.0292,8.7188 1.9593,1.9593 2.5471,3.3308 2.5471,6.2697 0,5.0941 -3.2328,7.8371 -7.6412,7.8371 -5.1921,0 -10.0903,-3.7226 -10.874,-9.6984 l -2.939,0.7837 c 0.5878,8.6208 7.1514,13.2251 14.1069,13.2251 8.8167,0 16.164,-5.486 16.164,-16.0661 0,-3.6246 -0.7837,-6.2697 -2.9389,-9.0127 -1.2735,-1.7633 -3.1348,-3.2328 -5.6819,-4.4083 -3.1349,-1.5675 -5.486,-2.6451 -7.2493,-3.8206 -2.4491,-1.6654 -3.6247,-3.3308 -3.6247,-5.9759 0,-3.5267 1.8613,-5.5839 5.486,-5.5839 2.9389,0 4.8002,1.1756 6.1717,3.4287 1.1756,1.7634 1.4695,3.3308 1.4695,5.2901 l 0,0.8817 3.9185,0 0,-13.813 -3.9185,0 0,4.6043 c -1.9593,-3.5267 -5.2901,-4.6043 -8.7188,-4.6043 z" />
    <path
       id="path6859"
       style=""
       d="m 1896.4487,1614.3184 c -1.2735,4.3104 -5.5839,8.4249 -12.1475,8.4249 -1.6654,0 -3.2328,-0.8817 -4.4084,-2.2532 -1.3715,-1.6653 -2.2532,-3.9185 -2.2532,-14.3027 l 13.3231,-5.8779 c 6.4657,-2.8409 7.8372,-4.5063 7.8372,-8.5228 0,-9.2087 -5.486,-13.813 -14.4987,-13.813 -4.4084,0 -8.4249,2.1552 -11.3639,5.584 -3.3307,3.9186 -5.388,9.5025 -5.388,19.2989 0,7.1514 1.2736,12.2455 3.6247,16.0661 2.9389,4.8982 7.5432,8.131 13.1272,8.131 7.4452,0 12.3434,-4.2124 14.7926,-12.1475 l -2.6451,-0.5878 z m -4.8002,-23.1195 c 0,2.9389 -0.6858,4.3104 -2.5471,4.9962 l -11.4618,4.7022 c 0,-12.3434 0.5878,-14.4007 1.7634,-15.8701 1.2735,-1.5675 2.9389,-2.6451 4.8982,-2.6451 5.6819,0 7.3473,2.9389 7.3473,8.8168 z" />
    <path
       id="path6861"
       style=""
       d="m 1921.4663,1621.5677 -1.4695,0 c -2.0572,0 -2.547,-0.7837 -2.9389,-2.9389 -0.1959,-1.2735 -0.4898,-4.1145 -0.4898,-34.2874 0,-21.846 0.3918,-26.8422 0.4898,-33.6996 l -14.4987,0 0,4.3104 1.1756,0 c 2.4491,0 2.743,0.5878 3.2328,3.1348 0.6858,3.1349 0.6858,5.7799 0.6858,25.7646 0,28.5075 -0.3919,32.4261 -1.4695,35.7569 -0.4898,1.6654 -1.1756,1.9592 -2.0573,1.9592 l -1.5674,0 0,4.5064 18.9071,0 0,-4.5064 z" />
    <path
       id="path6863"
       style=""
       d="m 1954.2322,1614.3184 c -1.2735,4.3104 -5.5839,8.4249 -12.1475,8.4249 -1.6654,0 -3.2328,-0.8817 -4.4084,-2.2532 -1.3715,-1.6653 -2.2532,-3.9185 -2.2532,-14.3027 l 13.3231,-5.8779 c 6.4657,-2.8409 7.8372,-4.5063 7.8372,-8.5228 0,-9.2087 -5.486,-13.813 -14.4987,-13.813 -4.4084,0 -8.4249,2.1552 -11.3639,5.584 -3.3307,3.9186 -5.388,9.5025 -5.388,19.2989 0,7.1514 1.2736,12.2455 3.6247,16.0661 2.9389,4.8982 7.5432,8.131 13.1272,8.131 7.4452,0 12.3434,-4.2124 14.7926,-12.1475 l -2.6451,-0.5878 z m -4.8002,-23.1195 c 0,2.9389 -0.6858,4.3104 -2.5471,4.9962 l -11.4618,4.7022 c 0,-12.3434 0.5878,-14.4007 1.7634,-15.8701 1.2735,-1.5675 2.9389,-2.6451 4.8982,-2.6451 5.6819,0 7.3473,2.9389 7.3473,8.8168 z" />
    <path
       id="path6865"
       style=""
       d="m 1989.438,1614.2204 c -0.9796,4.3105 -5.29,8.1311 -10.678,8.1311 -2.6451,0 -4.8982,-0.9797 -6.3677,-2.5471 -1.2735,-1.5674 -1.7634,-4.2125 -1.7634,-16.6539 0,-14.6946 0.5878,-17.1437 2.1553,-18.9071 1.0776,-1.3715 2.7429,-2.547 4.5063,-2.547 4.2125,0 5.8778,1.4694 6.4656,3.3308 -2.9389,0.6857 -4.7022,3.5267 -4.7022,6.9554 0,3.8206 2.7429,6.8575 6.4656,6.8575 3.5267,0 6.2697,-3.6247 6.2697,-7.8371 0,-7.3473 -4.4084,-13.0293 -14.4987,-13.0293 -4.1145,0 -8.0331,1.6654 -10.874,4.6043 -3.7226,3.8206 -5.8779,9.8944 -5.8779,20.3766 0,9.4045 1.9593,14.7926 5.3881,18.7111 2.9389,3.4288 6.9554,5.388 11.3638,5.388 7.4453,0 12.3435,-4.2124 14.7926,-12.1475 l -2.6451,-0.6858 z" />
    <path
       id="path6867"
       style=""
       d="m 2021.0192,1628.4252 c -0.6857,2.4491 -2.547,4.7023 -5.486,4.7023 -2.3511,0 -4.2124,-1.1756 -4.9961,-4.1145 -0.9797,-3.4287 -1.1756,-5.29 -1.1756,-16.6539 0,-16.36 0.2939,-22.4337 0.9796,-28.8994 l 8.0331,0 0,-4.4084 -8.0331,0 0,-19.103 -3.7226,0 0,1.9593 c 0,7.9351 -4.4084,17.1437 -10.6781,17.1437 l -0.6857,0 0,4.4084 5.1921,0 c 0.2939,4.4084 0.3918,8.6209 0.3918,28.8994 0,13.0292 0.9797,17.3397 2.841,20.2786 2.547,3.9186 5.8778,4.8002 10.1882,4.8002 5.9758,0 9.6005,-4.5063 9.8944,-8.4249 l -2.743,-0.5878 z" />
    <path
       id="path6869"
       style=""
       d="m 2085.3586,1615.6899 -3.9185,0 0,3.2328 c 0,1.6654 -0.4898,2.645 -1.6654,2.645 -0.7837,0 -1.4695,-0.3918 -1.8613,-2.1552 -0.3919,-1.9592 -0.4898,-3.4287 -0.4898,-14.6946 0,-14.1068 -0.5878,-19.2009 -3.7227,-22.8256 -2.4491,-2.841 -6.4656,-3.9186 -11.1679,-3.9186 -8.131,0 -15.2824,5.0942 -15.2824,13.5191 0,4.8002 2.645,7.2493 6.3677,7.2493 3.5267,0 6.1717,-3.1348 6.1717,-6.7595 0,-3.5267 -1.3715,-5.584 -4.3104,-6.6616 0.3919,-1.7633 2.645,-3.1348 5.8778,-3.1348 2.939,0 4.3105,0.5878 5.486,2.3511 1.2736,1.7634 1.5675,4.8003 1.5675,10.3842 -1.3715,1.5674 -3.5268,2.6451 -5.3881,3.8206 -4.1145,2.5471 -8.8167,4.3104 -12.2455,6.4656 -4.5063,2.743 -6.1717,5.486 -6.1717,10.3842 0,7.1514 4.7023,11.4618 14.0088,11.4618 5.2901,0 9.0127,-2.4491 11.5598,-6.0737 1.5674,3.1348 4.1145,5.8778 7.6412,5.8778 4.8982,0 7.5432,-3.3308 7.5432,-7.5432 l 0,-3.6247 z m -16.5559,0 c -0.8817,2.5471 -2.743,5.9758 -7.5432,5.9758 -4.0165,0 -7.0534,-2.645 -7.0534,-6.5636 0,-4.8002 2.1552,-6.7595 5.388,-9.2086 3.0369,-2.2532 6.7595,-4.1145 9.0127,-7.3473 0.098,4.8002 0.1959,12.3435 0.1959,17.1437 z" />
    <path
       id="path6871"
       style=""
       d="m 2123.9489,1622.7433 c 1.6653,2.9389 4.6043,4.3104 8.7188,4.3104 7.4452,0 15.1844,-6.4656 15.1844,-25.2747 0,-15.7722 -7.3473,-23.8053 -16.5559,-23.8053 -3.8206,0 -7.7392,2.5471 -10.1883,5.682 -1.6654,-3.6247 -4.1145,-4.6044 -9.1107,-4.6044 l -1.8613,0 0,4.4084 1.1756,0 c 2.4491,0 3.0369,0.4898 3.2328,2.9389 0.4898,5.1921 0.4898,8.6209 0.4898,26.3524 l 0,23.5114 c 0,3.2328 0,4.8982 -0.4898,6.1717 -0.5878,1.5674 -1.7634,1.9593 -4.4084,1.9593 l 0,4.4084 18.9071,0 0,-4.4084 c -1.6654,0 -2.743,0 -3.6247,-1.0776 -0.7837,-1.0776 -1.4694,-2.841 -1.4694,-7.0534 l 0,-13.5191 z m 0.6857,-31.8383 c 0,-4.4084 2.3511,-8.5229 6.6616,-8.5229 1.7633,0 3.6246,0.7837 4.8002,2.3512 1.1756,1.5674 1.6654,3.8206 1.6654,17.0457 0,14.8905 -0.7837,17.0458 -2.1552,18.7111 -1.0776,1.2736 -2.6451,2.2532 -4.3104,2.2532 -4.3105,0 -6.6616,-4.1145 -6.6616,-8.3269 l 0,-23.5114 z" />
    <path
       id="path6873"
       style=""
       d="m 2170.9685,1621.5677 -1.4694,0 c -2.0573,0 -2.5471,-0.7837 -2.9389,-2.9389 -0.196,-1.2735 -0.4899,-4.1145 -0.4899,-34.2874 0,-21.846 0.3919,-26.8422 0.4899,-33.6996 l -14.4987,0 0,4.3104 1.1756,0 c 2.4491,0 2.7429,0.5878 3.2328,3.1348 0.6857,3.1349 0.6857,5.7799 0.6857,25.7646 0,28.5075 -0.3918,32.4261 -1.4694,35.7569 -0.4899,1.6654 -1.1756,1.9592 -2.0573,1.9592 l -1.5674,0 0,4.5064 18.907,0 0,-4.5064 z" />
    <path
       id="path6875"
       style=""
       d="m 2214.5105,1615.6899 -3.9186,0 0,3.2328 c 0,1.6654 -0.4898,2.645 -1.6654,2.645 -0.7837,0 -1.4694,-0.3918 -1.8613,-2.1552 -0.3918,-1.9592 -0.4898,-3.4287 -0.4898,-14.6946 0,-14.1068 -0.5878,-19.2009 -3.7226,-22.8256 -2.4491,-2.841 -6.4657,-3.9186 -11.1679,-3.9186 -8.1311,0 -15.2824,5.0942 -15.2824,13.5191 0,4.8002 2.645,7.2493 6.3676,7.2493 3.5267,0 6.1718,-3.1348 6.1718,-6.7595 0,-3.5267 -1.3715,-5.584 -4.3104,-6.6616 0.3918,-1.7633 2.645,-3.1348 5.8778,-3.1348 2.9389,0 4.3104,0.5878 5.486,2.3511 1.2735,1.7634 1.5674,4.8003 1.5674,10.3842 -1.3715,1.5674 -3.5267,2.6451 -5.388,3.8206 -4.1145,2.5471 -8.8168,4.3104 -12.2455,6.4656 -4.5064,2.743 -6.1718,5.486 -6.1718,10.3842 0,7.1514 4.7023,11.4618 14.0089,11.4618 5.2901,0 9.0127,-2.4491 11.5598,-6.0737 1.5674,3.1348 4.1145,5.8778 7.6412,5.8778 4.8982,0 7.5432,-3.3308 7.5432,-7.5432 l 0,-3.6247 z m -16.5559,0 c -0.8817,2.5471 -2.743,5.9758 -7.5433,5.9758 -4.0165,0 -7.0534,-2.645 -7.0534,-6.5636 0,-4.8002 2.1552,-6.7595 5.388,-9.2086 3.0369,-2.2532 6.7596,-4.1145 9.0127,-7.3473 0.098,4.8002 0.196,12.3435 0.196,17.1437 z" />
    <path
       id="path6877"
       style=""
       d="m 2245.6371,1614.2204 c -0.9797,4.3105 -5.2901,8.1311 -10.6781,8.1311 -2.645,0 -4.8982,-0.9797 -6.3677,-2.5471 -1.2735,-1.5674 -1.7633,-4.2125 -1.7633,-16.6539 0,-14.6946 0.5877,-17.1437 2.1552,-18.9071 1.0776,-1.3715 2.743,-2.547 4.5063,-2.547 4.2125,0 5.8779,1.4694 6.4657,3.3308 -2.939,0.6857 -4.7023,3.5267 -4.7023,6.9554 0,3.8206 2.743,6.8575 6.4656,6.8575 3.5267,0 6.2697,-3.6247 6.2697,-7.8371 0,-7.3473 -4.4084,-13.0293 -14.4987,-13.0293 -4.1145,0 -8.033,1.6654 -10.874,4.6043 -3.7226,3.8206 -5.8778,9.8944 -5.8778,20.3766 0,9.4045 1.9592,14.7926 5.388,18.7111 2.9389,3.4288 6.9554,5.388 11.3638,5.388 7.4453,0 12.3435,-4.2124 14.7926,-12.1475 l -2.645,-0.6858 z" />
    <path
       id="path6879"
       style=""
       d="m 2280.8429,1614.3184 c -1.2735,4.3104 -5.5839,8.4249 -12.1475,8.4249 -1.6654,0 -3.2329,-0.8817 -4.4084,-2.2532 -1.3715,-1.6653 -2.2532,-3.9185 -2.2532,-14.3027 l 13.3231,-5.8779 c 6.4656,-2.8409 7.8371,-4.5063 7.8371,-8.5228 0,-9.2087 -5.4859,-13.813 -14.4986,-13.813 -4.4084,0 -8.4249,2.1552 -11.3639,5.584 -3.3307,3.9186 -5.388,9.5025 -5.388,19.2989 0,7.1514 1.2735,12.2455 3.6247,16.0661 2.9389,4.8982 7.5432,8.131 13.1272,8.131 7.4452,0 12.3434,-4.2124 14.7925,-12.1475 l -2.645,-0.5878 z m -4.8002,-23.1195 c 0,2.9389 -0.6858,4.3104 -2.5471,4.9962 l -11.4618,4.7022 c 0,-12.3434 0.5878,-14.4007 1.7634,-15.8701 1.2735,-1.5675 2.9389,-2.6451 4.8982,-2.6451 5.6819,0 7.3473,2.9389 7.3473,8.8168 z" />
    <path
       id="path6881"
       style=""
       d="m 2352.6077,1621.5677 -1.0776,0 c -1.5674,0 -2.2532,-0.2938 -2.5471,-1.0776 -0.2939,-0.8816 -0.7837,-2.645 -0.7837,-27.9197 0,-6.3677 -3.6247,-14.5967 -14.5966,-14.5967 -6.4657,0 -9.7964,2.0573 -12.4415,5.682 -1.8613,-3.2329 -3.0369,-4.6044 -8.229,-4.6044 l -2.645,0 0,4.4084 0.9797,0 c 1.5674,0 2.2531,0.6858 3.0368,1.4695 0.7837,0.7837 0.7837,2.645 0.7837,13.1272 0,19.2009 -0.098,19.8867 -0.6857,21.5521 -0.4898,1.3715 -1.2735,1.9592 -2.645,1.9592 l -1.4695,0 0,4.5064 18.9071,0 0,-4.5064 -0.9797,0 c -2.1552,0 -2.9389,-0.4898 -3.3307,-1.5674 -0.3919,-1.0776 -0.3919,-1.7633 -0.3919,-18.5152 0,-10.6781 0.4898,-13.8129 2.1552,-15.8702 0.9797,-1.2735 2.5471,-2.3511 4.8982,-2.3511 2.2532,0 3.8206,0.6857 4.8982,2.0572 1.7634,2.2532 2.2532,3.2329 2.2532,15.6743 0,17.7315 -0.4898,18.9071 -1.1756,19.7887 -0.3918,0.5878 -1.1755,0.7837 -2.3511,0.7837 l -1.3715,0 0,4.5064 18.8091,0 0,-4.5064 z" />
    <path
       id="path6883"
       style=""
       d="m 2384.1644,1614.3184 c -1.2735,4.3104 -5.5839,8.4249 -12.1475,8.4249 -1.6654,0 -3.2328,-0.8817 -4.4084,-2.2532 -1.3715,-1.6653 -2.2532,-3.9185 -2.2532,-14.3027 l 13.3231,-5.8779 c 6.4657,-2.8409 7.8371,-4.5063 7.8371,-8.5228 0,-9.2087 -5.4859,-13.813 -14.4986,-13.813 -4.4084,0 -8.4249,2.1552 -11.3639,5.584 -3.3307,3.9186 -5.388,9.5025 -5.388,19.2989 0,7.1514 1.2735,12.2455 3.6247,16.0661 2.9389,4.8982 7.5432,8.131 13.1272,8.131 7.4452,0 12.3434,-4.2124 14.7925,-12.1475 l -2.645,-0.5878 z m -4.8002,-23.1195 c 0,2.9389 -0.6858,4.3104 -2.5471,4.9962 l -11.4618,4.7022 c 0,-12.3434 0.5878,-14.4007 1.7634,-15.8701 1.2735,-1.5675 2.9389,-2.6451 4.8982,-2.6451 5.6819,0 7.3473,2.9389 7.3473,8.8168 z" />
    <path
       id="path6885"
       style=""
       d="m 2387.0926,1621.5677 0,4.5064 14.3028,0 0,-4.5064 -0.6858,0 c -1.9593,0 -2.3511,-0.6857 -2.3511,-1.7633 0,-1.6654 2.0572,-6.1717 5.5839,-13.3231 3.7227,7.1514 5.584,11.6577 5.584,13.3231 0,1.1756 -1.1756,1.7633 -2.645,1.7633 l -0.8817,0 0,4.5064 17.6335,0 0,-4.5064 -0.8817,0 c -1.3715,0 -2.547,-0.5877 -3.8206,-2.1552 -3.0369,-3.6246 -7.8371,-12.7353 -10.1882,-18.7111 5.486,-10.2862 7.1513,-14.4987 9.3066,-16.1641 0.9796,-0.6857 1.8613,-1.0776 3.3307,-1.0776 l 1.3715,0 0,-4.4084 -13.8129,0 0,4.4084 0.6857,0 c 1.5675,0 2.3512,0.8817 2.3512,1.8613 0,0.8817 -1.8613,4.8982 -5.1921,11.7557 -3.4288,-6.8575 -5.0941,-10.874 -5.0941,-11.7557 0,-0.9796 0.9796,-1.8613 2.547,-1.8613 l 0.4898,0 0,-4.4084 -17.6335,0 0,4.4084 1.2735,0 c 1.5675,0 2.5471,0.7837 4.0166,3.0369 3.7226,5.584 6.5636,11.1679 9.4045,15.8702 -5.8778,11.9516 -8.033,16.1641 -9.9923,17.9274 -1.0776,0.9797 -2.2532,1.2735 -3.7226,1.2735 l -0.9797,0 z" />
    <path
       id="path6887"
       style=""
       d="m 2451.7167,1628.4252 c -0.6857,2.4491 -2.547,4.7023 -5.4859,4.7023 -2.3512,0 -4.2125,-1.1756 -4.9962,-4.1145 -0.9797,-3.4287 -1.1756,-5.29 -1.1756,-16.6539 0,-16.36 0.2939,-22.4337 0.9797,-28.8994 l 8.033,0 0,-4.4084 -8.033,0 0,-19.103 -3.7227,0 0,1.9593 c 0,7.9351 -4.4084,17.1437 -10.6781,17.1437 l -0.6857,0 0,4.4084 5.1921,0 c 0.2939,4.4084 0.3918,8.6209 0.3918,28.8994 0,13.0292 0.9797,17.3397 2.841,20.2786 2.5471,3.9186 5.8778,4.8002 10.1883,4.8002 5.9758,0 9.6004,-4.5063 9.8943,-8.4249 l -2.743,-0.5878 z" />
    <path
       id="path6889"
       style=""
       d="m 2501.6555,1628.4252 c -0.6858,2.4491 -2.5471,4.7023 -5.486,4.7023 -2.3512,0 -4.2125,-1.1756 -4.9962,-4.1145 -0.9796,-3.4287 -1.1756,-5.29 -1.1756,-16.6539 0,-16.36 0.2939,-22.4337 0.9797,-28.8994 l 8.033,0 0,-4.4084 -8.033,0 0,-19.103 -3.7227,0 0,1.9593 c 0,7.9351 -4.4083,17.1437 -10.678,17.1437 l -0.6858,0 0,4.4084 5.1921,0 c 0.2939,4.4084 0.3919,8.6209 0.3919,28.8994 0,13.0292 0.9796,17.3397 2.8409,20.2786 2.5471,3.9186 5.8779,4.8002 10.1883,4.8002 5.9758,0 9.6005,-4.5063 9.8944,-8.4249 l -2.743,-0.5878 z" />
    <path
       id="path6891"
       style=""
       d="m 2518.3889,1577.9737 c -4.0165,0 -7.7391,1.6654 -10.5801,4.4084 -3.8206,3.7227 -6.1717,8.6209 -6.1717,20.5725 0,11.1679 1.9593,15.1844 5.1921,18.8091 2.9389,3.4287 7.0534,5.29 11.5597,5.29 4.3105,0 8.229,-1.6654 11.1679,-4.8982 3.4288,-3.7226 5.682,-8.3269 5.682,-19.005 0,-13.519 -2.5471,-17.6335 -6.5636,-21.1602 -2.841,-2.5471 -6.3677,-4.0166 -10.2863,-4.0166 z m 0,4.4084 c 1.9593,0 3.4288,0.6858 4.7023,2.1552 1.1756,1.3715 1.8613,3.5267 1.8613,18.4173 0,14.0088 -0.6857,16.164 -1.9593,17.6335 -1.0776,1.3715 -2.7429,2.1552 -4.6043,2.1552 -1.7633,0 -3.5267,-0.7837 -4.7022,-2.2532 -1.1756,-1.4694 -1.9593,-3.6246 -1.9593,-17.5355 0,-14.9885 0.7837,-17.0458 1.9593,-18.4173 1.2735,-1.4694 2.8409,-2.1552 4.7022,-2.1552 z" />
    <path
       id="path6893"
       style=""
       d="m 2588.3307,1628.4252 c -0.6858,2.4491 -2.5471,4.7023 -5.486,4.7023 -2.3511,0 -4.2124,-1.1756 -4.9962,-4.1145 -0.9796,-3.4287 -1.1755,-5.29 -1.1755,-16.6539 0,-16.36 0.2939,-22.4337 0.9796,-28.8994 l 8.0331,0 0,-4.4084 -8.0331,0 0,-19.103 -3.7226,0 0,1.9593 c 0,7.9351 -4.4084,17.1437 -10.6781,17.1437 l -0.6858,0 0,4.4084 5.1921,0 c 0.2939,4.4084 0.3919,8.6209 0.3919,28.8994 0,13.0292 0.9796,17.3397 2.841,20.2786 2.547,3.9186 5.8778,4.8002 10.1882,4.8002 5.9758,0 9.6005,-4.5063 9.8944,-8.4249 l -2.743,-0.5878 z" />
    <path
       id="path6895"
       style=""
       d="m 2631.3935,1621.5677 c -3.6246,0 -4.6043,-0.2938 -4.6043,-15.9681 l 0,-13.2251 c 0,-4.4084 -1.7633,-8.1311 -4.8002,-10.7761 -2.5471,-2.2532 -6.0738,-3.6247 -10.2863,-3.6247 -4.2124,0 -6.7595,1.2736 -8.5228,3.8206 0.2939,-14.9885 0.3918,-24.5889 0.3918,-31.1525 l -14.4987,0 0,4.5063 c 2.743,0 4.0166,0.098 4.3105,2.9389 0.5878,10.4822 0.6857,18.2213 0.6857,25.4707 0,11.8536 -0.098,23.0215 -0.6857,34.9732 -0.098,2.0572 -1.0776,3.0368 -2.841,3.0368 l -1.4695,0 0,4.5064 18.8092,0 0,-4.5064 c -4.4084,0 -4.8003,-2.4491 -4.8003,-10.0903 l 0,-20.0826 c 0,-4.3104 2.743,-8.229 7.1514,-8.229 2.0572,0 3.9186,1.0776 5.0941,2.5471 1.2736,1.5674 1.8613,3.5267 1.8613,5.486 l 0,19.3969 c 0,10.2862 -0.098,10.9719 -3.3307,10.9719 l -1.3715,0 0,4.5064 18.907,0 0,-4.5064 z" />
    <path
       id="path6897"
       style=""
       d="m 2663.1324,1614.3184 c -1.2736,4.3104 -5.584,8.4249 -12.1476,8.4249 -1.6654,0 -3.2328,-0.8817 -4.4084,-2.2532 -1.3715,-1.6653 -2.2531,-3.9185 -2.2531,-14.3027 l 13.3231,-5.8779 c 6.4656,-2.8409 7.8371,-4.5063 7.8371,-8.5228 0,-9.2087 -5.486,-13.813 -14.4987,-13.813 -4.4084,0 -8.4249,2.1552 -11.3638,5.584 -3.3308,3.9186 -5.388,9.5025 -5.388,19.2989 0,7.1514 1.2735,12.2455 3.6246,16.0661 2.939,4.8982 7.5433,8.131 13.1272,8.131 7.4453,0 12.3435,-4.2124 14.7926,-12.1475 l -2.645,-0.5878 z m -4.8003,-23.1195 c 0,2.9389 -0.6857,4.3104 -2.547,4.9962 l -11.4618,4.7022 c 0,-12.3434 0.5877,-14.4007 1.7633,-15.8701 1.2736,-1.5675 2.9389,-2.6451 4.8982,-2.6451 5.6819,0 7.3473,2.9389 7.3473,8.8168 z" />
    <path
       id="path6899"
       style=""
       d="m 2705.8018,1622.7433 c 1.6654,2.9389 4.6044,4.3104 8.7189,4.3104 7.4452,0 15.1844,-6.4656 15.1844,-25.2747 0,-15.7722 -7.3473,-23.8053 -16.5559,-23.8053 -3.8206,0 -7.7392,2.5471 -10.1883,5.682 -1.6654,-3.6247 -4.1145,-4.6044 -9.1107,-4.6044 l -1.8613,0 0,4.4084 1.1756,0 c 2.4491,0 3.0369,0.4898 3.2328,2.9389 0.4898,5.1921 0.4898,8.6209 0.4898,26.3524 l 0,23.5114 c 0,3.2328 0,4.8982 -0.4898,6.1717 -0.5878,1.5674 -1.7634,1.9593 -4.4084,1.9593 l 0,4.4084 18.9071,0 0,-4.4084 c -1.6654,0 -2.743,0 -3.6247,-1.0776 -0.7837,-1.0776 -1.4695,-2.841 -1.4695,-7.0534 l 0,-13.5191 z m 0.6858,-31.8383 c 0,-4.4084 2.3511,-8.5229 6.6616,-8.5229 1.7633,0 3.6246,0.7837 4.8002,2.3512 1.1756,1.5674 1.6654,3.8206 1.6654,17.0457 0,14.8905 -0.7837,17.0458 -2.1552,18.7111 -1.0776,1.2736 -2.6451,2.2532 -4.3104,2.2532 -4.3105,0 -6.6616,-4.1145 -6.6616,-8.3269 l 0,-23.5114 z" />
    <path
       id="path6901"
       style=""
       d="m 2773.7859,1615.6899 -3.9186,0 0,3.2328 c 0,1.6654 -0.4898,2.645 -1.6654,2.645 -0.7837,0 -1.4695,-0.3918 -1.8613,-2.1552 -0.3919,-1.9592 -0.4898,-3.4287 -0.4898,-14.6946 0,-14.1068 -0.5878,-19.2009 -3.7227,-22.8256 -2.4491,-2.841 -6.4656,-3.9186 -11.1679,-3.9186 -8.131,0 -15.2824,5.0942 -15.2824,13.5191 0,4.8002 2.6451,7.2493 6.3677,7.2493 3.5267,0 6.1717,-3.1348 6.1717,-6.7595 0,-3.5267 -1.3715,-5.584 -4.3104,-6.6616 0.3919,-1.7633 2.645,-3.1348 5.8779,-3.1348 2.9389,0 4.3104,0.5878 5.4859,2.3511 1.2736,1.7634 1.5675,4.8003 1.5675,10.3842 -1.3715,1.5674 -3.5267,2.6451 -5.3881,3.8206 -4.1144,2.5471 -8.8167,4.3104 -12.2455,6.4656 -4.5063,2.743 -6.1717,5.486 -6.1717,10.3842 0,7.1514 4.7023,11.4618 14.0089,11.4618 5.29,0 9.0127,-2.4491 11.5597,-6.0737 1.5675,3.1348 4.1145,5.8778 7.6412,5.8778 4.8982,0 7.5433,-3.3308 7.5433,-7.5432 l 0,-3.6247 z m -16.556,0 c -0.8816,2.5471 -2.743,5.9758 -7.5432,5.9758 -4.0165,0 -7.0534,-2.645 -7.0534,-6.5636 0,-4.8002 2.1552,-6.7595 5.388,-9.2086 3.0369,-2.2532 6.7595,-4.1145 9.0127,-7.3473 0.098,4.8002 0.1959,12.3435 0.1959,17.1437 z" />
    <path
       id="path6903"
       style=""
       d="m 2798.4177,1628.4252 c -0.6857,2.4491 -2.547,4.7023 -5.486,4.7023 -2.3511,0 -4.2124,-1.1756 -4.9961,-4.1145 -0.9797,-3.4287 -1.1756,-5.29 -1.1756,-16.6539 0,-16.36 0.2939,-22.4337 0.9796,-28.8994 l 8.0331,0 0,-4.4084 -8.0331,0 0,-19.103 -3.7226,0 0,1.9593 c 0,7.9351 -4.4084,17.1437 -10.6781,17.1437 l -0.6857,0 0,4.4084 5.1921,0 c 0.2939,4.4084 0.3918,8.6209 0.3918,28.8994 0,13.0292 0.9797,17.3397 2.841,20.2786 2.5471,3.9186 5.8778,4.8002 10.1883,4.8002 5.9758,0 9.6004,-4.5063 9.8943,-8.4249 l -2.743,-0.5878 z" />
    <path
       id="path6905"
       style=""
       d="m 2841.4806,1621.5677 c -3.6246,0 -4.6043,-0.2938 -4.6043,-15.9681 l 0,-13.2251 c 0,-4.4084 -1.7633,-8.1311 -4.8002,-10.7761 -2.5471,-2.2532 -6.0738,-3.6247 -10.2863,-3.6247 -4.2124,0 -6.7595,1.2736 -8.5228,3.8206 0.2939,-14.9885 0.3918,-24.5889 0.3918,-31.1525 l -14.4987,0 0,4.5063 c 2.743,0 4.0166,0.098 4.3105,2.9389 0.5877,10.4822 0.6857,18.2213 0.6857,25.4707 0,11.8536 -0.098,23.0215 -0.6857,34.9732 -0.098,2.0572 -1.0776,3.0368 -2.841,3.0368 l -1.4695,0 0,4.5064 18.8091,0 0,-4.5064 c -4.4083,0 -4.8002,-2.4491 -4.8002,-10.0903 l 0,-20.0826 c 0,-4.3104 2.743,-8.229 7.1514,-8.229 2.0572,0 3.9185,1.0776 5.0941,2.5471 1.2736,1.5674 1.8613,3.5267 1.8613,5.486 l 0,19.3969 c 0,10.2862 -0.098,10.9719 -3.3307,10.9719 l -1.3715,0 0,4.5064 18.907,0 0,-4.5064 z" />
  </g>
</svg>
