<?xml version="1.0" encoding="UTF-8" standalone="no"?>
<svg
   xmlns:dc="http://purl.org/dc/elements/1.1/"
   xmlns:cc="http://creativecommons.org/ns#"
   xmlns:rdf="http://www.w3.org/1999/02/22-rdf-syntax-ns#"
   xmlns:svg="http://www.w3.org/2000/svg"
   xmlns="http://www.w3.org/2000/svg"
   width="4608"
   height="2304"
   id="svg2"
   version="1.1">
  <defs
     id="defs4" />
  <metadata
     id="metadata7">
    <rdf:RDF>
      <cc:Work
         rdf:about="">
        <dc:format>image/svg+xml</dc:format>
        <dc:type
           rdf:resource="http://purl.org/dc/dcmitype/StillImage" />
        <dc:title></dc:title>
      </cc:Work>
    </rdf:RDF>
  </metadata>
  <g
     id="layer1"
     transform="translate(-1024,1763.6378)"
     style="display:inline">
    <rect
       style="color:#000000;display:inline;overflow:visible;visibility:visible;fill:#f1f1ec;fill-opacity:1;fill-rule:nonzero;stroke:none;stroke-width:6;marker:none;enable-background:accumulate"
       id="rect7101"
       width="4608"
       height="2304"
       x="1024"
       y="-512"
       transform="translate(0,-1251.6378)" />
    <text
       transform="translate(0,-1251.6378)"
       xml:space="preserve"
       style="font-style:normal;font-variant:normal;font-weight:normal;font-stretch:normal;font-size:103.16069031px;line-height:125%;font-family:Euphorigenic;-inkscape-font-specification:Euphorigenic;text-align:start;letter-spacing:0px;word-spacing:0px;writing-mode:lr-tb;text-anchor:start;display:inline;fill:#222222;fill-opacity:1;stroke:none"
       x="2672.2598"
       y="328.30576"
       id="text6193"><tspan
         id="tspan6195"
         x="2672.2598"
         y="328.30576" /></text>
  </g>
  <g
     id="layer7"
     style="display:inline">
    <rect
       style="color:#000000;display:inline;overflow:visible;visibility:visible;opacity:1;fill:#16a085;fill-opacity:1;fill-rule:nonzero;marker:none;enable-background:accumulate"
       id="rect7772"
       width="612"
       height="383.99997"
       x="1998"
       y="964.00006"
       rx="59.999996"
       ry="59.999996" />
    <g
       id="g7795">
      <path
         id="path7774"
         d="m 2292,1076 a 46,47.999996 0 0 1 -46,48 46,47.999996 0 0 1 -46,-48 46,47.999996 0 0 1 46,-48 46,47.999996 0 0 1 46,48 z"
         style="color:#000000;display:inline;overflow:visible;visibility:visible;opacity:1;fill:#ecf0f1;fill-opacity:1;fill-rule:nonzero;marker:none;enable-background:accumulate" />
      <path
         id="ellipse7776"
         d="m 2408,1076 a 46,47.999996 0 0 1 -46,48 46,47.999996 0 0 1 -46,-48 46,47.999996 0 0 1 46,-48 46,47.999996 0 0 1 46,48 z"
         style="color:#000000;display:inline;overflow:visible;visibility:visible;opacity:1;fill:#ecf0f1;fill-opacity:1;fill-rule:nonzero;marker:none;enable-background:accumulate" />
    </g>
    <path
       style="color:#000000;font-style:normal;font-variant:normal;font-weight:normal;font-stretch:normal;font-size:medium;line-height:normal;font-family:sans-serif;text-indent:0;text-align:start;text-decoration:none;text-decoration-line:none;text-decoration-style:solid;text-decoration-color:#000000;letter-spacing:normal;word-spacing:normal;text-transform:none;direction:ltr;block-progression:tb;writing-mode:lr-tb;baseline-shift:baseline;text-anchor:start;white-space:normal;clip-rule:nonzero;display:inline;overflow:visible;visibility:visible;opacity:1;isolation:auto;mix-blend-mode:normal;color-interpolation:sRGB;color-interpolation-filters:linearRGB;solid-color:#000000;solid-opacity:1;fill:#ecf0f1;fill-opacity:1;fill-rule:nonzero;stroke:none;stroke-width:20;stroke-linecap:round;stroke-linejoin:miter;stroke-miterlimit:4;stroke-dasharray:none;stroke-dashoffset:0;stroke-opacity:1;marker:none;color-rendering:auto;image-rendering:auto;shape-rendering:auto;text-rendering:auto;enable-background:accumulate"
       d="m 2432.5324,1198.0154 a 10.001,10.001 0 0 0 -8.9632,4.8608 c -28.0589,45.4374 -71.8821,72.1087 -118.4686,73.2146 -46.5866,1.1058 -91.2496,-23.435 -120.8776,-67.4629 a 10.001,10.001 0 1 0 -16.592,11.1652 c 32.9322,48.9384 84.0079,77.5728 137.9431,76.2925 53.9351,-1.2803 103.8754,-32.2828 135.0108,-82.7019 a 10.001,10.001 0 0 0 -8.0525,-15.3683 z"
       id="path7782" />
  </g>
  <g
     id="layer4"
     style="display:inline">
    <g
       style="font-style:normal;font-variant:normal;font-weight:normal;font-stretch:normal;font-size:107.5px;line-height:125%;font-family:Euphorigenic;-inkscape-font-specification:Euphorigenic;text-align:center;letter-spacing:0px;word-spacing:0px;writing-mode:lr-tb;text-anchor:middle;display:inline;fill:#222222;fill-opacity:1;stroke:none"
       id="text2985">
      <path
         style=""
         d="m 1906.418,612.77262 -44.075,0 0,12.685 4.515,0 c 0,-4.085 0.9675,-6.88 3.01,-6.88 l 5.59,0 c 1.935,0 2.4725,0.43 2.9025,1.935 0.5375,1.8275 0.645,22.4675 0.645,36.12 0,15.265 -0.215,46.5475 -0.645,48.2675 -0.43,1.505 -0.9675,1.935 -2.9025,1.935 l -2.9025,0 0,4.945 22.79,0 0,-4.945 -2.9025,0 c -1.935,0 -2.4725,-0.43 -2.9025,-1.935 -0.43,-1.72 -0.645,-33.0025 -0.645,-48.2675 0,-13.6525 0.1075,-34.2925 0.645,-36.12 0.43,-1.505 0.9675,-1.935 2.9025,-1.935 l 4.4075,0 c 4.085,0 4.8375,2.0425 4.8375,6.88 l 4.73,0 0,-12.685 z"
         id="path4171" />
      <path
         style=""
         d="m 1909.6094,711.78012 20.9625,0 0,-4.945 -2.2575,0 c -1.8275,0 -2.365,-0.43 -2.9025,-1.935 -0.43,-1.72 -0.645,-33.0025 -0.645,-48.2675 l 21.3925,0 c 0,15.265 -0.215,46.5475 -0.645,48.2675 -0.5375,1.505 -1.075,1.935 -2.9025,1.935 l -2.2575,0 0,4.945 20.9625,0 0,-4.945 -1.72,0 c -1.935,0 -2.4725,-0.43 -2.9025,-1.935 -0.5375,-1.72 -0.7525,-33.0025 -0.7525,-48.2675 0,-13.6525 0.1075,-35.1525 0.7525,-36.98 0.43,-1.505 0.9675,-2.0425 2.9025,-2.0425 l 1.72,0 0,-4.8375 -20.9625,0 0,4.8375 2.2575,0 c 1.8275,0 2.365,0.5375 2.9025,2.0425 0.43,1.72 0.645,18.8125 0.645,32.25 l -21.3925,0 c 0,-13.4375 0.1075,-30.53 0.645,-32.25 0.5375,-1.505 1.075,-2.0425 2.9025,-2.0425 l 2.2575,0 0,-4.8375 -20.9625,0 0,4.8375 1.72,0 c 1.935,0 2.4725,0.5375 2.9025,2.0425 0.645,1.8275 0.7525,23.3275 0.7525,36.98 0,15.265 -0.215,46.5475 -0.7525,48.2675 -0.43,1.505 -0.9675,1.935 -2.9025,1.935 l -1.72,0 0,4.945 z"
         id="path4173" />
      <path
         style=""
         d="m 2016.7365,706.83512 -1.075,0 c -1.3975,0 -1.935,-0.215 -2.4725,-0.86 -0.5375,-0.645 -0.9675,-1.505 -3.5475,-14.0825 -4.945,-23.22 -10.535,-56.545 -13.2225,-79.12 l -10.535,0 c -3.5475,23.7575 -14.0825,84.065 -16.125,90.945 -0.5375,2.15 -1.505,3.1175 -3.44,3.1175 l -1.29,0 0,4.945 15.05,0 0,-4.945 -1.3975,0 c -2.4725,0 -3.655,-0.3225 -3.655,-1.8275 0,-0.645 0,-1.1825 0.1075,-2.0425 l 1.72,-10.75 20.855,0 c 0.9675,5.805 1.505,10.75 1.505,12.685 0,1.3975 -1.29,1.935 -3.87,1.935 l -1.29,0 0,4.945 22.6825,0 0,-4.945 z m -39.13,-19.4575 c 0.86,-5.59 9.89,-53.6425 10.75,-57.7275 l 8.7075,57.7275 -19.4575,0 z"
         id="path4175" />
      <path
         style=""
         d="m 2056.3301,612.77262 -44.075,0 0,12.685 4.515,0 c 0,-4.085 0.9675,-6.88 3.01,-6.88 l 5.59,0 c 1.935,0 2.4725,0.43 2.9025,1.935 0.5375,1.8275 0.645,22.4675 0.645,36.12 0,15.265 -0.215,46.5475 -0.645,48.2675 -0.43,1.505 -0.9675,1.935 -2.9025,1.935 l -2.9025,0 0,4.945 22.79,0 0,-4.945 -2.9025,0 c -1.935,0 -2.4725,-0.43 -2.9025,-1.935 -0.43,-1.72 -0.645,-33.0025 -0.645,-48.2675 0,-13.6525 0.1075,-34.2925 0.645,-36.12 0.43,-1.505 0.9675,-1.935 2.9025,-1.935 l 4.4075,0 c 4.085,0 4.8375,2.0425 4.8375,6.88 l 4.73,0 0,-12.685 z"
         id="path4177" />
      <path
         style=""
         d="m 2066.4015,632.33762 5.375,0 c 0.1075,-8.2775 4.515,-11.825 4.515,-16.555 0,-4.945 -3.3325,-7.6325 -7.2025,-7.6325 -3.7625,0 -7.095,2.6875 -7.095,7.6325 0,4.73 4.3,8.2775 4.4075,16.555 z"
         id="path4179" />
      <path
         style=""
         d="m 2119.0496,691.57012 c 0,-6.3425 -1.075,-9.89 -3.44,-15.05 -2.365,-5.2675 -4.3,-8.0625 -9.46,-17.3075 -8.815,-15.695 -11.18,-21.285 -11.18,-30.53 0,-4.085 0.3225,-6.665 1.1825,-8.4925 1.29,-2.6875 3.9775,-3.9775 6.5575,-3.9775 5.805,0 8.9225,3.9775 8.9225,9.1375 l 5.0525,0 0,-14.835 -5.0525,0 0,4.945 c -1.6125,-2.2575 -4.4075,-3.87 -9.7825,-3.87 -11.5025,0 -17.0925,9.3525 -17.0925,20.5325 0,5.0525 1.29,10.32 2.9025,14.9425 1.8275,5.16 4.3,10.105 8.2775,16.77 7.525,12.255 12.685,19.135 12.685,30.4225 0,7.8475 -3.5475,13.975 -11.5025,13.975 -5.2675,0 -9.675,-3.7625 -11.0725,-9.03 l -3.44,1.3975 c 2.2575,8.4925 8.2775,12.47 16.2325,12.47 12.255,0 20.21,-7.4175 20.21,-21.5 z"
         id="path4181" />
      <path
         style=""
         d="m 2200.2424,706.83512 -1.075,0 c -1.3975,0 -1.935,-0.215 -2.4725,-0.86 -0.5375,-0.645 -0.9675,-1.505 -3.5475,-14.0825 -4.945,-23.22 -10.535,-56.545 -13.2225,-79.12 l -10.535,0 c -3.5475,23.7575 -14.0825,84.065 -16.125,90.945 -0.5375,2.15 -1.505,3.1175 -3.44,3.1175 l -1.29,0 0,4.945 15.05,0 0,-4.945 -1.3975,0 c -2.4725,0 -3.655,-0.3225 -3.655,-1.8275 0,-0.645 0,-1.1825 0.1075,-2.0425 l 1.72,-10.75 20.855,0 c 0.9675,5.805 1.505,10.75 1.505,12.685 0,1.3975 -1.29,1.935 -3.87,1.935 l -1.29,0 0,4.945 22.6825,0 0,-4.945 z m -39.13,-19.4575 c 0.86,-5.59 9.89,-53.6425 10.75,-57.7275 l 8.7075,57.7275 -19.4575,0 z"
         id="path4183" />
      <path
         style=""
         d="m 2253.3272,699.52512 -4.6225,0 c 0,4.1925 -0.9675,5.9125 -3.01,5.9125 l -22.6825,0 c -2.9025,0 -3.87,-2.4725 -3.9775,-8.0625 -0.3225,-12.255 -0.43,-25.8 -0.43,-41.1725 0,-27.735 0.5375,-33.0025 0.86,-35.26 0.43,-2.2575 1.505,-3.3325 3.44,-3.3325 l 2.9025,0 0,-4.8375 -22.2525,0 0,4.8375 1.505,0 c 2.15,0 3.01,0.7525 3.225,3.3325 0.5375,5.2675 0.7525,9.89 0.7525,32.68 0,29.3475 -0.1075,38.915 -0.3225,43.7525 -0.43,7.8475 -0.3225,9.46 -3.5475,9.46 l -1.6125,0 0,4.945 49.7725,0 0,-12.255 z"
         id="path4185" />
      <path
         style=""
         d="m 2306.4473,699.52512 -4.6225,0 c 0,4.1925 -0.9675,5.9125 -3.01,5.9125 l -22.6825,0 c -2.9025,0 -3.87,-2.4725 -3.9775,-8.0625 -0.3225,-12.255 -0.43,-25.8 -0.43,-41.1725 0,-27.735 0.5375,-33.0025 0.86,-35.26 0.43,-2.2575 1.505,-3.3325 3.44,-3.3325 l 2.9025,0 0,-4.8375 -22.2525,0 0,4.8375 1.505,0 c 2.15,0 3.01,0.7525 3.225,3.3325 0.5375,5.2675 0.7525,9.89 0.7525,32.68 0,29.3475 -0.1075,38.915 -0.3225,43.7525 -0.43,7.8475 -0.3225,9.46 -3.5475,9.46 l -1.6125,0 0,4.945 49.7725,0 0,-12.255 z"
         id="path4187" />
      <path
         style=""
         d="m 2401.0826,637.06762 c -0.7525,5.59 -8.815,53.75 -9.5675,57.835 -3.5475,-18.92 -6.665,-38.1625 -9.9975,-57.62 l -7.74,0 c -4.73,25.155 -10.8575,54.5025 -11.61,57.62 -2.795,-19.0275 -5.16,-38.3775 -7.74,-57.835 -0.9675,-7.8475 -1.8275,-15.695 -1.72,-17.415 0.1075,-1.3975 1.29,-2.0425 3.87,-2.0425 l 1.3975,0 0,-4.8375 -22.575,0 0,4.8375 0.9675,0 c 1.29,0 1.935,0.215 2.4725,0.9675 2.0425,3.1175 12.1475,65.6825 15.05,93.2025 l 10.535,0 c 2.0425,-12.3625 6.5575,-36.4425 10.4275,-56.0075 3.655,18.705 7.525,40.7425 9.675,56.0075 l 9.89,0 c 3.3325,-24.725 12.47,-83.9575 14.2975,-90.945 0.5375,-2.15 1.29,-3.225 3.3325,-3.225 l 1.29,0 0,-4.8375 -15.05,0 0,4.8375 1.3975,0 c 2.365,0 3.7625,0.43 3.7625,1.935 0,1.935 -0.215,3.44 -2.365,17.5225 z"
         id="path4189" />
      <path
         style=""
         d="m 2466.8575,699.52512 -4.515,0 c 0,4.1925 -0.9675,5.9125 -3.01,5.9125 l -21.93,0 c -2.795,0 -4.085,-0.5375 -4.4075,-2.2575 -0.645,-4.8375 -0.86,-17.2 -0.86,-36.55 l 0,-9.9975 7.6325,0 c 2.4725,0 3.655,2.15 3.655,6.5575 l 4.6225,0 0,-17.63 -4.6225,0 c 0,4.1925 -1.1825,6.3425 -3.655,6.3425 l -7.525,0 c 0.1075,-17.415 0.43,-27.4125 0.7525,-30.96 0.43,-3.1175 1.1825,-3.3325 4.4075,-3.3325 l 7.6325,0 c 1.935,0 3.01,2.15 3.01,6.3425 l 4.515,0 0,-11.18 -35.475,0 0,4.8375 1.72,0 c 2.2575,0 3.01,1.1825 3.3325,4.085 0.5375,8.17 0.5375,11.61 0.5375,55.1475 0,10.6425 0,19.4575 -0.3225,26.015 -0.215,3.44 -1.3975,3.9775 -3.87,3.9775 l -1.3975,0 0,4.945 49.7725,0 0,-12.255 z"
         id="path4191" />
      <path
         style=""
         d="m 2557.8529,706.83512 -3.87,0 c -3.225,0 -5.0525,-1.29 -6.9875,-4.8375 -4.73,-9.245 -7.4175,-20.9625 -11.0725,-30.315 -4.3,-11.0725 -9.675,-14.835 -17.0925,-16.4475 3.87,-1.6125 6.665,-5.6975 8.385,-10.32 2.365,-6.3425 3.1175,-12.3625 5.0525,-19.565 1.29,-5.0525 3.44,-7.74 6.3425,-7.74 l 4.6225,0 0,-4.8375 -6.9875,0 c -5.2675,0 -8.0625,2.4725 -10.2125,6.3425 -3.87,6.5575 -4.515,17.0925 -6.9875,25.37 -1.6125,5.6975 -3.87,9.89 -8.2775,9.9975 0,-13.6525 0.1075,-33.11 0.645,-34.83 0.5375,-1.505 1.075,-2.0425 2.9025,-2.0425 l 1.8275,0 0,-4.8375 -20.5325,0 0,4.8375 1.72,0 c 1.935,0 2.4725,0.5375 2.9025,2.0425 0.645,1.8275 0.7525,23.3275 0.7525,36.98 0,15.265 -0.215,46.5475 -0.7525,48.2675 -0.43,1.505 -0.9675,1.935 -2.9025,1.935 l -1.72,0 0,4.945 20.5325,0 0,-4.945 -1.8275,0 c -1.8275,0 -2.365,-0.43 -2.9025,-1.935 -0.43,-1.72 -0.645,-31.82 -0.645,-47.3 6.45,0.7525 9.89,4.73 14.5125,15.265 3.44,7.6325 5.6975,17.0925 9.1375,25.4775 4.3,10.75 7.955,13.4375 16.34,13.4375 l 7.095,0 0,-4.945 z"
         id="path4193" />
      <path
         style=""
         d="m 2610.3733,612.77262 -16.0175,0 0,4.8375 2.2575,0 c 0.86,0 1.3975,0.1075 1.935,1.1825 0.86,1.3975 1.3975,4.3 1.3975,35.26 0,10.4275 -0.1075,21.715 -0.43,34.185 -7.955,-23.22 -15.91,-49.235 -22.8975,-75.465 l -16.34,0 0,4.8375 2.0425,0 c 1.505,0 1.935,0.43 2.365,1.505 0.7525,1.935 1.075,6.235 1.075,39.6675 0,42.57 -0.215,44.29 -1.72,46.5475 -0.86,1.3975 -1.505,1.505 -2.6875,1.505 l -1.075,0 0,4.945 15.91,0 0,-4.945 -1.075,0 c -1.8275,0 -2.6875,-0.3225 -3.3325,-1.72 -1.075,-2.2575 -1.29,-3.5475 -1.29,-28.2725 0,-32.68 0.1075,-43.5375 0.215,-46.3325 6.5575,16.8775 19.8875,65.79 23.65,81.27 l 11.18,0 c -0.5375,-6.88 -0.86,-17.3075 -0.86,-56.0075 0,-33.325 0.215,-35.26 1.3975,-36.98 0.5375,-0.7525 1.6125,-1.1825 3.3325,-1.1825 l 0.9675,0 0,-4.8375 z"
         id="path4195" />
      <path
         style=""
         d="m 2640.391,713.07012 c 7.525,0 13.33,-2.365 17.5225,-6.665 4.945,-5.16 7.2025,-12.9 7.2025,-42.14 0,-30.2075 -2.0425,-39.775 -7.74,-45.795 -4.1925,-4.3 -10.105,-6.88 -18.3825,-6.88 -7.6325,0 -13.33,2.365 -17.2,6.45 -5.9125,6.02 -8.17,15.8025 -8.17,46.1175 0,29.455 2.2575,37.195 7.525,42.355 4.1925,4.1925 10.4275,6.5575 19.2425,6.5575 z m -0.9675,-4.945 c -4.8375,0 -8.6,-2.0425 -11.18,-5.375 -2.2575,-2.9025 -3.44,-6.9875 -3.44,-38.5925 0,-33.6475 1.1825,-38.5925 3.5475,-42.0325 2.4725,-3.655 6.1275,-5.6975 11.0725,-5.6975 4.8375,0 8.385,2.0425 10.8575,5.59 2.365,3.44 3.5475,8.4925 3.5475,42.2475 0,30.745 -0.86,34.2925 -2.58,37.0875 -2.365,4.3 -6.665,6.7725 -11.825,6.7725 z"
         id="path4197" />
      <path
         style=""
         d="m 2731.7711,637.06762 c -0.7525,5.59 -8.815,53.75 -9.5675,57.835 -3.5475,-18.92 -6.665,-38.1625 -9.9975,-57.62 l -7.74,0 c -4.73,25.155 -10.8575,54.5025 -11.61,57.62 -2.795,-19.0275 -5.16,-38.3775 -7.74,-57.835 -0.9675,-7.8475 -1.8275,-15.695 -1.72,-17.415 0.1075,-1.3975 1.29,-2.0425 3.87,-2.0425 l 1.3975,0 0,-4.8375 -22.575,0 0,4.8375 0.9675,0 c 1.29,0 1.935,0.215 2.4725,0.9675 2.0425,3.1175 12.1475,65.6825 15.05,93.2025 l 10.535,0 c 2.0425,-12.3625 6.5575,-36.4425 10.4275,-56.0075 3.655,18.705 7.525,40.7425 9.675,56.0075 l 9.89,0 c 3.3325,-24.725 12.47,-83.9575 14.2975,-90.945 0.5375,-2.15 1.29,-3.225 3.3325,-3.225 l 1.29,0 0,-4.8375 -15.05,0 0,4.8375 1.3975,0 c 2.365,0 3.7625,0.43 3.7625,1.935 0,1.935 -0.215,3.44 -2.365,17.5225 z"
         id="path4199" />
    </g>
    <g
       style="font-style:normal;font-variant:normal;font-weight:normal;font-stretch:normal;font-size:97.96407318px;line-height:125%;font-family:Euphorigenic;-inkscape-font-specification:Euphorigenic;text-align:start;letter-spacing:0px;word-spacing:0px;writing-mode:lr-tb;text-anchor:start;display:inline;fill:#222222;fill-opacity:1;stroke:none"
       id="text5080">
      <path
         style=""
         d="m 1727.486,1574.8389 c 0,-3.4288 -1.5674,-5.388 -5.2901,-5.388 -4.9961,0 -6.5636,4.8982 -7.7391,12.4414 -2.5471,-3.0369 -6.0738,-3.9186 -9.6985,-3.9186 -10.3842,0 -16.5559,6.7596 -16.5559,17.3397 0,6.9554 1.4695,12.3435 5.2901,16.0661 1.8613,1.8613 4.2124,3.0369 7.1513,3.8206 1.9593,0.4898 3.2329,0.7837 4.8003,2.1552 2.1552,1.7633 3.6247,4.3104 3.9185,6.3677 -1.6653,-2.2532 -7.7391,-4.3105 -12.2455,-4.3105 -7.0534,0 -11.8536,5.1921 -11.8536,13.5191 0,9.5025 8.6208,15.8702 21.4541,15.8702 8.6209,0 14.9885,-5.584 16.36,-13.715 l -2.645,-0.8817 c -1.2735,6.5636 -5.9758,10.2862 -13.3231,10.2862 -6.7596,0 -11.8537,-3.4287 -11.8537,-10.2862 0,-5.7799 2.645,-8.6208 7.8371,-8.6208 4.6044,0 8.5229,1.2735 11.6578,3.9185 -1.6654,-7.1513 -3.0369,-11.0699 -6.2697,-14.7925 9.3066,-1.2736 12.7353,-8.9148 12.7353,-19.0051 0,-3.7226 -1.5674,-8.5228 -4.4084,-11.2658 1.3715,-3.4288 2.645,-4.0166 5.486,-4.0166 3.6247,0 5.1921,-2.2531 5.1921,-5.5839 z m -16.1641,21.5521 c 0,9.1106 -0.6857,11.1679 -1.9593,12.6373 -1.1755,1.5675 -2.8409,2.4491 -4.6043,2.4491 -1.7633,0 -3.4287,-0.7837 -4.5063,-2.1552 -1.3715,-1.4694 -2.1552,-4.2124 -2.1552,-12.9312 0,-8.4249 0.6857,-10.5801 2.0572,-12.1476 1.0776,-1.4694 2.743,-2.3511 4.6043,-2.3511 1.8613,0 3.5267,0.8817 4.6043,2.3511 1.2736,1.4695 1.9593,3.7227 1.9593,12.1476 z"
         id="path4202" />
      <path
         style=""
         d="m 1744.5471,1577.9737 c -4.0166,0 -7.7392,1.6654 -10.5802,4.4084 -3.8206,3.7227 -6.1717,8.6209 -6.1717,20.5725 0,11.1679 1.9593,15.1844 5.1921,18.8091 2.9389,3.4287 7.0534,5.29 11.5598,5.29 4.3104,0 8.2289,-1.6654 11.1679,-4.8982 3.4287,-3.7226 5.6819,-8.3269 5.6819,-19.005 0,-13.519 -2.5471,-17.6335 -6.5636,-21.1602 -2.841,-2.5471 -6.3677,-4.0166 -10.2862,-4.0166 z m 0,4.4084 c 1.9592,0 3.4287,0.6858 4.7022,2.1552 1.1756,1.3715 1.8613,3.5267 1.8613,18.4173 0,14.0088 -0.6857,16.164 -1.9592,17.6335 -1.0776,1.3715 -2.743,2.1552 -4.6043,2.1552 -1.7634,0 -3.5268,-0.7837 -4.7023,-2.2532 -1.1756,-1.4694 -1.9593,-3.6246 -1.9593,-17.5355 0,-14.9885 0.7837,-17.0458 1.9593,-18.4173 1.2735,-1.4694 2.8409,-2.1552 4.7023,-2.1552 z"
         id="path4204" />
      <path
         style=""
         d="m 1782.2403,1577.9737 c -4.0166,0 -7.7392,1.6654 -10.5802,4.4084 -3.8206,3.7227 -6.1717,8.6209 -6.1717,20.5725 0,11.1679 1.9593,15.1844 5.1921,18.8091 2.9389,3.4287 7.0534,5.29 11.5598,5.29 4.3104,0 8.2289,-1.6654 11.1679,-4.8982 3.4287,-3.7226 5.6819,-8.3269 5.6819,-19.005 0,-13.519 -2.5471,-17.6335 -6.5636,-21.1602 -2.841,-2.5471 -6.3677,-4.0166 -10.2862,-4.0166 z m 0,4.4084 c 1.9592,0 3.4287,0.6858 4.7022,2.1552 1.1756,1.3715 1.8613,3.5267 1.8613,18.4173 0,14.0088 -0.6857,16.164 -1.9592,17.6335 -1.0776,1.3715 -2.743,2.1552 -4.6043,2.1552 -1.7634,0 -3.5268,-0.7837 -4.7023,-2.2532 -1.1756,-1.4694 -1.9593,-3.6246 -1.9593,-17.5355 0,-14.9885 0.7837,-17.0458 1.9593,-18.4173 1.2735,-1.4694 2.8409,-2.1552 4.7023,-2.1552 z"
         id="path4206" />
      <path
         style=""
         d="m 1826.3011,1557.8911 c 0.5878,2.2532 0.7837,4.9962 0.7837,24.491 -1.6654,-2.9389 -4.6043,-4.4084 -8.7188,-4.4084 -7.4452,0 -15.1844,6.5636 -15.1844,25.2748 0,15.7722 7.3473,23.8052 16.5559,23.8052 3.8206,0 7.7392,-2.547 10.1883,-5.6819 1.6654,3.7227 4.1145,4.7023 9.1107,4.7023 l 1.8613,0 0,-4.5064 -1.1756,0 c -2.4491,0 -3.0369,-0.4898 -3.2328,-2.9389 -0.4898,-5.1921 -0.4898,-8.5228 -0.4898,-26.2543 0,-31.0547 0,-34.7773 0.1959,-41.7327 l -14.6946,0 0,4.3104 1.5674,0 c 1.7634,0 2.5471,0.4898 3.2328,2.9389 z m 0.098,56.2314 c 0,4.4084 -2.3511,8.6208 -6.6616,8.6208 -1.7633,0 -3.6246,-0.8817 -4.8002,-2.3511 -1.1756,-1.6654 -1.6654,-3.9186 -1.6654,-17.1437 0,-14.8906 0.7837,-17.0458 2.1552,-18.6132 1.0776,-1.3715 2.645,-2.2532 4.3104,-2.2532 4.3105,0 6.6616,4.0165 6.6616,8.229 l 0,23.5114 z"
         id="path4208" />
      <path
         style=""
         d="m 1885.4163,1621.5677 -1.4694,0 c -2.0573,0 -2.5471,-0.7837 -2.939,-2.9389 -0.1959,-1.2735 -0.4898,-4.1145 -0.4898,-34.2874 0,-21.846 0.3919,-26.8422 0.4898,-33.6996 l -14.4986,0 0,4.3104 1.1755,0 c 2.4491,0 2.743,0.5878 3.2328,3.1348 0.6858,3.1349 0.6858,5.7799 0.6858,25.7646 0,28.5075 -0.3919,32.4261 -1.4695,35.7569 -0.4898,1.6654 -1.1755,1.9592 -2.0572,1.9592 l -1.5674,0 0,4.5064 18.907,0 0,-4.5064 z"
         id="path4210" />
      <path
         style=""
         d="m 1927.9787,1579.0513 -16.458,0 0,4.4084 0.7837,0 c 1.7634,0 2.743,0.3919 3.1349,1.5675 0.5877,1.3714 0.6857,3.6246 0.6857,17.1437 0,12.9312 -0.1959,14.6946 -1.2735,16.8498 -1.2736,2.4491 -3.0369,3.4287 -5.584,3.4287 -3.0369,0 -4.5063,-0.8817 -5.7799,-3.4287 -0.9796,-2.1552 -1.3715,-3.9186 -1.3715,-17.5356 0,-15.0865 0.196,-15.9681 1.1756,-17.0457 0.6858,-0.7837 1.3715,-0.9797 2.2532,-0.9797 l 1.4694,0 0,-4.4084 -19.005,0 0,4.4084 c 2.4491,0 3.3308,0.2939 3.8206,1.0776 0.4898,0.6858 0.6858,2.2532 0.6858,18.3193 0,12.6374 0.8816,16.5559 3.1348,19.2989 2.841,3.4288 7.6412,4.8982 13.4211,4.8982 5.9758,0 9.8944,-2.0572 12.1475,-5.8778 1.5675,-2.645 2.2532,-6.0738 2.2532,-17.0458 0,-16.9477 0.098,-18.3192 0.7837,-19.3968 0.4898,-0.8817 1.1756,-1.2736 2.5471,-1.2736 l 1.1756,0 0,-4.4084 z"
         id="path4212" />
      <path
         style=""
         d="m 1959.5108,1614.2204 c -0.9796,4.3105 -5.29,8.1311 -10.678,8.1311 -2.6451,0 -4.8982,-0.9797 -6.3677,-2.5471 -1.2735,-1.5674 -1.7634,-4.2125 -1.7634,-16.6539 0,-14.6946 0.5878,-17.1437 2.1553,-18.9071 1.0776,-1.3715 2.7429,-2.547 4.5063,-2.547 4.2125,0 5.8778,1.4694 6.4656,3.3308 -2.9389,0.6857 -4.7022,3.5267 -4.7022,6.9554 0,3.8206 2.7429,6.8575 6.4656,6.8575 3.5267,0 6.2697,-3.6247 6.2697,-7.8371 0,-7.3473 -4.4084,-13.0293 -14.4987,-13.0293 -4.1145,0 -8.0331,1.6654 -10.874,4.6043 -3.7226,3.8206 -5.8779,9.8944 -5.8779,20.3766 0,9.4045 1.9593,14.7926 5.3881,18.7111 2.9389,3.4288 6.9554,5.388 11.3638,5.388 7.4453,0 12.3435,-4.2124 14.7926,-12.1475 l -2.6451,-0.6858 z"
         id="path4214" />
      <path
         style=""
         d="m 2004.3172,1621.5677 -0.6858,0 c -2.1552,0 -3.6247,-0.9796 -6.3676,-3.9185 -2.6451,-2.841 -4.8983,-8.4249 -7.7392,-12.0496 -1.2735,-1.7633 -2.841,-3.0369 -4.6043,-3.4287 2.9389,-4.2125 11.0699,-14.5967 12.4414,-16.0661 1.9593,-1.8614 3.0369,-2.6451 4.4084,-2.6451 l 1.0776,0 0,-4.4084 -14.5966,0 0,4.4084 c 2.645,0 3.9185,0.4898 3.9185,1.6654 0,0.4898 -0.4898,1.5674 -1.2735,2.743 -2.3511,3.7226 -7.4453,10.0903 -11.4618,14.2048 -0.098,-4.1145 -0.098,-8.131 -0.098,-12.1475 0,-17.2417 0.4898,-32.72 0.8817,-39.2836 l -14.5966,0 0,4.3104 0.6857,0 c 1.3715,0 2.2532,0.6857 2.9389,1.7633 1.6654,2.4491 1.6654,4.8003 1.6654,17.5356 0,39.8714 -0.1959,41.1449 -0.9796,44.5737 -0.4898,2.3511 -0.9797,2.7429 -2.0573,2.7429 l -2.2531,0 0,4.5064 18.907,0 0,-4.5064 c -3.2328,0 -3.8206,-0.3918 -4.3104,-2.9389 -0.4898,-3.2328 -0.6857,-4.4084 -0.6857,-14.1068 1.8613,1.4695 3.5267,3.7226 5.5839,8.5229 4.9962,11.0699 8.5229,13.0292 14.6946,13.0292 l 4.5064,0 0,-4.5064 z"
         id="path4216" />
      <path
         style=""
         d="m 2021.4624,1619.8044 c 0,-4.8002 -2.645,-7.8371 -6.4656,-7.8371 -3.7227,0 -6.3677,3.2328 -6.3677,6.9554 0,4.9962 2.4491,7.6412 6.0738,7.6412 0.6857,0 1.4694,-0.1959 1.9593,-0.4898 -0.4899,2.1552 -1.8614,4.3104 -5.3881,5.8778 l 0.6858,2.0573 c 5.29,-1.1756 9.5025,-6.7595 9.5025,-14.2048 z"
         id="path4218" />
      <path
         style=""
         d="m 2107.0815,1579.0513 -13.2252,0 0,4.4084 1.3715,0 c 2.1552,0 3.2328,0.8817 3.2328,1.9593 0,0.5878 -0.1959,2.5471 -0.2938,3.2328 -1.3715,9.9924 -3.0369,18.7112 -4.7023,24.9809 -2.5471,-6.8575 -6.6616,-20.6705 -7.9351,-27.1361 l -8.229,0 c -0.8817,6.4656 -4.8982,20.6704 -7.0534,27.1361 -2.0573,-6.8575 -4.0165,-16.1641 -5.486,-25.2748 -0.2939,-1.4694 -0.2939,-2.1552 -0.2939,-2.645 0,-2.1552 2.0573,-2.2532 3.3308,-2.2532 l 1.8613,0 0,-4.4084 -18.7111,0 0,4.4084 0.4898,0 c 1.1756,0 2.1552,0.4898 2.645,1.9593 2.5471,7.6412 7.4453,27.8218 9.9924,40.6551 l 6.8574,0 c 2.6451,-11.5598 5.7799,-22.7277 8.4249,-31.2505 3.1349,9.3065 6.9555,22.1398 9.4046,31.2505 l 6.2697,0 c 2.5471,-15.7722 5.7799,-31.0546 8.3269,-39.6755 0.6858,-2.4491 1.3715,-2.9389 2.841,-2.9389 l 0.8817,0 0,-4.4084 z"
         id="path4220" />
      <path
         style=""
         d="m 2136.3054,1614.3184 c -1.2736,4.3104 -5.584,8.4249 -12.1476,8.4249 -1.6654,0 -3.2328,-0.8817 -4.4084,-2.2532 -1.3715,-1.6653 -2.2531,-3.9185 -2.2531,-14.3027 l 13.3231,-5.8779 c 6.4656,-2.8409 7.8371,-4.5063 7.8371,-8.5228 0,-9.2087 -5.486,-13.813 -14.4987,-13.813 -4.4084,0 -8.4249,2.1552 -11.3638,5.584 -3.3308,3.9186 -5.388,9.5025 -5.388,19.2989 0,7.1514 1.2735,12.2455 3.6246,16.0661 2.939,4.8982 7.5433,8.131 13.1272,8.131 7.4453,0 12.3435,-4.2124 14.7926,-12.1475 l -2.645,-0.5878 z m -4.8003,-23.1195 c 0,2.9389 -0.6857,4.3104 -2.547,4.9962 l -11.4618,4.7022 c 0,-12.3434 0.5878,-14.4007 1.7633,-15.8701 1.2736,-1.5675 2.9389,-2.6451 4.8982,-2.6451 5.6819,0 7.3473,2.9389 7.3473,8.8168 z"
         id="path4222" />
      <path
         style=""
         d="m 2145.6242,1571.704 4.8982,0 c 0.098,-7.5432 4.1145,-10.776 4.1145,-15.0864 0,-4.5064 -3.0369,-6.9555 -6.5636,-6.9555 -3.4287,0 -6.4656,2.4491 -6.4656,6.9555 0,4.3104 3.9185,7.5432 4.0165,15.0864 z"
         id="path4224" />
      <path
         style=""
         d="m 2171.5602,1583.9495 c -1.7634,-3.7226 -3.3308,-4.8982 -8.5229,-4.8982 l -2.645,0 0,4.4084 0.9796,0 c 1.5674,0 2.2532,0.6858 3.0369,1.4695 0.7837,0.7837 0.7837,2.645 0.7837,13.1272 0,19.2009 -0.098,19.8867 -0.6857,21.5521 -0.4898,1.3715 -1.2736,1.9592 -2.6451,1.9592 l -1.4694,0 0,4.5064 20.2785,0 0,-4.5064 -2.3511,0 c -2.1552,0 -2.9389,-0.4898 -3.3308,-1.5674 -0.3918,-1.0776 -0.3918,-1.7633 -0.3918,-18.5152 l 0,-4.9962 c 0,-9.9923 3.2328,-14.0088 8.6208,-14.0088 1.7634,0 3.8206,0.6857 3.8206,2.8409 -3.2328,0 -5.0941,3.1349 -5.0941,6.5636 0,4.0166 2.4491,6.7596 6.1717,6.7596 3.6247,0 6.4656,-2.939 6.4656,-7.3473 0,-9.3066 -4.0165,-13.3232 -11.7556,-13.3232 -5.1921,0 -9.0127,2.841 -11.2659,5.9758 z"
         id="path4226" />
      <path
         style=""
         d="m 2226.9987,1614.3184 c -1.2736,4.3104 -5.584,8.4249 -12.1476,8.4249 -1.6654,0 -3.2328,-0.8817 -4.4084,-2.2532 -1.3715,-1.6653 -2.2531,-3.9185 -2.2531,-14.3027 l 13.3231,-5.8779 c 6.4656,-2.8409 7.8371,-4.5063 7.8371,-8.5228 0,-9.2087 -5.486,-13.813 -14.4987,-13.813 -4.4084,0 -8.4249,2.1552 -11.3638,5.584 -3.3308,3.9186 -5.388,9.5025 -5.388,19.2989 0,7.1514 1.2735,12.2455 3.6246,16.0661 2.939,4.8982 7.5433,8.131 13.1272,8.131 7.4453,0 12.3435,-4.2124 14.7926,-12.1475 l -2.645,-0.5878 z m -4.8003,-23.1195 c 0,2.9389 -0.6857,4.3104 -2.547,4.9962 l -11.4618,4.7022 c 0,-12.3434 0.5878,-14.4007 1.7633,-15.8701 1.2736,-1.5675 2.9389,-2.6451 4.8982,-2.6451 5.6819,0 7.3473,2.9389 7.3473,8.8168 z"
         id="path4228" />
      <path
         style=""
         d="m 2296.7063,1615.6899 -3.9186,0 0,3.2328 c 0,1.6654 -0.4898,2.645 -1.6654,2.645 -0.7837,0 -1.4694,-0.3918 -1.8613,-2.1552 -0.3919,-1.9592 -0.4898,-3.4287 -0.4898,-14.6946 0,-14.1068 -0.5878,-19.2009 -3.7227,-22.8256 -2.4491,-2.841 -6.4656,-3.9186 -11.1679,-3.9186 -8.131,0 -15.2824,5.0942 -15.2824,13.5191 0,4.8002 2.6451,7.2493 6.3677,7.2493 3.5267,0 6.1717,-3.1348 6.1717,-6.7595 0,-3.5267 -1.3715,-5.584 -4.3104,-6.6616 0.3919,-1.7633 2.6451,-3.1348 5.8779,-3.1348 2.9389,0 4.3104,0.5878 5.486,2.3511 1.2735,1.7634 1.5674,4.8003 1.5674,10.3842 -1.3715,1.5674 -3.5267,2.6451 -5.388,3.8206 -4.1145,2.5471 -8.8168,4.3104 -12.2456,6.4656 -4.5063,2.743 -6.1717,5.486 -6.1717,10.3842 0,7.1514 4.7023,11.4618 14.0089,11.4618 5.29,0 9.0127,-2.4491 11.5597,-6.0737 1.5675,3.1348 4.1145,5.8778 7.6412,5.8778 4.8982,0 7.5433,-3.3308 7.5433,-7.5432 l 0,-3.6247 z m -16.556,0 c -0.8816,2.5471 -2.743,5.9758 -7.5432,5.9758 -4.0165,0 -7.0534,-2.645 -7.0534,-6.5636 0,-4.8002 2.1552,-6.7595 5.388,-9.2086 3.0369,-2.2532 6.7595,-4.1145 9.0127,-7.3473 0.098,4.8002 0.1959,12.3435 0.1959,17.1437 z"
         id="path4230" />
      <path
         style=""
         d="m 2317.6445,1621.5677 -1.4694,0 c -2.0573,0 -2.5471,-0.7837 -2.9389,-2.9389 -0.196,-1.2735 -0.4899,-4.1145 -0.4899,-34.2874 0,-21.846 0.3919,-26.8422 0.4899,-33.6996 l -14.4987,0 0,4.3104 1.1755,0 c 2.4491,0 2.743,0.5878 3.2329,3.1348 0.6857,3.1349 0.6857,5.7799 0.6857,25.7646 0,28.5075 -0.3918,32.4261 -1.4695,35.7569 -0.4898,1.6654 -1.1755,1.9592 -2.0572,1.9592 l -1.5674,0 0,4.5064 18.907,0 0,-4.5064 z"
         id="path4232" />
      <path
         style=""
         d="m 2340.2222,1621.5677 -1.4695,0 c -2.0572,0 -2.547,-0.7837 -2.9389,-2.9389 -0.1959,-1.2735 -0.4898,-4.1145 -0.4898,-34.2874 0,-21.846 0.3918,-26.8422 0.4898,-33.6996 l -14.4987,0 0,4.3104 1.1756,0 c 2.4491,0 2.743,0.5878 3.2328,3.1348 0.6857,3.1349 0.6857,5.7799 0.6857,25.7646 0,28.5075 -0.3918,32.4261 -1.4694,35.7569 -0.4898,1.6654 -1.1756,1.9592 -2.0573,1.9592 l -1.5674,0 0,4.5064 18.9071,0 0,-4.5064 z"
         id="path4234" />
      <path
         style=""
         d="m 2396.7138,1614.2204 c -0.9797,4.3105 -5.2901,8.1311 -10.6781,8.1311 -2.645,0 -4.8982,-0.9797 -6.3677,-2.5471 -1.2735,-1.5674 -1.7633,-4.2125 -1.7633,-16.6539 0,-14.6946 0.5878,-17.1437 2.1552,-18.9071 1.0776,-1.3715 2.743,-2.547 4.5063,-2.547 4.2125,0 5.8779,1.4694 6.4657,3.3308 -2.939,0.6857 -4.7023,3.5267 -4.7023,6.9554 0,3.8206 2.743,6.8575 6.4656,6.8575 3.5267,0 6.2697,-3.6247 6.2697,-7.8371 0,-7.3473 -4.4084,-13.0293 -14.4987,-13.0293 -4.1144,0 -8.033,1.6654 -10.874,4.6043 -3.7226,3.8206 -5.8778,9.8944 -5.8778,20.3766 0,9.4045 1.9593,14.7926 5.388,18.7111 2.9389,3.4288 6.9555,5.388 11.3638,5.388 7.4453,0 12.3435,-4.2124 14.7926,-12.1475 l -2.645,-0.6858 z"
         id="path4236" />
      <path
         style=""
         d="m 2419.7721,1577.9737 c -4.0166,0 -7.7392,1.6654 -10.5802,4.4084 -3.8206,3.7227 -6.1717,8.6209 -6.1717,20.5725 0,11.1679 1.9593,15.1844 5.1921,18.8091 2.9389,3.4287 7.0534,5.29 11.5598,5.29 4.3104,0 8.2289,-1.6654 11.1679,-4.8982 3.4287,-3.7226 5.6819,-8.3269 5.6819,-19.005 0,-13.519 -2.5471,-17.6335 -6.5636,-21.1602 -2.841,-2.5471 -6.3677,-4.0166 -10.2862,-4.0166 z m 0,4.4084 c 1.9592,0 3.4287,0.6858 4.7022,2.1552 1.1756,1.3715 1.8613,3.5267 1.8613,18.4173 0,14.0088 -0.6857,16.164 -1.9592,17.6335 -1.0776,1.3715 -2.743,2.1552 -4.6043,2.1552 -1.7634,0 -3.5268,-0.7837 -4.7023,-2.2532 -1.1756,-1.4694 -1.9593,-3.6246 -1.9593,-17.5355 0,-14.9885 0.7837,-17.0458 1.9593,-18.4173 1.2735,-1.4694 2.8409,-2.1552 4.7023,-2.1552 z"
         id="path4238" />
      <path
         style=""
         d="m 2479.4092,1579.0513 -16.4579,0 0,4.4084 0.7837,0 c 1.7633,0 2.743,0.3919 3.1348,1.5675 0.5878,1.3714 0.6858,3.6246 0.6858,17.1437 0,12.9312 -0.1959,14.6946 -1.2735,16.8498 -1.2736,2.4491 -3.0369,3.4287 -5.584,3.4287 -3.0369,0 -4.5063,-0.8817 -5.7799,-3.4287 -0.9796,-2.1552 -1.3715,-3.9186 -1.3715,-17.5356 0,-15.0865 0.196,-15.9681 1.1756,-17.0457 0.6857,-0.7837 1.3715,-0.9797 2.2532,-0.9797 l 1.4694,0 0,-4.4084 -19.005,0 0,4.4084 c 2.4491,0 3.3308,0.2939 3.8206,1.0776 0.4898,0.6858 0.6857,2.2532 0.6857,18.3193 0,12.6374 0.8817,16.5559 3.1349,19.2989 2.841,3.4288 7.6412,4.8982 13.4211,4.8982 5.9758,0 9.8943,-2.0572 12.1475,-5.8778 1.5674,-2.645 2.2532,-6.0738 2.2532,-17.0458 0,-16.9477 0.098,-18.3192 0.7837,-19.3968 0.4898,-0.8817 1.1756,-1.2736 2.5471,-1.2736 l 1.1755,0 0,-4.4084 z"
         id="path4240" />
      <path
         style=""
         d="m 2523.7747,1621.5677 -1.0776,0 c -1.5674,0 -2.2531,-0.2938 -2.547,-1.0776 -0.2939,-0.8816 -0.7837,-2.645 -0.7837,-27.9197 0,-6.3677 -3.6247,-14.5967 -14.5967,-14.5967 -6.4656,0 -9.7964,2.0573 -12.4414,5.682 -1.8613,-3.2329 -3.0369,-4.6044 -8.229,-4.6044 l -2.645,0 0,4.4084 0.9796,0 c 1.5674,0 2.2532,0.6858 3.0369,1.4695 0.7837,0.7837 0.7837,2.645 0.7837,13.1272 0,19.2009 -0.098,19.8867 -0.6857,21.5521 -0.4899,1.3715 -1.2736,1.9592 -2.6451,1.9592 l -1.4694,0 0,4.5064 18.907,0 0,-4.5064 -0.9796,0 c -2.1552,0 -2.9389,-0.4898 -3.3308,-1.5674 -0.3918,-1.0776 -0.3918,-1.7633 -0.3918,-18.5152 0,-10.6781 0.4898,-13.8129 2.1552,-15.8702 0.9796,-1.2735 2.547,-2.3511 4.8982,-2.3511 2.2531,0 3.8206,0.6857 4.8982,2.0572 1.7633,2.2532 2.2531,3.2329 2.2531,15.6743 0,17.7315 -0.4898,18.9071 -1.1755,19.7887 -0.3919,0.5878 -1.1756,0.7837 -2.3512,0.7837 l -1.3715,0 0,4.5064 18.8091,0 0,-4.5064 z"
         id="path4242" />
      <path
         style=""
         d="m 2549.7933,1628.4252 c -0.6857,2.4491 -2.547,4.7023 -5.4859,4.7023 -2.3512,0 -4.2125,-1.1756 -4.9962,-4.1145 -0.9797,-3.4287 -1.1756,-5.29 -1.1756,-16.6539 0,-16.36 0.2939,-22.4337 0.9797,-28.8994 l 8.033,0 0,-4.4084 -8.033,0 0,-19.103 -3.7227,0 0,1.9593 c 0,7.9351 -4.4084,17.1437 -10.6781,17.1437 l -0.6857,0 0,4.4084 5.1921,0 c 0.2939,4.4084 0.3918,8.6209 0.3918,28.8994 0,13.0292 0.9797,17.3397 2.841,20.2786 2.5471,3.9186 5.8778,4.8002 10.1883,4.8002 5.9758,0 9.6004,-4.5063 9.8943,-8.4249 l -2.743,-0.5878 z"
         id="path4244" />
      <path
         style=""
         d="m 2569.3449,1621.5677 -0.7838,0 c -1.0776,0 -1.7633,-0.4898 -2.3511,-1.1755 -1.5674,-2.0573 -1.6654,-3.1349 -1.6654,-16.8498 0,-17.8295 0.3919,-22.5318 0.5878,-24.4911 l -14.5966,0 0,4.4084 0.5877,0 c 1.0776,0 2.0573,0.6858 2.6451,1.2736 1.6654,1.3715 1.8613,4.3104 1.8613,9.6984 0,21.6501 -0.1959,22.6297 -1.1756,25.0788 -0.5878,1.6654 -1.2735,2.0572 -2.4491,2.0572 l -1.4694,0 0,4.5064 18.8091,0 0,-4.5064 z m -9.7964,-54.0761 c 3.8205,0 6.3676,-2.841 6.3676,-6.9555 0,-4.2124 -2.5471,-7.1513 -6.3676,-7.1513 -3.7227,0 -6.2698,2.9389 -6.2698,7.1513 0,4.1145 2.5471,6.9555 6.2698,6.9555 z"
         id="path4246" />
      <path
         style=""
         d="m 2615.042,1621.5677 -1.0776,0 c -1.5674,0 -2.2532,-0.2938 -2.5471,-1.0776 -0.2938,-0.8816 -0.7837,-2.645 -0.7837,-27.9197 0,-6.3677 -3.6246,-14.5967 -14.5966,-14.5967 -6.4656,0 -9.7964,2.0573 -12.4415,5.682 -1.8613,-3.2329 -3.0368,-4.6044 -8.2289,-4.6044 l -2.6451,0 0,4.4084 0.9797,0 c 1.5674,0 2.2532,0.6858 3.0369,1.4695 0.7837,0.7837 0.7837,2.645 0.7837,13.1272 0,19.2009 -0.098,19.8867 -0.6858,21.5521 -0.4898,1.3715 -1.2735,1.9592 -2.645,1.9592 l -1.4695,0 0,4.5064 18.9071,0 0,-4.5064 -0.9796,0 c -2.1552,0 -2.939,-0.4898 -3.3308,-1.5674 -0.3919,-1.0776 -0.3919,-1.7633 -0.3919,-18.5152 0,-10.6781 0.4898,-13.8129 2.1552,-15.8702 0.9797,-1.2735 2.5471,-2.3511 4.8982,-2.3511 2.2532,0 3.8206,0.6857 4.8982,2.0572 1.7634,2.2532 2.2532,3.2329 2.2532,15.6743 0,17.7315 -0.4898,18.9071 -1.1756,19.7887 -0.3918,0.5878 -1.1755,0.7837 -2.3511,0.7837 l -1.3715,0 0,4.5064 18.8091,0 0,-4.5064 z"
         id="path4248" />
      <path
         style=""
         d="m 2657.5707,1574.8389 c 0,-3.4288 -1.5675,-5.388 -5.2901,-5.388 -4.9962,0 -6.5636,4.8982 -7.7392,12.4414 -2.547,-3.0369 -6.0737,-3.9186 -9.6984,-3.9186 -10.3842,0 -16.5559,6.7596 -16.5559,17.3397 0,6.9554 1.4694,12.3435 5.29,16.0661 1.8613,1.8613 4.2125,3.0369 7.1514,3.8206 1.9593,0.4898 3.2328,0.7837 4.8002,2.1552 2.1552,1.7633 3.6247,4.3104 3.9186,6.3677 -1.6654,-2.2532 -7.7392,-4.3105 -12.2455,-4.3105 -7.0534,0 -11.8537,5.1921 -11.8537,13.5191 0,9.5025 8.6209,15.8702 21.4542,15.8702 8.6208,0 14.9885,-5.584 16.36,-13.715 l -2.6451,-0.8817 c -1.2735,6.5636 -5.9758,10.2862 -13.3231,10.2862 -6.7595,0 -11.8536,-3.4287 -11.8536,-10.2862 0,-5.7799 2.645,-8.6208 7.8371,-8.6208 4.6043,0 8.5229,1.2735 11.6577,3.9185 -1.6654,-7.1513 -3.0369,-11.0699 -6.2697,-14.7925 9.3066,-1.2736 12.7354,-8.9148 12.7354,-19.0051 0,-3.7226 -1.5675,-8.5228 -4.4084,-11.2658 1.3715,-3.4288 2.645,-4.0166 5.486,-4.0166 3.6246,0 5.1921,-2.2531 5.1921,-5.5839 z m -16.1641,21.5521 c 0,9.1106 -0.6858,11.1679 -1.9593,12.6373 -1.1756,1.5675 -2.841,2.4491 -4.6043,2.4491 -1.7634,0 -3.4288,-0.7837 -4.5064,-2.1552 -1.3715,-1.4694 -2.1552,-4.2124 -2.1552,-12.9312 0,-8.4249 0.6858,-10.5801 2.0573,-12.1476 1.0776,-1.4694 2.743,-2.3511 4.6043,-2.3511 1.8613,0 3.5267,0.8817 4.6043,2.3511 1.2735,1.4695 1.9593,3.7227 1.9593,12.1476 z"
         id="path4250" />
      <path
         style=""
         d="m 2698.3574,1577.9737 c -4.0165,0 -7.7392,1.6654 -10.5801,4.4084 -3.8206,3.7227 -6.1718,8.6209 -6.1718,20.5725 0,11.1679 1.9593,15.1844 5.1921,18.8091 2.9389,3.4287 7.0534,5.29 11.5598,5.29 4.3104,0 8.229,-1.6654 11.1679,-4.8982 3.4287,-3.7226 5.6819,-8.3269 5.6819,-19.005 0,-13.519 -2.5471,-17.6335 -6.5636,-21.1602 -2.8409,-2.5471 -6.3677,-4.0166 -10.2862,-4.0166 z m 0,4.4084 c 1.9593,0 3.4287,0.6858 4.7023,2.1552 1.1755,1.3715 1.8613,3.5267 1.8613,18.4173 0,14.0088 -0.6858,16.164 -1.9593,17.6335 -1.0776,1.3715 -2.743,2.1552 -4.6043,2.1552 -1.7634,0 -3.5267,-0.7837 -4.7023,-2.2532 -1.1756,-1.4694 -1.9593,-3.6246 -1.9593,-17.5355 0,-14.9885 0.7837,-17.0458 1.9593,-18.4173 1.2735,-1.4694 2.841,-2.1552 4.7023,-2.1552 z"
         id="path4252" />
      <path
         style=""
         d="m 2761.0314,1621.5677 -1.0776,0 c -1.5674,0 -2.2532,-0.2938 -2.5471,-1.0776 -0.2939,-0.8816 -0.7837,-2.645 -0.7837,-27.9197 0,-6.3677 -3.6247,-14.5967 -14.5966,-14.5967 -6.4657,0 -9.7964,2.0573 -12.4415,5.682 -1.8613,-3.2329 -3.0369,-4.6044 -8.229,-4.6044 l -2.645,0 0,4.4084 0.9797,0 c 1.5674,0 2.2531,0.6858 3.0368,1.4695 0.7838,0.7837 0.7838,2.645 0.7838,13.1272 0,19.2009 -0.098,19.8867 -0.6858,21.5521 -0.4898,1.3715 -1.2735,1.9592 -2.645,1.9592 l -1.4695,0 0,4.5064 18.9071,0 0,-4.5064 -0.9797,0 c -2.1552,0 -2.9389,-0.4898 -3.3307,-1.5674 -0.3919,-1.0776 -0.3919,-1.7633 -0.3919,-18.5152 0,-10.6781 0.4898,-13.8129 2.1552,-15.8702 0.9797,-1.2735 2.5471,-2.3511 4.8982,-2.3511 2.2532,0 3.8206,0.6857 4.8982,2.0572 1.7634,2.2532 2.2532,3.2329 2.2532,15.6743 0,17.7315 -0.4898,18.9071 -1.1756,19.7887 -0.3918,0.5878 -1.1755,0.7837 -2.3511,0.7837 l -1.3715,0 0,4.5064 18.8091,0 0,-4.5064 z"
         id="path4254" />
      <path
         style=""
         d="m 2823.0733,1579.0513 -12.9312,0 0,4.4084 1.4694,0 c 2.3512,0 2.743,0.9797 2.6451,2.743 -0.1959,3.0369 -2.6451,14.4987 -6.0738,27.43 -4.4084,-14.0089 -6.7595,-25.0788 -6.7595,-28.0178 0,-1.3715 0.8817,-2.1552 2.645,-2.1552 l 1.7634,0 0,-4.4084 -19.0051,0 0,4.4084 1.1756,0 c 1.8613,0 2.3511,0.6858 3.1349,2.9389 1.4694,4.0166 11.0699,36.0508 12.2455,40.4592 -2.5471,10.4822 -2.939,12.1476 -4.8003,14.7926 -1.2735,1.9593 -2.9389,2.8409 -5.1921,2.8409 -1.5674,0 -3.8206,-0.9796 -3.8206,-3.0368 3.6247,0 5.7799,-2.3512 5.7799,-5.9759 0,-4.2124 -2.2532,-6.4656 -5.7799,-6.4656 -3.7226,0 -6.2697,2.9389 -6.2697,7.5433 0,6.4656 2.5471,12.2455 10.6781,12.2455 8.5229,0 11.6577,-7.6412 14.8906,-21.5521 2.1552,-8.0331 9.0127,-36.8345 10.1882,-40.8511 0.5878,-1.8613 1.7634,-2.9389 3.4288,-2.9389 l 0.5877,0 0,-4.4084 z"
         id="path4256" />
      <path
         style=""
         d="m 2840.9027,1577.9737 c -4.0165,0 -7.7391,1.6654 -10.5801,4.4084 -3.8206,3.7227 -6.1717,8.6209 -6.1717,20.5725 0,11.1679 1.9593,15.1844 5.1921,18.8091 2.9389,3.4287 7.0534,5.29 11.5597,5.29 4.3104,0 8.229,-1.6654 11.1679,-4.8982 3.4288,-3.7226 5.682,-8.3269 5.682,-19.005 0,-13.519 -2.5471,-17.6335 -6.5636,-21.1602 -2.841,-2.5471 -6.3677,-4.0166 -10.2863,-4.0166 z m 0,4.4084 c 1.9593,0 3.4288,0.6858 4.7023,2.1552 1.1756,1.3715 1.8613,3.5267 1.8613,18.4173 0,14.0088 -0.6857,16.164 -1.9593,17.6335 -1.0776,1.3715 -2.743,2.1552 -4.6043,2.1552 -1.7633,0 -3.5267,-0.7837 -4.7022,-2.2532 -1.1756,-1.4694 -1.9593,-3.6246 -1.9593,-17.5355 0,-14.9885 0.7837,-17.0458 1.9593,-18.4173 1.2735,-1.4694 2.8409,-2.1552 4.7022,-2.1552 z"
         id="path4258" />
      <path
         style=""
         d="m 2900.5399,1579.0513 -16.4579,0 0,4.4084 0.7837,0 c 1.7633,0 2.743,0.3919 3.1348,1.5675 0.5878,1.3714 0.6858,3.6246 0.6858,17.1437 0,12.9312 -0.196,14.6946 -1.2736,16.8498 -1.2735,2.4491 -3.0369,3.4287 -5.5839,3.4287 -3.0369,0 -4.5064,-0.8817 -5.7799,-3.4287 -0.9796,-2.1552 -1.3715,-3.9186 -1.3715,-17.5356 0,-15.0865 0.1959,-15.9681 1.1756,-17.0457 0.6857,-0.7837 1.3715,-0.9797 2.2531,-0.9797 l 1.4695,0 0,-4.4084 -19.005,0 0,4.4084 c 2.4491,0 3.3308,0.2939 3.8206,1.0776 0.4898,0.6858 0.6857,2.2532 0.6857,18.3193 0,12.6374 0.8817,16.5559 3.1349,19.2989 2.8409,3.4288 7.6412,4.8982 13.4211,4.8982 5.9758,0 9.8943,-2.0572 12.1475,-5.8778 1.5674,-2.645 2.2532,-6.0738 2.2532,-17.0458 0,-16.9477 0.098,-18.3192 0.7837,-19.3968 0.4898,-0.8817 1.1756,-1.2736 2.5471,-1.2736 l 1.1755,0 0,-4.4084 z"
         id="path4260" />
      <path
         style=""
         d="m 2911.9895,1553.5807 c -3.9186,0 -6.9555,2.8409 -6.9555,6.8575 0,0.8816 0.196,1.1755 2.6451,14.5966 2.0572,12.0496 2.9389,17.1437 2.9389,30.075 l 2.9389,0 c 0,-3.7226 0.098,-6.6616 0.1959,-9.5025 0.2939,-7.9351 2.841,-21.3562 4.8003,-33.3078 0.098,-0.6858 0.1959,-1.2735 0.1959,-1.9593 0,-3.9186 -2.5471,-6.7595 -6.7595,-6.7595 z m 0.2939,73.2771 c 3.9185,0 6.4656,-3.0369 6.4656,-7.4453 0,-4.3104 -2.5471,-7.4452 -6.4656,-7.4452 -3.8206,0 -6.3677,3.1348 -6.3677,7.4452 0,4.4084 2.5471,7.4453 6.3677,7.4453 z"
         id="path4262" />
    </g>
    <text
       xml:space="preserve"
       style="font-style:normal;font-variant:normal;font-weight:normal;font-stretch:normal;font-size:24px;line-height:125%;font-family:Ubuntu;-inkscape-font-specification:Ubuntu;letter-spacing:0px;word-spacing:0px;fill:#000000;fill-opacity:1;stroke:none;stroke-width:1px;stroke-linecap:butt;stroke-linejoin:miter;stroke-opacity:1"
       x="2136"
       y="1626.0741"
       id="text7767"><tspan
         id="tspan7769"
         x="2136"
         y="1626.0741" /></text>
  </g>
</svg>
