<?xml version="1.0" encoding="UTF-8" standalone="no"?>
<svg
   xmlns:dc="http://purl.org/dc/elements/1.1/"
   xmlns:cc="http://creativecommons.org/ns#"
   xmlns:rdf="http://www.w3.org/1999/02/22-rdf-syntax-ns#"
   xmlns:svg="http://www.w3.org/2000/svg"
   xmlns="http://www.w3.org/2000/svg"
   xmlns:xlink="http://www.w3.org/1999/xlink"
   width="4608"
   height="2304"
   id="svg2"
   version="1.1">
  <defs
     id="defs4" />
  <metadata
     id="metadata7">
    <rdf:RDF>
      <cc:Work
         rdf:about="">
        <dc:format>image/svg+xml</dc:format>
        <dc:type
           rdf:resource="http://purl.org/dc/dcmitype/StillImage" />
        <dc:title></dc:title>
      </cc:Work>
    </rdf:RDF>
  </metadata>
  <g
     id="layer1"
     transform="translate(-1024,1763.6378)"
     style="display:inline">
    <rect
       style="color:#000000;display:inline;overflow:visible;visibility:visible;fill:#f1f1ec;fill-opacity:1;fill-rule:nonzero;stroke:none;stroke-width:6;marker:none;enable-background:accumulate"
       id="rect7101"
       width="4608"
       height="2304"
       x="1024"
       y="-512"
       transform="translate(0,-1251.6378)" />
    <text
       transform="translate(0,-1251.6378)"
       xml:space="preserve"
       style="font-style:normal;font-variant:normal;font-weight:normal;font-stretch:normal;font-size:103.16069031px;line-height:125%;font-family:Euphorigenic;-inkscape-font-specification:Euphorigenic;text-align:start;letter-spacing:0px;word-spacing:0px;writing-mode:lr-tb;text-anchor:start;display:inline;fill:#222222;fill-opacity:1;stroke:none"
       x="2672.2598"
       y="328.30576"
       id="text6193"><tspan
         id="tspan6195"
         x="2672.2598"
         y="328.30576" /></text>
  </g>
  <g
     id="layer3"
     transform="translate(-1024,512.00002)"
     style="display:inline">
    <g
       id="g4960"
       transform="translate(-374.52037,-64)">
      <g
         transform="translate(1397.5204,-571.04745)"
         id="g7650">
        <rect
           width="210"
           height="226"
           x="2200"
           y="1204.2288"
           id="rect7612"
           style="color:#000000;display:inline;overflow:visible;visibility:visible;fill:#f39c12;fill-opacity:1;fill-rule:nonzero;stroke:none;stroke-width:6;marker:none;enable-background:accumulate" />
        <rect
           width="100"
           height="110"
           x="2255"
           y="1077"
           id="rect7614"
           style="color:#000000;display:inline;overflow:visible;visibility:visible;fill:#f39c12;fill-opacity:1;fill-rule:nonzero;stroke:none;marker:none;enable-background:accumulate" />
        <g
           transform="translate(-12.28935,-7)"
           id="g7632">
          <rect
             width="20"
             height="48"
             x="2288.2893"
             y="1106"
             id="rect7616"
             style="color:#000000;display:inline;overflow:visible;visibility:visible;fill:#2c3e50;fill-opacity:1;fill-rule:nonzero;stroke:none;stroke-width:6;marker:none;enable-background:accumulate" />
          <use
             transform="translate(38.000086,0)"
             id="use7620"
             x="0"
             y="0"
             width="4608"
             height="2304"
             xlink:href="#rect7616" />
        </g>
        <rect
           width="36"
           height="146"
           x="2240"
           y="1444"
           id="rect7622"
           style="color:#000000;display:inline;overflow:visible;visibility:visible;fill:#2c3e50;fill-opacity:1;fill-rule:nonzero;stroke:none;stroke-width:6;marker:none;enable-background:accumulate" />
        <use
           transform="translate(94,0)"
           id="use7624"
           x="0"
           y="0"
           width="4608"
           height="2304"
           xlink:href="#rect7622" />
        <use
           transform="translate(-91,-205)"
           id="use7626"
           x="0"
           y="0"
           width="4608"
           height="2304"
           xlink:href="#rect7622" />
        <use
           transform="translate(185,-205)"
           id="use7630"
           x="0"
           y="0"
           width="4608"
           height="2304"
           xlink:href="#rect7622" />
      </g>
      <use
         transform="matrix(0.70512821,0,0,0.70175439,726.76878,167.8981)"
         id="use7661"
         x="0"
         y="0"
         width="2560"
         height="1280"
         xlink:href="#g7650" />
      <use
         transform="matrix(0.70512821,0,0,0.70175439,1456.7688,167.8981)"
         id="use7663"
         x="0"
         y="0"
         width="2560"
         height="1280"
         xlink:href="#g7650" />
    </g>
  </g>
  <g
     id="layer4">
    <g
       id="text2985"
       style="font-style:normal;font-variant:normal;font-weight:normal;font-stretch:normal;font-size:107.5px;line-height:125%;font-family:Euphorigenic;-inkscape-font-specification:'Euphorigenic, Normal';text-align:center;letter-spacing:0px;word-spacing:0px;writing-mode:lr-tb;text-anchor:middle;display:inline;fill:#222222;fill-opacity:1;stroke:none">
      <path
         id="path6712"
         style=""
         d="m 1962.4086,682.75512 c 0,-14.0825 -1.29,-18.49 -5.375,-23.435 -2.9025,-3.44 -6.665,-5.4825 -11.0725,-6.3425 4.085,-3.5475 7.095,-9.5675 7.095,-17.3075 0,-15.05 -6.45,-22.8975 -18.3825,-22.8975 l -24.8325,0 0,4.8375 1.075,0 c 1.8275,0 3.01,0.43 3.3325,1.505 0.43,1.3975 1.1825,9.03 1.1825,42.14 0,43.5375 -0.43,45.58 -4.515,45.58 l -1.075,0 0,4.945 30.2075,0 c 13.6525,0 22.36,-11.5025 22.36,-29.025 z m -25.6925,-26.1225 c 4.4075,0 7.955,1.6125 10.4275,4.6225 2.795,3.44 4.085,7.2025 4.085,20.1025 0,12.9 -1.075,16.8775 -3.01,19.78 -2.4725,3.87 -6.5575,5.6975 -11.5025,5.6975 l -7.525,0 c -3.7625,0 -4.085,-2.365 -4.085,-8.4925 l 0,-16.6625 c 0,-8.2775 0,-16.555 -0.215,-25.0475 l 11.825,0 z m -5.2675,-39.0225 c 3.5475,0 6.3425,1.6125 8.0625,4.3 1.6125,2.4725 2.4725,5.805 2.4725,14.0825 0,6.5575 -0.86,9.9975 -2.6875,12.255 -1.6125,2.2575 -3.9775,3.655 -6.9875,3.655 l -7.4175,0 c 0,-9.46 0,-13.115 0.43,-23.005 0.43,-9.1375 1.29,-11.2875 3.9775,-11.2875 l 2.15,0 z" />
      <path
         id="path6714"
         style=""
         d="m 2013.6088,706.83512 -1.075,0 c -1.3975,0 -1.935,-0.215 -2.4725,-0.86 -0.5375,-0.645 -0.9675,-1.505 -3.5475,-14.0825 -4.945,-23.22 -10.535,-56.545 -13.2225,-79.12 l -10.535,0 c -3.5475,23.7575 -14.0825,84.065 -16.125,90.945 -0.5375,2.15 -1.505,3.1175 -3.44,3.1175 l -1.29,0 0,4.945 15.05,0 0,-4.945 -1.3975,0 c -2.4725,0 -3.655,-0.3225 -3.655,-1.8275 0,-0.645 0,-1.1825 0.1075,-2.0425 l 1.72,-10.75 20.855,0 c 0.9675,5.805 1.505,10.75 1.505,12.685 0,1.3975 -1.29,1.935 -3.87,1.935 l -1.29,0 0,4.945 22.6825,0 0,-4.945 z m -39.13,-19.4575 c 0.86,-5.59 9.89,-53.6425 10.75,-57.7275 l 8.7075,57.7275 -19.4575,0 z" />
      <path
         id="path6716"
         style=""
         d="m 2051.8839,691.57012 c 0,-6.3425 -1.075,-9.89 -3.44,-15.05 -2.365,-5.2675 -4.3,-8.0625 -9.46,-17.3075 -8.815,-15.695 -11.18,-21.285 -11.18,-30.53 0,-4.085 0.3225,-6.665 1.1825,-8.4925 1.29,-2.6875 3.9775,-3.9775 6.5575,-3.9775 5.805,0 8.9225,3.9775 8.9225,9.1375 l 5.0525,0 0,-14.835 -5.0525,0 0,4.945 c -1.6125,-2.2575 -4.4075,-3.87 -9.7825,-3.87 -11.5025,0 -17.0925,9.3525 -17.0925,20.5325 0,5.0525 1.29,10.32 2.9025,14.9425 1.8275,5.16 4.3,10.105 8.2775,16.77 7.525,12.255 12.685,19.135 12.685,30.4225 0,7.8475 -3.5475,13.975 -11.5025,13.975 -5.2675,0 -9.675,-3.7625 -11.0725,-9.03 l -3.44,1.3975 c 2.2575,8.4925 8.2775,12.47 16.2325,12.47 12.255,0 20.21,-7.4175 20.21,-21.5 z" />
      <path
         id="path6718"
         style=""
         d="m 2055.7639,711.78012 20.5325,0 0,-4.945 -1.8275,0 c -1.8275,0 -2.365,-0.43 -2.9025,-1.935 -0.43,-1.72 -0.645,-33.0025 -0.645,-48.2675 0,-13.6525 0.1075,-35.1525 0.645,-36.98 0.5375,-1.505 1.075,-2.0425 2.9025,-2.0425 l 1.8275,0 0,-4.8375 -20.5325,0 0,4.8375 1.72,0 c 1.935,0 2.4725,0.5375 2.9025,2.0425 0.645,1.8275 0.7525,23.3275 0.7525,36.98 0,15.265 -0.215,46.5475 -0.7525,48.2675 -0.43,1.505 -0.9675,1.935 -2.9025,1.935 l -1.72,0 0,4.945 z" />
      <path
         id="path6720"
         style=""
         d="m 2124.7269,626.10262 c 0,-7.955 -7.095,-14.5125 -18.1675,-14.5125 -9.5675,0 -16.2325,4.085 -20.3175,10.6425 -4.4075,7.095 -5.2675,13.8675 -5.2675,41.495 0,28.38 1.6125,35.045 6.1275,40.7425 4.3,5.375 10.75,8.6 18.92,8.6 8.815,0 14.405,-3.44 16.985,-12.47 l -3.44,-1.3975 c -1.72,5.805 -5.805,8.9225 -12.685,8.9225 -5.59,0 -8.4925,-1.6125 -11.5025,-5.805 -2.0425,-2.9025 -3.1175,-6.7725 -3.1175,-41.8175 0,-30.53 1.29,-35.7975 4.085,-39.2375 2.4725,-3.1175 6.02,-4.8375 10.535,-4.8375 4.1925,0 7.095,0.9675 8.9225,3.1175 -3.5475,1.505 -4.1925,3.44 -4.1925,7.6325 0,4.8375 2.0425,7.2025 6.02,7.2025 4.1925,0 7.095,-4.085 7.095,-8.2775 z" />
      <path
         id="path6722"
         style=""
         d="m 2154.4456,711.78012 20.5325,0 0,-4.945 -1.8275,0 c -1.8275,0 -2.365,-0.43 -2.9025,-1.935 -0.43,-1.72 -0.645,-33.0025 -0.645,-48.2675 0,-13.6525 0.1075,-35.1525 0.645,-36.98 0.5375,-1.505 1.075,-2.0425 2.9025,-2.0425 l 1.8275,0 0,-4.8375 -20.5325,0 0,4.8375 1.72,0 c 1.935,0 2.4725,0.5375 2.9025,2.0425 0.645,1.8275 0.7525,23.3275 0.7525,36.98 0,15.265 -0.215,46.5475 -0.7525,48.2675 -0.43,1.505 -0.9675,1.935 -2.9025,1.935 l -1.72,0 0,4.945 z" />
      <path
         id="path6724"
         style=""
         d="m 2229.106,612.77262 -16.0175,0 0,4.8375 2.2575,0 c 0.86,0 1.3975,0.1075 1.935,1.1825 0.86,1.3975 1.3975,4.3 1.3975,35.26 0,10.4275 -0.1075,21.715 -0.43,34.185 -7.955,-23.22 -15.91,-49.235 -22.8975,-75.465 l -16.34,0 0,4.8375 2.0425,0 c 1.505,0 1.935,0.43 2.365,1.505 0.7525,1.935 1.075,6.235 1.075,39.6675 0,42.57 -0.215,44.29 -1.72,46.5475 -0.86,1.3975 -1.505,1.505 -2.6875,1.505 l -1.075,0 0,4.945 15.91,0 0,-4.945 -1.075,0 c -1.8275,0 -2.6875,-0.3225 -3.3325,-1.72 -1.075,-2.2575 -1.29,-3.5475 -1.29,-28.2725 0,-32.68 0.1075,-43.5375 0.215,-46.3325 6.5575,16.8775 19.8875,65.79 23.65,81.27 l 11.18,0 c -0.5375,-6.88 -0.86,-17.3075 -0.86,-56.0075 0,-33.325 0.215,-35.26 1.3975,-36.98 0.5375,-0.7525 1.6125,-1.1825 3.3325,-1.1825 l 0.9675,0 0,-4.8375 z" />
      <path
         id="path6726"
         style=""
         d="m 2267.7237,691.57012 c 0,-6.3425 -1.075,-9.89 -3.44,-15.05 -2.365,-5.2675 -4.3,-8.0625 -9.46,-17.3075 -8.815,-15.695 -11.18,-21.285 -11.18,-30.53 0,-4.085 0.3225,-6.665 1.1825,-8.4925 1.29,-2.6875 3.9775,-3.9775 6.5575,-3.9775 5.805,0 8.9225,3.9775 8.9225,9.1375 l 5.0525,0 0,-14.835 -5.0525,0 0,4.945 c -1.6125,-2.2575 -4.4075,-3.87 -9.7825,-3.87 -11.5025,0 -17.0925,9.3525 -17.0925,20.5325 0,5.0525 1.29,10.32 2.9025,14.9425 1.8275,5.16 4.3,10.105 8.2775,16.77 7.525,12.255 12.685,19.135 12.685,30.4225 0,7.8475 -3.5475,13.975 -11.5025,13.975 -5.2675,0 -9.675,-3.7625 -11.0725,-9.03 l -3.44,1.3975 c 2.2575,8.4925 8.2775,12.47 16.2325,12.47 12.255,0 20.21,-7.4175 20.21,-21.5 z" />
      <path
         id="path6728"
         style=""
         d="m 2314.6038,612.77262 -44.075,0 0,12.685 4.515,0 c 0,-4.085 0.9675,-6.88 3.01,-6.88 l 5.59,0 c 1.935,0 2.4725,0.43 2.9025,1.935 0.5375,1.8275 0.645,22.4675 0.645,36.12 0,15.265 -0.215,46.5475 -0.645,48.2675 -0.43,1.505 -0.9675,1.935 -2.9025,1.935 l -2.9025,0 0,4.945 22.79,0 0,-4.945 -2.9025,0 c -1.935,0 -2.4725,-0.43 -2.9025,-1.935 -0.43,-1.72 -0.645,-33.0025 -0.645,-48.2675 0,-13.6525 0.1075,-34.2925 0.645,-36.12 0.43,-1.505 0.9675,-1.935 2.9025,-1.935 l 4.4075,0 c 4.085,0 4.8375,2.0425 4.8375,6.88 l 4.73,0 0,-12.685 z" />
      <path
         id="path6730"
         style=""
         d="m 2317.7952,612.77262 0,4.8375 1.29,0 c 1.3975,0 2.15,0.215 2.58,1.1825 1.29,2.4725 1.6125,4.085 1.6125,35.26 0,42.4625 -0.1075,44.72 -0.7525,49.665 -0.3225,2.58 -1.075,3.1175 -3.7625,3.1175 l -0.9675,0 0,4.945 20.64,0 0,-4.945 -1.075,0 c -2.2575,0 -3.1175,-0.3225 -3.655,-3.1175 -0.5375,-3.3325 -0.86,-9.89 -0.86,-46.1175 1.935,0.215 3.5475,0.7525 5.4825,1.8275 3.44,2.0425 5.9125,6.45 9.1375,13.4375 3.44,7.6325 5.6975,17.0925 9.1375,25.4775 4.3,10.75 7.955,13.4375 16.34,13.4375 l 7.095,0 0,-4.945 -3.87,0 c -3.225,0 -5.0525,-1.29 -6.9875,-4.8375 -4.73,-9.245 -7.4175,-20.9625 -11.0725,-30.315 -2.4725,-5.805 -5.59,-10.4275 -8.0625,-12.255 -2.0425,-1.505 -3.3325,-2.4725 -5.4825,-2.9025 4.8375,-0.215 7.8475,-1.3975 10.535,-3.7625 3.87,-3.44 5.9125,-8.0625 5.9125,-17.0925 0,-10.105 -1.6125,-13.6525 -4.945,-17.5225 -3.1175,-3.7625 -7.6325,-5.375 -13.4375,-5.375 l -24.8325,0 z m 21.6075,4.8375 c 4.085,0 6.5575,1.3975 8.2775,3.9775 1.72,2.4725 2.2575,4.945 2.2575,13.76 0,7.095 -0.645,10.105 -2.15,12.3625 -1.72,2.58 -4.6225,4.1925 -8.385,4.1925 l -6.5575,0 c 0,-25.2625 0.1075,-28.165 1.505,-31.82 0.645,-1.6125 1.505,-2.4725 2.9025,-2.4725 l 2.15,0 z" />
      <path
         id="path6732"
         style=""
         d="m 2429.8992,612.77262 -16.0175,0 0,4.8375 1.1825,0 c 1.3975,0 2.365,0.5375 3.1175,1.3975 0.86,1.29 0.9675,2.58 1.075,6.665 0.3225,9.9975 0.645,18.49 0.645,47.1925 0,20.21 -1.075,25.8 -4.945,31.39 -1.8275,2.795 -4.945,3.87 -9.5675,3.87 -5.375,0 -8.9225,-1.8275 -11.0725,-6.665 -1.72,-3.87 -2.4725,-6.665 -2.4725,-23.3275 0,-17.3075 0.215,-30.4225 0.215,-34.9375 0,-17.9525 0.1075,-20.425 1.29,-23.3275 0.645,-1.6125 1.72,-2.2575 3.1175,-2.2575 l 1.3975,0 0,-4.8375 -21.5,0 0,4.8375 1.29,0 c 2.4725,0 2.9025,0.645 3.3325,2.4725 0.5375,2.6875 0.5375,5.16 0.5375,19.35 0,17.2 -0.43,31.0675 -0.43,44.8275 0,11.61 1.3975,16.4475 4.8375,21.1775 3.9775,5.375 10.535,7.6325 18.3825,7.6325 8.0625,0 12.685,-1.935 15.695,-6.1275 3.7625,-5.0525 5.0525,-13.6525 5.0525,-25.155 0,-16.6625 -0.43,-40.635 -0.43,-49.1275 0,-9.7825 0.215,-11.61 1.3975,-13.6525 0.645,-0.9675 1.3975,-1.3975 2.4725,-1.3975 l 1.3975,0 0,-4.8375 z" />
      <path
         id="path6734"
         style=""
         d="m 2477.8812,626.10262 c 0,-7.955 -7.095,-14.5125 -18.1675,-14.5125 -9.5675,0 -16.2325,4.085 -20.3175,10.6425 -4.4075,7.095 -5.2675,13.8675 -5.2675,41.495 0,28.38 1.6125,35.045 6.1275,40.7425 4.3,5.375 10.75,8.6 18.92,8.6 8.815,0 14.405,-3.44 16.985,-12.47 l -3.44,-1.3975 c -1.72,5.805 -5.805,8.9225 -12.685,8.9225 -5.59,0 -8.4925,-1.6125 -11.5025,-5.805 -2.0425,-2.9025 -3.1175,-6.7725 -3.1175,-41.8175 0,-30.53 1.29,-35.7975 4.085,-39.2375 2.4725,-3.1175 6.02,-4.8375 10.535,-4.8375 4.1925,0 7.095,0.9675 8.9225,3.1175 -3.5475,1.505 -4.1925,3.44 -4.1925,7.6325 0,4.8375 2.0425,7.2025 6.02,7.2025 4.1925,0 7.095,-4.085 7.095,-8.2775 z" />
      <path
         id="path6736"
         style=""
         d="m 2524.5647,612.77262 -44.075,0 0,12.685 4.515,0 c 0,-4.085 0.9675,-6.88 3.01,-6.88 l 5.59,0 c 1.935,0 2.4725,0.43 2.9025,1.935 0.5375,1.8275 0.645,22.4675 0.645,36.12 0,15.265 -0.215,46.5475 -0.645,48.2675 -0.43,1.505 -0.9675,1.935 -2.9025,1.935 l -2.9025,0 0,4.945 22.79,0 0,-4.945 -2.9025,0 c -1.935,0 -2.4725,-0.43 -2.9025,-1.935 -0.43,-1.72 -0.645,-33.0025 -0.645,-48.2675 0,-13.6525 0.1075,-34.2925 0.645,-36.12 0.43,-1.505 0.9675,-1.935 2.9025,-1.935 l 4.4075,0 c 4.085,0 4.8375,2.0425 4.8375,6.88 l 4.73,0 0,-12.685 z" />
      <path
         id="path6738"
         style=""
         d="m 2527.7561,711.78012 20.5325,0 0,-4.945 -1.8275,0 c -1.8275,0 -2.365,-0.43 -2.9025,-1.935 -0.43,-1.72 -0.645,-33.0025 -0.645,-48.2675 0,-13.6525 0.1075,-35.1525 0.645,-36.98 0.5375,-1.505 1.075,-2.0425 2.9025,-2.0425 l 1.8275,0 0,-4.8375 -20.5325,0 0,4.8375 1.72,0 c 1.935,0 2.4725,0.5375 2.9025,2.0425 0.645,1.8275 0.7525,23.3275 0.7525,36.98 0,15.265 -0.215,46.5475 -0.7525,48.2675 -0.43,1.505 -0.9675,1.935 -2.9025,1.935 l -1.72,0 0,4.945 z" />
      <path
         id="path6740"
         style=""
         d="m 2579.7341,713.07012 c 7.525,0 13.33,-2.365 17.5225,-6.665 4.945,-5.16 7.2025,-12.9 7.2025,-42.14 0,-30.2075 -2.0425,-39.775 -7.74,-45.795 -4.1925,-4.3 -10.105,-6.88 -18.3825,-6.88 -7.6325,0 -13.33,2.365 -17.2,6.45 -5.9125,6.02 -8.17,15.8025 -8.17,46.1175 0,29.455 2.2575,37.195 7.525,42.355 4.1925,4.1925 10.4275,6.5575 19.2425,6.5575 z m -0.9675,-4.945 c -4.8375,0 -8.6,-2.0425 -11.18,-5.375 -2.2575,-2.9025 -3.44,-6.9875 -3.44,-38.5925 0,-33.6475 1.1825,-38.5925 3.5475,-42.0325 2.4725,-3.655 6.1275,-5.6975 11.0725,-5.6975 4.8375,0 8.385,2.0425 10.8575,5.59 2.365,3.44 3.5475,8.4925 3.5475,42.2475 0,30.745 -0.86,34.2925 -2.58,37.0875 -2.365,4.3 -6.665,6.7725 -11.825,6.7725 z" />
      <path
         id="path6742"
         style=""
         d="m 2659.316,612.77262 -16.0175,0 0,4.8375 2.2575,0 c 0.86,0 1.3975,0.1075 1.935,1.1825 0.86,1.3975 1.3975,4.3 1.3975,35.26 0,10.4275 -0.1075,21.715 -0.43,34.185 -7.955,-23.22 -15.91,-49.235 -22.8975,-75.465 l -16.34,0 0,4.8375 2.0425,0 c 1.505,0 1.935,0.43 2.365,1.505 0.7525,1.935 1.075,6.235 1.075,39.6675 0,42.57 -0.215,44.29 -1.72,46.5475 -0.86,1.3975 -1.505,1.505 -2.6875,1.505 l -1.075,0 0,4.945 15.91,0 0,-4.945 -1.075,0 c -1.8275,0 -2.6875,-0.3225 -3.3325,-1.72 -1.075,-2.2575 -1.29,-3.5475 -1.29,-28.2725 0,-32.68 0.1075,-43.5375 0.215,-46.3325 6.5575,16.8775 19.8875,65.79 23.65,81.27 l 11.18,0 c -0.5375,-6.88 -0.86,-17.3075 -0.86,-56.0075 0,-33.325 0.215,-35.26 1.3975,-36.98 0.5375,-0.7525 1.6125,-1.1825 3.3325,-1.1825 l 0.9675,0 0,-4.8375 z" />
      <path
         id="path6744"
         style=""
         d="m 2697.9337,691.57012 c 0,-6.3425 -1.075,-9.89 -3.44,-15.05 -2.365,-5.2675 -4.3,-8.0625 -9.46,-17.3075 -8.815,-15.695 -11.18,-21.285 -11.18,-30.53 0,-4.085 0.3225,-6.665 1.1825,-8.4925 1.29,-2.6875 3.9775,-3.9775 6.5575,-3.9775 5.805,0 8.9225,3.9775 8.9225,9.1375 l 5.0525,0 0,-14.835 -5.0525,0 0,4.945 c -1.6125,-2.2575 -4.4075,-3.87 -9.7825,-3.87 -11.5025,0 -17.0925,9.3525 -17.0925,20.5325 0,5.0525 1.29,10.32 2.9025,14.9425 1.8275,5.16 4.3,10.105 8.2775,16.77 7.525,12.255 12.685,19.135 12.685,30.4225 0,7.8475 -3.5475,13.975 -11.5025,13.975 -5.2675,0 -9.675,-3.7625 -11.0725,-9.03 l -3.44,1.3975 c 2.2575,8.4925 8.2775,12.47 16.2325,12.47 12.255,0 20.21,-7.4175 20.21,-21.5 z" />
      <path
         id="path6746"
         style=""
         d="m 1910.8909,846.15512 20.5325,0 0,-4.945 -1.8275,0 c -1.8275,0 -2.365,-0.43 -2.9025,-1.935 -0.43,-1.72 -0.645,-33.0025 -0.645,-48.2675 0,-13.6525 0.1075,-35.1525 0.645,-36.98 0.5375,-1.505 1.075,-2.0425 2.9025,-2.0425 l 1.8275,0 0,-4.8375 -20.5325,0 0,4.8375 1.72,0 c 1.935,0 2.4725,0.5375 2.9025,2.0425 0.645,1.8275 0.7525,23.3275 0.7525,36.98 0,15.265 -0.215,46.5475 -0.7525,48.2675 -0.43,1.505 -0.9675,1.935 -2.9025,1.935 l -1.72,0 0,4.945 z" />
      <path
         id="path6748"
         style=""
         d="m 1985.5513,747.14762 -16.0175,0 0,4.8375 2.2575,0 c 0.86,0 1.3975,0.1075 1.935,1.1825 0.86,1.3975 1.3975,4.3 1.3975,35.26 0,10.4275 -0.1075,21.715 -0.43,34.185 -7.955,-23.22 -15.91,-49.235 -22.8975,-75.465 l -16.34,0 0,4.8375 2.0425,0 c 1.505,0 1.935,0.43 2.365,1.505 0.7525,1.935 1.075,6.235 1.075,39.6675 0,42.57 -0.215,44.29 -1.72,46.5475 -0.86,1.3975 -1.505,1.505 -2.6875,1.505 l -1.075,0 0,4.945 15.91,0 0,-4.945 -1.075,0 c -1.8275,0 -2.6875,-0.3225 -3.3325,-1.72 -1.075,-2.2575 -1.29,-3.5475 -1.29,-28.2725 0,-32.68 0.1075,-43.5375 0.215,-46.3325 6.5575,16.8775 19.8875,65.79 23.65,81.27 l 11.18,0 c -0.5375,-6.88 -0.86,-17.3075 -0.86,-56.0075 0,-33.325 0.215,-35.26 1.3975,-36.98 0.5375,-0.7525 1.6125,-1.1825 3.3325,-1.1825 l 0.9675,0 0,-4.8375 z" />
      <path
         id="path6750"
         style=""
         d="m 2058.5892,760.47762 c 0,-7.955 -7.095,-14.5125 -18.1675,-14.5125 -9.5675,0 -16.2325,4.085 -20.3175,10.6425 -4.4075,7.095 -5.2675,13.8675 -5.2675,41.495 0,28.38 1.6125,35.045 6.1275,40.7425 4.3,5.375 10.75,8.6 18.92,8.6 8.815,0 14.405,-3.44 16.985,-12.47 l -3.44,-1.3975 c -1.72,5.805 -5.805,8.9225 -12.685,8.9225 -5.59,0 -8.4925,-1.6125 -11.5025,-5.805 -2.0425,-2.9025 -3.1175,-6.7725 -3.1175,-41.8175 0,-30.53 1.29,-35.7975 4.085,-39.2375 2.4725,-3.1175 6.02,-4.8375 10.535,-4.8375 4.1925,0 7.095,0.9675 8.9225,3.1175 -3.5475,1.505 -4.1925,3.44 -4.1925,7.6325 0,4.8375 2.0425,7.2025 6.02,7.2025 4.1925,0 7.095,-4.085 7.095,-8.2775 z" />
      <path
         id="path6752"
         style=""
         d="m 2111.2407,841.21012 -1.075,0 c -1.3975,0 -1.935,-0.215 -2.4725,-0.86 -0.5375,-0.645 -0.9675,-1.505 -3.5475,-14.0825 -4.945,-23.22 -10.535,-56.545 -13.2225,-79.12 l -10.535,0 c -3.5475,23.7575 -14.0825,84.065 -16.125,90.945 -0.5375,2.15 -1.505,3.1175 -3.44,3.1175 l -1.29,0 0,4.945 15.05,0 0,-4.945 -1.3975,0 c -2.4725,0 -3.655,-0.3225 -3.655,-1.8275 0,-0.645 0,-1.1825 0.1075,-2.0425 l 1.72,-10.75 20.855,0 c 0.9675,5.805 1.505,10.75 1.505,12.685 0,1.3975 -1.29,1.935 -3.87,1.935 l -1.29,0 0,4.945 22.6825,0 0,-4.945 z m -39.13,-19.4575 c 0.86,-5.59 9.89,-53.6425 10.75,-57.7275 l 8.7075,57.7275 -19.4575,0 z" />
      <path
         id="path6754"
         style=""
         d="m 2149.5157,825.94512 c 0,-6.3425 -1.075,-9.89 -3.44,-15.05 -2.365,-5.2675 -4.3,-8.0625 -9.46,-17.3075 -8.815,-15.695 -11.18,-21.285 -11.18,-30.53 0,-4.085 0.3225,-6.665 1.1825,-8.4925 1.29,-2.6875 3.9775,-3.9775 6.5575,-3.9775 5.805,0 8.9225,3.9775 8.9225,9.1375 l 5.0525,0 0,-14.835 -5.0525,0 0,4.945 c -1.6125,-2.2575 -4.4075,-3.87 -9.7825,-3.87 -11.5025,0 -17.0925,9.3525 -17.0925,20.5325 0,5.0525 1.29,10.32 2.9025,14.9425 1.8275,5.16 4.3,10.105 8.2775,16.77 7.525,12.255 12.685,19.135 12.685,30.4225 0,7.8475 -3.5475,13.975 -11.5025,13.975 -5.2675,0 -9.675,-3.7625 -11.0725,-9.03 l -3.44,1.3975 c 2.2575,8.4925 8.2775,12.47 16.2325,12.47 12.255,0 20.21,-7.4175 20.21,-21.5 z" />
      <path
         id="path6756"
         style=""
         d="m 2203.1683,833.90012 -4.515,0 c 0,4.1925 -0.9675,5.9125 -3.01,5.9125 l -21.93,0 c -2.795,0 -4.085,-0.5375 -4.4075,-2.2575 -0.645,-4.8375 -0.86,-17.2 -0.86,-36.55 l 0,-9.9975 7.6325,0 c 2.4725,0 3.655,2.15 3.655,6.5575 l 4.6225,0 0,-17.63 -4.6225,0 c 0,4.1925 -1.1825,6.3425 -3.655,6.3425 l -7.525,0 c 0.1075,-17.415 0.43,-27.4125 0.7525,-30.96 0.43,-3.1175 1.1825,-3.3325 4.4075,-3.3325 l 7.6325,0 c 1.935,0 3.01,2.15 3.01,6.3425 l 4.515,0 0,-11.18 -35.475,0 0,4.8375 1.72,0 c 2.2575,0 3.01,1.1825 3.3325,4.085 0.5375,8.17 0.5375,11.61 0.5375,55.1475 0,10.6425 0,19.4575 -0.3225,26.015 -0.215,3.44 -1.3975,3.9775 -3.87,3.9775 l -1.3975,0 0,4.945 49.7725,0 0,-12.255 z" />
      <path
         id="path6758"
         style=""
         d="m 2259.3337,847.44512 c 7.525,0 13.33,-2.365 17.5225,-6.665 4.945,-5.16 7.2025,-12.9 7.2025,-42.14 0,-30.2075 -2.0425,-39.775 -7.74,-45.795 -4.1925,-4.3 -10.105,-6.88 -18.3825,-6.88 -7.6325,0 -13.33,2.365 -17.2,6.45 -5.9125,6.02 -8.17,15.8025 -8.17,46.1175 0,29.455 2.2575,37.195 7.525,42.355 4.1925,4.1925 10.4275,6.5575 19.2425,6.5575 z m -0.9675,-4.945 c -4.8375,0 -8.6,-2.0425 -11.18,-5.375 -2.2575,-2.9025 -3.44,-6.9875 -3.44,-38.5925 0,-33.6475 1.1825,-38.5925 3.5475,-42.0325 2.4725,-3.655 6.1275,-5.6975 11.0725,-5.6975 4.8375,0 8.385,2.0425 10.8575,5.59 2.365,3.44 3.5475,8.4925 3.5475,42.2475 0,30.745 -0.86,34.2925 -2.58,37.0875 -2.365,4.3 -6.665,6.7725 -11.825,6.7725 z" />
      <path
         id="path6760"
         style=""
         d="m 2324.2956,747.14762 -35.475,0 0,4.8375 1.075,0 c 2.2575,0 2.795,0.645 3.44,2.365 0.7525,1.935 1.075,3.44 1.075,39.2375 0,35.26 -0.3225,40.3125 -0.7525,43.3225 -0.3225,3.01 -1.1825,4.3 -3.225,4.3 l -1.6125,0 0,4.945 22.575,0 0,-4.945 -2.0425,0 c -3.3325,0 -4.1925,-0.7525 -4.6225,-3.225 -0.5375,-5.16 -0.86,-14.5125 -0.86,-34.7225 l 0,-9.89 7.6325,0 c 2.4725,0 3.655,2.15 3.655,6.3425 l 4.6225,0 0,-17.415 -4.6225,0 c 0,4.1925 -1.1825,6.235 -3.655,6.235 l -7.525,0 c 0.1075,-17.415 0.43,-29.67 0.7525,-33.2175 0.43,-3.1175 1.1825,-3.3325 4.4075,-3.3325 l 7.6325,0 c 1.935,0 3.01,2.15 3.01,6.3425 l 4.515,0 0,-11.18 z" />
      <path
         id="path6762"
         style=""
         d="m 2353.0686,846.15512 20.5325,0 0,-4.945 -1.8275,0 c -1.8275,0 -2.365,-0.43 -2.9025,-1.935 -0.43,-1.72 -0.645,-33.0025 -0.645,-48.2675 0,-13.6525 0.1075,-35.1525 0.645,-36.98 0.5375,-1.505 1.075,-2.0425 2.9025,-2.0425 l 1.8275,0 0,-4.8375 -20.5325,0 0,4.8375 1.72,0 c 1.935,0 2.4725,0.5375 2.9025,2.0425 0.645,1.8275 0.7525,23.3275 0.7525,36.98 0,15.265 -0.215,46.5475 -0.7525,48.2675 -0.43,1.505 -0.9675,1.935 -2.9025,1.935 l -1.72,0 0,4.945 z" />
      <path
         id="path6764"
         style=""
         d="m 2427.7291,747.14762 -16.0175,0 0,4.8375 2.2575,0 c 0.86,0 1.3975,0.1075 1.935,1.1825 0.86,1.3975 1.3975,4.3 1.3975,35.26 0,10.4275 -0.1075,21.715 -0.43,34.185 -7.955,-23.22 -15.91,-49.235 -22.8975,-75.465 l -16.34,0 0,4.8375 2.0425,0 c 1.505,0 1.935,0.43 2.365,1.505 0.7525,1.935 1.075,6.235 1.075,39.6675 0,42.57 -0.215,44.29 -1.72,46.5475 -0.86,1.3975 -1.505,1.505 -2.6875,1.505 l -1.075,0 0,4.945 15.91,0 0,-4.945 -1.075,0 c -1.8275,0 -2.6875,-0.3225 -3.3325,-1.72 -1.075,-2.2575 -1.29,-3.5475 -1.29,-28.2725 0,-32.68 0.1075,-43.5375 0.215,-46.3325 6.5575,16.8775 19.8875,65.79 23.65,81.27 l 11.18,0 c -0.5375,-6.88 -0.86,-17.3075 -0.86,-56.0075 0,-33.325 0.215,-35.26 1.3975,-36.98 0.5375,-0.7525 1.6125,-1.1825 3.3325,-1.1825 l 0.9675,0 0,-4.8375 z" />
      <path
         id="path6766"
         style=""
         d="m 2469.0342,771.44262 c -0.9675,5.59 -9.89,53.75 -10.75,57.835 -3.1175,-19.0275 -5.9125,-38.3775 -8.815,-57.835 -1.29,-7.8475 -2.0425,-15.695 -2.0425,-17.415 0,-1.3975 1.1825,-2.0425 3.7625,-2.0425 l 1.3975,0 0,-4.8375 -22.6825,0 0,4.8375 1.075,0 c 1.29,0 1.935,0.215 2.4725,0.9675 0.5375,0.645 0.86,1.3975 3.5475,14.0825 4.945,23.22 10.535,56.545 13.2225,79.12 l 10.535,0 c 3.5475,-23.7575 14.0825,-84.065 16.0175,-90.945 0.645,-2.15 1.6125,-3.225 3.5475,-3.225 l 1.29,0 0,-4.8375 -15.05,0 0,4.8375 1.29,0 c 2.58,0 3.655,0.43 3.655,1.935 0,1.935 -0.215,3.44 -2.4725,17.5225 z" />
      <path
         id="path6768"
         style=""
         d="m 2524.4438,841.21012 -1.075,0 c -1.3975,0 -1.935,-0.215 -2.4725,-0.86 -0.5375,-0.645 -0.9675,-1.505 -3.5475,-14.0825 -4.945,-23.22 -10.535,-56.545 -13.2225,-79.12 l -10.535,0 c -3.5475,23.7575 -14.0825,84.065 -16.125,90.945 -0.5375,2.15 -1.505,3.1175 -3.44,3.1175 l -1.29,0 0,4.945 15.05,0 0,-4.945 -1.3975,0 c -2.4725,0 -3.655,-0.3225 -3.655,-1.8275 0,-0.645 0,-1.1825 0.1075,-2.0425 l 1.72,-10.75 20.855,0 c 0.9675,5.805 1.505,10.75 1.505,12.685 0,1.3975 -1.29,1.935 -3.87,1.935 l -1.29,0 0,4.945 22.6825,0 0,-4.945 z m -39.13,-19.4575 c 0.86,-5.59 9.89,-53.6425 10.75,-57.7275 l 8.7075,57.7275 -19.4575,0 z" />
      <path
         id="path6770"
         style=""
         d="m 2562.7188,825.94512 c 0,-6.3425 -1.075,-9.89 -3.44,-15.05 -2.365,-5.2675 -4.3,-8.0625 -9.46,-17.3075 -8.815,-15.695 -11.18,-21.285 -11.18,-30.53 0,-4.085 0.3225,-6.665 1.1825,-8.4925 1.29,-2.6875 3.9775,-3.9775 6.5575,-3.9775 5.805,0 8.9225,3.9775 8.9225,9.1375 l 5.0525,0 0,-14.835 -5.0525,0 0,4.945 c -1.6125,-2.2575 -4.4075,-3.87 -9.7825,-3.87 -11.5025,0 -17.0925,9.3525 -17.0925,20.5325 0,5.0525 1.29,10.32 2.9025,14.9425 1.8275,5.16 4.3,10.105 8.2775,16.77 7.525,12.255 12.685,19.135 12.685,30.4225 0,7.8475 -3.5475,13.975 -11.5025,13.975 -5.2675,0 -9.675,-3.7625 -11.0725,-9.03 l -3.44,1.3975 c 2.2575,8.4925 8.2775,12.47 16.2325,12.47 12.255,0 20.21,-7.4175 20.21,-21.5 z" />
      <path
         id="path6772"
         style=""
         d="m 2566.5989,846.15512 20.5325,0 0,-4.945 -1.8275,0 c -1.8275,0 -2.365,-0.43 -2.9025,-1.935 -0.43,-1.72 -0.645,-33.0025 -0.645,-48.2675 0,-13.6525 0.1075,-35.1525 0.645,-36.98 0.5375,-1.505 1.075,-2.0425 2.9025,-2.0425 l 1.8275,0 0,-4.8375 -20.5325,0 0,4.8375 1.72,0 c 1.935,0 2.4725,0.5375 2.9025,2.0425 0.645,1.8275 0.7525,23.3275 0.7525,36.98 0,15.265 -0.215,46.5475 -0.7525,48.2675 -0.43,1.505 -0.9675,1.935 -2.9025,1.935 l -1.72,0 0,4.945 z" />
      <path
         id="path6774"
         style=""
         d="m 2618.5768,847.44512 c 7.525,0 13.33,-2.365 17.5225,-6.665 4.945,-5.16 7.2025,-12.9 7.2025,-42.14 0,-30.2075 -2.0425,-39.775 -7.74,-45.795 -4.1925,-4.3 -10.105,-6.88 -18.3825,-6.88 -7.6325,0 -13.33,2.365 -17.2,6.45 -5.9125,6.02 -8.17,15.8025 -8.17,46.1175 0,29.455 2.2575,37.195 7.525,42.355 4.1925,4.1925 10.4275,6.5575 19.2425,6.5575 z m -0.9675,-4.945 c -4.8375,0 -8.6,-2.0425 -11.18,-5.375 -2.2575,-2.9025 -3.44,-6.9875 -3.44,-38.5925 0,-33.6475 1.1825,-38.5925 3.5475,-42.0325 2.4725,-3.655 6.1275,-5.6975 11.0725,-5.6975 4.8375,0 8.385,2.0425 10.8575,5.59 2.365,3.44 3.5475,8.4925 3.5475,42.2475 0,30.745 -0.86,34.2925 -2.58,37.0875 -2.365,4.3 -6.665,6.7725 -11.825,6.7725 z" />
      <path
         id="path6776"
         style=""
         d="m 2698.1587,747.14762 -16.0175,0 0,4.8375 2.2575,0 c 0.86,0 1.3975,0.1075 1.935,1.1825 0.86,1.3975 1.3975,4.3 1.3975,35.26 0,10.4275 -0.1075,21.715 -0.43,34.185 -7.955,-23.22 -15.91,-49.235 -22.8975,-75.465 l -16.34,0 0,4.8375 2.0425,0 c 1.505,0 1.935,0.43 2.365,1.505 0.7525,1.935 1.075,6.235 1.075,39.6675 0,42.57 -0.215,44.29 -1.72,46.5475 -0.86,1.3975 -1.505,1.505 -2.6875,1.505 l -1.075,0 0,4.945 15.91,0 0,-4.945 -1.075,0 c -1.8275,0 -2.6875,-0.3225 -3.3325,-1.72 -1.075,-2.2575 -1.29,-3.5475 -1.29,-28.2725 0,-32.68 0.1075,-43.5375 0.215,-46.3325 6.5575,16.8775 19.8875,65.79 23.65,81.27 l 11.18,0 c -0.5375,-6.88 -0.86,-17.3075 -0.86,-56.0075 0,-33.325 0.215,-35.26 1.3975,-36.98 0.5375,-0.7525 1.6125,-1.1825 3.3325,-1.1825 l 0.9675,0 0,-4.8375 z" />
    </g>
  </g>
</svg>
