<?xml version="1.0" encoding="UTF-8" standalone="no"?>
<!-- Created with Inkscape (http://www.inkscape.org/) -->

<svg
   xmlns:dc="http://purl.org/dc/elements/1.1/"
   xmlns:cc="http://creativecommons.org/ns#"
   xmlns:rdf="http://www.w3.org/1999/02/22-rdf-syntax-ns#"
   xmlns:svg="http://www.w3.org/2000/svg"
   xmlns="http://www.w3.org/2000/svg"
   xmlns:sodipodi="http://sodipodi.sourceforge.net/DTD/sodipodi-0.dtd"
   xmlns:inkscape="http://www.inkscape.org/namespaces/inkscape"
   sodipodi:docname="tower-6-shot.svg"
   inkscape:version="0.48.4 r9939"
   version="1.1"
   id="svg14558"
   height="128"
   width="128"
   inkscape:export-filename="/home/michal/Obrazy/Projekty/Ubuntu Tower Deffence/towers/tower-6/tower-6-lv2.png"
   inkscape:export-xdpi="90"
   inkscape:export-ydpi="90">
  <sodipodi:namedview
     id="base"
     pagecolor="#ffffff"
     bordercolor="#666666"
     borderopacity="1.0"
     inkscape:pageopacity="0.0"
     inkscape:pageshadow="2"
     inkscape:zoom="1"
     inkscape:cx="90.877085"
     inkscape:cy="-84.64876"
     inkscape:document-units="px"
     inkscape:current-layer="layer1"
     showgrid="false"
     fit-margin-top="0"
     fit-margin-left="0"
     fit-margin-right="0"
     fit-margin-bottom="0"
     inkscape:window-width="1855"
     inkscape:window-height="1176"
     inkscape:window-x="65"
     inkscape:window-y="24"
     inkscape:window-maximized="1"
     showguides="true"
     inkscape:guide-bbox="true"
     inkscape:snap-bbox="true"
     inkscape:bbox-paths="false"
     inkscape:snap-global="true"
     inkscape:bbox-nodes="true" />
  <defs
     id="defs14560">
    <filter
       inkscape:collect="always"
       id="filter4072"
       x="-0.14069723"
       width="1.2813944"
       y="-0.1643092"
       height="1.3286184"
       color-interpolation-filters="sRGB">
      <feGaussianBlur
         inkscape:collect="always"
         stdDeviation="7.7175399"
         id="feGaussianBlur4074" />
    </filter>
  </defs>
  <metadata
     id="metadata14563">
    <rdf:RDF>
      <cc:Work
         rdf:about="">
        <dc:format>image/svg+xml</dc:format>
        <dc:type
           rdf:resource="http://purl.org/dc/dcmitype/StillImage" />
        <dc:title />
      </cc:Work>
    </rdf:RDF>
  </metadata>
  <g
     inkscape:groupmode="layer"
     id="layer8"
     inkscape:label="back"
     transform="translate(1388.8572,-33.21936)"
     style="display:none">
    <rect
       style="opacity:0.8;color:#000000;fill:#333333;fill-opacity:1;fill-rule:nonzero;stroke:none;stroke-width:1;marker:none;visibility:visible;display:inline;overflow:visible;enable-background:accumulate"
       id="rect4082"
       width="128"
       height="128"
       x="-1388.8572"
       y="33.21936"
       inkscape:export-filename="/home/michal/Obrazy/Projekty/Ubuntu Tower Deffence/towers/tower-6/tower-6-shot.png"
       inkscape:export-xdpi="90"
       inkscape:export-ydpi="90" />
  </g>
  <g
     inkscape:label="Layer 1"
     inkscape:groupmode="layer"
     id="layer1"
     transform="translate(1388.8572,-33.21936)"
     style="display:inline">
    <g
       id="g4078"
       inkscape:export-filename="/home/michal/Obrazy/Projekty/Ubuntu Tower Deffence/towers/tower-6/tower-6-shot.png"
       inkscape:export-xdpi="90"
       inkscape:export-ydpi="90"
       transform="matrix(0,0.47318519,-0.47318519,0,-1348.4123,624.2801)">
      <path
         style="font-size:medium;font-style:normal;font-variant:normal;font-weight:normal;font-stretch:normal;text-indent:0;text-align:start;text-decoration:none;line-height:normal;letter-spacing:normal;word-spacing:normal;text-transform:none;direction:ltr;block-progression:tb;writing-mode:lr-tb;text-anchor:start;baseline-shift:baseline;opacity:0.8;color:#000000;fill:#da0000;fill-opacity:1;stroke:none;stroke-width:2;marker:none;visibility:visible;display:inline;overflow:visible;filter:url(#filter4072);enable-background:accumulate;font-family:Sans;-inkscape-font-specification:Sans"
         d="m -1114.6666,258.12312 c -3.6388,-2.8891 1.3292,1.58193 -2.6377,-0.73054 -6.8652,-0.79326 -10.5324,-0.39893 -16.324,3.64471 -4.0912,4.96055 -8.2895,-6.28541 -11.5841,-0.35225 -2.0148,3.96853 -9.0073,15.27861 -10.667,17.00501 -2.021,5.97904 -9.5084,14.73528 -11.9132,17.66184 -6.1205,10.82095 -6.9255,16.18993 -6.8232,23.39268 -1.7811,8.05461 5.7275,26.50588 8.0526,31.79573 2.442,8.86713 12.5931,4.2191 14.5707,9.43005 1.1118,2.85403 1.1751,9.43706 8.0627,12.67159 3.9579,-1.531 6.731,0.43697 12.479,4.22049 1.8029,2.4893 8.1155,4.12837 14.5433,1.7367 3.0222,2.30887 8.4472,-6.60221 10.8341,-5.8927 7.1644,-3.27166 10.1844,-8.11453 13.0772,-8.27336 6.4233,-7.00229 9.3528,-16.13778 13.1096,-18.55632 4.2603,-12.12125 7.9828,-16.08622 7.432,-23.30175 1.0827,-6.69062 -2.3873,-26.47175 -9.3756,-31.58438 -2.3187,-8.12642 -6.0862,-8.62754 -8.6914,-9.88927 -2.2622,-5.34439 -10.056,-4.9147 -13.4603,-3.00593 -6.446,-2.82812 -14.6472,-1.74945 -16.6888,-0.30564 -7.6373,-0.7023 -8.7041,-1.37609 -15.7406,1.79605 -5.7521,-0.4934 -6.4581,13.15664 -11.9091,15.71393 -3.8527,5.87985 -3.3839,13.77684 -4.9724,25.55552 -1.4679,7.65603 -2.1648,16.31311 6.1971,22.16083 1.5421,2.72909 7.4466,10.05942 14.0294,15.03093 3.0564,-1.27471 8.5952,4.71223 15.887,2.48414 5.2302,2.73828 4.8888,-8.45431 9.0844,-7.05507 6.6712,-0.81581 12.4419,-12.74517 14.54,-13.61302 2.0776,-6.9887 10.6566,-9.07425 7.199,-17.80037 2.1361,-1.99523 1.8987,-3.87902 0.5372,-0.89721 -3.2884,-6.7934 -1.4355,-18.72513 -8.1317,-21.64043 -0.5054,-3.60074 -7.2743,-3.8724 -11.5447,-8.87721 -2.8793,2.09471 -11.0732,-6.27692 -14.0277,-2.57016 -4.0136,-2.58764 -9.7267,7.79311 -15.4538,8.87163 -3.667,6.36512 -2.2956,14.94436 -3.7797,23.6355 -1.7227,7.32901 1.3566,11.83606 5.6923,18.4281 2.4665,-0.53584 11.3081,8.78967 14.1377,5.75961 0.2267,-3.48667 -2.3495,1.37779 0.039,-0.005 3.2688,-4.01179 7.8915,-11.34307 12.132,-11.03038 3.7445,-7.56096 10.5929,-2.8368 7.3743,-11.64275 -1.0822,-8.91451 -2.1837,-16.74366 -9.0262,-18.81506 -0.2656,-2.21222 -7.4148,4.40902 -12.9462,2.84687 -9.2446,2.8646 -5.4024,4.11123 -6.1569,13.89726 -1.4907,2.86767 8.3598,-3.28045 7.2984,-0.0853 0.1103,-6.64587 -4.16,-11.5036 0.1976,-8.99478 6.6194,-2.84664 11.7936,1.09953 10.0132,7.09416 2.3768,9.4844 -5.6855,10.81354 -9.3271,12.9502 -3.5386,-2.98764 -4.5803,-4.07339 -7.5414,-2.30328 -1.2565,-1.67745 -6.6552,-3.39322 -9.7843,-9.07734 -1.383,-9.84644 3.9687,-18.20435 7.5948,-18.81184 3.4675,-5.71245 8.7271,-3.19758 9.7932,-4.5946 3.6618,-3.85393 14.9055,6.00089 16.0119,7.9566 2.9658,4.12361 5.9654,7.97033 8.2235,12.54157 1.5742,5.69363 -2.5508,27.74936 -8.4906,29.70646 -6.3812,3.19115 -12.3163,-2.31029 -16.8765,1.67575 -6.5299,1.03951 -4.2273,7.51351 -9.0449,3.0932 -2.3367,-4.07854 -11.4654,-7.97378 -12.6294,-13.7725 -5.8045,-2.02145 -5.7471,-2.93968 -5.4194,-13.61707 -3.2301,-7.79526 -1.6936,-25.85933 3.3605,-29.01557 5.088,-6.36692 13.8502,-8.81339 16.019,-9.60007 4.744,-5.20398 2.685,-3.18814 8.9599,-5.78408 3.0616,-2.67471 12.7108,7.12985 14.6653,8.87414 2.742,2.02171 10.5358,4.01981 12.0644,7.1242 3.391,7.58021 11.3714,11.68822 14.7008,21.62681 0.084,7.91416 -4.9013,28.24029 -8.4989,35.58551 -4.9317,2.08922 -7.6509,2.74001 -13.6312,9.24848 -2.7356,0.14714 -12.6699,-1.20219 -19.1135,2.4518 -2.1397,-0.44965 -5.0273,5.41396 -11.8573,5.22549 -5.8812,-4.42525 -13.6566,-10.22058 -16.1628,-10.26661 -2.314,-2.90044 -7.0114,-7.50179 -9.0543,-15.5584 -2.6011,-8.7776 -12.9071,-9.21192 -11.0374,-19.49556 -2.5462,-13.59613 2.338,-22.41842 9.8389,-31.4286 3.008,-9.47548 4.1374,-17.85443 11.6923,-21.03717 6.6403,-4.29331 7.8986,2.90271 11.4067,-2.02183 2.0505,-0.35737 6.5517,-1.40837 13.0246,-4.53618 6.9944,0.42581 12.5615,-0.16803 14.4556,2.22716 2.1633,-0.59336 9.451,3.83539 11.7362,3.39334 6.0382,5.20381 7.3406,-2.01722 12.6546,4.40261 3.5986,7.52823 7.0245,7.57459 12.6887,14.16689 5.5602,11.1084 9.9213,23.32858 11.4334,29.70458 -1.8738,5.70548 -4.2189,3.95937 -1.988,7.9428 -1.1787,3.11966 10.4846,1.85347 9.0062,4.73255 0.3023,-0.52315 -3.0011,-12.50917 -4.8201,-13.75784 1.9808,2.26723 4.7724,-0.98393 4.7367,2.51574 -1.0192,-13.65845 -6.5852,-21.25408 -11.1786,-33.29822 -5.7334,-6.96737 -7.6745,-2.06448 -12.0282,-10.3793 -1.733,-5.93951 -3.1195,-6.55382 -10.2499,-10.64747 -6.1037,-0.12611 -12.9486,-2.92552 -17.4522,-7.79657 -1.8446,-2.22539 -3.8002,-7.89482 -8.6475,-4.57453 1.7763,2.55577 -6.4256,2.51272 -4.669,-0.0677"
         id="path3278"
         inkscape:connector-curvature="0"
         transform="matrix(1.3550718,0.58768508,-0.7606813,1.0468977,626.12581,276.94636)" />
      <path
         transform="matrix(-1.3550718,-0.58768508,0.7606813,-1.0468977,-2853.8402,-376.50639)"
         inkscape:connector-curvature="0"
         id="path4076"
         d="m -1114.6666,258.12312 c -3.6388,-2.8891 1.3292,1.58193 -2.6377,-0.73054 -6.8652,-0.79326 -10.5324,-0.39893 -16.324,3.64471 -4.0912,4.96055 -8.2895,-6.28541 -11.5841,-0.35225 -2.0148,3.96853 -9.0073,15.27861 -10.667,17.00501 -2.021,5.97904 -9.5084,14.73528 -11.9132,17.66184 -6.1205,10.82095 -6.9255,16.18993 -6.8232,23.39268 -1.7811,8.05461 5.7275,26.50588 8.0526,31.79573 2.442,8.86713 12.5931,4.2191 14.5707,9.43005 1.1118,2.85403 1.1751,9.43706 8.0627,12.67159 3.9579,-1.531 6.731,0.43697 12.479,4.22049 1.8029,2.4893 8.1155,4.12837 14.5433,1.7367 3.0222,2.30887 8.4472,-6.60221 10.8341,-5.8927 7.1644,-3.27166 10.1844,-8.11453 13.0772,-8.27336 6.4233,-7.00229 9.3528,-16.13778 13.1096,-18.55632 4.2603,-12.12125 7.9828,-16.08622 7.432,-23.30175 1.0827,-6.69062 -2.3873,-26.47175 -9.3756,-31.58438 -2.3187,-8.12642 -6.0862,-8.62754 -8.6914,-9.88927 -2.2622,-5.34439 -10.056,-4.9147 -13.4603,-3.00593 -6.446,-2.82812 -14.6472,-1.74945 -16.6888,-0.30564 -7.6373,-0.7023 -8.7041,-1.37609 -15.7406,1.79605 -5.7521,-0.4934 -6.4581,13.15664 -11.9091,15.71393 -3.8527,5.87985 -3.3839,13.77684 -4.9724,25.55552 -1.4679,7.65603 -2.1648,16.31311 6.1971,22.16083 1.5421,2.72909 7.4466,10.05942 14.0294,15.03093 3.0564,-1.27471 8.5952,4.71223 15.887,2.48414 5.2302,2.73828 4.8888,-8.45431 9.0844,-7.05507 6.6712,-0.81581 12.4419,-12.74517 14.54,-13.61302 2.0776,-6.9887 10.6566,-9.07425 7.199,-17.80037 2.1361,-1.99523 1.8987,-3.87902 0.5372,-0.89721 -3.2884,-6.7934 -1.4355,-18.72513 -8.1317,-21.64043 -0.5054,-3.60074 -7.2743,-3.8724 -11.5447,-8.87721 -2.8793,2.09471 -11.0732,-6.27692 -14.0277,-2.57016 -4.0136,-2.58764 -9.7267,7.79311 -15.4538,8.87163 -3.667,6.36512 -2.2956,14.94436 -3.7797,23.6355 -1.7227,7.32901 1.3566,11.83606 5.6923,18.4281 2.4665,-0.53584 11.3081,8.78967 14.1377,5.75961 0.2267,-3.48667 -2.3495,1.37779 0.039,-0.005 3.2688,-4.01179 7.8915,-11.34307 12.132,-11.03038 3.7445,-7.56096 10.5929,-2.8368 7.3743,-11.64275 -1.0822,-8.91451 -2.1837,-16.74366 -9.0262,-18.81506 -0.2656,-2.21222 -7.4148,4.40902 -12.9462,2.84687 -9.2446,2.8646 -5.4024,4.11123 -6.1569,13.89726 -1.4907,2.86767 8.3598,-3.28045 7.2984,-0.0853 0.1103,-6.64587 -4.16,-11.5036 0.1976,-8.99478 6.6194,-2.84664 11.7936,1.09953 10.0132,7.09416 2.3768,9.4844 -5.6855,10.81354 -9.3271,12.9502 -3.5386,-2.98764 -4.5803,-4.07339 -7.5414,-2.30328 -1.2565,-1.67745 -6.6552,-3.39322 -9.7843,-9.07734 -1.383,-9.84644 3.9687,-18.20435 7.5948,-18.81184 3.4675,-5.71245 8.7271,-3.19758 9.7932,-4.5946 3.6618,-3.85393 14.9055,6.00089 16.0119,7.9566 2.9658,4.12361 5.9654,7.97033 8.2235,12.54157 1.5742,5.69363 -2.5508,27.74936 -8.4906,29.70646 -6.3812,3.19115 -12.3163,-2.31029 -16.8765,1.67575 -6.5299,1.03951 -4.2273,7.51351 -9.0449,3.0932 -2.3367,-4.07854 -11.4654,-7.97378 -12.6294,-13.7725 -5.8045,-2.02145 -5.7471,-2.93968 -5.4194,-13.61707 -3.2301,-7.79526 -1.6936,-25.85933 3.3605,-29.01557 5.088,-6.36692 13.8502,-8.81339 16.019,-9.60007 4.744,-5.20398 2.685,-3.18814 8.9599,-5.78408 3.0616,-2.67471 12.7108,7.12985 14.6653,8.87414 2.742,2.02171 10.5358,4.01981 12.0644,7.1242 3.391,7.58021 11.3714,11.68822 14.7008,21.62681 0.084,7.91416 -4.9013,28.24029 -8.4989,35.58551 -4.9317,2.08922 -7.6509,2.74001 -13.6312,9.24848 -2.7356,0.14714 -12.6699,-1.20219 -19.1135,2.4518 -2.1397,-0.44965 -5.0273,5.41396 -11.8573,5.22549 -5.8812,-4.42525 -13.6566,-10.22058 -16.1628,-10.26661 -2.314,-2.90044 -7.0114,-7.50179 -9.0543,-15.5584 -2.6011,-8.7776 -12.9071,-9.21192 -11.0374,-19.49556 -2.5462,-13.59613 2.338,-22.41842 9.8389,-31.4286 3.008,-9.47548 4.1374,-17.85443 11.6923,-21.03717 6.6403,-4.29331 7.8986,2.90271 11.4067,-2.02183 2.0505,-0.35737 6.5517,-1.40837 13.0246,-4.53618 6.9944,0.42581 12.5615,-0.16803 14.4556,2.22716 2.1633,-0.59336 9.451,3.83539 11.7362,3.39334 6.0382,5.20381 7.3406,-2.01722 12.6546,4.40261 3.5986,7.52823 7.0245,7.57459 12.6887,14.16689 5.5602,11.1084 9.9213,23.32858 11.4334,29.70458 -1.8738,5.70548 -4.2189,3.95937 -1.988,7.9428 -1.1787,3.11966 10.4846,1.85347 9.0062,4.73255 0.3023,-0.52315 -3.0011,-12.50917 -4.8201,-13.75784 1.9808,2.26723 4.7724,-0.98393 4.7367,2.51574 -1.0192,-13.65845 -6.5852,-21.25408 -11.1786,-33.29822 -5.7334,-6.96737 -7.6745,-2.06448 -12.0282,-10.3793 -1.733,-5.93951 -3.1195,-6.55382 -10.2499,-10.64747 -6.1037,-0.12611 -12.9486,-2.92552 -17.4522,-7.79657 -1.8446,-2.22539 -3.8002,-7.89482 -8.6475,-4.57453 1.7763,2.55577 -6.4256,2.51272 -4.669,-0.0677"
         style="font-size:medium;font-style:normal;font-variant:normal;font-weight:normal;font-stretch:normal;text-indent:0;text-align:start;text-decoration:none;line-height:normal;letter-spacing:normal;word-spacing:normal;text-transform:none;direction:ltr;block-progression:tb;writing-mode:lr-tb;text-anchor:start;baseline-shift:baseline;opacity:0.8;color:#000000;fill:#da0000;fill-opacity:1;stroke:none;stroke-width:2;marker:none;visibility:visible;display:inline;overflow:visible;filter:url(#filter4072);enable-background:accumulate;font-family:Sans;-inkscape-font-specification:Sans" />
    </g>
  </g>
</svg>
