<?xml version="1.0" encoding="UTF-8" standalone="no"?>
<!-- Created with Inkscape (http://www.inkscape.org/) -->

<svg
   xmlns:dc="http://purl.org/dc/elements/1.1/"
   xmlns:cc="http://creativecommons.org/ns#"
   xmlns:rdf="http://www.w3.org/1999/02/22-rdf-syntax-ns#"
   xmlns:svg="http://www.w3.org/2000/svg"
   xmlns="http://www.w3.org/2000/svg"
   xmlns:sodipodi="http://sodipodi.sourceforge.net/DTD/sodipodi-0.dtd"
   xmlns:inkscape="http://www.inkscape.org/namespaces/inkscape"
   width="128"
   height="128"
   id="svg8963"
   version="1.1"
   inkscape:version="0.48.4 r9939"
   sodipodi:docname="tower-5-shot.svg"
   inkscape:export-filename="/home/michal/Obrazy/Projekty/Ubuntu Tower Deffence/towers/tower-5/tower-5-lv1.png"
   inkscape:export-xdpi="90"
   inkscape:export-ydpi="90">
  <defs
     id="defs8965" />
  <sodipodi:namedview
     id="base"
     pagecolor="#ffffff"
     bordercolor="#666666"
     borderopacity="1.0"
     inkscape:pageopacity="0.0"
     inkscape:pageshadow="2"
     inkscape:zoom="1"
     inkscape:cx="-77.521931"
     inkscape:cy="-26.75979"
     inkscape:document-units="px"
     inkscape:current-layer="layer1"
     showgrid="false"
     fit-margin-top="0"
     fit-margin-left="0"
     fit-margin-right="0"
     fit-margin-bottom="0"
     inkscape:window-width="1855"
     inkscape:window-height="1176"
     inkscape:window-x="65"
     inkscape:window-y="24"
     inkscape:window-maximized="1"
     inkscape:snap-bbox="true"
     inkscape:bbox-nodes="true" />
  <metadata
     id="metadata8968">
    <rdf:RDF>
      <cc:Work
         rdf:about="">
        <dc:format>image/svg+xml</dc:format>
        <dc:type
           rdf:resource="http://purl.org/dc/dcmitype/StillImage" />
        <dc:title />
      </cc:Work>
    </rdf:RDF>
  </metadata>
  <g
     inkscape:groupmode="layer"
     id="layer2"
     inkscape:label="back"
     transform="translate(545.71429,248.78069)"
     style="display:none">
    <rect
       style="color:#000000;fill:#aea79f;fill-opacity:1;fill-rule:nonzero;stroke:none;stroke-width:1;marker:none;visibility:visible;display:inline;overflow:visible;enable-background:accumulate"
       id="rect4633"
       width="128"
       height="128"
       x="-545.71429"
       y="-248.78069"
       inkscape:export-filename="/home/michal/Obrazy/Projekty/Ubuntu Tower Deffence/towers/tower-5/tower-5-shot.png"
       inkscape:export-xdpi="90"
       inkscape:export-ydpi="90" />
  </g>
  <g
     inkscape:label="Layer 1"
     inkscape:groupmode="layer"
     id="layer1"
     transform="translate(545.71429,248.78069)"
     style="display:inline">
    <g
       id="g5430"
       transform="translate(145.15506,-217.14286)">
      <path
         inkscape:connector-curvature="0"
         id="path5406"
         d="m -652.15625,3.90625 a 2.0002,2.0002 0 0 0 -1.09375,3.6875 c 0,0 11.09375,7.163894 11.09375,23.875 0,16.711106 -11.09375,23.875 -11.09375,23.875 a 2.0064593,2.0064593 0 1 0 2.21875,3.34375 c 0,0 12.875,-8.691444 12.875,-27.21875 0,-18.527306 -12.875,-27.21875 -12.875,-27.21875 a 2.0002,2.0002 0 0 0 -1.125,-0.34375 z"
         style="font-size:medium;font-style:normal;font-variant:normal;font-weight:normal;font-stretch:normal;text-indent:0;text-align:start;text-decoration:none;line-height:normal;letter-spacing:normal;word-spacing:normal;text-transform:none;direction:ltr;block-progression:tb;writing-mode:lr-tb;text-anchor:start;baseline-shift:baseline;color:#000000;fill:#333333;fill-opacity:1;stroke:#eeeeee;stroke-width:1;stroke-miterlimit:4;stroke-dasharray:none;marker:none;visibility:visible;display:inline;overflow:visible;enable-background:accumulate;font-family:Sans;-inkscape-font-specification:Sans" />
      <path
         inkscape:connector-curvature="0"
         id="path5408"
         d="m -643.1875,-10 a 2.0002,2.0002 0 0 0 -0.6875,3.71875 c 0,0 19.9375,11.5451111 19.9375,37.75 0,26.204889 -19.9375,37.75 -19.9375,37.75 a 2.0002,2.0002 0 1 0 2.03125,3.4375 c 0,0 21.90625,-12.933027 21.90625,-41.1875 0,-28.2544729 -21.90625,-41.1875 -21.90625,-41.1875 A 2.0002,2.0002 0 0 0 -643.1875,-10 z"
         style="font-size:medium;font-style:normal;font-variant:normal;font-weight:normal;font-stretch:normal;text-indent:0;text-align:start;text-decoration:none;line-height:normal;letter-spacing:normal;word-spacing:normal;text-transform:none;direction:ltr;block-progression:tb;writing-mode:lr-tb;text-anchor:start;baseline-shift:baseline;color:#000000;fill:#333333;fill-opacity:1;stroke:#eeeeee;stroke-width:1;stroke-miterlimit:4;stroke-dasharray:none;marker:none;visibility:visible;display:inline;overflow:visible;enable-background:accumulate;font-family:Sans;-inkscape-font-specification:Sans" />
      <path
         inkscape:connector-curvature="0"
         id="path5410"
         d="m -631.59375,-25.375 a 2.0002,2.0002 0 0 0 -0.8125,3.75 c 0,0 28.84375,16.3203454 28.84375,53.09375 0,36.773406 -28.84375,53.09375 -28.84375,53.09375 a 2.0002,2.0002 0 1 0 1.96875,3.46875 c 0,0 30.875,-17.68421 30.875,-56.5625 0,-38.8782892 -30.875,-56.5625 -30.875,-56.5625 a 2.0002,2.0002 0 0 0 -1.15625,-0.28125 z"
         style="font-size:medium;font-style:normal;font-variant:normal;font-weight:normal;font-stretch:normal;text-indent:0;text-align:start;text-decoration:none;line-height:normal;letter-spacing:normal;word-spacing:normal;text-transform:none;direction:ltr;block-progression:tb;writing-mode:lr-tb;text-anchor:start;baseline-shift:baseline;color:#000000;fill:#333333;fill-opacity:1;stroke:#eeeeee;stroke-width:1;stroke-miterlimit:4;stroke-dasharray:none;marker:none;visibility:visible;display:inline;overflow:visible;enable-background:accumulate;font-family:Sans;-inkscape-font-specification:Sans" />
    </g>
  </g>
</svg>
