<?xml version="1.0" encoding="UTF-8" standalone="no"?>
<svg
   xmlns:dc="http://purl.org/dc/elements/1.1/"
   xmlns:cc="http://creativecommons.org/ns#"
   xmlns:rdf="http://www.w3.org/1999/02/22-rdf-syntax-ns#"
   xmlns:svg="http://www.w3.org/2000/svg"
   xmlns="http://www.w3.org/2000/svg"
   version="1.1"
   id="svg5147"
   viewBox="0 0 256 256"
   height="256"
   width="256">
  <defs
     id="defs5149" />
  <metadata
     id="metadata5152">
    <rdf:RDF>
      <cc:Work
         rdf:about="">
        <dc:format>image/svg+xml</dc:format>
        <dc:type
           rdf:resource="http://purl.org/dc/dcmitype/StillImage" />
        <dc:title></dc:title>
      </cc:Work>
    </rdf:RDF>
  </metadata>
  <g
     style="display:none"
     id="layer4">
    <path
       id="circle5770"
       d="M 128,20 A 108,108 0 0 0 20,128 108,108 0 0 0 128,236 108,108 0 0 0 236,128 108,108 0 0 0 128,20 Z m 0,30 a 78,78 0 0 1 78,78 78,78 0 0 1 -78,78 78,78 0 0 1 -78,-78 78,78 0 0 1 78,-78 z"
       style="color:#000000;display:inline;overflow:visible;visibility:visible;opacity:1;fill:#2babb5;fill-opacity:1;fill-rule:nonzero;stroke:#2babb5;stroke-width:4;stroke-linecap:round;stroke-miterlimit:4;stroke-dasharray:none;stroke-opacity:1;marker:none;enable-background:accumulate" />
  </g>
  <g
     style="display:none"
     id="layer3">
    <circle
       r="108"
       cy="924.36218"
       cx="128"
       id="path3336"
       style="color:#000000;display:inline;overflow:visible;visibility:visible;opacity:1;fill:none;fill-opacity:1;fill-rule:nonzero;stroke:#2babb5;stroke-width:4;stroke-linecap:round;stroke-miterlimit:4;stroke-dasharray:none;stroke-opacity:1;marker:none;enable-background:accumulate"
       transform="translate(0,-796.36216)" />
  </g>
  <g
     style="display:inline"
     id="layer2">
    <circle
       r="78"
       cy="924.36218"
       cx="128"
       id="path3336-9"
       style="color:#000000;display:inline;overflow:visible;visibility:visible;opacity:1;fill:none;fill-opacity:1;fill-rule:nonzero;stroke:#2babb5;stroke-width:4;stroke-linecap:round;stroke-miterlimit:4;stroke-dasharray:none;stroke-opacity:1;marker:none;enable-background:accumulate"
       transform="translate(0,-796.36216)" />
  </g>
  <g
     style="display:inline"
     transform="translate(0,-796.36216)"
     id="layer1">
    <path
       d="m 220.78594,1022.9382 c 4.92156,0 8.39561,-0.579 8.39561,-2.895 0,-2.6056 -2.89504,-5.5006 -9.55363,-6.6586 -11.58015,-2.0265 -21.13377,-5.7901 -29.23987,-28.95042 -9.55363,-27.50285 -33.00343,-95.82573 -51.53167,-154.59498 -0.86851,-2.60554 -1.44751,-4.05306 -2.89503,-4.05306 -1.44752,0 -2.02653,4.63206 -6.07958,7.2376 -3.47405,2.31603 -6.94809,3.18454 -10.42213,4.34255 -0.57901,0.28951 -0.28951,4.92157 -1.15802,8.10611 -0.86851,3.47404 -2.02653,6.07957 -2.89504,8.68511 -19.396746,53.55819 -32.424414,86.56161 -54.137193,136.06675 -6.369082,14.47514 -15.054194,19.39674 -24.89732,22.29184 -6.369082,2.0265 -9.553623,4.053 -9.553623,6.6586 0,2.316 3.474045,3.7635 8.395608,3.7635 9.553623,0 22.002283,-1.737 34.740447,-1.737 10.711637,0 21.133771,0.579 26.344839,0.579 4.921562,0 8.395612,-0.8685 8.395612,-3.1846 0,-2.6055 -2.89504,-4.053 -9.553627,-5.79 -10.711638,-2.6056 -19.39675,-10.1327 -16.212209,-20.84432 l 11.001142,-35.89846 c 1.158014,-4.05305 2.026526,-5.21107 4.921563,-5.21107 l 55.295211,0 c 5.79007,0 7.23759,0.28951 8.1061,3.18454 3.18455,12.15916 6.36909,27.21335 8.39561,37.05648 2.31603,11.86963 2.02653,17.37023 -13.60667,21.42333 -5.21107,1.4475 -9.55363,3.1845 -9.55363,5.79 0,2.3161 3.47405,3.1846 8.39561,3.1846 6.94809,0 17.37023,-0.2895 28.66087,-0.2895 13.02767,0 32.13491,1.737 40.24102,1.737 z M 123.80219,864.57964 c 1.15802,-3.18454 1.73702,-4.92156 2.31603,-4.92156 0.86851,0 1.44752,1.73702 2.60553,5.21107 l 22.8708,69.19139 c 1.15801,4.05305 0.86851,4.34255 -3.47405,4.34255 l -44.87307,0 c -4.921566,0 -6.948092,-0.2895 -5.500574,-4.34255 l 26.055334,-69.4809 z"
       style="font-style:normal;font-variant:normal;font-weight:normal;font-stretch:normal;font-size:medium;line-height:125%;font-family:'EB Garamond';-inkscape-font-specification:'EB Garamond, Normal';text-align:start;letter-spacing:0px;word-spacing:0px;writing-mode:lr-tb;text-anchor:start;fill:#e6593c;fill-opacity:1;stroke:none;stroke-width:1px;stroke-linecap:butt;stroke-linejoin:miter;stroke-opacity:1"
       id="path5720" />
  </g>
</svg>
