<?xml version="1.0" encoding="UTF-8" standalone="no"?>
<svg
   xmlns:dc="http://purl.org/dc/elements/1.1/"
   xmlns:cc="http://creativecommons.org/ns#"
   xmlns:rdf="http://www.w3.org/1999/02/22-rdf-syntax-ns#"
   xmlns:svg="http://www.w3.org/2000/svg"
   xmlns="http://www.w3.org/2000/svg"
   version="1.1"
   id="svg5147"
   viewBox="0 0 256 256"
   height="256"
   width="256">
  <defs
     id="defs5149" />
  <metadata
     id="metadata5152">
    <rdf:RDF>
      <cc:Work
         rdf:about="">
        <dc:format>image/svg+xml</dc:format>
        <dc:type
           rdf:resource="http://purl.org/dc/dcmitype/StillImage" />
        <dc:title></dc:title>
      </cc:Work>
    </rdf:RDF>
  </metadata>
  <g
     style="display:none"
     id="layer4">
    <path
       id="circle5770"
       d="M 128,20 A 108,108 0 0 0 20,128 108,108 0 0 0 128,236 108,108 0 0 0 236,128 108,108 0 0 0 128,20 Z m 0,30 a 78,78 0 0 1 78,78 78,78 0 0 1 -78,78 78,78 0 0 1 -78,-78 78,78 0 0 1 78,-78 z"
       style="color:#000000;display:inline;overflow:visible;visibility:visible;opacity:1;fill:#2babb5;fill-opacity:1;fill-rule:nonzero;stroke:#2babb5;stroke-width:4;stroke-linecap:round;stroke-miterlimit:4;stroke-dasharray:none;stroke-opacity:1;marker:none;enable-background:accumulate" />
  </g>
  <g
     style="display:none"
     id="layer3">
    <circle
       r="108"
       cy="924.36218"
       cx="128"
       id="path3336"
       style="color:#000000;display:inline;overflow:visible;visibility:visible;opacity:1;fill:none;fill-opacity:1;fill-rule:nonzero;stroke:#2babb5;stroke-width:4;stroke-linecap:round;stroke-miterlimit:4;stroke-dasharray:none;stroke-opacity:1;marker:none;enable-background:accumulate"
       transform="translate(0,-796.36216)" />
  </g>
  <g
     style="display:inline"
     id="layer2">
    <circle
       r="78"
       cy="924.36218"
       cx="128"
       id="path3336-9"
       style="color:#000000;display:inline;overflow:visible;visibility:visible;opacity:1;fill:none;fill-opacity:1;fill-rule:nonzero;stroke:#2babb5;stroke-width:4;stroke-linecap:round;stroke-miterlimit:4;stroke-dasharray:none;stroke-opacity:1;marker:none;enable-background:accumulate"
       transform="translate(0,-796.36216)" />
  </g>
  <g
     style="display:inline"
     transform="translate(0,-796.36216)"
     id="layer1">
    <g
       transform="translate(3.5e-6,-2.5e-5)"
       id="text4353"
       style="font-style:normal;font-variant:normal;font-weight:normal;font-stretch:normal;font-size:279.46948242px;line-height:125%;font-family:'Theano Didot';-inkscape-font-specification:'Theano Didot, Normal';text-align:start;letter-spacing:0px;word-spacing:0px;writing-mode:lr-tb;text-anchor:start;fill:#e6593c;fill-opacity:1;stroke:none;stroke-width:1px;stroke-linecap:butt;stroke-linejoin:miter;stroke-opacity:1">
      <path
         id="path6182"
         d="m 87.607923,1022.2038 0,-7.0959 26.200267,0 0,-181.49142 -26.200267,0 0,-7.09591 80.784147,0 0,7.09591 -26.20026,0 0,181.49142 26.20026,0 0,7.0959 -80.784147,0 z" />
    </g>
  </g>
</svg>
