<?xml version="1.0" encoding="UTF-8" standalone="no"?>
<svg
   xmlns:dc="http://purl.org/dc/elements/1.1/"
   xmlns:cc="http://creativecommons.org/ns#"
   xmlns:rdf="http://www.w3.org/1999/02/22-rdf-syntax-ns#"
   xmlns:svg="http://www.w3.org/2000/svg"
   xmlns="http://www.w3.org/2000/svg"
   version="1.1"
   id="svg5147"
   viewBox="0 0 256 256"
   height="256"
   width="256">
  <defs
     id="defs5149" />
  <metadata
     id="metadata5152">
    <rdf:RDF>
      <cc:Work
         rdf:about="">
        <dc:format>image/svg+xml</dc:format>
        <dc:type
           rdf:resource="http://purl.org/dc/dcmitype/StillImage" />
        <dc:title></dc:title>
      </cc:Work>
    </rdf:RDF>
  </metadata>
  <g
     style="display:none"
     id="layer4">
    <path
       id="circle5770"
       d="M 128,20 A 108,108 0 0 0 20,128 108,108 0 0 0 128,236 108,108 0 0 0 236,128 108,108 0 0 0 128,20 Z m 0,30 a 78,78 0 0 1 78,78 78,78 0 0 1 -78,78 78,78 0 0 1 -78,-78 78,78 0 0 1 78,-78 z"
       style="color:#000000;display:inline;overflow:visible;visibility:visible;opacity:1;fill:#2babb5;fill-opacity:1;fill-rule:nonzero;stroke:#2babb5;stroke-width:4;stroke-linecap:round;stroke-miterlimit:4;stroke-dasharray:none;stroke-opacity:1;marker:none;enable-background:accumulate" />
  </g>
  <g
     style="display:none"
     id="layer3">
    <circle
       r="108"
       cy="924.36218"
       cx="128"
       id="path3336"
       style="color:#000000;display:inline;overflow:visible;visibility:visible;opacity:1;fill:none;fill-opacity:1;fill-rule:nonzero;stroke:#2babb5;stroke-width:4;stroke-linecap:round;stroke-miterlimit:4;stroke-dasharray:none;stroke-opacity:1;marker:none;enable-background:accumulate"
       transform="translate(0,-796.36216)" />
  </g>
  <g
     style="display:inline"
     id="layer2">
    <circle
       r="39.816235"
       cy="128"
       cx="128"
       id="path3336-9"
       style="color:#000000;display:inline;overflow:visible;visibility:visible;opacity:1;fill:none;fill-opacity:1;fill-rule:nonzero;stroke:#2babb5;stroke-width:4;stroke-linecap:round;stroke-miterlimit:4;stroke-dasharray:none;stroke-opacity:1;marker:none;enable-background:accumulate" />
  </g>
  <g
     style="display:inline"
     transform="translate(0,-796.36216)"
     id="layer1">
    <path
       d="m 128,1023.3429 q -19.01326,0 -32.993591,-5.8718 -13.980334,-5.8717 -22.927749,-15.9375 -8.947414,-10.34546 -13.421121,-24.32579 -4.1941,-13.98034 -4.1941,-30.19752 l 0,-121.62891 27.121849,0 0,118.55323 q 0,29.0791 12.861908,42.22061 Q 107.3091,999.29673 128,999.29673 q 10.34544,0 18.73365,-3.07566 8.6678,-3.35528 14.81915,-10.06584 6.15135,-6.71056 9.50663,-17.05601 3.35528,-10.62505 3.35528,-25.1646 l 0,-118.55323 27.12185,0 0,121.62891 q 0,16.21718 -4.47371,30.19752 -4.1941,13.98033 -13.42112,24.32578 -8.94742,10.0658 -22.92775,15.9375 -13.70073,5.8718 -32.71398,5.8718 z"
       id="path6335"
       style="font-style:normal;font-variant:normal;font-weight:normal;font-stretch:normal;font-size:medium;line-height:125%;font-family:Ubuntu;-inkscape-font-specification:'Ubuntu, Normal';text-align:start;letter-spacing:0px;word-spacing:0px;writing-mode:lr-tb;text-anchor:start;fill:#e6593c;fill-opacity:1;stroke:none;stroke-width:1px;stroke-linecap:butt;stroke-linejoin:miter;stroke-opacity:1" />
  </g>
</svg>
