<?xml version="1.0" encoding="UTF-8" standalone="no"?>
<!-- Created with Inkscape (http://www.inkscape.org/) -->

<svg
   xmlns:dc="http://purl.org/dc/elements/1.1/"
   xmlns:cc="http://creativecommons.org/ns#"
   xmlns:rdf="http://www.w3.org/1999/02/22-rdf-syntax-ns#"
   xmlns:svg="http://www.w3.org/2000/svg"
   xmlns="http://www.w3.org/2000/svg"
   xmlns:xlink="http://www.w3.org/1999/xlink"
   xmlns:inkscape="http://www.inkscape.org/namespaces/inkscape"
   version="1.1"
   width="4608"
   height="2304"
   id="svg2">
  <defs
     id="defs4">
    <inkscape:path-effect
       effect="bend_path"
       id="path-effect3353" />
    <linearGradient
       id="linearGradient12439">
      <stop
         id="stop12441"
         style="stop-color:#e8e8e8;stop-opacity:1"
         offset="0" />
      <stop
         id="stop12443"
         style="stop-color:#bbbbbb;stop-opacity:1"
         offset="1" />
    </linearGradient>
    <linearGradient
       x1="1103.8696"
       y1="991.56415"
       x2="1152.4639"
       y2="1138.2841"
       id="linearGradient4347"
       xlink:href="#linearGradient12439"
       gradientUnits="userSpaceOnUse"
       gradientTransform="matrix(0.25646683,0,0,0.25646683,198.92735,381.70682)" />
    <linearGradient
       x1="1103.8696"
       y1="991.56415"
       x2="1152.4639"
       y2="1138.2841"
       id="linearGradient3104"
       xlink:href="#linearGradient12439"
       gradientUnits="userSpaceOnUse"
       gradientTransform="matrix(0.36775507,0.18473584,-0.19403184,0.350136,2222.2619,-418.637)" />
    <linearGradient
       x1="1103.8696"
       y1="991.56415"
       x2="1152.4639"
       y2="1138.2841"
       id="linearGradient3113"
       xlink:href="#linearGradient12439"
       gradientUnits="userSpaceOnUse"
       gradientTransform="matrix(0.44525618,0.28684489,-0.29632421,0.42143507,2389.7472,-604.14596)" />
    <linearGradient
       x1="1103.8696"
       y1="991.56415"
       x2="1152.4639"
       y2="1138.2841"
       id="linearGradient4242"
       xlink:href="#linearGradient12439"
       gradientUnits="userSpaceOnUse"
       gradientTransform="matrix(-0.25646683,0,0,0.25646683,900.61176,381.70682)" />
    <linearGradient
       x1="946.32422"
       y1="580.91785"
       x2="953.05475"
       y2="644.56726"
       id="linearGradient4244"
       xlink:href="#linearGradient12439"
       gradientUnits="userSpaceOnUse"
       gradientTransform="matrix(0.51572832,0,0,0.51572832,56.019702,332.06568)" />
  </defs>
  <metadata
     id="metadata7">
    <rdf:RDF>
      <cc:Work
         rdf:about="">
        <dc:format>image/svg+xml</dc:format>
        <dc:type
           rdf:resource="http://purl.org/dc/dcmitype/StillImage" />
        <dc:title></dc:title>
      </cc:Work>
    </rdf:RDF>
  </metadata>
  <g
     transform="translate(0,1804)"
     id="layer2">
    <rect
       width="4608"
       height="2304"
       x="0"
       y="-1804"
       id="rect30518"
       style="color:#000000;fill:#2c3e50;fill-opacity:1;fill-rule:nonzero;stroke:none;stroke-width:1.0687691;marker:none;visibility:visible;display:inline;overflow:visible;enable-background:accumulate" />
  </g>
  <g
     transform="translate(0,1251.6378)"
     id="layer1"
     style="display:inline">
    <use
       transform="matrix(2.599604,0,0,2.5995875,4236.547,-861.47411)"
       id="use4383"
       x="0"
       y="0"
       width="1000"
       height="500"
       xlink:href="#g4340" />
    <use
       transform="matrix(1.4738773,-1.4970487,1.4970582,1.473868,3204.4808,-1696.3811)"
       id="use4379"
       x="0"
       y="0"
       width="1000"
       height="500"
       xlink:href="#g4335" />
    <use
       transform="matrix(2.488602,-0.75152755,0.75153232,2.4885863,4201.5956,-1225.4598)"
       id="use4373"
       x="0"
       y="0"
       width="1000"
       height="500"
       xlink:href="#g4335" />
    <use
       transform="matrix(2.599604,0,0,2.5995875,4148.4622,-654.53787)"
       id="use4371"
       x="0"
       y="0"
       width="1000"
       height="500"
       xlink:href="#g4335" />
    <use
       transform="matrix(2.599604,0,0,2.5995875,4405.8765,-771.29627)"
       id="use4369"
       x="0"
       y="0"
       width="1000"
       height="500"
       xlink:href="#g4340" />
    <path
       d="m 2307.1378,-355.04059 c 0,0 12.8672,-0.45955 10.7992,5.51456 -2.068,5.97409 -21.5988,11.48865 -22.2879,17.23298 -0.6895,5.74434 -2.0681,12.40775 -2.0681,12.40775 l -5.7443,-7.35272 9.1909,-25.73462 z"
       id="path31509"
       style="opacity:0.5;color:#000000;fill:#000000;fill-opacity:1;fill-rule:nonzero;stroke:none;stroke-width:1px;marker:none;visibility:visible;display:inline;overflow:visible;enable-background:accumulate" />
    <use
       transform="matrix(2.1183935,1.5067586,-1.5067682,2.1183801,4307.7748,429.9083)"
       id="use4381"
       x="0"
       y="0"
       width="1000"
       height="500"
       xlink:href="#g4340" />
    <path
       d="m 2289.3772,-311.75574 c 0,0 -11.0483,-12.67299 -15.5976,-9.4235 -4.5493,3.24948 -16.2476,67.26433 -9.0986,76.68784 7.1489,9.4235 28.5956,14.29772 31.8451,6.82391 3.2495,-7.47382 -7.1489,-74.08825 -7.1489,-74.08825 z"
       id="path31501"
       style="opacity:0.5;color:#000000;fill:#000000;fill-opacity:1;fill-rule:nonzero;stroke:none;stroke-width:1px;marker:none;visibility:visible;display:inline;overflow:visible;enable-background:accumulate" />
    <use
       transform="matrix(2.599604,0,0,2.5995875,4422.7329,-831.62274)"
       id="use4367"
       x="0"
       y="0"
       width="1000"
       height="500"
       xlink:href="#g4340" />
    <path
       d="m 2222.8104,-359.63606 c 0,0 5.9739,-7.35275 9.6506,-6.20389 3.6763,1.14889 3.6763,26.42393 3.6763,26.42393 z"
       id="path31517"
       style="opacity:0.5;color:#000000;fill:#000000;fill-opacity:1;fill-rule:nonzero;stroke:none;stroke-width:1px;marker:none;visibility:visible;display:inline;overflow:visible;enable-background:accumulate" />
    <path
       d="m 2158.4734,-332.29305 c 0,0 -15.1651,-11.02911 -12.1781,-14.47569 2.9872,-3.44662 16.5439,-4.13593 16.5439,-4.13593 z"
       id="path31527"
       style="opacity:0.5;color:#000000;fill:#000000;fill-opacity:1;fill-rule:nonzero;stroke:none;stroke-width:1px;marker:none;visibility:visible;display:inline;overflow:visible;enable-background:accumulate" />
    <use
       transform="matrix(0.55440437,2.5397825,-2.5397986,0.55440085,3035.1048,1534.5801)"
       id="use4365"
       x="0"
       y="0"
       width="1000"
       height="500"
       xlink:href="#g4335" />
    <path
       d="m 2289.7022,-252.12769 c 0,0 12.2452,1.41064 13.2416,-1.78722 2.8461,-9.13344 -11.4318,-17.45946 -11.6169,-12.18557 l -14.9477,6.98639 -2.5996,14.46021 12.3481,8.12371 z"
       id="path31559"
       style="opacity:0.5;color:#000000;fill:#000000;fill-opacity:1;fill-rule:nonzero;stroke:none;stroke-width:1px;marker:none;visibility:visible;display:inline;overflow:visible;enable-background:accumulate" />
    <use
       transform="matrix(2.599604,0,0,2.5995875,4217.8044,-695.23378)"
       id="use4363"
       x="0"
       y="0"
       width="1000"
       height="500"
       xlink:href="#g4335" />
    <path
       d="m 2299.2882,-213.13388 c 0,0 0.325,4.54928 -8.9362,7.63628 -9.261,3.08702 -20.7967,9.91094 -20.7967,9.91094 l -13.9729,2.59958 3.7369,-19.49691 c 0,0 35.7445,-11.69814 38.1817,-9.09856 2.4371,2.59959 1.7872,8.44867 1.7872,8.44867 z"
       id="path31535"
       style="opacity:0.5;color:#000000;fill:#000000;fill-opacity:1;fill-rule:nonzero;stroke:none;stroke-width:1px;marker:none;visibility:visible;display:inline;overflow:visible;enable-background:accumulate" />
    <path
       d="m 2250.6077,-272.60685 c 0,0 20.924,-9.52918 23.6411,-5.60423 2.7172,3.92502 -7.1546,33.15358 -7.1546,33.15358 z"
       id="path31551"
       style="opacity:0.5;color:#000000;fill:#000000;fill-opacity:1;fill-rule:nonzero;stroke:none;stroke-width:1px;marker:none;visibility:visible;display:inline;overflow:visible;enable-background:accumulate" />
    <use
       transform="matrix(2.599604,0,0,2.5995875,4215.0469,-651.57689)"
       id="use4355"
       x="0"
       y="0"
       width="1000"
       height="500"
       xlink:href="#g4335" />
    <use
       transform="matrix(2.2520402,0,0,2.2520259,4082.5638,-663.88458)"
       id="use4375"
       x="0"
       y="0"
       width="1000"
       height="500"
       xlink:href="#g4335" />
    <path
       d="m 2325.5195,-283.58112 c -1.0611,-4.37818 -18.147,-2.19444 -26.4866,-8.89386 -6.9388,-5.57438 16.1469,-20.74689 16.1469,-20.74689 l 30.7897,9.42072 4.5957,21.13914 -21.369,14.24592 z"
       id="path31464"
       style="opacity:0.5;fill:#000000;fill-opacity:1;stroke:none" />
    <path
       d="m 2284.4216,-233.76811 c 0,0 -9.8297,7.79877 -9.0172,10.31711 0.8123,2.51836 14.6228,4.79299 14.6228,4.79299 l 2.1932,8.12371 c 0,0 9.0986,-1.38103 10.3173,2.03093 1.2184,3.41196 1.8684,5.11794 1.8684,5.11794 l 10.0734,-2.03093 z"
       id="path31543"
       style="opacity:0.5;color:#000000;fill:#000000;fill-opacity:1;fill-rule:nonzero;stroke:none;stroke-width:1px;marker:none;visibility:visible;display:inline;overflow:visible;enable-background:accumulate" />
    <path
       d="m 2372.164,-281.51315 c 0,0 -10.5697,7.12298 -13.0974,14.4757 -2.5273,7.35275 -15.6246,-1.83817 -15.6246,-1.83817 l 16.5439,-24.35598 35.3852,-0.6893 c 0,0 5.9742,4.13592 6.204,8.50161 0.2287,4.36567 -23.6668,0.45953 -23.6668,0.45953 z"
       id="path31575"
       style="opacity:0.5;color:#000000;fill:#000000;fill-opacity:1;fill-rule:nonzero;stroke:none;stroke-width:1px;marker:none;visibility:visible;display:inline;overflow:visible;enable-background:accumulate" />
    <use
       transform="matrix(1.9217632,0.86648412,-0.86648962,1.921751,3930.5629,112.9244)"
       id="use4357"
       x="0"
       y="0"
       width="1000"
       height="500"
       xlink:href="#g4335" />
    <path
       d="m 2090.8324,-283.48522 41.5937,376.940192 96.1853,70.188868 c 14.4692,-115.389431 9.876,-233.161664 5.1993,-350.94432 z"
       id="path2985"
       style="fill:#d7e0e3;fill-opacity:1;stroke:none" />
    <path
       d="m 2188.3798,-216.39483 11.0116,358.71607 14.8489,10.83566 4.1316,-350.84344 z"
       id="path2991"
       style="fill:#e43523;fill-opacity:1;stroke:none" />
    <path
       d="m 2105.462,-273.64363 35.7765,373.529254 11.6707,8.516296 -26.0745,-367.66762 z"
       id="path3767"
       style="fill:#e43523;fill-opacity:1;stroke:none" />
    <path
       d="m 2154.5565,85.599201 c -2.4162,-0.622887 -7.6557,0.492674 -12.7159,2.056091 -5.0602,1.563444 -5.4132,9.521978 -10.3846,8.305579 -2.8419,-0.695364 -5.2261,-2.492745 -7.7032,-4.563706 -2.4771,-2.070858 -4.9588,-4.49305 -7.3771,-6.704206 -2.4184,-2.211209 -4.7945,-4.206965 -6.741,-5.339138 -1.9469,-1.132068 -3.13,-1.274031 -3.8217,-0.990858 -0.6921,0.28312 -1.447,1.224613 -2.042,3.395997 -0.5948,2.171383 -0.8766,5.246904 -1.0518,8.51838 -0.1742,3.271425 -0.2418,6.724925 -0.5558,9.93773 -0.3154,3.2128 -0.7748,6.17022 -2.314,8.65795 -1.5389,2.487 -3.9921,4.2182 -6.7257,5.93509 -2.7332,1.7169 -5.8106,3.34716 -8.659,4.96501 -2.8481,1.61785 -10.1412,7.49814 -11.9015,8.97356 -1.7601,1.47548 -2.2546,2.54261 -2.1964,3.27554 0.06,0.73261 0.7206,1.68594 2.6951,2.90101 1.9741,1.21507 4.9312,2.43503 8.1396,3.59195 3.2084,1.15705 6.6809,2.27953 9.7854,3.54963 3.1049,1.2692 5.4238,3.38378 7.4076,5.57654 1.9837,2.19252 3.3766,4.21054 4.2015,7.28318 0.825,3.07261 3.7772,5.70813 4.2056,8.90265 0.6881,5.12855 1.9369,0.63163 2.8452,2.68819 0.9084,2.05656 1.2224,1.60914 1.9502,1.78716 0.7264,0.17781 2.4364,1.13352 4.1958,-0.27306 1.7594,-1.40656 4.6494,-2.7806 6.7163,-5.32322 2.0668,-2.54264 3.9474,-3.6034 6.0925,-6.01619 2.1452,-2.41275 4.2712,-4.52252 6.9779,-5.62997 2.7075,-1.10766 5.6842,-1.08899 8.9023,-0.8694 3.2183,0.2194 6.6802,0.72762 9.932,1.09395 3.2519,0.36873 6.3127,0.59645 8.5494,0.36849 2.2364,-0.22798 3.2635,-0.80644 3.6576,-1.44339 0.3941,-0.63716 0.4456,-1.84212 -0.3473,-3.94789 -0.7929,-2.1058 -2.3394,-4.7613 -4.1173,-7.51018 -1.7778,-2.74891 -3.7652,-5.60064 -5.3959,-8.38469 -1.6305,-2.78403 1.528,-2.35806 1.3112,-5.27391 -0.2158,-2.91567 -0.057,-11.91412 0,-14.9103 0.07,-2.99626 -0.456,-7.99251 -0.2314,-10.97647 0.2262,-2.984015 -0.4377,-6.63329 -0.7962,-8.83527 -0.3586,-2.202033 -1.2661,-5.559348 -1.9653,-6.130763 -0.3377,-0.275869 0.1898,1.544102 -0.5345,1.357582 z"
       id="path11587-9-9"
       style="opacity:0.5;color:#000000;fill:#000000;fill-opacity:1;fill-rule:nonzero;stroke:none;stroke-width:1;marker:none;visibility:visible;display:inline;overflow:visible;enable-background:accumulate" />
    <g
       transform="matrix(2.4774664,0.78746027,-0.78746527,2.4774507,1403.5531,-1893.7587)"
       id="g4330">
      <path
         d="m 499.94168,673.68993 c -3.07472,0.54662 -5.39723,-6.51993 -8.20603,-7.88498 -2.8088,-1.36506 -11.07688,0.31382 -12.39285,-1.56865 l -2.82613,-3.84074 c 0,0 7.50993,-6.56482 7.73967,-8.21634 0.43028,-3.09315 -4.50395,-10.02154 -2.33774,-12.27104 2.16621,-2.24949 9.27575,2.41994 12.35047,1.87332 2.07844,-0.3695 6.53405,-7.24619 9.11958,-8.88695 0.42742,0.32913 2.61576,4.73721 2.61576,4.73721 1.55113,2.866 -0.87634,8.20335 1.7268,11.96546 0.99993,1.44512 3.55295,0.73253 5.86771,2.32925 1.15778,1.91811 2.24307,3.37289 2.69319,4.65818 1.26413,3.367 -8.86275,3.55422 -11.02896,5.80372 -2.16621,2.2495 -2.24675,10.75495 -5.32147,11.30156 z"
         id="path11589-9"
         style="color:#000000;fill:url(#linearGradient4347);fill-opacity:1;fill-rule:nonzero;stroke:none;stroke-width:0.88824123;marker:none;visibility:visible;display:inline;overflow:visible;enable-background:accumulate" />
      <path
         d="m 497.52411,670.35688 c -3.07472,0.54662 -6.08183,-7.40991 -8.89063,-8.77497 -2.8088,-1.36505 -10.92284,1.18668 -12.39285,-1.56864 -1.47001,-2.75532 5.16786,-8.07396 5.59814,-11.1671 0.43027,-3.09315 -4.50395,-10.02155 -2.33774,-12.27104 2.16621,-2.2495 9.27575,2.41993 12.35047,1.87332 3.07472,-0.54662 8.13925,-7.38033 10.94805,-6.01528 2.8088,1.36505 0.56487,9.56956 2.03487,12.32488 1.47001,2.75532 9.53428,5.46024 9.10399,8.55339 -0.43028,3.09315 -8.92663,3.49438 -11.09283,5.74388 -2.16621,2.24949 -2.24675,10.75494 -5.32147,11.30156 z"
         id="path11579-2"
         style="color:#000000;fill:#ffffff;fill-opacity:1;fill-rule:nonzero;stroke:none;stroke-width:0.99472302;marker:none;visibility:visible;display:inline;overflow:visible;enable-background:accumulate" />
      <path
         d="m 501.79874,633.36897 c -0.86434,0.11981 -2.68286,1.39209 -4.42806,2.82034 -1.7452,1.42824 -3.38882,3.00708 -5.3273,3.3517 -1.10808,0.19699 -2.22627,-0.065 -3.41982,-0.40875 -1.19355,-0.3437 -2.44315,-0.81039 -3.63782,-1.2126 -1.19468,-0.40222 -2.34086,-0.73527 -3.20183,-0.83112 -0.86097,-0.0958 -1.29932,0.0381 -1.49873,0.24525 -0.19952,0.20719 -0.31887,0.65582 -0.19075,1.51235 0.12812,0.85653 0.50694,1.98256 0.95374,3.16096 0.4468,1.17839 0.96052,2.40377 1.34885,3.58332 0.38833,1.17955 0.68642,2.29157 0.53137,3.4062 -0.15501,1.11431 -0.74925,2.10477 -1.44423,3.1337 -0.69498,1.02894 -1.52453,2.08088 -2.27534,3.09283 -0.75081,1.01195 -1.41459,1.99022 -1.77123,2.77946 -0.35663,0.78925 -0.35349,1.24477 -0.21799,1.49873 0.13544,0.25386 0.50833,0.49736 1.36248,0.64037 0.85415,0.143 2.03851,0.14227 3.2972,0.0817 1.25869,-0.0605 2.60046,-0.1725 3.8422,-0.17712 1.24173,-0.005 2.38053,0.0531 3.39257,0.54499 1.01196,0.49181 1.77144,1.36477 2.53421,2.34347 0.76278,0.9787 1.50552,2.09379 2.23447,3.12008 0.72895,1.02629 1.44539,1.95169 2.08459,2.53421 0.63921,0.58252 1.07874,0.73169 1.36248,0.68124 0.28329,-0.0504 0.63501,-0.33524 1.03549,-1.10361 0.40048,-0.76837 0.75788,-1.89054 1.08998,-3.10645 0.3321,-1.21592 0.64199,-2.52355 1.02186,-3.70595 0.37987,-1.18239 0.80011,-2.25521 1.58048,-3.06558 0.7805,-0.81051 1.83087,-1.26657 2.99746,-1.68947 1.16657,-0.4229 2.46368,-0.78211 3.66507,-1.15811 1.20139,-0.376 2.31401,-0.77117 3.06558,-1.19898 0.75156,-0.42782 1.02303,-0.79096 1.06273,-1.07636 0.0397,-0.28546 -0.12948,-0.71746 -0.73574,-1.33523 -0.60626,-0.61778 -1.56313,-1.31187 -2.61596,-2.00285 -1.05283,-0.69098 -2.19536,-1.3856 -3.20183,-2.11184 -1.00646,-0.72624 -1.9094,-1.44648 -2.43884,-2.43884 -0.5294,-0.99229 -0.62437,-2.13808 -0.66761,-3.37895 -0.0433,-1.24088 0.0155,-2.58217 0.0273,-3.8422 0.0117,-1.26002 -0.0284,-2.43529 -0.20437,-3.28357 -0.17597,-0.84829 -0.43582,-1.22297 -0.69486,-1.34886 -0.12505,-0.0608 -0.25887,-0.0904 -0.51775,-0.0545 z"
         id="path11587-9"
         style="color:#000000;fill:#1abc9c;fill-opacity:1;fill-rule:nonzero;stroke:none;stroke-width:1;marker:none;visibility:visible;display:inline;overflow:visible;enable-background:accumulate" />
    </g>
    <g
       transform="translate(-1418.7262,-439.89297)"
       id="g4340">
      <path
         d="m 599.5974,673.68993 c 3.07475,0.54662 5.39723,-6.51993 8.20604,-7.88498 2.80882,-1.36506 11.0769,0.31382 12.39283,-1.56865 l 2.82617,-3.84074 c 0,0 -7.50993,-6.56482 -7.7397,-8.21634 -0.43025,-3.09315 4.50396,-10.02154 2.33774,-12.27104 -2.16618,-2.24949 -9.27571,2.41994 -12.35046,1.87332 -2.07843,-0.3695 -6.53406,-7.24619 -9.11957,-8.88695 -0.42743,0.32913 -2.61576,4.73721 -2.61576,4.73721 -1.55112,2.866 0.87635,8.20335 -1.72679,11.96546 -0.99996,1.44512 -3.55295,0.73253 -5.86772,2.32925 -1.15778,1.91811 -2.24309,3.37289 -2.69321,4.65818 -1.26412,3.367 8.86277,3.55422 11.02899,5.80372 2.16618,2.2495 2.24673,10.75495 5.32144,11.30156 z"
         id="path13091"
         style="color:#000000;fill:url(#linearGradient4242);fill-opacity:1;fill-rule:nonzero;stroke:none;stroke-width:0.88824123;marker:none;visibility:visible;display:inline;overflow:visible;enable-background:accumulate" />
      <path
         d="m 602.01499,670.35688 c 3.07471,0.54662 6.08185,-7.40991 8.89062,-8.77497 2.80881,-1.36505 10.92284,1.18668 12.39287,-1.56864 1.46999,-2.75532 -5.16789,-8.07396 -5.59814,-11.1671 -0.4303,-3.09315 4.50392,-10.02155 2.33774,-12.27104 -2.16622,-2.2495 -9.27576,2.41993 -12.35047,1.87332 -3.07475,-0.54662 -8.13928,-7.38033 -10.94805,-6.01528 -2.80881,1.36505 -0.56487,9.56956 -2.0349,12.32488 -1.46999,2.75532 -9.53425,5.46024 -9.10396,8.55339 0.43025,3.09315 8.92659,3.49438 11.09281,5.74388 2.16622,2.24949 2.24674,10.75494 5.32148,11.30156 z"
         id="path13093"
         style="color:#000000;fill:#ffffff;fill-opacity:1;fill-rule:nonzero;stroke:none;stroke-width:0.99472302;marker:none;visibility:visible;display:inline;overflow:visible;enable-background:accumulate" />
      <path
         d="m 597.74037,633.36897 c 0.86435,0.11981 2.68284,1.39209 4.42806,2.82034 1.74518,1.42824 3.38882,3.00708 5.32729,3.3517 1.10809,0.19699 2.22629,-0.065 3.4198,-0.40875 1.19356,-0.3437 2.44316,-0.81039 3.63784,-1.2126 1.19468,-0.40222 2.34088,-0.73527 3.20181,-0.83112 0.86098,-0.0958 1.29932,0.0381 1.49877,0.24525 0.19948,0.20719 0.31883,0.65582 0.19073,1.51235 -0.12811,0.85653 -0.50694,1.98256 -0.95373,3.16096 -0.44683,1.17839 -0.96054,2.40377 -1.34885,3.58332 -0.38835,1.17955 -0.68643,2.29157 -0.53137,3.4062 0.15498,1.11431 0.74925,2.10477 1.4442,3.1337 0.69499,1.02894 1.52455,2.08088 2.27535,3.09283 0.75083,1.01195 1.41461,1.99022 1.77124,2.77946 0.35664,0.78925 0.35346,1.24477 0.218,1.49873 -0.13547,0.25386 -0.50833,0.49736 -1.36249,0.64037 -0.85415,0.143 -2.0385,0.14227 -3.29719,0.0817 -1.2587,-0.0605 -2.60047,-0.1725 -3.8422,-0.17712 -1.24173,-0.005 -2.38053,0.0531 -3.39258,0.54499 -1.01197,0.49181 -1.77144,1.36477 -2.5342,2.34347 -0.7628,0.9787 -1.50554,2.09379 -2.2345,3.12008 -0.72895,1.02629 -1.44536,1.95169 -2.08458,2.53421 -0.63922,0.58252 -1.07873,0.73169 -1.36248,0.68124 -0.28329,-0.0504 -0.63501,-0.33524 -1.03548,-1.10361 -0.40047,-0.76837 -0.75788,-1.89054 -1.09,-3.10645 -0.33208,-1.21592 -0.64198,-2.52355 -1.02185,-3.70595 -0.37987,-1.18239 -0.80009,-2.25521 -1.58047,-3.06558 -0.7805,-0.81051 -1.83089,-1.26657 -2.99745,-1.68947 -1.16657,-0.4229 -2.46368,-0.78211 -3.66507,-1.15811 -1.20142,-0.376 -2.31403,-0.77117 -3.0656,-1.19898 -0.75157,-0.42782 -1.02301,-0.79096 -1.06274,-1.07636 -0.0397,-0.28546 0.1295,-0.71746 0.73577,-1.33523 0.60622,-0.61778 1.56312,-1.31187 2.61595,-2.00285 1.05282,-0.69098 2.19534,-1.3856 3.20181,-2.11184 1.00647,-0.72624 1.90942,-1.44648 2.43886,-2.43884 0.52939,-0.99229 0.62435,-2.13808 0.66761,-3.37895 0.0433,-1.24088 -0.0155,-2.58217 -0.0271,-3.8422 -0.0116,-1.26002 0.0283,-2.43529 0.20436,-3.28357 0.17597,-0.84829 0.43583,-1.22297 0.69487,-1.34886 0.12505,-0.0608 0.25885,-0.0904 0.51774,-0.0545 z"
         id="path13095"
         style="color:#000000;fill:#1abc9c;fill-opacity:1;fill-rule:nonzero;stroke:none;stroke-width:1;marker:none;visibility:visible;display:inline;overflow:visible;enable-background:accumulate" />
    </g>
    <g
       transform="translate(-1310.0627,-485.86956)"
       id="g4335">
      <path
         d="m 553.54057,673.16756 c -3.63703,0.64659 -7.19409,-8.76504 -10.51656,-10.37973 -3.32247,-1.6147 -12.92041,1.4037 -14.65926,-1.85552 -0.54133,-1.01464 -0.34574,-2.54951 -0.29474,-4.43969 1.78468,-3.16664 6.56615,-6.24988 6.91667,-8.76966 0.39429,-2.83441 -3.01957,-8.39139 -3.38676,-11.98876 -0.1068,-1.04632 -0.17773,-3.58178 -0.072,-4.35752 2.56237,-2.66089 11.66557,4.69361 15.3026,4.04702 3.63703,-0.64658 9.62776,-8.73004 12.95023,-7.11535 3.32247,1.61469 0.66817,11.31964 2.40701,14.57886 1.16709,2.18754 7.9431,4.05996 10.74139,6.35068 0.062,1.82056 0.1949,2.56389 0.0273,3.76696 -0.50897,3.65883 -10.55913,4.13343 -13.12149,6.79431 -2.56237,2.6609 -2.65763,12.72183 -6.29467,13.3684 z"
         id="path11591-3"
         style="color:#000000;fill:url(#linearGradient4244);fill-opacity:1;fill-rule:nonzero;stroke:none;stroke-width:5.07236385;marker:none;visibility:visible;display:inline;overflow:visible;enable-background:accumulate" />
      <path
         d="m 553.49359,669.65462 c -3.63703,0.64659 -7.19408,-8.76504 -10.51655,-10.37974 -3.32247,-1.61469 -12.92042,1.40371 -14.65926,-1.85551 -1.73885,-3.25922 6.11296,-9.55052 6.62193,-13.20935 0.50896,-3.65882 -5.32763,-11.85428 -2.76527,-14.51517 2.56237,-2.66089 10.9721,2.8625 14.60913,2.21591 3.63703,-0.64658 9.62776,-8.73005 12.95023,-7.11535 3.32247,1.61469 0.66817,11.31964 2.40702,14.57886 1.73884,3.25921 11.2779,6.45881 10.76893,10.11763 -0.50897,3.65883 -10.55913,4.13344 -13.1215,6.79432 -2.56236,2.66089 -2.65763,12.72182 -6.29466,13.3684 z"
         id="path11581-6"
         style="color:#000000;fill:#ffffff;fill-opacity:1;fill-rule:nonzero;stroke:none;stroke-width:6;marker:none;visibility:visible;display:inline;overflow:visible;enable-background:accumulate" />
      <path
         d="m 558.51773,625.70895 c -1.12358,0.15574 -3.25305,1.69418 -5.31845,3.38447 -2.06539,1.69029 -4.03108,3.527 -6.22097,3.91631 -1.25176,0.22254 -2.56328,-0.0638 -3.96466,-0.46737 -1.40138,-0.40356 -2.88604,-0.95728 -4.30311,-1.43437 -1.41707,-0.47709 -2.77357,-0.88278 -3.81961,-0.99923 -1.04604,-0.11645 -1.62253,0.0479 -1.91787,0.35456 -0.29544,0.30681 -0.42964,0.89334 -0.27398,1.93398 0.15567,1.04065 0.59818,2.38963 1.12816,3.78739 0.52998,1.39775 1.13958,2.85369 1.59553,4.23864 0.45595,1.38494 0.78759,2.68939 0.61243,3.94854 -0.17511,1.25884 -0.844,2.40199 -1.66,3.6101 -0.816,1.20811 -1.80088,2.44201 -2.69146,3.64233 -0.89058,1.20033 -1.69408,2.37722 -2.12738,3.33612 -0.4333,0.9589 -0.45845,1.558 -0.25786,1.93398 0.20053,0.37587 0.71894,0.69655 1.7567,0.87029 1.03776,0.17375 2.45554,0.16849 3.94854,0.0967 1.49301,-0.0718 3.07079,-0.2041 4.52874,-0.20951 1.45795,-0.005 2.78915,0.0729 3.93243,0.62854 1.1432,0.55559 2.03763,1.55847 2.9332,2.70757 0.89558,1.1491 1.76234,2.47335 2.627,3.69069 0.86465,1.21733 1.72139,2.32211 2.49806,3.0299 0.77666,0.70779 1.35291,0.92883 1.77281,0.85417 0.41945,-0.0746 0.88336,-0.46862 1.3699,-1.40213 0.48656,-0.93351 0.91152,-2.28065 1.30544,-3.72292 0.39393,-1.44226 0.76272,-2.97927 1.20874,-4.36757 0.44602,-1.3883 0.92347,-2.64627 1.80505,-3.56175 0.88171,-0.91561 2.11148,-1.45356 3.48117,-1.9501 1.36968,-0.49653 2.89419,-0.90779 4.31922,-1.35378 1.42503,-0.446 2.76137,-0.93067 3.67457,-1.45049 0.91318,-0.51982 1.29502,-0.99588 1.35381,-1.41825 0.0587,-0.42244 -0.18208,-0.97388 -0.91867,-1.72447 -0.73659,-0.75059 -1.8939,-1.56563 -3.14272,-2.38524 -1.24882,-0.81962 -2.58954,-1.64536 -3.77126,-2.49806 -1.18172,-0.8527 -2.22227,-1.69929 -2.82039,-2.82039 -0.59809,-1.12103 -0.72282,-2.45935 -0.77359,-3.91631 -0.0507,-1.45697 0.0183,-3.03415 0.0322,-4.52874 0.0139,-1.49459 -0.028,-2.91795 -0.24175,-3.94855 -0.21379,-1.0306 -0.55133,-1.53812 -0.93476,-1.72446 -0.1872,-0.091 -0.39218,-0.12675 -0.72524,-0.0806 z"
         id="path13101"
         style="color:#000000;fill:#1abc9c;fill-opacity:1;fill-rule:nonzero;stroke:none;stroke-width:6;marker:none;visibility:visible;display:inline;overflow:visible;enable-background:accumulate" />
    </g>
    <path
       d="m 2335.1952,-268.37512 c 0,0 -0.6498,6.66144 3.737,8.61114 4.3868,1.94968 10.236,-9.74845 10.236,-9.74845 z"
       id="path31567"
       style="opacity:0.5;color:#000000;fill:#000000;fill-opacity:1;fill-rule:nonzero;stroke:none;stroke-width:1px;marker:none;visibility:visible;display:inline;overflow:visible;enable-background:accumulate" />
    <use
       transform="matrix(2.599604,0,0,2.5995875,4469.7948,-871.38312)"
       id="use4385"
       x="0"
       y="0"
       width="1000"
       height="500"
       xlink:href="#g4340" />
    <path
       d="m 2129.5015,-265.61306 c 0,0 -11.0482,-41.59339 -7.1489,-44.19298 3.8995,-2.59959 30.8704,15.27258 30.8704,15.27258 z"
       id="path31485"
       style="opacity:0.5;color:#000000;fill:#000000;fill-opacity:1;fill-rule:nonzero;stroke:none;stroke-width:1px;marker:none;visibility:visible;display:inline;overflow:visible;enable-background:accumulate" />
    <path
       d="m 2230.2362,-264.63821 c 0,0 3.5745,4.54928 -2.5996,7.14886 -6.1741,2.59959 -26.321,8.77361 -28.9206,13.64784 -2.5996,4.87422 -10.7233,26.64577 -13.323,25.99587 -2.5996,-0.64989 -12.0231,-18.19711 -12.0231,-18.19711 l 22.4216,-38.99381 z"
       id="path31493"
       style="opacity:0.5;color:#000000;fill:#000000;fill-opacity:1;fill-rule:nonzero;stroke:none;stroke-width:1px;marker:none;visibility:visible;display:inline;overflow:visible;enable-background:accumulate" />
    <use
       transform="matrix(2.599604,0,0,2.5995875,4146.1145,-700.74834)"
       id="use4361"
       x="0"
       y="0"
       width="1000"
       height="500"
       xlink:href="#g4335" />
    <path
       d="m 2365.2706,-251.87239 c 0,0 -31.2493,21.59867 -24.8156,25.73459 6.4338,4.13592 34.2366,10.11003 34.2366,10.11003 z"
       id="path31466"
       style="opacity:0.5;color:#000000;fill:#000000;fill-opacity:1;fill-rule:nonzero;stroke:none;stroke-width:1px;marker:none;visibility:visible;display:inline;overflow:visible;enable-background:accumulate" />
    <use
       transform="matrix(2.3779568,0,0,2.3779417,4326.1524,-753.34778)"
       id="use4359"
       x="0"
       y="0"
       width="1000"
       height="500"
       xlink:href="#g4340" />
    <path
       d="m 2233.8107,-187.30048 135.7828,-28.16695 c 8.0172,31.81716 12.366,14.7016 26.9388,-0.60609 l 92.6162,-24.74153 -58.7141,345.90284 -201.823,58.55605 z"
       id="path2987"
       style="fill:#ecf0f1;stroke:none" />
    <path
       d="m 2339.728,-209.49901 -25.9754,348.44032 32.1306,-9.32217 27.2644,-333.76219 c -2.3386,-5.69271 -3.6666,-11.57461 -3.6666,-11.57461 z"
       id="path2995"
       style="fill:#e74c3c;stroke:none" />
    <path
       d="m 2412.3985,-220.86417 -39.4713,342.63689 32.7321,-9.49676 46.0918,-343.39782 z"
       id="path2997"
       style="fill:#e74c3c;stroke:none" />
    <path
       d="m 2261.386,-193.07981 -5.2218,348.72965 28.7394,-8.33833 13.9135,-348.23628 z"
       id="path2993"
       style="fill:#e74c3c;stroke:none" />
    <path
       d="m 2369.64,-215.24605 c 0,0 -2.8507,22.78954 2.5996,25.34598 4.483,2.10278 11.1388,-10.25896 11.1388,-10.25896 -8.4843,8.88664 -11.1398,-7.81407 -13.7384,-15.08702 z"
       id="path4406"
       style="opacity:0.5;fill:#000000;fill-opacity:1;stroke:none" />
    <path
       d="m 2146.6922,-240.97199 22.8774,361.53151 14.7766,10.78289 -15.3355,-360.01665 z"
       id="path2989"
       style="fill:#e43523;fill-opacity:1;stroke:none" />
    <path
       d="m 2169.0107,-228.67424 19.3691,12.27941 0.7169,23.35082 -18.7697,-7.70143 z"
       id="path4408"
       style="fill:#d7e0e3;fill-opacity:1;stroke:none" />
    <path
       d="m 2233.8106,-187.30049 135.6702,-28.41718"
       id="path4410"
       style="fill:none;stroke:#ffffff;stroke-width:0.99999994px;stroke-linecap:butt;stroke-linejoin:miter;stroke-opacity:1" />
    <path
       d="m 2489.1404,-242.13553 -91.7985,24.57421 -1.429,2.62662 93.0087,-24.54265 z"
       id="path4412"
       style="font-size:medium;font-style:normal;font-variant:normal;font-weight:normal;font-stretch:normal;text-indent:0;text-align:start;text-decoration:none;line-height:normal;letter-spacing:normal;word-spacing:normal;text-transform:none;direction:ltr;block-progression:tb;writing-mode:lr-tb;text-anchor:start;baseline-shift:baseline;color:#000000;fill:#ffffff;fill-opacity:1;stroke:none;stroke-width:1px;marker:none;visibility:visible;display:inline;overflow:visible;enable-background:accumulate;font-family:Sans;-inkscape-font-specification:Sans" />
    <path
       d="m 2090.7511,-284.46007 0.1612,2.27465 24.8587,17.05979 1.4623,-2.19341 -23.86,-16.12165 c -0.8118,-0.40252 -1.4168,-1.01163 -2.6235,-1.01938 z m 58.0717,42.60503 -3.9674,-0.28049 88.224,55.89113 1.4623,-2.11217 z"
       id="path4418"
       style="font-size:medium;font-style:normal;font-variant:normal;font-weight:normal;font-stretch:normal;text-indent:0;text-align:start;text-decoration:none;line-height:normal;letter-spacing:normal;word-spacing:normal;text-transform:none;direction:ltr;block-progression:tb;writing-mode:lr-tb;text-anchor:start;baseline-shift:baseline;color:#000000;fill:#ffffff;fill-opacity:1;stroke:none;stroke-width:1px;marker:none;visibility:visible;display:inline;overflow:visible;enable-background:accumulate;font-family:Sans;-inkscape-font-specification:Sans" />
    <path
       d="m 2158.411,-235.82519 c 0,0 1.7087,36.66105 -7.2805,28.09468 -8.0785,-7.69772 -11.5872,-34.30293 -11.5872,-34.30293 3.0723,-0.10763 6.8882,-0.0234 9.3606,0.36154 3.4605,1.59647 4.4558,2.57451 9.5071,5.84671 z"
       id="path4426"
       style="opacity:0.29467085;fill:#000000;fill-opacity:1;stroke:none" />
    <path
       d="m 2432.7631,195.66189 c -4.8225,-1.46851 -2.5767,-12.50168 -5.5718,-16.38851 -2.9948,-3.88681 -15.8908,-4.4484 -16.3538,-7.96633 l -0.5721,-7.73871 c 0,0 14.931,-5.33372 16.51,-7.42296 2.9571,-3.9129 0.6639,-13.82401 5.4719,-15.33474 4.8079,-1.51072 9.8616,10.1001 14.6841,11.56858 3.2599,0.99266 17.9505,-1.33051 22.8995,-1.70813 0.3636,0.75723 -0.3601,5.5582 -0.3601,5.5582 -1.8972,5.48961 -7.3481,8.61875 -6.4616,15.62997 0.3405,2.69317 6.4489,1.91892 8.56,5.76615 0.2079,3.45261 -0.026,5.64604 -0.3518,7.72498 -0.7346,5.5073 -17.2356,-1.64648 -22.0436,-0.13569 -6.7815,1.47495 -9.1487,10.69282 -16.4107,10.44719 z"
       id="path4466"
       style="color:#000000;fill:url(#linearGradient3104);fill-opacity:1;fill-rule:nonzero;stroke:none;stroke-width:0.88824123;marker:none;visibility:visible;display:inline;overflow:visible;enable-background:accumulate" />
    <path
       d="m 2433.0818,186.78463 c -4.8225,-1.13882 -3.1148,-11.24271 -6.1099,-14.25701 -2.9947,-3.01428 -16.5603,-4.84525 -16.5836,-8.58363 -0.026,-3.73839 13.5187,-5.66154 16.476,-8.69607 2.9571,-3.03455 1.1235,-13.12638 5.9315,-14.29799 4.808,-1.17158 11.47,7.74371 16.2926,8.88256 4.8225,1.13882 17.2545,-3.26732 20.2495,-0.25294 2.9948,3.01427 -6.4301,10.44738 -6.4067,14.18576 0.026,3.73842 11.2059,11.91945 8.2488,14.95398 -2.9573,3.03454 -17.1092,-2.0992 -21.9173,-0.92754 -4.8081,1.17158 -11.3584,10.13182 -16.1809,8.99297 z"
       id="path4468"
       style="color:#000000;fill:#ffffff;fill-opacity:1;fill-rule:nonzero;stroke:none;stroke-width:0.99472302;marker:none;visibility:visible;display:inline;overflow:visible;enable-background:accumulate" />
    <path
       d="m 2467.1948,150.01121 c -5.7776,-0.66646 -11.4214,1.67684 -17.1971,1.32043 -4.4992,-0.40767 -7.6603,-4.03118 -11.1435,-6.49665 -1.7979,-1.10699 -4.0388,-3.51893 -6.2087,-2.22289 -2.0196,2.71327 -1.6863,6.34893 -2.5177,9.50059 -0.3332,2.64001 -2.1865,4.83052 -4.6545,5.74135 -4.1708,1.97856 -8.9268,2.69205 -12.7927,5.28215 -1.4126,2.19111 2.7933,2.90509 4.2813,3.69762 3.7551,1.51057 7.9826,2.18772 11.2404,4.71425 2.6454,2.72159 2.3113,6.82598 3.2446,10.26471 0.026,3.02906 3.095,4.62966 5.4007,2.61022 4.0654,-2.44894 7.1915,-6.51912 11.8651,-7.88318 4.7526,-0.88006 11.1767,1.47088 15.9111,1.82349 1.8177,0.13674 6.3116,0.86855 5.0588,-2.23188 -1.7667,-3.99359 -7.3558,-7.57787 -8.51,-11.86182 -0.1378,-3.07931 2.3542,-5.36985 3.9514,-7.7523 1.1477,-1.85789 3.4517,-3.84377 2.7714,-6.15926 l -0.2522,-0.18378 -0.4499,-0.16326 5e-4,8e-5 z"
       id="path4470"
       style="color:#000000;fill:#1abc9c;fill-opacity:1;fill-rule:nonzero;stroke:none;stroke-width:1;marker:none;visibility:visible;display:inline;overflow:visible;enable-background:accumulate" />
    <text
       x="-867.84973"
       y="61.058594"
       id="text3051"
       xml:space="preserve"
       style="font-size:61.29959869px;font-style:normal;font-variant:normal;font-weight:normal;font-stretch:normal;text-align:start;line-height:125%;letter-spacing:0px;word-spacing:0px;writing-mode:lr-tb;text-anchor:start;fill:#000000;fill-opacity:1;stroke:none;font-family:Guanine;-inkscape-font-specification:Guanine"><tspan
         x="-867.84973"
         y="61.058594"
         id="tspan3053">WELL DONE!</tspan></text>
    <path
       d="m 2574.8465,210.81798 c -5.9697,-2.5407 -1.5824,-16.35125 -4.8818,-21.73588 -3.2991,-5.38461 -19.7247,-7.87231 -19.8344,-12.43747 l 0.3294,-9.98137 c 0,0 19.8383,-4.7771 22.1451,-7.23401 4.3211,-4.6015 2.7463,-17.59884 9.1059,-18.87245 6.36,-1.27365 11.234,14.27738 17.2035,16.81803 4.0353,1.71741 23.1531,0.7598 29.5377,0.95548 0.3619,1.01888 -1.2231,7.06312 -1.2231,7.06312 -3.1808,6.76455 -10.5853,10.02105 -10.4127,19.11454 0.068,3.49304 7.9891,3.34015 10.1629,8.5529 -0.2054,4.44683 -0.8077,7.2214 -1.5099,9.83702 -1.6954,6.94668 -21.8296,-4.47123 -28.1896,-3.19751 -8.8802,0.95713 -13.174,12.4281 -22.433,11.1176 z"
       id="path3107"
       style="color:#000000;fill:url(#linearGradient3113);fill-opacity:1;fill-rule:nonzero;stroke:none;stroke-width:0.88824123;marker:none;visibility:visible;display:inline;overflow:visible;enable-background:accumulate" />
    <path
       d="m 2576.472,199.50189 c -6.015,-2.11884 -2.4436,-14.814 -5.8626,-19.08211 -3.419,-4.26803 -20.5267,-8.47193 -20.0438,-13.25896 0.4829,-4.78702 18.0759,-5.39032 22.2764,-8.86779 4.2001,-3.47752 3.2383,-16.64308 9.5516,-17.48278 6.3135,-0.83963 13.6152,11.48267 19.6302,13.60154 6.0147,2.11882 22.5282,-1.81409 25.947,2.45409 3.4189,4.26805 -9.6613,12.48693 -10.1443,17.274 -0.4827,4.78706 12.7046,16.78991 8.5042,20.2674 -4.2003,3.4775 -21.6059,-5.03324 -27.919,-4.19348 -6.3134,0.83965 -15.925,11.40707 -21.9397,9.2882 z"
       id="path3109"
       style="color:#000000;fill:#ffffff;fill-opacity:1;fill-rule:nonzero;stroke:none;stroke-width:0.99472302;marker:none;visibility:visible;display:inline;overflow:visible;enable-background:accumulate" />
    <path
       d="m 2625.1692,157.12428 c -7.3019,-1.64541 -14.8454,0.57895 -22.1875,-0.66937 -5.7011,-1.13882 -9.2493,-6.20929 -13.3687,-9.84209 -2.1485,-1.66314 -4.6853,-5.05698 -7.6397,-3.69617 -2.9568,3.19497 -3.0288,7.89307 -4.5251,11.81208 -0.7887,3.33254 -3.4604,5.88147 -6.7439,6.70837 -5.6083,1.95977 -11.7924,2.22036 -17.0947,5.00446 -2.1081,2.61009 3.1759,4.10067 4.9715,5.31899 4.5979,2.44809 9.9146,3.89453 13.737,7.5745 3.012,3.84557 2.0212,9.05192 2.7439,13.58032 -0.3857,3.87937 3.3254,6.34893 6.5529,4.08104 5.5384,-2.57611 10.0968,-7.35569 16.2646,-8.46009 6.2021,-0.47428 14.1003,3.41536 20.1106,4.51605 2.3069,0.42433 7.9573,1.97725 6.7794,-2.16207 -1.7129,-5.35276 -8.3732,-10.70606 -9.2626,-16.34637 0.2469,-3.95937 3.7492,-6.54859 6.1198,-9.37822 1.7238,-2.22 4.9444,-4.44519 4.3917,-7.50147 l -0.2963,-0.2695 -0.5535,-0.27057 6e-4,1.6e-4 z"
       id="path3111"
       style="color:#000000;fill:#1abc9c;fill-opacity:1;fill-rule:nonzero;stroke:none;stroke-width:1;marker:none;visibility:visible;display:inline;overflow:visible;enable-background:accumulate" />
  </g>
  <g
     transform="translate(0,1804)"
     id="layer3"
     style="display:inline">
    <g
       transform="matrix(2.599604,0,0,2.5995875,1004.198,-1289.576)"
       id="text3051-9"
       style="font-size:35.93727875px;font-style:normal;font-variant:normal;font-weight:normal;font-stretch:normal;text-align:center;line-height:125%;letter-spacing:0px;word-spacing:0px;writing-mode:lr-tb;text-anchor:middle;fill:#ecf0f1;fill-opacity:1;stroke:none;display:inline;font-family:Guanine;-inkscape-font-specification:Guanine">
      <path
         d="m 274.18138,395.14486 3.09061,0 -6.97183,14.2671 0,11.82336 -8.30152,0 0,-11.67961 -6.57652,-14.41085 9.66713,0 3.9531,10.42181 5.13903,-10.42181"
         id="path4144" />
      <path
         d="m 287.65955,403.55418 c -2.15625,2e-5 -3.23437,1.23386 -3.23436,3.70154 l 0,9.27182 c -10e-6,2.13228 1.11405,3.19842 3.34217,3.19842 2.15622,0 3.23434,-1.23385 3.23435,-3.70154 l 0,-9.27182 c -10e-6,-2.13226 -1.11406,-3.1984 -3.34216,-3.19842 m -9.66713,8.08589 c 0,-1.46144 0.25156,-2.8031 0.75468,-4.02498 0.50312,-1.24581 1.19791,-2.31195 2.08436,-3.19842 0.88645,-0.88643 1.91665,-1.56924 3.09061,-2.04842 1.1979,-0.5031 2.47966,-0.75466 3.84529,-0.75468 1.34165,0.024 2.61143,0.28751 3.80935,0.79062 1.19789,0.47918 2.24007,1.16199 3.12654,2.04842 0.88644,0.86251 1.58122,1.90469 2.08437,3.12655 0.52706,1.22188 0.7906,2.57551 0.79062,4.06091 -2e-5,1.48541 -0.26356,2.83905 -0.79062,4.06091 -0.50315,1.22187 -1.19793,2.27603 -2.08437,3.16248 -0.88647,0.8625 -1.92865,1.5453 -3.12654,2.04843 -1.19792,0.47916 -2.4677,0.73072 -3.80935,0.75468 -1.36563,-0.024 -2.64739,-0.27552 -3.84529,-0.75468 -1.17396,-0.50313 -2.20416,-1.18593 -3.09061,-2.04843 -0.88645,-0.88645 -1.58124,-1.94061 -2.08436,-3.16248 -0.50312,-1.22186 -0.75468,-2.5755 -0.75468,-4.06091"
         id="path4146" />
      <path
         d="m 306.14254,417.03066 c -10e-6,1.72499 0.71874,2.58749 2.15624,2.58748 1.48539,1e-5 2.31195,-0.80259 2.47967,-2.40779 l 0,-15.27335 6.46871,0 0,19.29832 -6.46871,0 0,-0.86249 c -0.6948,0.47916 -1.46146,0.81457 -2.29999,1.00624 -0.81459,0.21562 -1.73698,0.32344 -2.76717,0.32344 -0.81458,0 -1.59322,-0.10782 -2.33592,-0.32344 -0.74271,-0.21562 -1.40156,-0.575 -1.97655,-1.07812 -0.55104,-0.52708 -0.99427,-1.22186 -1.32968,-2.08436 -0.33542,-0.88645 -0.50312,-1.98852 -0.50312,-3.30623 l 0,-12.97336 6.57652,0 0,15.09366"
         id="path4148" />
      <path
         d="m 342.43245,406.14166 c -1e-5,-1.72497 -0.74271,-2.58746 -2.22811,-2.58748 -1.46146,2e-5 -2.27603,0.80262 -2.44373,2.4078 l 0,15.27334 -6.46871,0 0,-26.09046 6.46871,0 0,7.65464 c 1.31769,-0.86248 2.94684,-1.29373 4.88747,-1.29374 0.81456,10e-6 1.60518,0.10783 2.37186,0.32343 0.76664,0.19169 1.43747,0.55106 2.01248,1.07812 0.59894,0.50314 1.06613,1.19793 1.40156,2.08436 0.35935,0.86251 0.53904,1.95261 0.53906,3.27029 l 0,12.97336 -6.54059,0 0,-15.09366"
         id="path4150" />
      <path
         d="m 369.94413,401.937 0,19.29832 -6.46871,0 0,-1.00624 c -1.03022,0.95832 -2.14427,1.43749 -3.34217,1.43749 -1.29375,0 -2.53958,-0.2276 -3.73748,-0.68281 -1.17395,-0.47916 -2.21613,-1.14999 -3.12654,-2.01249 -0.88646,-0.88645 -1.59322,-1.96456 -2.1203,-3.23435 -0.52708,-1.26978 -0.79062,-2.71925 -0.79062,-4.34841 0,-1.31769 0.25156,-2.56352 0.75468,-3.73748 0.52708,-1.19789 1.20989,-2.24007 2.04843,-3.12654 0.83853,-0.88644 1.80883,-1.58123 2.91092,-2.08437 1.10207,-0.52706 2.24008,-0.7906 3.41404,-0.79062 0.69478,2e-5 1.37758,0.11981 2.04842,0.35938 0.67082,0.21564 1.31769,0.58699 1.94062,1.11405 l 0,-1.18593 6.46871,0 m -9.66713,1.61718 c -2.25208,2e-5 -3.37811,1.06616 -3.37811,3.19842 l 0,9.27182 c 0,2.46769 1.07811,3.70154 3.23436,3.70154 2.01247,-0.19167 3.12653,-1.13802 3.34217,-2.83905 l 0,-10.314 c -0.19168,-2.01247 -1.25782,-3.01871 -3.19842,-3.01873"
         id="path4152" />
      <path
         d="m 386.89079,401.937 2.08437,0 -6.72027,19.29832 -4.16873,0 -6.57652,-19.29832 6.54058,0 4.34842,13.26086 4.49215,-13.26086"
         id="path4154" />
      <path
         d="m 398.34917,403.55418 c -2.15625,2e-5 -3.23436,1.23386 -3.23436,3.70154 l 0,2.37186 6.57652,0 0,-2.87498 c -10e-6,-2.13226 -1.11406,-3.1984 -3.34216,-3.19842 m -3.23436,8.40932 0,4.56404 c 0,2.10832 1.17395,3.22238 3.52186,3.34216 1.22185,10e-6 2.34789,-0.34739 3.3781,-1.04218 1.03019,-0.69478 2.04841,-1.79686 3.05467,-3.30623 l 2.51561,0.97031 c -0.57502,0.88646 -1.22189,1.6651 -1.94061,2.33592 -0.69481,0.64688 -1.42553,1.18593 -2.19218,1.61718 -0.76668,0.43125 -1.54532,0.7427 -2.33592,0.93437 -0.79063,0.21562 -1.5573,0.32344 -2.29999,0.32344 -1.48541,0 -2.85103,-0.25157 -4.09685,-0.75469 -1.24583,-0.52708 -2.32395,-1.23384 -3.23435,-2.1203 -0.88646,-0.9104 -1.58124,-1.97654 -2.08436,-3.19841 -0.47917,-1.22187 -0.71875,-2.53956 -0.71875,-3.95311 0,-1.38956 0.23958,-2.69528 0.71875,-3.91716 0.47916,-1.22185 1.14999,-2.28799 2.01248,-3.19842 0.86249,-0.91039 1.89269,-1.62913 3.09061,-2.15623 1.1979,-0.52706 2.5156,-0.7906 3.9531,-0.79062 1.3656,2e-5 2.62341,0.2396 3.77341,0.71874 1.17394,0.47918 2.18018,1.17397 3.01874,2.08436 0.86247,0.88647 1.5333,1.96459 2.01248,3.23436 0.50311,1.2698 0.75467,2.70729 0.75469,4.31247 l -12.90149,0"
         id="path4156" />
      <path
         d="m 436.304,417.67753 c -0.57502,0.81458 -1.11407,1.48541 -1.61718,2.01249 -0.50314,0.50312 -1.01824,0.91041 -1.5453,1.22187 -0.50314,0.28749 -1.0422,0.47916 -1.61718,0.57499 -0.55105,0.11979 -1.17396,0.17969 -1.86874,0.17969 -1.34167,0 -2.61145,-0.23958 -3.80935,-0.71875 -1.17396,-0.50312 -2.20416,-1.18593 -3.09061,-2.04842 -0.86249,-0.88645 -1.55728,-1.91665 -2.08436,-3.09061 -0.50312,-1.1979 -0.75468,-2.50362 -0.75468,-3.91716 0,-1.55727 0.23958,-2.9708 0.71874,-4.2406 0.50312,-1.26977 1.18593,-2.34789 2.04843,-3.23436 0.86249,-0.91039 1.86873,-1.60518 3.01873,-2.08436 1.14999,-0.5031 2.38383,-0.75466 3.70154,-0.75468 l 2.15624,0 c 0.35936,2e-5 0.55102,0.012 0.57499,0.0359 0.6229,2e-5 1.46144,-0.25154 2.51561,-0.75469 l 2.08436,4.16873 -2.08436,1.14999 c -1.19792,-1.77289 -2.91093,-2.65934 -5.13903,-2.65936 -2.15624,2e-5 -3.23436,1.20991 -3.23435,3.62967 l 0,9.37963 c -10e-6,2.15624 1.12602,3.23435 3.3781,3.23435 2.06039,0 3.67757,-0.98228 4.85153,-2.94685 l 1.79687,0.86249"
         id="path4158" />
      <path
         d="m 446.71008,403.55418 c -2.15624,2e-5 -3.23436,1.23386 -3.23435,3.70154 l 0,9.27182 c -10e-6,2.13228 1.11405,3.19842 3.34217,3.19842 2.15622,0 3.23434,-1.23385 3.23435,-3.70154 l 0,-9.27182 c -1e-5,-2.13226 -1.11407,-3.1984 -3.34217,-3.19842 m -9.66712,8.08589 c 0,-1.46144 0.25156,-2.8031 0.75468,-4.02498 0.50312,-1.24581 1.19791,-2.31195 2.08436,-3.19842 0.88645,-0.88643 1.91665,-1.56924 3.09061,-2.04842 1.1979,-0.5031 2.47966,-0.75466 3.84529,-0.75468 1.34164,0.024 2.61143,0.28751 3.80935,0.79062 1.19789,0.47918 2.24007,1.16199 3.12654,2.04842 0.88644,0.86251 1.58122,1.90469 2.08436,3.12655 0.52706,1.22188 0.7906,2.57551 0.79062,4.06091 -2e-5,1.48541 -0.26356,2.83905 -0.79062,4.06091 -0.50314,1.22187 -1.19792,2.27603 -2.08436,3.16248 -0.88647,0.8625 -1.92865,1.5453 -3.12654,2.04843 -1.19792,0.47916 -2.46771,0.73072 -3.80935,0.75468 -1.36563,-0.024 -2.64739,-0.27552 -3.84529,-0.75468 -1.17396,-0.50313 -2.20416,-1.18593 -3.09061,-2.04843 -0.88645,-0.88645 -1.58124,-1.94061 -2.08436,-3.16248 -0.50312,-1.22186 -0.75468,-2.5755 -0.75468,-4.06091"
         id="path4160" />
      <path
         d="m 458.61656,394.24642 6.46871,0 0,26.9889 -6.46871,0 0,-26.9889"
         id="path4162" />
      <path
         d="m 468.16239,394.24642 6.46872,0 0,26.9889 -6.46872,0 0,-26.9889"
         id="path4164" />
      <path
         d="m 486.29724,403.55418 c -2.15624,2e-5 -3.23436,1.23386 -3.23435,3.70154 l 0,2.37186 6.57652,0 0,-2.87498 c -10e-6,-2.13226 -1.11407,-3.1984 -3.34217,-3.19842 m -3.23435,8.40932 0,4.56404 c -10e-6,2.10832 1.17394,3.22238 3.52185,3.34216 1.22186,10e-6 2.34789,-0.34739 3.3781,-1.04218 1.03019,-0.69478 2.04841,-1.79686 3.05467,-3.30623 l 2.51561,0.97031 c -0.57501,0.88646 -1.22188,1.6651 -1.94061,2.33592 -0.6948,0.64688 -1.42553,1.18593 -2.19217,1.61718 -0.76668,0.43125 -1.54532,0.7427 -2.33593,0.93437 -0.79063,0.21562 -1.55729,0.32344 -2.29998,0.32344 -1.48542,0 -2.85104,-0.25157 -4.09685,-0.75469 -1.24583,-0.52708 -2.32395,-1.23384 -3.23436,-2.1203 -0.88645,-0.9104 -1.58124,-1.97654 -2.08436,-3.19841 -0.47916,-1.22187 -0.71875,-2.53956 -0.71875,-3.95311 0,-1.38956 0.23959,-2.69528 0.71875,-3.91716 0.47916,-1.22185 1.14999,-2.28799 2.01249,-3.19842 0.86249,-0.91039 1.89269,-1.62913 3.0906,-2.15623 1.1979,-0.52706 2.5156,-0.7906 3.9531,-0.79062 1.36561,2e-5 2.62341,0.2396 3.77342,0.71874 1.17393,0.47918 2.18018,1.17397 3.01873,2.08436 0.86248,0.88647 1.5333,1.96459 2.01249,3.23436 0.5031,1.2698 0.75466,2.70729 0.75468,4.31247 l -12.90148,0"
         id="path4166" />
      <path
         d="m 513.30243,417.67753 c -0.57502,0.81458 -1.11408,1.48541 -1.61718,2.01249 -0.50314,0.50312 -1.01824,0.91041 -1.54531,1.22187 -0.50313,0.28749 -1.04219,0.47916 -1.61717,0.57499 -0.55105,0.11979 -1.17396,0.17969 -1.86874,0.17969 -1.34167,0 -2.61145,-0.23958 -3.80935,-0.71875 -1.17396,-0.50312 -2.20416,-1.18593 -3.09061,-2.04842 -0.8625,-0.88645 -1.55728,-1.91665 -2.08436,-3.09061 -0.50312,-1.1979 -0.75468,-2.50362 -0.75468,-3.91716 0,-1.55727 0.23958,-2.9708 0.71874,-4.2406 0.50312,-1.26977 1.18593,-2.34789 2.04843,-3.23436 0.86249,-0.91039 1.86873,-1.60518 3.01873,-2.08436 1.14998,-0.5031 2.38383,-0.75466 3.70154,-0.75468 l 2.15623,0 c 0.35936,2e-5 0.55103,0.012 0.575,0.0359 0.6229,2e-5 1.46144,-0.25154 2.51561,-0.75469 l 2.08436,4.16873 -2.08436,1.14999 c -1.19792,-1.77289 -2.91093,-2.65934 -5.13903,-2.65936 -2.15625,2e-5 -3.23436,1.20991 -3.23436,3.62967 l 0,9.37963 c 0,2.15624 1.12603,3.23435 3.37811,3.23435 2.06039,0 3.67757,-0.98228 4.85153,-2.94685 l 1.79687,0.86249"
         id="path4168" />
      <path
         d="m 522.16321,417.67753 c -1e-5,0.81458 0.13176,1.35364 0.39531,1.61718 0.28749,0.26354 0.65884,0.39531 1.11405,0.39531 0.33541,0 0.59895,-0.0958 0.79062,-0.2875 0.19166,-0.21562 0.28749,-0.44322 0.2875,-0.68281 -10e-6,-0.26354 -0.13178,-0.52708 -0.39531,-0.79062 l 2.91092,-1.11405 0,0.53905 c -10e-6,0.83854 -0.13178,1.53333 -0.39531,2.08437 -0.23959,0.52708 -0.59896,0.94635 -1.07812,1.2578 -0.45521,0.2875 -1.00625,0.47917 -1.65311,0.575 -0.62292,0.11979 -1.31771,0.17968 -2.08436,0.17968 -0.9823,0 -1.86875,-0.0958 -2.65936,-0.28749 -0.79063,-0.19167 -1.46146,-0.5151 -2.01249,-0.97031 -0.52708,-0.47916 -0.93437,-1.11405 -1.22187,-1.90468 -0.2875,-0.81457 -0.43125,-1.84477 -0.43124,-3.0906 l 0,-11.32024 -1.8328,0 0,-1.94062 1.8328,0 0,-2.73123 c 0.62291,2e-5 1.23384,-0.13175 1.8328,-0.39531 0.59895,-0.26352 1.12603,-0.62289 1.58124,-1.07812 0.47916,-0.45518 0.85051,-0.98226 1.11405,-1.58124 0.28749,-0.59893 0.43124,-1.23382 0.43125,-1.90468 l 1.47343,0 0,7.69058 3.16248,0 0,1.94062 -3.16248,0 0,13.79991"
         id="path4170" />
      <path
         d="m 537.32536,403.55418 c -2.15624,2e-5 -3.23436,1.23386 -3.23435,3.70154 l 0,2.37186 6.57652,0 0,-2.87498 c -1e-5,-2.13226 -1.11407,-3.1984 -3.34217,-3.19842 m -3.23435,8.40932 0,4.56404 c -10e-6,2.10832 1.17394,3.22238 3.52185,3.34216 1.22186,10e-6 2.34789,-0.34739 3.37811,-1.04218 1.03018,-0.69478 2.04841,-1.79686 3.05467,-3.30623 l 2.5156,0.97031 c -0.57501,0.88646 -1.22188,1.6651 -1.94061,2.33592 -0.6948,0.64688 -1.42553,1.18593 -2.19217,1.61718 -0.76668,0.43125 -1.54532,0.7427 -2.33593,0.93437 -0.79063,0.21562 -1.55729,0.32344 -2.29998,0.32344 -1.48542,0 -2.85103,-0.25157 -4.09685,-0.75469 -1.24583,-0.52708 -2.32395,-1.23384 -3.23436,-2.1203 -0.88645,-0.9104 -1.58124,-1.97654 -2.08436,-3.19841 -0.47916,-1.22187 -0.71874,-2.53956 -0.71874,-3.95311 0,-1.38956 0.23958,-2.69528 0.71874,-3.91716 0.47916,-1.22185 1.14999,-2.28799 2.01249,-3.19842 0.86249,-0.91039 1.89269,-1.62913 3.09061,-2.15623 1.1979,-0.52706 2.5156,-0.7906 3.9531,-0.79062 1.3656,2e-5 2.6234,0.2396 3.77341,0.71874 1.17394,0.47918 2.18018,1.17397 3.01873,2.08436 0.86248,0.88647 1.53331,1.96459 2.01249,3.23436 0.5031,1.2698 0.75466,2.70729 0.75468,4.31247 l -12.90148,0"
         id="path4172" />
      <path
         d="m 567.52896,395.14486 0,26.09046 -6.46871,0 0,-1.00624 c -1.03021,0.95832 -2.14426,1.43749 -3.34216,1.43749 -1.34167,-0.024 -2.61145,-0.27552 -3.80935,-0.75468 -1.17396,-0.50313 -2.20416,-1.18593 -3.09061,-2.04843 -0.88645,-0.88645 -1.59322,-1.94061 -2.1203,-3.16248 -0.50312,-1.22186 -0.75468,-2.5755 -0.75468,-4.06091 0,-1.50936 0.26354,-2.87497 0.79062,-4.09685 0.55103,-1.22185 1.26978,-2.27601 2.15623,-3.16248 0.88645,-0.88644 1.88072,-1.56925 2.9828,-2.04843 1.10207,-0.47914 2.21612,-0.71872 3.34217,-0.71874 0.64686,2e-5 1.29373,0.0959 1.94061,0.2875 0.64686,0.19168 1.28175,0.49116 1.90467,0.89843 l 0,-7.65464 6.46871,0 m -9.66712,8.40932 c -2.25208,2e-5 -3.37811,1.06616 -3.37811,3.19842 l 0,9.27182 c 0,2.46769 1.07811,3.70154 3.23436,3.70154 1.96456,0 3.07861,-0.8625 3.34216,-2.58749 l 0,-10.56556 c -0.19167,-2.01247 -1.25781,-3.01871 -3.19841,-3.01873"
         id="path4174" />
      <path
         d="m 590.17845,403.55418 c -2.15624,2e-5 -3.23436,1.23386 -3.23435,3.70154 l 0,2.37186 6.57652,0 0,-2.87498 c -10e-6,-2.13226 -1.11407,-3.1984 -3.34217,-3.19842 m -3.23435,8.40932 0,4.56404 c -1e-5,2.10832 1.17394,3.22238 3.52185,3.34216 1.22186,10e-6 2.34789,-0.34739 3.3781,-1.04218 1.03019,-0.69478 2.04841,-1.79686 3.05467,-3.30623 l 2.51561,0.97031 c -0.57501,0.88646 -1.22188,1.6651 -1.94061,2.33592 -0.6948,0.64688 -1.42553,1.18593 -2.19217,1.61718 -0.76668,0.43125 -1.54532,0.7427 -2.33593,0.93437 -0.79063,0.21562 -1.55729,0.32344 -2.29998,0.32344 -1.48542,0 -2.85103,-0.25157 -4.09685,-0.75469 -1.24583,-0.52708 -2.32395,-1.23384 -3.23436,-2.1203 -0.88645,-0.9104 -1.58124,-1.97654 -2.08436,-3.19841 -0.47916,-1.22187 -0.71875,-2.53956 -0.71875,-3.95311 0,-1.38956 0.23959,-2.69528 0.71875,-3.91716 0.47916,-1.22185 1.14999,-2.28799 2.01249,-3.19842 0.86249,-0.91039 1.89269,-1.62913 3.0906,-2.15623 1.19791,-0.52706 2.5156,-0.7906 3.9531,-0.79062 1.36561,2e-5 2.62341,0.2396 3.77342,0.71874 1.17393,0.47918 2.18018,1.17397 3.01873,2.08436 0.86248,0.88647 1.53331,1.96459 2.01249,3.23436 0.5031,1.2698 0.75466,2.70729 0.75468,4.31247 l -12.90148,0"
         id="path4176" />
      <path
         d="m 614.93811,401.937 2.08436,0 -6.72027,19.29832 -4.16872,0 -6.57652,-19.29832 6.54058,0 4.34841,13.26086 4.49216,-13.26086"
         id="path4178" />
      <path
         d="m 626.39647,403.55418 c -2.15624,2e-5 -3.23436,1.23386 -3.23436,3.70154 l 0,2.37186 6.57653,0 0,-2.87498 c -2e-5,-2.13226 -1.11407,-3.1984 -3.34217,-3.19842 m -3.23436,8.40932 0,4.56404 c 0,2.10832 1.17395,3.22238 3.52186,3.34216 1.22185,10e-6 2.34789,-0.34739 3.3781,-1.04218 1.03019,-0.69478 2.04841,-1.79686 3.05467,-3.30623 l 2.51561,0.97031 c -0.57501,0.88646 -1.22189,1.6651 -1.94061,2.33592 -0.69481,0.64688 -1.42553,1.18593 -2.19218,1.61718 -0.76667,0.43125 -1.54531,0.7427 -2.33592,0.93437 -0.79063,0.21562 -1.55729,0.32344 -2.29999,0.32344 -1.48541,0 -2.85103,-0.25157 -4.09685,-0.75469 -1.24583,-0.52708 -2.32394,-1.23384 -3.23435,-2.1203 -0.88646,-0.9104 -1.58124,-1.97654 -2.08436,-3.19841 -0.47917,-1.22187 -0.71875,-2.53956 -0.71875,-3.95311 0,-1.38956 0.23958,-2.69528 0.71875,-3.91716 0.47916,-1.22185 1.14999,-2.28799 2.01249,-3.19842 0.86249,-0.91039 1.89269,-1.62913 3.0906,-2.15623 1.1979,-0.52706 2.5156,-0.7906 3.9531,-0.79062 1.36561,2e-5 2.62341,0.2396 3.77342,0.71874 1.17393,0.47918 2.18017,1.17397 3.01873,2.08436 0.86247,0.88647 1.5333,1.96459 2.01249,3.23436 0.5031,1.2698 0.75466,2.70729 0.75468,4.31247 l -12.90149,0"
         id="path4180" />
      <path
         d="m 647.73872,405.8901 c -0.4073,-1.0781 -0.9823,-1.61716 -1.72499,-1.61717 -0.74271,1e-5 -1.28177,0.31147 -1.61718,0.93436 -0.31146,0.62293 -0.46719,1.34168 -0.46718,2.15624 l 0,13.87179 -6.46871,0 0,-19.29832 6.46871,0 0,1.86874 c 0.38332,-0.76664 0.85051,-1.32966 1.40155,-1.68905 0.55103,-0.35935 1.18592,-0.53904 1.90468,-0.53906 1.00623,2e-5 1.84477,0.33543 2.51561,1.00624 l -2.01249,3.30623"
         id="path4182" />
      <path
         d="m 665.12393,401.937 2.08437,0 -8.15777,23.53892 c -0.35938,1.0302 -0.89844,1.7729 -1.61717,2.22811 -0.6948,0.4552 -1.47344,0.6828 -2.33593,0.68281 -1.14999,-1e-5 -2.08436,-0.29948 -2.8031,-0.89843 -0.71875,-0.59896 -1.07812,-1.44948 -1.07812,-2.55155 0,-0.55104 0.10781,-1.11406 0.32343,-1.68905 0.23958,-0.55104 0.62291,-1.06614 1.15,-1.5453 l 2.76717,2.1203 c -0.38334,0.0719 -0.65886,0.23957 -0.82656,0.50312 -0.14376,0.26353 -0.21563,0.55103 -0.21563,0.86249 0,0.0958 0.012,0.21562 0.0359,0.35937 0.024,0.14375 0.0719,0.27552 0.14375,0.39531 0.0719,0.11979 0.17968,0.2276 0.32344,0.32344 0.1677,0.0958 0.38332,0.14374 0.64687,0.14375 0.26353,-10e-6 0.52707,-0.0958 0.79062,-0.2875 0.28749,-0.19167 0.50311,-0.50313 0.64687,-0.93437 l 1.32968,-3.9531 -2.01249,0 -6.57652,-19.29832 6.54058,0 4.34841,13.26086 4.49216,-13.26086"
         id="path4184" />
      <path
         d="m 691.0353,406.28541 c -0.62293,-1.00622 -1.3297,-1.70101 -2.1203,-2.08436 -0.76668,-0.38331 -1.66511,-0.57498 -2.6953,-0.575 -0.76667,2e-5 -1.35364,0.14377 -1.76093,0.43125 -0.38333,0.26356 -0.575,0.59897 -0.57499,1.00625 -10e-6,0.21564 0.0719,0.43126 0.21562,0.64687 0.1677,0.21564 0.44322,0.44324 0.82656,0.6828 0.38332,0.21564 0.9104,0.45522 1.58124,0.71875 0.67082,0.2396 1.50935,0.51512 2.51561,0.82656 1.03019,0.33543 1.91664,0.76667 2.65936,1.29374 0.76664,0.52709 1.40154,1.11407 1.90467,1.76093 0.50311,0.64688 0.87446,1.35364 1.11406,2.1203 0.23956,0.74271 0.35935,1.48541 0.35937,2.22811 -2e-5,1.10208 -0.2396,2.06041 -0.71874,2.87498 -0.45523,0.79062 -1.05418,1.44947 -1.79687,1.97655 -0.71876,0.52708 -1.54531,0.92239 -2.47967,1.18593 -0.91042,0.26354 -1.83281,0.40729 -2.76717,0.43125 -0.93438,0 -1.89271,-0.10781 -2.87498,-0.32344 -0.95834,-0.19166 -1.83281,-0.49114 -2.62342,-0.89843 -0.79063,-0.40729 -1.4375,-0.92239 -1.94062,-1.5453 -0.47916,-0.62291 -0.71874,-1.35364 -0.71874,-2.19218 0,-0.79061 0.31145,-1.60519 0.93437,-2.44373 l 2.76717,0.71874 c -0.4073,0.45521 -0.61094,0.97032 -0.61094,1.54531 0,0.50312 0.13177,0.95833 0.39531,1.36561 0.2875,0.4073 0.65885,0.75469 1.11406,1.04218 0.47916,0.2875 1.01821,0.51511 1.61718,0.68281 0.59894,0.14375 1.23383,0.21563 1.90467,0.21563 1.00624,0 1.86873,-0.19167 2.58749,-0.575 0.74269,-0.40729 1.11404,-0.99426 1.11405,-1.76093 -1e-5,-0.35937 -0.10782,-0.70676 -0.32343,-1.04218 -0.19168,-0.35937 -0.53908,-0.70676 -1.04219,-1.04218 -0.47917,-0.33541 -1.12604,-0.65884 -1.94061,-0.97031 -0.79063,-0.3354 -1.78489,-0.64686 -2.98279,-0.93436 -1.00625,-0.23958 -1.86875,-0.56301 -2.58749,-0.97031 -0.69479,-0.40728 -1.28176,-0.87447 -1.76092,-1.40156 -0.45521,-0.55102 -0.79062,-1.138 -1.00625,-1.76092 -0.21562,-0.6229 -0.32343,-1.26977 -0.32343,-1.94061 0,-0.57499 0.11979,-1.18592 0.35937,-1.83281 0.38333,-1.0781 0.92239,-1.89268 1.61718,-2.44373 0.71874,-0.57498 1.46144,-0.98227 2.22811,-1.22187 0.76666,-0.23956 1.49738,-0.37133 2.19217,-0.39531 0.69478,-0.0239 1.20988,-0.0359 1.54531,-0.0359 l 1.65311,0 c 0.4552,2e-5 1.26977,-0.23956 2.44374,-0.71874 l 2.1203,4.20466 -2.1203,1.14999"
         id="path4186" />
      <path
         d="m 704.09567,417.67753 c 0,0.81458 0.13177,1.35364 0.39531,1.61718 0.28749,0.26354 0.65884,0.39531 1.11406,0.39531 0.3354,0 0.59894,-0.0958 0.79062,-0.2875 0.19165,-0.21562 0.28749,-0.44322 0.2875,-0.68281 -1e-5,-0.26354 -0.13178,-0.52708 -0.39531,-0.79062 l 2.91092,-1.11405 0,0.53905 c -2e-5,0.83854 -0.13179,1.53333 -0.39531,2.08437 -0.2396,0.52708 -0.59897,0.94635 -1.07812,1.2578 -0.45522,0.2875 -1.00626,0.47917 -1.65312,0.575 -0.62292,0.11979 -1.31771,0.17968 -2.08436,0.17968 -0.98229,0 -1.86874,-0.0958 -2.65936,-0.28749 -0.79062,-0.19167 -1.46145,-0.5151 -2.01248,-0.97031 -0.52709,-0.47916 -0.93438,-1.11405 -1.22187,-1.90468 -0.2875,-0.81457 -0.43125,-1.84477 -0.43125,-3.0906 l 0,-11.32024 -1.8328,0 0,-1.94062 1.8328,0 0,-2.73123 c 0.62291,2e-5 1.23384,-0.13175 1.8328,-0.39531 0.59895,-0.26352 1.12603,-0.62289 1.58124,-1.07812 0.47916,-0.45518 0.85051,-0.98226 1.11406,-1.58124 0.28749,-0.59893 0.43124,-1.23382 0.43125,-1.90468 l 1.47342,0 0,7.69058 3.16248,0 0,1.94062 -3.16248,0 0,13.79991"
         id="path4188" />
      <path
         d="m 729.17655,401.937 0,19.29832 -6.46871,0 0,-1.00624 c -1.03022,0.95832 -2.14427,1.43749 -3.34217,1.43749 -1.29375,0 -2.53957,-0.2276 -3.73748,-0.68281 -1.17395,-0.47916 -2.21613,-1.14999 -3.12654,-2.01249 -0.88645,-0.88645 -1.59322,-1.96456 -2.1203,-3.23435 -0.52708,-1.26978 -0.79062,-2.71925 -0.79062,-4.34841 0,-1.31769 0.25156,-2.56352 0.75468,-3.73748 0.52708,-1.19789 1.20989,-2.24007 2.04843,-3.12654 0.83853,-0.88644 1.80884,-1.58123 2.91092,-2.08437 1.10207,-0.52706 2.24008,-0.7906 3.41404,-0.79062 0.69478,2e-5 1.37758,0.11981 2.04842,0.35938 0.67082,0.21564 1.31769,0.58699 1.94062,1.11405 l 0,-1.18593 6.46871,0 m -9.66713,1.61718 c -2.25208,2e-5 -3.37811,1.06616 -3.3781,3.19842 l 0,9.27182 c -10e-6,2.46769 1.07811,3.70154 3.23435,3.70154 2.01248,-0.19167 3.12653,-1.13802 3.34217,-2.83905 l 0,-10.314 c -0.19168,-2.01247 -1.25782,-3.01871 -3.19842,-3.01873"
         id="path4190" />
      <path
         d="m 742.56541,405.8901 c -0.4073,-1.0781 -0.9823,-1.61716 -1.72499,-1.61717 -0.74271,1e-5 -1.28177,0.31147 -1.61718,0.93436 -0.31146,0.62293 -0.46719,1.34168 -0.46718,2.15624 l 0,13.87179 -6.46871,0 0,-19.29832 6.46871,0 0,1.86874 c 0.38332,-0.76664 0.85051,-1.32966 1.40155,-1.68905 0.55103,-0.35935 1.18592,-0.53904 1.90468,-0.53906 1.00623,2e-5 1.84477,0.33543 2.51561,1.00624 l -2.01249,3.30623"
         id="path4192" />
      <path
         d="m 314.09535,473.23656 0,-26.37796 6.46871,0 0,0.75468 c 1.03019,-0.7906 2.14424,-1.18591 3.34216,-1.18593 1.34165,0.0479 2.59945,0.32346 3.77342,0.82656 1.19789,0.47918 2.24007,1.15001 3.12654,2.01249 0.88643,0.86251 1.58122,1.90469 2.08436,3.12654 0.52706,1.19792 0.7906,2.55156 0.79062,4.06091 -2e-5,1.48542 -0.27554,2.83906 -0.82656,4.06092 -0.5271,1.22187 -1.23386,2.27603 -2.12029,3.16248 -0.86252,0.88645 -1.85678,1.58124 -2.9828,2.08436 -1.10209,0.47916 -2.2401,0.71874 -3.41404,0.71874 -0.64688,0 -1.29375,-0.0958 -1.94061,-0.28749 -0.62293,-0.19167 -1.23386,-0.49115 -1.8328,-0.89844 l 0,7.94214 -6.46871,0 m 9.66712,-8.69682 c 2.2281,0 3.34216,-1.06613 3.34217,-3.19842 l 0,-9.27181 c -1e-5,-2.46768 -1.06615,-3.70153 -3.19842,-3.70154 -1.96458,10e-6 -3.07863,0.86251 -3.34216,2.58748 l 0,10.56556 c 0.16769,2.01249 1.23383,3.01873 3.19841,3.01873"
         id="path4194" />
      <path
         d="m 335.71386,439.16802 6.46871,0 0,26.9889 -6.46871,0 0,-26.9889"
         id="path4196" />
      <path
         d="m 363.7674,446.8586 0,19.29832 -6.46871,0 0,-1.00624 c -1.03021,0.95832 -2.14427,1.43749 -3.34217,1.43749 -1.29375,0 -2.53957,-0.22761 -3.73747,-0.68281 -1.17396,-0.47916 -2.21614,-1.14999 -3.12655,-2.01249 -0.88645,-0.88645 -1.59322,-1.96457 -2.12029,-3.23435 -0.52709,-1.26978 -0.79063,-2.71925 -0.79062,-4.34841 -1e-5,-1.31769 0.25156,-2.56352 0.75468,-3.73748 0.52708,-1.1979 1.20988,-2.24008 2.04842,-3.12655 0.83854,-0.88643 1.80884,-1.58122 2.91092,-2.08436 1.10207,-0.52706 2.24008,-0.7906 3.41404,-0.79062 0.69478,2e-5 1.37759,0.11981 2.04843,0.35938 0.67082,0.21564 1.31769,0.58699 1.94061,1.11405 l 0,-1.18593 6.46871,0 m -9.66713,1.61718 c -2.25207,2e-5 -3.37811,1.06615 -3.3781,3.19842 l 0,9.27181 c -1e-5,2.4677 1.07811,3.70155 3.23435,3.70154 2.01248,-0.19166 3.12653,-1.13801 3.34217,-2.83904 l 0,-10.314 c -0.19168,-2.01247 -1.25782,-3.01871 -3.19842,-3.01873"
         id="path4198" />
      <path
         d="m 380.71407,446.8586 2.08436,0 -8.15776,23.53892 c -0.35938,1.0302 -0.89844,1.7729 -1.61717,2.22811 -0.6948,0.4552 -1.47344,0.6828 -2.33593,0.68281 -1.15,-1e-5 -2.08436,-0.29949 -2.80311,-0.89843 -0.71874,-0.59896 -1.07812,-1.44948 -1.07811,-2.55155 -1e-5,-0.55104 0.10781,-1.11406 0.32343,-1.68905 0.23958,-0.55104 0.62291,-1.06614 1.14999,-1.54531 l 2.76717,2.1203 c -0.38333,0.0719 -0.65885,0.23958 -0.82655,0.50313 -0.14376,0.26353 -0.21563,0.55103 -0.21563,0.86249 0,0.0958 0.012,0.21562 0.0359,0.35937 0.0239,0.14375 0.0719,0.27552 0.14375,0.39531 0.0719,0.11979 0.17968,0.2276 0.32344,0.32344 0.1677,0.0958 0.38332,0.14374 0.64687,0.14375 0.26353,-10e-6 0.52707,-0.0958 0.79062,-0.2875 0.28749,-0.19167 0.50311,-0.50313 0.64687,-0.93437 l 1.32968,-3.9531 -2.01249,0 -6.57652,-19.29832 6.54058,0 4.34841,13.26086 4.49216,-13.26086"
         id="path4200" />
      <path
         d="m 390.82424,439.16802 0,5.31872 -6.46871,0 0,-5.31872 6.46871,0 m -6.46871,26.9889 0,-19.29832 6.46871,0 0,19.29832 -6.46871,0"
         id="path4202" />
      <path
         d="m 405.04193,451.06326 c -10e-6,-1.72497 -0.74271,-2.58746 -2.22811,-2.58748 -1.46146,2e-5 -2.27604,0.80261 -2.44373,2.4078 l 0,15.27334 -6.46871,0 0,-19.29832 6.46871,0 0,0.8625 c 1.31769,-0.86248 2.94684,-1.29373 4.88747,-1.29375 0.81456,2e-5 1.60518,0.10783 2.37186,0.32344 0.76664,0.19168 1.43747,0.55106 2.01248,1.07812 0.59894,0.50314 1.06612,1.19792 1.40156,2.08436 0.35935,0.86251 0.53904,1.95261 0.53906,3.27029 l 0,12.97336 -6.54059,0 0,-15.09366"
         id="path4204" />
      <path
         d="m 423.51818,464.5038 c 1.9406,10e-6 3.00674,-1.00624 3.19842,-3.01873 l 0,-10.56556 c -0.21564,-1.70101 -1.36563,-2.55153 -3.44998,-2.55154 -2.08437,10e-6 -3.12655,1.22188 -3.12654,3.6656 l 0,9.27182 c -1e-5,2.13228 1.12603,3.19842 3.3781,3.19841 m -3.01873,3.5578 c -0.50313,0.43124 -0.75469,0.87447 -0.75468,1.32967 -1e-5,0.67083 0.33541,1.19791 1.00624,1.58124 0.69478,0.38333 1.5453,0.575 2.55155,0.575 1.03019,0 1.85675,-0.26354 2.47967,-0.79062 0.6229,-0.52708 0.93436,-1.41353 0.93437,-2.65936 l 0,-2.83904 c -1.17396,0.81458 -2.37187,1.22186 -3.59373,1.22186 -1.55729,0 -2.9229,-0.29947 -4.09685,-0.89843 -1.17395,-0.59895 -2.16822,-1.36561 -2.98279,-2.29998 -0.81458,-0.95833 -1.42551,-2.02446 -1.8328,-3.19842 -0.40729,-1.1979 -0.61094,-2.38383 -0.61094,-3.55779 0,-1.29373 0.22761,-2.55154 0.68281,-3.77342 0.47917,-1.22185 1.13801,-2.29997 1.97655,-3.23435 0.83854,-0.95831 1.8328,-1.71299 2.9828,-2.26405 1.14998,-0.57498 2.40779,-0.86247 3.77341,-0.86249 0.67082,2e-5 1.31769,0.10783 1.94061,0.32343 0.62291,0.21564 1.20988,0.587 1.76093,1.11406 l 0,-1.00625 6.46871,0 0,19.22645 c -2e-5,1.41353 -0.25158,2.59946 -0.75468,3.55779 -0.50314,0.95832 -1.17397,1.73696 -2.01249,2.33592 -0.83855,0.59895 -1.79688,1.01822 -2.87498,1.25781 -1.07813,0.26353 -2.19219,0.3953 -3.34217,0.39531 -1.07813,-10e-6 -2.13229,-0.0719 -3.16248,-0.21563 -1.03021,-0.14375 -1.9526,-0.37136 -2.76717,-0.68281 -0.79062,-0.31146 -1.43749,-0.73073 -1.94061,-1.2578 -0.50313,-0.50313 -0.75469,-1.12604 -0.75468,-1.86874 -1e-5,-0.67083 0.14374,-1.25781 0.43124,-1.76093 0.31146,-0.50312 0.73072,-0.92239 1.25781,-1.2578 l 3.23435,1.50937"
         id="path4206" />
      <path
         d="m 455.83478,448.47578 c -2.15625,2e-5 -3.23437,1.23386 -3.23436,3.70154 l 0,9.27182 c -10e-6,2.13228 1.11405,3.19842 3.34217,3.19841 2.15622,10e-6 3.23434,-1.23384 3.23435,-3.70154 l 0,-9.27181 c -10e-6,-2.13227 -1.11407,-3.1984 -3.34216,-3.19842 m -9.66713,8.08589 c 0,-1.46144 0.25156,-2.8031 0.75468,-4.02498 0.50312,-1.24581 1.19791,-2.31195 2.08436,-3.19842 0.88645,-0.88643 1.91665,-1.56924 3.09061,-2.04842 1.1979,-0.5031 2.47966,-0.75467 3.84529,-0.75468 1.34164,0.024 2.61143,0.28751 3.80935,0.79062 1.19789,0.47918 2.24007,1.16199 3.12654,2.04842 0.88644,0.86251 1.58122,1.90469 2.08436,3.12654 0.52707,1.22188 0.7906,2.57552 0.79062,4.06092 -2e-5,1.48541 -0.26355,2.83905 -0.79062,4.06091 -0.50314,1.22187 -1.19792,2.27603 -2.08436,3.16248 -0.88647,0.8625 -1.92865,1.5453 -3.12654,2.04842 -1.19792,0.47917 -2.46771,0.73073 -3.80935,0.75469 -1.36563,-0.024 -2.64739,-0.27552 -3.84529,-0.75469 -1.17396,-0.50312 -2.20416,-1.18592 -3.09061,-2.04842 -0.88645,-0.88645 -1.58124,-1.94061 -2.08436,-3.16248 -0.50312,-1.22186 -0.75468,-2.5755 -0.75468,-4.06091"
         id="path4208" />
      <path
         d="m 478.88181,451.06326 c -2e-5,-1.72497 -0.74272,-2.58746 -2.22812,-2.58748 -1.46145,2e-5 -2.27603,0.80261 -2.44373,2.4078 l 0,15.27334 -6.46871,0 0,-19.29832 6.46871,0 0,0.8625 c 1.31769,-0.86248 2.94685,-1.29373 4.88747,-1.29375 0.81456,2e-5 1.60518,0.10783 2.37186,0.32344 0.76665,0.19168 1.43747,0.55106 2.01249,1.07812 0.59893,0.50314 1.06612,1.19792 1.40155,2.08436 0.35936,0.86251 0.53904,1.95261 0.53906,3.27029 l 0,12.97336 -6.54058,0 0,-15.09366"
         id="path4210" />
      <path
         d="m 508.05614,448.47578 c -2.15625,2e-5 -3.23437,1.23386 -3.23436,3.70154 l 0,2.37186 6.57652,0 0,-2.87498 c -1e-5,-2.13227 -1.11407,-3.1984 -3.34216,-3.19842 m -3.23436,8.40932 0,4.56404 c -10e-6,2.10832 1.17394,3.22237 3.52185,3.34216 1.22186,0 2.34789,-0.34739 3.37811,-1.04218 1.03018,-0.69478 2.04841,-1.79686 3.05467,-3.30623 l 2.51561,0.97031 c -0.57502,0.88646 -1.22189,1.6651 -1.94062,2.33592 -0.6948,0.64687 -1.42553,1.18593 -2.19217,1.61718 -0.76668,0.43125 -1.54532,0.7427 -2.33592,0.93437 -0.79064,0.21562 -1.5573,0.32343 -2.29999,0.32343 -1.48542,0 -2.85103,-0.25156 -4.09685,-0.75468 -1.24583,-0.52708 -2.32395,-1.23384 -3.23435,-2.1203 -0.88646,-0.91041 -1.58125,-1.97654 -2.08437,-3.19842 -0.47916,-1.22186 -0.71874,-2.53956 -0.71874,-3.9531 0,-1.38956 0.23958,-2.69528 0.71874,-3.91716 0.47916,-1.22185 1.14999,-2.28799 2.01249,-3.19842 0.86249,-0.91039 1.89269,-1.62914 3.09061,-2.15623 1.1979,-0.52707 2.5156,-0.79061 3.9531,-0.79062 1.3656,1e-5 2.62341,0.2396 3.77341,0.71874 1.17394,0.47918 2.18018,1.17397 3.01873,2.08436 0.86248,0.88647 1.53331,1.96459 2.01249,3.23436 0.5031,1.26979 0.75466,2.70728 0.75468,4.31247 l -12.90148,0"
         id="path4212"
         style="fill:#27ae60;fill-opacity:1" />
      <path
         d="m 538.25974,446.8586 0,19.29832 -6.46871,0 0,-1.00624 c -1.03022,0.95832 -2.14427,1.43749 -3.34217,1.43749 -1.29375,0 -2.53958,-0.22761 -3.73748,-0.68281 -1.17395,-0.47916 -2.21613,-1.14999 -3.12654,-2.01249 -0.88646,-0.88645 -1.59322,-1.96457 -2.1203,-3.23435 -0.52708,-1.26978 -0.79062,-2.71925 -0.79062,-4.34841 0,-1.31769 0.25156,-2.56352 0.75468,-3.73748 0.52708,-1.1979 1.20989,-2.24008 2.04843,-3.12655 0.83853,-0.88643 1.80884,-1.58122 2.91092,-2.08436 1.10207,-0.52706 2.24008,-0.7906 3.41404,-0.79062 0.69478,2e-5 1.37758,0.11981 2.04842,0.35938 0.67082,0.21564 1.31769,0.58699 1.94062,1.11405 l 0,-1.18593 6.46871,0 m -9.66713,1.61718 c -2.25208,2e-5 -3.37811,1.06615 -3.37811,3.19842 l 0,9.27181 c 0,2.4677 1.07811,3.70155 3.23436,3.70154 2.01247,-0.19166 3.12653,-1.13801 3.34217,-2.83904 l 0,-10.314 c -0.19168,-2.01247 -1.25782,-3.01871 -3.19842,-3.01873"
         id="path4214"
         style="fill:#27ae60;fill-opacity:1" />
      <path
         d="m 552.6908,451.20701 c -0.62293,-1.00623 -1.3297,-1.70101 -2.1203,-2.08436 -0.76668,-0.38331 -1.66511,-0.57498 -2.6953,-0.575 -0.76667,2e-5 -1.35364,0.14377 -1.76093,0.43125 -0.38333,0.26356 -0.575,0.59897 -0.57499,1.00624 -10e-6,0.21564 0.0719,0.43127 0.21562,0.64688 0.1677,0.21563 0.44322,0.44324 0.82656,0.6828 0.38332,0.21564 0.9104,0.45522 1.58124,0.71875 0.67082,0.23959 1.50935,0.51511 2.51561,0.82656 1.03019,0.33542 1.91664,0.76667 2.65936,1.29374 0.76664,0.52709 1.40154,1.11406 1.90467,1.76093 0.50311,0.64688 0.87446,1.35364 1.11406,2.12029 0.23956,0.74272 0.35935,1.48542 0.35937,2.22812 -2e-5,1.10208 -0.2396,2.0604 -0.71874,2.87498 -0.45523,0.79062 -1.05418,1.44947 -1.79687,1.97655 -0.71876,0.52708 -1.54531,0.92239 -2.47967,1.18593 -0.91042,0.26354 -1.83281,0.40729 -2.76717,0.43125 -0.93438,0 -1.89271,-0.10782 -2.87498,-0.32344 -0.95834,-0.19167 -1.83281,-0.49114 -2.62343,-0.89843 -0.79062,-0.40729 -1.43749,-0.92239 -1.94061,-1.5453 -0.47916,-0.62291 -0.71874,-1.35364 -0.71874,-2.19218 0,-0.79061 0.31145,-1.60519 0.93437,-2.44373 l 2.76717,0.71874 c -0.4073,0.45521 -0.61094,0.97031 -0.61094,1.54531 0,0.50312 0.13177,0.95833 0.39531,1.36561 0.2875,0.40729 0.65885,0.75469 1.11406,1.04218 0.47916,0.2875 1.01821,0.51511 1.61718,0.68281 0.59894,0.14375 1.23383,0.21563 1.90467,0.21562 1.00624,10e-6 1.86873,-0.19166 2.58749,-0.57499 0.74269,-0.40729 1.11404,-0.99426 1.11405,-1.76093 -10e-6,-0.35937 -0.10782,-0.70676 -0.32343,-1.04218 -0.19168,-0.35937 -0.53908,-0.70676 -1.04219,-1.04218 -0.47917,-0.33541 -1.12604,-0.65884 -1.94061,-0.97031 -0.79063,-0.3354 -1.78489,-0.64686 -2.98279,-0.93437 -1.00625,-0.23957 -1.86875,-0.56301 -2.58749,-0.9703 -0.69479,-0.40728 -1.28176,-0.87447 -1.76092,-1.40156 -0.45521,-0.55102 -0.79062,-1.138 -1.00625,-1.76092 -0.21562,-0.6229 -0.32343,-1.26977 -0.32343,-1.94062 0,-0.57498 0.11979,-1.18591 0.35937,-1.8328 0.38333,-1.0781 0.92239,-1.89268 1.61718,-2.44373 0.71874,-0.57498 1.46144,-0.98227 2.22811,-1.22187 0.76666,-0.23956 1.49738,-0.37133 2.19217,-0.39531 0.69478,-0.0239 1.20988,-0.0359 1.54531,-0.0359 l 1.65311,0 c 0.4552,2e-5 1.26977,-0.23956 2.44374,-0.71874 l 2.1203,4.20466 -2.1203,1.14999"
         id="path4216"
         style="fill:#27ae60;fill-opacity:1" />
      <path
         d="m 572.54333,446.8586 2.08437,0 -8.15777,23.53892 c -0.35938,1.0302 -0.89844,1.7729 -1.61717,2.22811 -0.6948,0.4552 -1.47344,0.6828 -2.33593,0.68281 -1.14999,-1e-5 -2.08436,-0.29949 -2.8031,-0.89843 -0.71875,-0.59896 -1.07812,-1.44948 -1.07812,-2.55155 0,-0.55104 0.10781,-1.11406 0.32343,-1.68905 0.23958,-0.55104 0.62291,-1.06614 1.15,-1.54531 l 2.76717,2.1203 c -0.38334,0.0719 -0.65886,0.23958 -0.82656,0.50313 -0.14375,0.26353 -0.21563,0.55103 -0.21562,0.86249 -10e-6,0.0958 0.012,0.21562 0.0359,0.35937 0.024,0.14375 0.0719,0.27552 0.14375,0.39531 0.0719,0.11979 0.17968,0.2276 0.32344,0.32344 0.1677,0.0958 0.38332,0.14374 0.64687,0.14375 0.26353,-10e-6 0.52707,-0.0958 0.79062,-0.2875 0.28749,-0.19167 0.50311,-0.50313 0.64687,-0.93437 l 1.32968,-3.9531 -2.01249,0 -6.57652,-19.29832 6.54058,0 4.34841,13.26086 4.49216,-13.26086"
         id="path4218"
         style="fill:#27ae60;fill-opacity:1" />
      <path
         d="m 607.65462,451.06326 c -2e-5,-1.72497 -0.63491,-2.58746 -1.90467,-2.58748 -1.24585,2e-5 -1.86876,0.79064 -1.86874,2.37186 l 0,15.30928 -6.54058,0 0,-15.09366 c -2e-5,-1.72497 -0.58699,-2.58746 -1.76093,-2.58748 -1.15,2e-5 -1.80885,0.80261 -1.97655,2.4078 l 0,15.27334 -6.46871,0 0,-19.29832 6.46871,0 0,1.11406 c 0.55103,-0.55102 1.17394,-0.94633 1.86874,-1.18593 0.71873,-0.23957 1.58123,-0.35936 2.58748,-0.35938 1.43748,2e-5 2.5156,0.22763 3.23436,0.68281 0.74268,0.45523 1.2458,1.05418 1.50936,1.79687 0.47915,-0.88644 1.09008,-1.50935 1.8328,-1.86874 0.76665,-0.35936 1.86872,-0.53904 3.30623,-0.53906 0.76664,2e-5 1.52132,0.11981 2.26405,0.35937 0.76664,0.21564 1.43747,0.587 2.01249,1.11406 0.59893,0.52709 1.07809,1.22188 1.43749,2.08436 0.35934,0.83855 0.53903,1.88073 0.53906,3.12654 l 0,12.97336 -6.54059,0 0,-15.09366"
         id="path4220" />
      <path
         d="m 625.90515,448.47578 c -2.15625,2e-5 -3.23436,1.23386 -3.23436,3.70154 l 0,9.27182 c 0,2.13228 1.11405,3.19842 3.34217,3.19841 2.15623,10e-6 3.23434,-1.23384 3.23436,-3.70154 l 0,-9.27181 c -2e-5,-2.13227 -1.11407,-3.1984 -3.34217,-3.19842 m -9.66713,8.08589 c 0,-1.46144 0.25156,-2.8031 0.75468,-4.02498 0.50312,-1.24581 1.19791,-2.31195 2.08437,-3.19842 0.88645,-0.88643 1.91665,-1.56924 3.0906,-2.04842 1.1979,-0.5031 2.47967,-0.75467 3.84529,-0.75468 1.34165,0.024 2.61143,0.28751 3.80935,0.79062 1.1979,0.47918 2.24008,1.16199 3.12655,2.04842 0.88643,0.86251 1.58122,1.90469 2.08436,3.12654 0.52706,1.22188 0.7906,2.57552 0.79062,4.06092 -2e-5,1.48541 -0.26356,2.83905 -0.79062,4.06091 -0.50314,1.22187 -1.19793,2.27603 -2.08436,3.16248 -0.88647,0.8625 -1.92865,1.5453 -3.12655,2.04842 -1.19792,0.47917 -2.4677,0.73073 -3.80935,0.75469 -1.36562,-0.024 -2.64739,-0.27552 -3.84529,-0.75469 -1.17395,-0.50312 -2.20415,-1.18592 -3.0906,-2.04842 -0.88646,-0.88645 -1.58125,-1.94061 -2.08437,-3.16248 -0.50312,-1.22186 -0.75468,-2.5755 -0.75468,-4.06091"
         id="path4222" />
      <path
         d="m 656.31932,440.06646 0,26.09046 -6.46871,0 0,-1.00624 c -1.03021,0.95832 -2.14427,1.43749 -3.34217,1.43749 -1.34166,-0.024 -2.61145,-0.27552 -3.80935,-0.75469 -1.17395,-0.50312 -2.20415,-1.18592 -3.0906,-2.04842 -0.88646,-0.88645 -1.59322,-1.94061 -2.1203,-3.16248 -0.50312,-1.22186 -0.75469,-2.5755 -0.75468,-4.06091 -10e-6,-1.50936 0.26353,-2.87497 0.79062,-4.09685 0.55103,-1.22186 1.26978,-2.27602 2.15623,-3.16248 0.88645,-0.88644 1.88071,-1.56925 2.9828,-2.04843 1.10207,-0.47914 2.21612,-0.71873 3.34216,-0.71874 0.64686,1e-5 1.29373,0.0958 1.94062,0.28749 0.64685,0.19169 1.28175,0.49117 1.90467,0.89844 l 0,-7.65464 6.46871,0 m -9.66713,8.40932 c -2.25207,2e-5 -3.37811,1.06615 -3.3781,3.19842 l 0,9.27181 c -10e-6,2.4677 1.07811,3.70155 3.23435,3.70154 1.96456,10e-6 3.07862,-0.86249 3.34217,-2.58748 l 0,-10.56556 c -0.19168,-2.01247 -1.25782,-3.01871 -3.19842,-3.01873"
         id="path4224" />
      <path
         d="m 668.01913,448.47578 c -2.15624,2e-5 -3.23436,1.23386 -3.23435,3.70154 l 0,2.37186 6.57652,0 0,-2.87498 c -10e-6,-2.13227 -1.11407,-3.1984 -3.34217,-3.19842 m -3.23435,8.40932 0,4.56404 c -10e-6,2.10832 1.17394,3.22237 3.52185,3.34216 1.22186,0 2.34789,-0.34739 3.37811,-1.04218 1.03018,-0.69478 2.0484,-1.79686 3.05466,-3.30623 l 2.51561,0.97031 c -0.57501,0.88646 -1.22188,1.6651 -1.94061,2.33592 -0.6948,0.64687 -1.42553,1.18593 -2.19217,1.61718 -0.76668,0.43125 -1.54532,0.7427 -2.33593,0.93437 -0.79063,0.21562 -1.55729,0.32343 -2.29998,0.32343 -1.48542,0 -2.85103,-0.25156 -4.09685,-0.75468 -1.24583,-0.52708 -2.32395,-1.23384 -3.23436,-2.1203 -0.88645,-0.91041 -1.58124,-1.97654 -2.08436,-3.19842 -0.47916,-1.22186 -0.71875,-2.53956 -0.71875,-3.9531 0,-1.38956 0.23959,-2.69528 0.71875,-3.91716 0.47916,-1.22185 1.14999,-2.28799 2.01249,-3.19842 0.86249,-0.91039 1.89269,-1.62914 3.0906,-2.15623 1.19791,-0.52707 2.5156,-0.79061 3.9531,-0.79062 1.36561,1e-5 2.62341,0.2396 3.77342,0.71874 1.17393,0.47918 2.18018,1.17397 3.01873,2.08436 0.86248,0.88647 1.53331,1.96459 2.01249,3.23436 0.5031,1.26979 0.75466,2.70728 0.75468,4.31247 l -12.90148,0"
         id="path4226" />
      <path
         d="m 679.42754,463.21006 c 0,-0.43124 0.0838,-0.83853 0.25156,-1.22186 0.1677,-0.38333 0.39531,-0.71875 0.68281,-1.00625 0.28749,-0.28749 0.62291,-0.51509 1.00624,-0.68281 0.38333,-0.1677 0.8026,-0.25155 1.2578,-0.25156 0.86249,1e-5 1.6052,0.31146 2.22812,0.93437 0.6229,0.62292 0.93436,1.36562 0.93437,2.22811 -1e-5,0.43125 -0.0839,0.83854 -0.25157,1.22187 -0.16771,0.38333 -0.39531,0.71875 -0.6828,1.00624 -0.28751,0.2875 -0.62292,0.51511 -1.00625,0.68281 -0.38333,0.16771 -0.79062,0.25156 -1.22187,0.25156 -0.91041,0 -1.67707,-0.31145 -2.29998,-0.93437 -0.59896,-0.62291 -0.89843,-1.36561 -0.89843,-2.22811 m 2.22811,-4.49216 c -0.024,-2.46768 -0.45521,-5.42651 -1.29374,-8.87651 -0.55104,-2.32392 -0.82656,-4.20464 -0.82656,-5.64215 0,-3.06662 1.04218,-4.59994 3.12654,-4.59997 2.0604,3e-5 3.0906,1.4495 3.09061,4.34841 -1e-5,1.53335 -0.28751,3.49792 -0.8625,5.89371 -0.45521,1.86876 -0.79062,3.53385 -1.00624,4.99529 -0.19167,1.4375 -0.2875,2.73124 -0.2875,3.88122 l -1.94061,0"
         id="path4228" />
    </g>
    <g
       transform="translate(8,0)"
       id="g4248">
      <path
         d="m 2730.854,-1214.8864 -94.2357,0 2.9246,49.8134 91.3111,-5.6969 z"
         id="path3325"
         style="color:#000000;fill:#8ba4aa;fill-opacity:1;fill-rule:nonzero;stroke:none;stroke-width:5;marker:none;visibility:visible;display:inline;overflow:visible;enable-background:accumulate" />
      <path
         d="m 2950.0921,-1247.9826 c 32.9565,0.2306 66.3365,1.1455 100.0848,2.762 l -50.0425,77.3377 50.0425,77.419 c -138.638,-13.3601 -263.5292,-1.9697 -384.985,15.5976 l 0,-125.3489 -6.093,0 c -12.475,0 -22.5027,-6.557 -22.5027,-14.7039 0,-8.1469 10.0857,-13.5051 22.5027,-14.7039 102.0363,-9.8509 204.2511,-18.7514 290.9932,-18.3596 z"
         id="path3327"
         style="color:#000000;fill:#c4d1d4;fill-opacity:1;fill-rule:nonzero;stroke:none;stroke-width:1;marker:none;visibility:visible;display:inline;overflow:visible;enable-background:accumulate" />
      <path
         d="m 1861.146,-1212.9366 94.2357,0 -2.9246,49.8134 -91.3111,-5.697 z"
         id="path3329"
         style="color:#000000;fill:#8ba4aa;fill-opacity:1;fill-rule:nonzero;stroke:none;stroke-width:5;marker:none;visibility:visible;display:inline;overflow:visible;enable-background:accumulate" />
      <path
         d="m 1641.9079,-1246.0329 c -32.9565,0.2306 -66.3367,1.1455 -100.0848,2.7621 l 50.0425,77.3377 -50.0425,77.419 c 138.638,-13.3602 263.5292,-1.9699 384.985,15.5975 l 0,-125.3489 6.093,0 c 12.4747,0 22.5027,-6.5571 22.5027,-14.7039 0,-8.1469 -10.0857,-13.5051 -22.5027,-14.7039 -102.0363,-9.8509 -204.2511,-18.7515 -290.9932,-18.3596 z"
         id="path3331"
         style="color:#000000;fill:#c4d1d4;fill-opacity:1;fill-rule:nonzero;stroke:none;stroke-width:1;marker:none;visibility:visible;display:inline;overflow:visible;enable-background:accumulate" />
      <path
         d="m 1823.0678,-1184.5365 0,156.7065 c 0,9.9942 15.0538,13.5874 22.5027,13.729 303.3993,24.1406 602.6813,18.5786 900.9253,0 11.9542,0 21.631,-6.0575 22.4215,-13.729 0.1613,-52.0551 0.081,-104.5075 0.081,-156.7065 l -59.7095,0 0,15.6788 c -267.0061,13.9606 -535.6731,25.1926 -826.5116,0 l 0,-15.6788 z"
         id="path3333"
         style="color:#000000;fill:#ecf0f1;fill-opacity:1;fill-rule:nonzero;stroke:none;stroke-width:1;marker:none;visibility:visible;display:inline;overflow:visible;enable-background:accumulate" />
      <path
         d="m 2747.3544,-1200.1808 -83.8104,0 c -11.9744,0 -21.6142,6.5586 -21.6142,14.7054 0,8.1469 0.4472,20.0932 12.4069,19.4794 l 93.0177,-4.7739 c 11.9595,-0.6138 21.6141,-6.5586 21.6141,-14.7055 0,-8.1468 -9.6398,-14.7054 -21.6141,-14.7054 z"
         id="path3335"
         style="color:#000000;fill:#8ba4aa;fill-opacity:1;fill-rule:nonzero;stroke:none;stroke-width:5;marker:none;visibility:visible;display:inline;overflow:visible;enable-background:accumulate" />
      <path
         d="m 2594.771,-1124.0477 c -6.424,0.2864 -9.4458,5.1585 -9.0275,14.6305 0.1961,4.44 1.2958,10.2135 3.3159,17.3159 3.0619,10.541 4.8245,19.5896 5.2386,27.2079 2.0028,-0.09 4.0054,-0.1795 6.0079,-0.2698 -0.1598,-3.5516 -0.082,-7.5671 0.3098,-12.0332 0.4632,-4.5436 1.2737,-9.6953 2.4182,-15.53 1.4411,-7.4791 2.047,-13.603 1.832,-18.3379 -0.4065,-8.9524 -3.7449,-13.2661 -10.0949,-12.9834 0,0 0,0 0,0 z m -191.0909,7.1009 c -4.8208,0.355 -9.3384,1.5202 -13.6156,3.4981 -4.8901,2.1867 -9.1673,5.1688 -12.7793,8.9491 -3.5383,3.7788 -6.3295,8.2754 -8.3741,13.4279 -2.046,5.0785 -2.9665,10.6002 -2.8533,16.6001 0.1133,5.9998 1.2426,11.5225 3.4965,16.5918 2.2527,4.9952 5.2412,9.3385 8.9667,12.9667 3.7998,3.6266 8.25,6.4212 13.2915,8.3822 5.0413,1.961 10.3699,2.8767 16.0362,2.7352 5.6642,-0.2155 10.9945,-1.4366 15.9295,-3.6465 4.9327,-2.2838 9.178,-5.295 12.7928,-9.0317 3.6865,-3.8133 6.5328,-8.3021 8.5348,-13.4032 2.0017,-5.1011 2.9146,-10.6362 2.7312,-16.6352 -0.1834,-5.999 -1.4324,-11.4676 -3.7289,-16.4391 -2.2989,-5.0455 -5.3905,-9.396 -9.2625,-12.9898 -3.7986,-3.596 -8.1663,-6.3624 -13.1621,-8.3013 -4.9982,-2.0129 -10.3199,-2.8968 -15.9189,-2.7564 -0.7001,0.018 -1.3959,0 -2.0845,0.052 z m -414.9572,-6.054 c 4.929,27.3103 10.0387,54.6057 15.3217,81.8862 5.839,0.3812 11.6777,0.7468 17.5163,1.0972 3.1851,-9.9621 6.3467,-19.9281 9.4853,-29.8981 1.8342,10.2578 3.6905,20.5138 5.5684,30.7682 5.8,0.3224 11.5999,0.6302 17.3994,0.9236 8.5722,-26.4728 16.9781,-52.9746 25.2251,-79.5038 -2.8533,-0.1275 -5.7063,-0.2584 -8.559,-0.3929 -4.6801,15.2702 -9.4121,30.5315 -14.1975,45.7838 -3.0357,-15.6471 -6.0202,-31.2984 -8.9521,-46.9538 -2.888,-0.1559 -5.7756,-0.3156 -8.6629,-0.479 -4.8024,15.2281 -9.659,30.4469 -14.5711,45.6562 -2.8876,-15.6772 -5.7217,-31.3586 -8.5008,-47.0443 -9.0281,-0.5757 -18.0524,-1.1896 -27.0728,-1.8433 0,0 0,0 0,0 z m 95.8879,5.5092 -3.4706,80.5373 c 17.5487,0.7553 35.0947,1.3844 52.6371,1.897 l 0.2328,-7.9787 c -8.8486,-0.2585 -17.6977,-0.5467 -26.5473,-0.8659 l 1.7526,-48.5952 c 6.6316,0.2391 13.2642,0.4606 19.8979,0.6648 1.671,0.7122 3.343,1.4233 5.0159,2.1334 1.0027,-3.3686 2.003,-6.7375 3.001,-10.1068 -9.2088,-0.2649 -18.4151,-0.5626 -27.6189,-0.8945 l 0.2775,-7.6937 c 9.1474,0.3299 18.2977,0.6258 27.4509,0.8893 -0.5587,-2.7156 -1.1161,-5.4313 -1.6721,-8.1471 -16.9972,-0.4974 -33.9831,-1.1076 -50.9568,-1.8399 0,0 0,0 0,0 z m 60.0914,2.0965 -2.1733,80.5839 c 17.6937,0.4783 35.3836,0.8397 53.0686,1.0943 l 0.114,-7.9824 c -8.9976,-0.1293 -17.9961,-0.2863 -26.9952,-0.4724 l 1.4959,-72.6194 c -8.5061,-0.1744 -17.0094,-0.3753 -25.51,-0.604 z m 57.1533,1.1323 -1.0553,80.6177 c 17.684,0.2337 35.3631,0.3616 53.0365,0.3937 l 0.013,-7.9848 c -8.9934,-0.016 -17.9879,-0.057 -26.9834,-0.124 l 0.5335,-72.6457 c -8.5173,-0.061 -17.0322,-0.1465 -25.5446,-0.2569 0,0 0,0 0,0 z m 90.8464,0.2784 0.4902,80.6501 c 9.822,-0.058 19.642,-0.1438 29.4599,-0.2549 13.4361,-0.1521 23.4621,-3.6706 30.0518,-10.5025 6.5896,-6.8319 9.7434,-16.9777 9.498,-30.4217 -0.2454,-13.4439 -3.8845,-23.46 -10.877,-30.0666 -6.9925,-6.6066 -17.3379,-9.803 -31.0603,-9.6474 -9.1899,0.1043 -18.3774,0.1858 -27.5625,0.243 0,0 -1e-4,0 -1e-4,0 z m 159.8752,-3.1492 2.5262,80.6442 c 2.7524,-0.086 5.5047,-0.1738 8.2568,-0.2627 l -1.4427,-44.6249 c 15.3191,14.3953 30.7172,28.7483 46.1754,43.0634 3.5458,-0.1324 7.0912,-0.2668 10.6362,-0.403 l -3.091,-80.62 c -2.6896,0.1029 -5.3791,0.2047 -8.0685,0.3054 l 1.6342,43.5391 c -15.1466,-13.9648 -30.2313,-27.9656 -45.2364,-42.0063 -3.797,0.1242 -7.5938,0.2458 -11.3902,0.3648 z m 72.3717,-2.5633 3.163,80.6154 c 17.4368,-0.686 34.8632,-1.4151 52.2783,-2.1775 l -0.3477,-7.9793 c -8.7971,0.3847 -17.5967,0.761 -26.3987,1.1276 l -2.0187,-48.6211 c 6.655,-0.2759 13.3101,-0.5572 19.965,-0.8436 1.7252,0.5873 3.4506,1.1742 5.1762,1.7608 0.7575,-3.4348 1.5143,-6.8696 2.2705,-10.3044 -9.2511,0.4028 -18.502,0.7966 -27.7525,1.1798 l -0.3196,-7.6977 c 9.2069,-0.3812 18.4145,-0.7727 27.6228,-1.1733 -0.758,-2.6695 -1.5156,-5.3392 -2.2729,-8.0089 -17.1259,0.7419 -34.2481,1.4525 -51.3657,2.1222 z m -119.3761,10.8075 c 9.2933,-0.2329 14.0503,4.0199 14.2879,12.8337 l 1.0305,38.2306 c 0.2796,10.3693 -4.1604,15.7029 -13.2453,15.9299 -9.3832,0.2345 -14.171,-4.1808 -14.3772,-13.1432 l -0.8795,-38.2323 c -0.2351,-10.2217 4.1852,-15.3933 13.1836,-15.6187 z m -88.7624,3.2535 c 1.033,-0.011 2.0661,-0.022 3.0991,-0.034 10.6117,-0.1192 16.0991,10.5466 16.3984,32.0271 0.3003,21.5545 -4.9456,32.424 -15.6805,32.5421 -1.0451,0.012 -2.0901,0.023 -3.1352,0.034 z m 280.6766,44.7382 c -1.4085,0.063 -2.716,0.3399 -3.8791,0.9109 -1.1634,0.5708 -2.1728,1.3617 -3.0232,2.2893 -0.8506,0.9275 -1.4939,1.9983 -1.9609,3.2052 -0.4671,1.2072 -0.6881,2.4379 -0.6293,3.77 0.1176,2.6639 1.145,4.9386 3.0863,6.7799 2.0151,1.8379 4.4599,2.6925 7.2808,2.5654 1.336,-0.06 2.5466,-0.3898 3.7106,-0.9613 1.1642,-0.5719 2.1764,-1.3068 3.0267,-2.2352 0.8504,-0.9284 1.5497,-2.0026 2.0152,-3.21 0.4655,-1.2074 0.6257,-2.4925 0.5653,-3.8242 -0.121,-2.6636 -1.1875,-4.8781 -3.2024,-6.7141 -2.0146,-1.8365 -4.3208,-2.6958 -6.99,-2.5759 0,0 0,0 0,0 z"
         id="path3337"
         style="font-size:61.29959869px;font-style:normal;font-variant:normal;font-weight:normal;font-stretch:normal;text-align:start;line-height:125%;letter-spacing:0px;word-spacing:0px;writing-mode:lr-tb;text-anchor:start;fill:#e74c3c;fill-opacity:1;stroke:none;display:inline;font-family:Guanine;-inkscape-font-specification:Guanine" />
      <path
         d="m 1844.1888,-1198.2311 82.0385,0 c 11.7212,0 21.1575,6.5586 21.1575,14.7054 0,8.1468 -5.0105,19.0217 -16.7219,18.5068 l -86.4741,-3.8013 c -11.7114,-0.5148 -21.1573,-6.5587 -21.1573,-14.7055 0,-8.1468 9.4362,-14.7054 21.1573,-14.7054 z"
         id="path3339"
         style="color:#000000;fill:#8ba4aa;fill-opacity:1;fill-rule:nonzero;stroke:none;stroke-width:5;marker:none;visibility:visible;display:inline;overflow:visible;enable-background:accumulate" />
    </g>
  </g>
</svg>
