<?xml version="1.0" encoding="UTF-8" standalone="no"?>
<svg
   xmlns:dc="http://purl.org/dc/elements/1.1/"
   xmlns:cc="http://creativecommons.org/ns#"
   xmlns:rdf="http://www.w3.org/1999/02/22-rdf-syntax-ns#"
   xmlns:svg="http://www.w3.org/2000/svg"
   xmlns="http://www.w3.org/2000/svg"
   xmlns:xlink="http://www.w3.org/1999/xlink"
   version="1.1"
   id="svg2"
   viewBox="0 0 1536 256"
   height="256"
   width="1536">
  <defs
     id="defs4" />
  <metadata
     id="metadata7">
    <rdf:RDF>
      <cc:Work
         rdf:about="">
        <dc:format>image/svg+xml</dc:format>
        <dc:type
           rdf:resource="http://purl.org/dc/dcmitype/StillImage" />
        <dc:title></dc:title>
      </cc:Work>
    </rdf:RDF>
  </metadata>
  <g
     transform="translate(0,-796.36218)"
     id="layer1">
    <rect
       y="796.36218"
       x="0"
       height="256"
       width="256"
       id="rect10555"
       style="color:#000000;clip-rule:nonzero;display:inline;overflow:visible;visibility:visible;opacity:0;isolation:auto;mix-blend-mode:normal;color-interpolation:sRGB;color-interpolation-filters:linearRGB;solid-color:#000000;solid-opacity:1;fill:#d8b028;fill-opacity:1;fill-rule:nonzero;marker:none;color-rendering:auto;image-rendering:auto;shape-rendering:auto;text-rendering:auto;enable-background:accumulate" />
    <g
       id="text10549"
       style="font-style:normal;font-variant:normal;font-weight:normal;font-stretch:normal;font-size:195.71716309px;line-height:125%;font-family:FreeSerif;-inkscape-font-specification:'FreeSerif, Normal';text-align:start;letter-spacing:0px;word-spacing:0px;writing-mode:lr-tb;text-anchor:start;opacity:1;fill:#1f1f1f;fill-opacity:1;stroke:none;stroke-width:1px;stroke-linecap:butt;stroke-linejoin:miter;stroke-opacity:1">
      <path
         id="path4167"
         style=""
         d="m 184.36654,953.9155 q 0,5.87152 -2.15288,11.54732 -2.15289,5.67579 -7.24154,11.35159 -4.89293,5.48008 -14.67879,9.00299 -9.78586,3.32719 -23.29034,3.32719 l -65.369532,0 0,-3.71862 q 12.134464,-0.39144 15.461656,-3.52291 3.327192,-3.13148 3.327192,-14.09164 l 0,-86.89842 q 0,-10.76444 -3.327192,-13.7002 -3.131475,-3.13147 -15.461656,-3.91434 l 0,-3.71863 54.800802,0 q 51.2779,0 51.2779,33.27192 0,6.45866 -2.34861,11.54731 -2.3486,4.89293 -4.89292,7.63297 -2.34861,2.54432 -7.43726,4.89293 -5.08864,2.34861 -6.45866,2.74004 -1.37002,0.19572 -5.6758,1.37002 4.50149,1.1743 6.65438,1.76145 2.34861,0.58716 8.22012,3.3272 6.06724,2.74004 9.39443,5.87151 3.32719,3.13148 6.26295,9.00299 2.93575,5.6758 2.93575,12.91733 z m -61.6509,27.98756 q 8.80727,0 15.26594,-1.17431 6.45866,-1.1743 12.13446,-3.91434 5.6758,-2.93576 8.61156,-8.61155 3.13147,-5.6758 3.13147,-14.09164 0,-8.0244 -3.13147,-13.50448 -2.93576,-5.6758 -7.24154,-8.61156 -4.30578,-2.93576 -11.93875,-4.50149 -7.63297,-1.56574 -13.50448,-1.76146 -5.87152,-0.39143 -15.65737,-0.39143 l 0,48.53785 q 0,4.69722 2.54432,6.45867 2.54432,1.56574 9.78586,1.56574 z m -12.33018,-64.39095 18.59313,0 q 13.7002,0 21.13745,-6.06723 7.63297,-6.26295 7.63297,-17.81026 0,-13.11305 -8.80727,-19.96315 -8.80727,-6.8501 -25.63895,-6.8501 l -8.61156,0 q -4.30577,0 -4.30577,5.87151 l 0,44.81923 z" />
    </g>
    <use
       height="100%"
       width="100%"
       transform="translate(256,0)"
       id="use10557"
       xlink:href="#rect10555"
       y="0"
       x="0" />
    <g
       id="text10563"
       style="font-style:normal;font-variant:normal;font-weight:normal;font-stretch:normal;font-size:195.71716309px;line-height:125%;font-family:FreeSerif;-inkscape-font-specification:'FreeSerif, Normal';text-align:start;letter-spacing:0px;word-spacing:0px;writing-mode:lr-tb;text-anchor:start;opacity:1;fill:#1f1f1f;fill-opacity:1;stroke:none;stroke-width:1px;stroke-linecap:butt;stroke-linejoin:miter;stroke-opacity:1"
       transform="matrix(0.97156803,0.23676058,-0.23676058,0.97156803,0,0)">
      <path
         id="path4164"
         style=""
         d="m 648.30117,836.71799 q 0,5.87152 -2.15289,11.54732 -2.15289,5.67579 -7.24154,11.35159 -4.89293,5.48008 -14.67878,9.00299 -9.78586,3.32719 -23.29035,3.32719 l -65.36953,0 0,-3.71862 q 12.13447,-0.39144 15.46166,-3.52291 3.32719,-3.13148 3.32719,-14.09164 l 0,-86.89842 q 0,-10.76444 -3.32719,-13.7002 -3.13148,-3.13147 -15.46166,-3.91434 l 0,-3.71863 54.80081,0 q 51.27789,0 51.27789,33.27192 0,6.45866 -2.3486,11.54731 -2.34861,4.89293 -4.89293,7.63297 -2.34861,2.54432 -7.43725,4.89293 -5.08865,2.34861 -6.45867,2.74004 -1.37002,0.19572 -5.6758,1.37002 4.5015,1.1743 6.65439,1.76145 2.3486,0.58716 8.22012,3.3272 6.06723,2.74004 9.39442,5.87151 3.32719,3.13148 6.26295,9.00299 2.93576,5.6758 2.93576,12.91733 z m -61.65091,27.98756 q 8.80727,0 15.26594,-1.17431 6.45867,-1.1743 12.13446,-3.91434 5.6758,-2.93576 8.61156,-8.61155 3.13147,-5.6758 3.13147,-14.09164 0,-8.0244 -3.13147,-13.50448 -2.93576,-5.6758 -7.24154,-8.61156 -4.30577,-2.93576 -11.93874,-4.50149 -7.63297,-1.56574 -13.50449,-1.76146 -5.87151,-0.39143 -15.65737,-0.39143 l 0,48.53785 q 0,4.69722 2.54432,6.45867 2.54433,1.56574 9.78586,1.56574 z m -12.33018,-64.39095 18.59313,0 q 13.7002,0 21.13745,-6.06723 7.63297,-6.26295 7.63297,-17.81026 0,-13.11305 -8.80727,-19.96315 -8.80727,-6.8501 -25.63895,-6.8501 l -8.61155,0 q -4.30578,0 -4.30578,5.87151 l 0,44.81923 z" />
    </g>
    <use
       x="0"
       y="0"
       xlink:href="#rect10555"
       id="use10569"
       transform="translate(512,0)"
       width="100%"
       height="100%" />
    <g
       id="text10571"
       style="font-style:normal;font-variant:normal;font-weight:normal;font-stretch:normal;font-size:195.71716309px;line-height:125%;font-family:FreeSerif;-inkscape-font-specification:'FreeSerif, Normal';text-align:start;letter-spacing:0px;word-spacing:0px;writing-mode:lr-tb;text-anchor:start;opacity:1;fill:#1f1f1f;fill-opacity:1;stroke:none;stroke-width:1px;stroke-linecap:butt;stroke-linejoin:miter;stroke-opacity:1"
       transform="matrix(0.86809253,0.49640241,-0.49640241,0.86809253,0,0)">
      <path
         id="path4161"
         style=""
         d="m 1070.8014,514.28776 q 0,5.87151 -2.1529,11.54731 -2.1529,5.6758 -7.2415,11.35159 -4.8929,5.48008 -14.6788,9.00299 -9.7859,3.3272 -23.2903,3.3272 l -65.36957,0 0,-3.71863 q 12.13446,-0.39143 15.46165,-3.52291 3.32719,-3.13147 3.32719,-14.09164 l 0,-86.89842 q 0,-10.76444 -3.32719,-13.7002 -3.13147,-3.13147 -15.46165,-3.91434 l 0,-3.71863 54.80077,0 q 51.2779,0 51.2779,33.27192 0,6.45867 -2.3486,11.54731 -2.3486,4.89293 -4.8929,7.63297 -2.3486,2.54433 -7.4373,4.89293 -5.0886,2.34861 -6.4586,2.74004 -1.37,0.19572 -5.6758,1.37002 4.5015,1.17431 6.6544,1.76146 2.3486,0.58715 8.2201,3.32719 6.0672,2.74004 9.3944,5.87151 3.3272,3.13148 6.263,9.00299 2.9357,5.6758 2.9357,12.91734 z m -61.6509,27.98755 q 8.8073,0 15.2659,-1.1743 6.4587,-1.17431 12.1345,-3.91435 5.6758,-2.93575 8.6116,-8.61155 3.1314,-5.6758 3.1314,-14.09164 0,-8.0244 -3.1314,-13.50448 -2.9358,-5.6758 -7.2416,-8.61156 -4.3057,-2.93575 -11.9387,-4.50149 -7.633,-1.56574 -13.5045,-1.76146 -5.8715,-0.39143 -15.65738,-0.39143 l 0,48.53786 q 0,4.69721 2.54433,6.45866 2.54435,1.56574 9.78585,1.56574 z m -12.33018,-64.39095 18.59318,0 q 13.7002,0 21.1374,-6.06723 7.633,-6.26295 7.633,-17.81026 0,-13.11305 -8.8073,-19.96315 -8.8073,-6.8501 -25.6389,-6.8501 l -8.6116,0 q -4.30578,0 -4.30578,5.87151 l 0,44.81923 z" />
    </g>
    <use
       x="0"
       y="0"
       xlink:href="#rect10555"
       id="use10594"
       transform="translate(768,0)"
       width="100%"
       height="100%" />
    <g
       id="text10596"
       style="font-style:normal;font-variant:normal;font-weight:normal;font-stretch:normal;font-size:195.71716309px;line-height:125%;font-family:FreeSerif;-inkscape-font-specification:'FreeSerif, Normal';text-align:start;letter-spacing:0px;word-spacing:0px;writing-mode:lr-tb;text-anchor:start;opacity:1;fill:#1f1f1f;fill-opacity:1;stroke:none;stroke-width:1px;stroke-linecap:butt;stroke-linejoin:miter;stroke-opacity:1"
       transform="matrix(0.97156803,0.23676058,-0.23676058,0.97156803,0,0)">
      <path
         id="path4158"
         style=""
         d="m 1145.744,715.49656 q 0,5.87151 -2.1529,11.54731 -2.1528,5.6758 -7.2415,11.3516 -4.8929,5.48008 -14.6788,9.00299 -9.7858,3.32719 -23.2903,3.32719 l -65.3695,0 0,-3.71863 q 12.1344,-0.39143 15.4616,-3.52291 3.3272,-3.13147 3.3272,-14.09163 l 0,-86.89842 q 0,-10.76445 -3.3272,-13.70021 -3.1315,-3.13147 -15.4616,-3.91434 l 0,-3.71862 54.8008,0 q 51.2779,0 51.2779,33.27191 0,6.45867 -2.3487,11.54732 -2.3486,4.89292 -4.8929,7.63296 -2.3486,2.54433 -7.4372,4.89293 -5.0887,2.34861 -6.4587,2.74004 -1.37,0.19572 -5.6758,1.37002 4.5015,1.17431 6.6544,1.76146 2.3486,0.58715 8.2201,3.32719 6.0672,2.74004 9.3944,5.87152 3.3272,3.13147 6.263,9.00298 2.9357,5.6758 2.9357,12.91734 z m -61.6509,27.98755 q 8.8073,0 15.266,-1.1743 6.4586,-1.1743 12.1344,-3.91434 5.6758,-2.93576 8.6116,-8.61156 3.1315,-5.6758 3.1315,-14.09164 0,-8.0244 -3.1315,-13.50448 -2.9358,-5.6758 -7.2415,-8.61155 -4.3058,-2.93576 -11.9388,-4.5015 -7.633,-1.56574 -13.5045,-1.76145 -5.8715,-0.39144 -15.6573,-0.39144 l 0,48.53786 q 0,4.69721 2.5443,6.45866 2.5443,1.56574 9.7858,1.56574 z m -12.3301,-64.39094 18.5931,0 q 13.7002,0 21.1374,-6.06724 7.633,-6.26295 7.633,-17.81026 0,-13.11305 -8.8073,-19.96315 -8.8072,-6.8501 -25.6389,-6.8501 l -8.6116,0 q -4.3057,0 -4.3057,5.87151 l 0,44.81924 z" />
    </g>
    <use
       height="100%"
       width="100%"
       transform="translate(1024,0)"
       id="use10607"
       xlink:href="#rect10555"
       y="0"
       x="0" />
    <g
       id="text10609"
       style="font-style:normal;font-variant:normal;font-weight:normal;font-stretch:normal;font-size:195.71716309px;line-height:125%;font-family:FreeSerif;-inkscape-font-specification:'FreeSerif, Normal';text-align:start;letter-spacing:0px;word-spacing:0px;writing-mode:lr-tb;text-anchor:start;opacity:1;fill:#1f1f1f;fill-opacity:1;stroke:none;stroke-width:1px;stroke-linecap:butt;stroke-linejoin:miter;stroke-opacity:1"
       transform="matrix(0.99300334,-0.11808625,0.11808625,0.99300334,0,0)">
      <path
         id="path4155"
         style=""
         d="m 1091.1519,1083.4834 q 0,5.8715 -2.1529,11.5473 -2.1528,5.6758 -7.2415,11.3516 -4.8929,5.4801 -14.6788,9.003 -9.7858,3.3272 -23.2903,3.3272 l -65.36955,0 0,-3.7186 q 12.13446,-0.3914 15.46166,-3.5229 3.32719,-3.1315 3.32719,-14.0916 l 0,-86.8985 q 0,-10.76441 -3.32719,-13.70017 -3.13148,-3.13147 -15.46166,-3.91434 l 0,-3.71863 54.80085,0 q 51.2779,0 51.2779,33.27194 0,6.4586 -2.3487,11.5473 -2.3486,4.8929 -4.8929,7.633 -2.3486,2.5443 -7.4372,4.8929 -5.0887,2.3486 -6.4587,2.74 -1.37,0.1957 -5.6758,1.3701 4.5015,1.1743 6.6544,1.7614 2.3486,0.5872 8.2201,3.3272 6.0672,2.74 9.3944,5.8715 3.3272,3.1315 6.263,9.003 2.9357,5.6758 2.9357,12.9173 z m -61.6509,27.9876 q 8.8073,0 15.266,-1.1743 6.4586,-1.1743 12.1344,-3.9144 5.6758,-2.9357 8.6116,-8.6115 3.1315,-5.6758 3.1315,-14.0916 0,-8.0245 -3.1315,-13.5045 -2.9358,-5.6758 -7.2415,-8.6116 -4.3058,-2.9357 -11.9388,-4.5015 -7.633,-1.5657 -13.5045,-1.7614 -5.8715,-0.3915 -15.6574,-0.3915 l 0,48.5379 q 0,4.6972 2.5444,6.4587 2.5443,1.5657 9.7858,1.5657 z m -12.3302,-64.391 18.5932,0 q 13.7002,0 21.1374,-6.0672 7.633,-6.2629 7.633,-17.8103 0,-13.113 -8.8073,-19.9631 -8.8072,-6.8501 -25.6389,-6.8501 l -8.6116,0 q -4.3058,0 -4.3058,5.8715 l 0,44.8192 z" />
    </g>
    <use
       x="0"
       y="0"
       xlink:href="#rect10555"
       id="use10616"
       transform="translate(1280,0)"
       width="100%"
       height="100%" />
    <g
       id="text10618"
       style="font-style:normal;font-variant:normal;font-weight:normal;font-stretch:normal;font-size:195.71716309px;line-height:125%;font-family:FreeSerif;-inkscape-font-specification:'FreeSerif, Normal';text-align:start;letter-spacing:0px;word-spacing:0px;writing-mode:lr-tb;text-anchor:start;opacity:1;fill:#1f1f1f;fill-opacity:1;stroke:none;stroke-width:1px;stroke-linecap:butt;stroke-linejoin:miter;stroke-opacity:1"
       transform="matrix(0.90969768,-0.41527114,0.41527114,0.90969768,0,0)">
      <path
         id="path4152"
         style=""
         d="m 953.35988,1455.1453 q 0,5.8715 -2.15289,11.5473 -2.15288,5.6758 -7.24153,11.3516 -4.89293,5.4801 -14.67879,9.003 -9.78586,3.3272 -23.29034,3.3272 l -65.36953,0 0,-3.7186 q 12.13446,-0.3915 15.46165,-3.5229 3.3272,-3.1315 3.3272,-14.0917 l 0,-86.8984 q 0,-10.7644 -3.3272,-13.7002 -3.13147,-3.1315 -15.46165,-3.9143 l 0,-3.7187 54.8008,0 q 51.2779,0 51.2779,33.2719 0,6.4587 -2.34861,11.5474 -2.3486,4.8929 -4.89293,7.6329 -2.3486,2.5444 -7.43725,4.893 -5.08864,2.3486 -6.45866,2.74 -1.37002,0.1957 -5.6758,1.37 4.50149,1.1743 6.65438,1.7615 2.34861,0.5871 8.22012,3.3272 6.06723,2.74 9.39443,5.8715 3.32719,3.1315 6.26295,9.003 2.93575,5.6758 2.93575,12.9173 z m -61.6509,27.9876 q 8.80727,0 15.26594,-1.1743 6.45866,-1.1744 12.13446,-3.9144 5.6758,-2.9357 8.61156,-8.6115 3.13147,-5.6758 3.13147,-14.0917 0,-8.0244 -3.13147,-13.5045 -2.93576,-5.6758 -7.24154,-8.6115 -4.30578,-2.9358 -11.93875,-4.5015 -7.63297,-1.5658 -13.50448,-1.7615 -5.87152,-0.3914 -15.65737,-0.3914 l 0,48.5379 q 0,4.6972 2.54432,6.4586 2.54432,1.5658 9.78586,1.5658 z m -12.33018,-64.391 18.59313,0 q 13.7002,0 21.13745,-6.0672 7.63297,-6.263 7.63297,-17.8103 0,-13.113 -8.80727,-19.9631 -8.80728,-6.8501 -25.63895,-6.8501 l -8.61156,0 q -4.30577,0 -4.30577,5.8715 l 0,44.8192 z" />
    </g>
  </g>
</svg>
