<?xml version="1.0" encoding="UTF-8" standalone="no"?>
<svg
   xmlns:dc="http://purl.org/dc/elements/1.1/"
   xmlns:cc="http://creativecommons.org/ns#"
   xmlns:rdf="http://www.w3.org/1999/02/22-rdf-syntax-ns#"
   xmlns:svg="http://www.w3.org/2000/svg"
   xmlns="http://www.w3.org/2000/svg"
   xmlns:xlink="http://www.w3.org/1999/xlink"
   version="1.1"
   id="svg2"
   viewBox="0 0 1536 256"
   height="256"
   width="1536">
  <defs
     id="defs4" />
  <metadata
     id="metadata7">
    <rdf:RDF>
      <cc:Work
         rdf:about="">
        <dc:format>image/svg+xml</dc:format>
        <dc:type
           rdf:resource="http://purl.org/dc/dcmitype/StillImage" />
        <dc:title></dc:title>
      </cc:Work>
    </rdf:RDF>
  </metadata>
  <g
     transform="translate(0,-796.36218)"
     id="layer1">
    <rect
       y="796.36218"
       x="0"
       height="256"
       width="256"
       id="rect10555"
       style="color:#000000;clip-rule:nonzero;display:inline;overflow:visible;visibility:visible;opacity:0;isolation:auto;mix-blend-mode:normal;color-interpolation:sRGB;color-interpolation-filters:linearRGB;solid-color:#000000;solid-opacity:1;fill:#d8b028;fill-opacity:1;fill-rule:nonzero;marker:none;color-rendering:auto;image-rendering:auto;shape-rendering:auto;text-rendering:auto;enable-background:accumulate" />
    <g
       id="text10549"
       style="color:#000000;font-style:normal;font-variant:normal;font-weight:normal;font-stretch:normal;font-size:203.2040863px;line-height:125%;font-family:FreeSerif;-inkscape-font-specification:'FreeSerif, Normal';text-align:start;letter-spacing:0px;word-spacing:0px;writing-mode:lr-tb;text-anchor:start;clip-rule:nonzero;display:inline;overflow:visible;visibility:visible;opacity:1;isolation:auto;mix-blend-mode:normal;color-interpolation:sRGB;color-interpolation-filters:linearRGB;solid-color:#000000;solid-opacity:1;fill:#1f1f1f;fill-opacity:1;fill-rule:nonzero;stroke:none;stroke-width:1px;stroke-linecap:butt;stroke-linejoin:miter;stroke-miterlimit:4;stroke-dasharray:none;stroke-dashoffset:0;stroke-opacity:1;color-rendering:auto;image-rendering:auto;shape-rendering:auto;text-rendering:auto;enable-background:accumulate">
      <path
         id="path4169"
         style=""
         d="m 66.530764,925.58141 q 0,-31.69983 19.507592,-51.41063 19.507594,-19.914 48.565774,-19.914 13.00506,0 24.38449,3.45447 11.37943,3.25126 13.20827,3.25126 6.70573,0 8.53457,-6.70573 l 4.26729,0 1.82883,45.92412 -4.67369,0 q -11.17623,-37.79596 -43.68888,-37.79596 -22.14924,0 -35.35751,16.45953 -13.005062,16.45953 -13.005062,44.09529 0,17.67876 4.47049,30.68382 4.673694,12.80185 12.395452,19.50759 7.72175,6.50253 15.84992,9.55059 8.33136,2.84486 17.67875,2.84486 23.97808,0 45.31451,-20.52361 l 3.65768,3.65767 q -9.34739,12.39545 -23.77488,19.10118 -14.42749,6.70574 -31.69984,6.70574 -30.0742,0 -48.76898,-18.89798 -18.694776,-18.89798 -18.694776,-49.98821 z" />
    </g>
    <use
       height="100%"
       width="100%"
       transform="translate(256,0)"
       id="use13570"
       xlink:href="#rect10555"
       y="0"
       x="0" />
    <g
       id="text13572"
       style="color:#000000;font-style:normal;font-variant:normal;font-weight:normal;font-stretch:normal;font-size:203.2040863px;line-height:125%;font-family:FreeSerif;-inkscape-font-specification:'FreeSerif, Normal';text-align:start;letter-spacing:0px;word-spacing:0px;writing-mode:lr-tb;text-anchor:start;clip-rule:nonzero;display:inline;overflow:visible;visibility:visible;opacity:1;isolation:auto;mix-blend-mode:normal;color-interpolation:sRGB;color-interpolation-filters:linearRGB;solid-color:#000000;solid-opacity:1;fill:#1f1f1f;fill-opacity:1;fill-rule:nonzero;stroke:none;stroke-width:1px;stroke-linecap:butt;stroke-linejoin:miter;stroke-miterlimit:4;stroke-dasharray:none;stroke-dashoffset:0;stroke-opacity:1;color-rendering:auto;image-rendering:auto;shape-rendering:auto;text-rendering:auto;enable-background:accumulate"
       transform="matrix(0.98904258,-0.14763055,0.14763055,0.98904258,0,0)">
      <path
         id="path4166"
         style=""
         d="m 180.38271,982.03326 q 0,-31.69984 19.50759,-51.41064 19.5076,-19.914 48.56578,-19.914 13.00506,0 24.38449,3.45447 11.37943,3.25127 13.20827,3.25127 6.70573,0 8.53457,-6.70574 l 4.26728,0 1.82884,45.92413 -4.67369,0 q -11.17623,-37.79596 -43.68888,-37.79596 -22.14925,0 -35.35751,16.45953 -13.00506,16.45953 -13.00506,44.09528 0,17.67876 4.47049,30.6838 4.67369,12.8019 12.39545,19.5076 7.72175,6.5025 15.84991,9.5506 8.33137,2.8449 17.67876,2.8449 23.97808,0 45.31451,-20.5237 l 3.65767,3.6577 q -9.34738,12.3955 -23.77487,19.1012 -14.42749,6.7057 -31.69984,6.7057 -30.07421,0 -48.76898,-18.8979 -18.69478,-18.898 -18.69478,-49.98824 z" />
    </g>
    <use
       x="0"
       y="0"
       xlink:href="#rect10555"
       id="use13576"
       transform="translate(512,0)"
       width="100%"
       height="100%" />
    <g
       id="text13578"
       style="color:#000000;font-style:normal;font-variant:normal;font-weight:normal;font-stretch:normal;font-size:203.2040863px;line-height:125%;font-family:FreeSerif;-inkscape-font-specification:'FreeSerif, Normal';text-align:start;letter-spacing:0px;word-spacing:0px;writing-mode:lr-tb;text-anchor:start;clip-rule:nonzero;display:inline;overflow:visible;visibility:visible;opacity:1;isolation:auto;mix-blend-mode:normal;color-interpolation:sRGB;color-interpolation-filters:linearRGB;solid-color:#000000;solid-opacity:1;fill:#1f1f1f;fill-opacity:1;fill-rule:nonzero;stroke:none;stroke-width:1px;stroke-linecap:butt;stroke-linejoin:miter;stroke-miterlimit:4;stroke-dasharray:none;stroke-dashoffset:0;stroke-opacity:1;color-rendering:auto;image-rendering:auto;shape-rendering:auto;text-rendering:auto;enable-background:accumulate"
       transform="matrix(0.961677,-0.27418489,0.27418489,0.961677,0,0)">
      <path
         id="path4157"
         style=""
         d="m 293.4291,1090.6388 q 0,-31.6998 19.50759,-51.4106 19.50759,-19.914 48.56578,-19.914 13.00506,0 24.38449,3.4545 11.37943,3.2512 13.20826,3.2512 6.70574,0 8.53458,-6.7057 l 4.26728,0 1.82884,45.9241 -4.6737,0 q -11.17622,-37.7959 -43.68887,-37.7959 -22.14925,0 -35.35752,16.4595 -13.00506,16.4595 -13.00506,44.0953 0,17.6788 4.47049,30.6838 4.6737,12.8019 12.39545,19.5076 7.72176,6.5025 15.84992,9.5506 8.33137,2.8449 17.67876,2.8449 23.97808,0 45.31451,-20.5237 l 3.65767,3.6577 q -9.34739,12.3955 -23.77488,19.1012 -14.42749,6.7057 -31.69983,6.7057 -30.07421,0 -48.76899,-18.8979 -18.69477,-18.898 -18.69477,-49.9883 z" />
    </g>
    <use
       x="0"
       y="0"
       xlink:href="#rect10555"
       id="use13590"
       transform="translate(768,0)"
       width="100%"
       height="100%" />
    <g
       id="text13592"
       style="color:#000000;font-style:normal;font-variant:normal;font-weight:normal;font-stretch:normal;font-size:203.2040863px;line-height:125%;font-family:FreeSerif;-inkscape-font-specification:'FreeSerif, Normal';text-align:start;letter-spacing:0px;word-spacing:0px;writing-mode:lr-tb;text-anchor:start;clip-rule:nonzero;display:inline;overflow:visible;visibility:visible;opacity:1;isolation:auto;mix-blend-mode:normal;color-interpolation:sRGB;color-interpolation-filters:linearRGB;solid-color:#000000;solid-opacity:1;fill:#1f1f1f;fill-opacity:1;fill-rule:nonzero;stroke:none;stroke-width:1px;stroke-linecap:butt;stroke-linejoin:miter;stroke-miterlimit:4;stroke-dasharray:none;stroke-dashoffset:0;stroke-opacity:1;color-rendering:auto;image-rendering:auto;shape-rendering:auto;text-rendering:auto;enable-background:accumulate"
       transform="matrix(0.98904258,-0.14763055,0.14763055,0.98904258,0,0)">
      <path
         id="path4163"
         style=""
         d="m 686.77248,1057.62 q 0,-31.6998 19.50759,-51.4106 19.5076,-19.91399 48.56578,-19.91399 13.00506,0 24.38449,3.45447 11.37943,3.25127 13.20827,3.25127 6.70573,0 8.53457,-6.70574 l 4.26728,0 1.82884,45.92409 -4.67369,0 q -11.17623,-37.79592 -43.68888,-37.79592 -22.14925,0 -35.35751,16.45952 -13.00506,16.4595 -13.00506,44.0953 0,17.6788 4.47049,30.6838 4.67369,12.8019 12.39545,19.5076 7.72175,6.5025 15.84991,9.5506 8.33137,2.8449 17.67876,2.8449 23.97808,0 45.31451,-20.5237 l 3.65767,3.6577 q -9.34738,12.3955 -23.77487,19.1012 -14.42749,6.7057 -31.69984,6.7057 -30.07421,0 -48.76898,-18.8979 -18.69478,-18.898 -18.69478,-49.9883 z" />
    </g>
    <use
       height="100%"
       width="100%"
       transform="translate(1024,0)"
       id="use13603"
       xlink:href="#rect10555"
       y="0"
       x="0" />
    <g
       id="text13605"
       style="color:#000000;font-style:normal;font-variant:normal;font-weight:normal;font-stretch:normal;font-size:203.2040863px;line-height:125%;font-family:FreeSerif;-inkscape-font-specification:'FreeSerif, Normal';text-align:start;letter-spacing:0px;word-spacing:0px;writing-mode:lr-tb;text-anchor:start;clip-rule:nonzero;display:inline;overflow:visible;visibility:visible;opacity:1;isolation:auto;mix-blend-mode:normal;color-interpolation:sRGB;color-interpolation-filters:linearRGB;solid-color:#000000;solid-opacity:1;fill:#1f1f1f;fill-opacity:1;fill-rule:nonzero;stroke:none;stroke-width:1px;stroke-linecap:butt;stroke-linejoin:miter;stroke-miterlimit:4;stroke-dasharray:none;stroke-dashoffset:0;stroke-opacity:1;color-rendering:auto;image-rendering:auto;shape-rendering:auto;text-rendering:auto;enable-background:accumulate"
       transform="matrix(0.9958334,0.09119126,-0.09119126,0.9958334,0,0)">
      <path
         id="path4160"
         style=""
         d="m 1169.66,812.69451 q 0,-31.69984 19.5076,-51.41063 19.5076,-19.914 48.5658,-19.914 13.005,0 24.3845,3.45447 11.3794,3.25126 13.2082,3.25126 6.7058,0 8.5346,-6.70573 l 4.2673,0 1.8288,45.92412 -4.6737,0 q -11.1762,-37.79596 -43.6889,-37.79596 -22.1492,0 -35.3575,16.45953 -13.005,16.45953 -13.005,44.09529 0,17.67875 4.4705,30.68382 4.6737,12.80185 12.3954,19.50759 7.7218,6.50253 15.8499,9.55059 8.3314,2.84486 17.6788,2.84486 23.9781,0 45.3145,-20.52362 l 3.6577,3.65768 q -9.3474,12.39545 -23.7749,19.10118 -14.4275,6.70574 -31.6998,6.70574 -30.0743,0 -48.769,-18.89798 -18.6948,-18.89798 -18.6948,-49.98821 z" />
    </g>
    <use
       x="0"
       y="0"
       xlink:href="#rect10555"
       id="use13615"
       transform="translate(1280,0)"
       width="100%"
       height="100%" />
    <g
       id="text13617"
       style="color:#000000;font-style:normal;font-variant:normal;font-weight:normal;font-stretch:normal;font-size:203.2040863px;line-height:125%;font-family:FreeSerif;-inkscape-font-specification:'FreeSerif, Normal';text-align:start;letter-spacing:0px;word-spacing:0px;writing-mode:lr-tb;text-anchor:start;clip-rule:nonzero;display:inline;overflow:visible;visibility:visible;opacity:1;isolation:auto;mix-blend-mode:normal;color-interpolation:sRGB;color-interpolation-filters:linearRGB;solid-color:#000000;solid-opacity:1;fill:#1f1f1f;fill-opacity:1;fill-rule:nonzero;stroke:none;stroke-width:1px;stroke-linecap:butt;stroke-linejoin:miter;stroke-miterlimit:4;stroke-dasharray:none;stroke-dashoffset:0;stroke-opacity:1;color-rendering:auto;image-rendering:auto;shape-rendering:auto;text-rendering:auto;enable-background:accumulate"
       transform="matrix(0.94861372,0.31643641,-0.31643641,0.94861372,0,0)">
      <path
         id="path4154"
         style=""
         d="m 1562.2509,419.259 q 0,-31.69984 19.5076,-51.41064 19.5076,-19.914 48.5658,-19.914 13.0051,0 24.3845,3.45447 11.3794,3.25127 13.2083,3.25127 6.7057,0 8.5345,-6.70574 l 4.2673,0 1.8289,45.92412 -4.6737,0 q -11.1763,-37.79596 -43.6889,-37.79596 -22.1493,0 -35.3575,16.45954 -13.0051,16.45953 -13.0051,44.09528 0,17.67876 4.4705,30.68382 4.6737,12.80186 12.3955,19.50759 7.7217,6.50253 15.8499,9.55059 8.3313,2.84486 17.6787,2.84486 23.9781,0 45.3145,-20.52361 l 3.6577,3.65767 q -9.3474,12.39545 -23.7749,19.10119 -14.4275,6.70573 -31.6998,6.70573 -30.0742,0 -48.769,-18.89798 -18.6948,-18.89798 -18.6948,-49.9882 z" />
    </g>
    <rect
       y="503.64731"
       x="-45.254833"
       height="70.710678"
       width="66.46804"
       id="rect13629"
       style="color:#000000;clip-rule:nonzero;display:inline;overflow:visible;visibility:visible;opacity:1;isolation:auto;mix-blend-mode:normal;color-interpolation:sRGB;color-interpolation-filters:linearRGB;solid-color:#000000;solid-opacity:1;fill:#f4f2ee;fill-opacity:1;fill-rule:nonzero;stroke:none;stroke-width:1px;stroke-linecap:butt;stroke-linejoin:miter;stroke-miterlimit:4;stroke-dasharray:none;stroke-dashoffset:0;stroke-opacity:1;marker:none;color-rendering:auto;image-rendering:auto;shape-rendering:auto;text-rendering:auto;enable-background:accumulate" />
    <rect
       y="618.19861"
       x="-50.91169"
       height="60.811184"
       width="67.882248"
       id="rect13631"
       style="color:#000000;clip-rule:nonzero;display:inline;overflow:visible;visibility:visible;opacity:1;isolation:auto;mix-blend-mode:normal;color-interpolation:sRGB;color-interpolation-filters:linearRGB;solid-color:#000000;solid-opacity:1;fill:#1f1f1f;fill-opacity:1;fill-rule:nonzero;stroke:none;stroke-width:1px;stroke-linecap:butt;stroke-linejoin:miter;stroke-miterlimit:4;stroke-dasharray:none;stroke-dashoffset:0;stroke-opacity:1;marker:none;color-rendering:auto;image-rendering:auto;shape-rendering:auto;text-rendering:auto;enable-background:accumulate" />
  </g>
</svg>
