<?xml version="1.0" encoding="UTF-8" standalone="no"?>
<svg
   xmlns:dc="http://purl.org/dc/elements/1.1/"
   xmlns:cc="http://creativecommons.org/ns#"
   xmlns:rdf="http://www.w3.org/1999/02/22-rdf-syntax-ns#"
   xmlns:svg="http://www.w3.org/2000/svg"
   xmlns="http://www.w3.org/2000/svg"
   xmlns:xlink="http://www.w3.org/1999/xlink"
   width="1536"
   height="256"
   viewBox="0 0 1536 256"
   id="svg2"
   version="1.1">
  <defs
     id="defs4" />
  <metadata
     id="metadata7">
    <rdf:RDF>
      <cc:Work
         rdf:about="">
        <dc:format>image/svg+xml</dc:format>
        <dc:type
           rdf:resource="http://purl.org/dc/dcmitype/StillImage" />
        <dc:title></dc:title>
      </cc:Work>
    </rdf:RDF>
  </metadata>
  <g
     id="layer1"
     transform="translate(0,-796.36218)">
    <rect
       style="color:#000000;clip-rule:nonzero;display:inline;overflow:visible;visibility:visible;opacity:0;isolation:auto;mix-blend-mode:normal;color-interpolation:sRGB;color-interpolation-filters:linearRGB;solid-color:#000000;solid-opacity:1;fill:#d8b028;fill-opacity:1;fill-rule:nonzero;marker:none;color-rendering:auto;image-rendering:auto;shape-rendering:auto;text-rendering:auto;enable-background:accumulate"
       id="rect10555"
       width="256"
       height="256"
       x="0"
       y="796.36218" />
    <g
       id="text10549"
       style="font-style:normal;font-variant:normal;font-weight:normal;font-stretch:normal;font-size:175.42730713px;line-height:125%;font-family:FreeSerif;-inkscape-font-specification:'FreeSerif, Normal';text-align:start;letter-spacing:0px;word-spacing:0px;writing-mode:lr-tb;text-anchor:start;opacity:1;fill:#1f1f1f;fill-opacity:1;stroke:none;stroke-width:1px;stroke-linecap:butt;stroke-linejoin:miter;stroke-opacity:1">
      <path
         id="path4148"
         style=""
         d="m 188.78556,923.83593 q 0,7.89423 -1.75427,15.4376 -1.75428,7.54338 -6.49081,15.61303 -4.73654,8.06966 -12.10449,14.03419 -7.36794,5.7891 -19.64786,9.6485 -12.10448,3.8594 -27.54208,3.8594 l -49.821359,0 0,-3.33312 q 9.999357,-0.70171 12.630766,-3.50855 2.806837,-2.80683 2.806837,-12.27991 l 0,-77.88972 q 0,-9.6485 -2.631409,-12.27991 -2.455983,-2.63141 -12.806194,-3.50855 l 0,-3.33312 47.365369,0 q 15.96389,0 28.41923,3.68398 12.63076,3.50854 20.17414,9.29764 7.7188,5.61368 12.63076,13.50791 5.0874,7.7188 6.84167,15.26217 1.9297,7.54338 1.9297,15.78846 z m -19.12158,1.22799 q 0,-7.54337 -1.57884,-14.38504 -1.40342,-7.01709 -5.26282,-14.03418 -3.8594,-7.19252 -9.99936,-12.27991 -6.13995,-5.0874 -16.13931,-8.24509 -9.99936,-3.33312 -22.80555,-3.33312 -5.43825,0 -7.36795,1.40342 -1.75427,1.40342 -1.75427,5.43825 l 0,89.11707 q 0,4.21026 1.9297,5.7891 1.9297,1.40342 7.19252,1.40342 55.78588,0 55.78588,-50.87392 z" />
    </g>
    <use
       x="0"
       y="0"
       xlink:href="#rect10555"
       id="use10557"
       transform="translate(256,0)"
       width="100%"
       height="100%"
       style="opacity:1" />
    <use
       x="0"
       y="0"
       xlink:href="#text10549"
       id="use4289"
       transform="matrix(0.99471044,-0.1027187,0.1027187,0.99471044,161.72778,34.037459)"
       width="100%"
       height="100%" />
    <use
       style="opacity:1"
       height="100%"
       width="100%"
       transform="translate(512,0)"
       id="use4291"
       xlink:href="#rect10555"
       y="0"
       x="0" />
    <use
       height="100%"
       width="100%"
       transform="matrix(0.97288849,-0.23127472,0.23127472,0.97288849,305.68867,74.664016)"
       id="use4293"
       xlink:href="#text10549"
       y="0"
       x="0" />
    <use
       x="0"
       y="0"
       xlink:href="#rect10555"
       id="use4301"
       transform="translate(768,0)"
       width="100%"
       height="100%"
       style="opacity:1" />
    <use
       x="0"
       y="0"
       xlink:href="#text10549"
       id="use4303"
       transform="matrix(0.90080746,-0.43421878,0.43421878,0.90080746,389.32122,173.26984)"
       width="100%"
       height="100%" />
    <use
       style="opacity:1"
       height="100%"
       width="100%"
       transform="translate(1024,0)"
       id="use4311"
       xlink:href="#rect10555"
       y="0"
       x="0" />
    <use
       height="100%"
       width="100%"
       transform="matrix(0.90080746,-0.43421878,0.43421878,0.90080746,645.32122,153.26984)"
       id="use4313"
       xlink:href="#text10549"
       y="0"
       x="0" />
    <use
       x="0"
       y="0"
       xlink:href="#rect10555"
       id="use4321"
       transform="translate(1280,0)"
       width="100%"
       height="100%"
       style="opacity:1" />
    <use
       x="0"
       y="0"
       xlink:href="#text10549"
       id="use4323"
       transform="matrix(0.97239949,-0.2333222,0.2333222,0.97239949,1073.8587,59.378115)"
       width="100%"
       height="100%" />
  </g>
</svg>
