<?xml version="1.0" encoding="UTF-8" standalone="no"?>
<svg
   xmlns:dc="http://purl.org/dc/elements/1.1/"
   xmlns:cc="http://creativecommons.org/ns#"
   xmlns:rdf="http://www.w3.org/1999/02/22-rdf-syntax-ns#"
   xmlns:svg="http://www.w3.org/2000/svg"
   xmlns="http://www.w3.org/2000/svg"
   xmlns:xlink="http://www.w3.org/1999/xlink"
   version="1.1"
   id="svg2"
   viewBox="0 0 1536 256"
   height="256"
   width="1536">
  <defs
     id="defs4" />
  <metadata
     id="metadata7">
    <rdf:RDF>
      <cc:Work
         rdf:about="">
        <dc:format>image/svg+xml</dc:format>
        <dc:type
           rdf:resource="http://purl.org/dc/dcmitype/StillImage" />
        <dc:title></dc:title>
      </cc:Work>
    </rdf:RDF>
  </metadata>
  <g
     transform="translate(0,-796.36218)"
     id="layer1">
    <rect
       y="796.36218"
       x="0"
       height="256"
       width="256"
       id="rect10555"
       style="color:#000000;clip-rule:nonzero;display:inline;overflow:visible;visibility:visible;opacity:0;isolation:auto;mix-blend-mode:normal;color-interpolation:sRGB;color-interpolation-filters:linearRGB;solid-color:#000000;solid-opacity:1;fill:#d8b028;fill-opacity:1;fill-rule:nonzero;marker:none;color-rendering:auto;image-rendering:auto;shape-rendering:auto;text-rendering:auto;enable-background:accumulate" />
    <g
       id="text10549"
       style="font-style:normal;font-variant:normal;font-weight:normal;font-stretch:normal;font-size:195.71716309px;line-height:125%;font-family:FreeSerif;-inkscape-font-specification:'FreeSerif, Normal';text-align:start;letter-spacing:0px;word-spacing:0px;writing-mode:lr-tb;text-anchor:start;fill:#1f1f1f;fill-opacity:1;stroke:none;stroke-width:1px;stroke-linecap:butt;stroke-linejoin:miter;stroke-opacity:1">
      <path
         id="path4168"
         style=""
         d="m 163.03337,943.93393 -4.50149,0 q -1.76146,-11.93875 -5.6758,-15.26594 -3.91434,-3.52291 -15.85309,-3.52291 l -28.37899,0 0,40.70917 q 0,11.93875 3.13148,15.46166 3.32719,3.5229 14.67878,4.11006 l 0,3.71862 -54.800802,0 0,-3.71862 q 11.155878,-0.78287 14.091636,-4.11006 2.935757,-3.52291 2.935757,-15.65738 l 0,-84.74553 q 0,-10.37301 -3.131474,-13.50448 -3.131475,-3.32719 -13.895919,-4.11006 l 0,-3.71863 103.925812,0 0.58715,27.98755 -4.89293,0 q -2.54432,-13.11305 -7.82868,-16.83167 -5.28437,-3.71863 -21.92032,-3.71863 l -26.61754,0 q -3.91434,0 -5.08865,1.37002 -1.1743,1.17431 -1.1743,5.28437 l 0,43.44921 28.37899,0 q 11.74303,0 15.65737,-3.3272 4.11006,-3.5229 5.87152,-15.26593 l 4.50149,0 0,45.40638 z" />
    </g>
    <use
       height="100%"
       width="100%"
       transform="translate(256,0)"
       id="use10557"
       xlink:href="#rect10555"
       y="0"
       x="0" />
    <g
       id="text10563"
       style="font-style:normal;font-variant:normal;font-weight:normal;font-stretch:normal;font-size:195.71716309px;line-height:125%;font-family:FreeSerif;-inkscape-font-specification:'FreeSerif, Normal';text-align:start;letter-spacing:0px;word-spacing:0px;writing-mode:lr-tb;text-anchor:start;fill:#1f1f1f;fill-opacity:1;stroke:none;stroke-width:1px;stroke-linecap:butt;stroke-linejoin:miter;stroke-opacity:1"
       transform="matrix(0.97156803,0.23676058,-0.23676058,0.97156803,0,0)">
      <path
         id="path4165"
         style=""
         d="m 626.968,826.73642 -4.5015,0 q -1.76145,-11.93875 -5.6758,-15.26594 -3.91434,-3.52291 -15.85309,-3.52291 l -28.37898,0 0,40.70917 q 0,11.93875 3.13147,15.46166 3.32719,3.5229 14.67879,4.11006 l 0,3.71862 -54.80081,0 0,-3.71862 q 11.15588,-0.78287 14.09164,-4.11006 2.93575,-3.52291 2.93575,-15.65738 l 0,-84.74553 q 0,-10.37301 -3.13147,-13.50448 -3.13147,-3.32719 -13.89592,-4.11006 l 0,-3.71863 103.92582,0 0.58715,27.98755 -4.89293,0 q -2.54433,-13.11305 -7.82869,-16.83167 -5.28436,-3.71863 -21.92032,-3.71863 l -26.61754,0 q -3.91434,0 -5.08864,1.37002 -1.1743,1.17431 -1.1743,5.28437 l 0,43.44921 28.37898,0 q 11.74303,0 15.65738,-3.3272 4.11006,-3.5229 5.87151,-15.26593 l 4.5015,0 0,45.40638 z" />
    </g>
    <use
       x="0"
       y="0"
       xlink:href="#rect10555"
       id="use10569"
       transform="translate(512,0)"
       width="100%"
       height="100%" />
    <g
       id="text10571"
       style="font-style:normal;font-variant:normal;font-weight:normal;font-stretch:normal;font-size:195.71716309px;line-height:125%;font-family:FreeSerif;-inkscape-font-specification:'FreeSerif, Normal';text-align:start;letter-spacing:0px;word-spacing:0px;writing-mode:lr-tb;text-anchor:start;fill:#1f1f1f;fill-opacity:1;stroke:none;stroke-width:1px;stroke-linecap:butt;stroke-linejoin:miter;stroke-opacity:1"
       transform="matrix(0.86809253,0.49640241,-0.49640241,0.86809253,0,0)">
      <path
         id="path4162"
         style=""
         d="m 1049.4682,504.30618 -4.5015,0 q -1.7614,-11.93875 -5.6758,-15.26594 -3.9143,-3.52291 -15.853,-3.52291 l -28.37903,0 0,40.70917 q 0,11.93875 3.13147,15.46166 3.32716,3.52291 14.67876,4.11006 l 0,3.71863 -54.80077,0 0,-3.71863 q 11.15587,-0.78287 14.09163,-4.11006 2.93576,-3.52291 2.93576,-15.65737 l 0,-84.74554 q 0,-10.37301 -3.13148,-13.50448 -3.13147,-3.32719 -13.89591,-4.11006 l 0,-3.71863 103.92577,0 0.5872,27.98756 -4.8929,0 q -2.5444,-13.11305 -7.8287,-16.83168 -5.2844,-3.71862 -21.9203,-3.71862 l -26.6176,0 q -3.91432,0 -5.08863,1.37002 -1.1743,1.1743 -1.1743,5.28436 l 0,43.44921 28.37903,0 q 11.743,0 15.6573,-3.32719 4.1101,-3.52291 5.8715,-15.26594 l 4.5015,0 0,45.40638 z" />
    </g>
    <g
       transform="translate(512,0)"
       id="g10600">
      <use
         height="100%"
         width="100%"
         transform="translate(256,0)"
         id="use10594"
         xlink:href="#rect10555"
         y="0"
         x="0" />
      <g
         id="text10596"
         style="font-style:normal;font-variant:normal;font-weight:normal;font-stretch:normal;font-size:195.71716309px;line-height:125%;font-family:FreeSerif;-inkscape-font-specification:'FreeSerif, Normal';text-align:start;letter-spacing:0px;word-spacing:0px;writing-mode:lr-tb;text-anchor:start;fill:#1f1f1f;fill-opacity:1;stroke:none;stroke-width:1px;stroke-linecap:butt;stroke-linejoin:miter;stroke-opacity:1"
         transform="matrix(0.97156803,0.23676058,-0.23676058,0.97156803,0,0)">
        <path
           id="path4159"
           style=""
           d="m 626.968,826.73642 -4.5015,0 q -1.76145,-11.93875 -5.6758,-15.26594 -3.91434,-3.52291 -15.85309,-3.52291 l -28.37898,0 0,40.70917 q 0,11.93875 3.13147,15.46166 3.32719,3.5229 14.67879,4.11006 l 0,3.71862 -54.80081,0 0,-3.71862 q 11.15588,-0.78287 14.09164,-4.11006 2.93575,-3.52291 2.93575,-15.65738 l 0,-84.74553 q 0,-10.37301 -3.13147,-13.50448 -3.13147,-3.32719 -13.89592,-4.11006 l 0,-3.71863 103.92582,0 0.58715,27.98755 -4.89293,0 q -2.54433,-13.11305 -7.82869,-16.83167 -5.28436,-3.71863 -21.92032,-3.71863 l -26.61754,0 q -3.91434,0 -5.08864,1.37002 -1.1743,1.17431 -1.1743,5.28437 l 0,43.44921 28.37898,0 q 11.74303,0 15.65738,-3.3272 4.11006,-3.5229 5.87151,-15.26593 l 4.5015,0 0,45.40638 z" />
      </g>
    </g>
    <use
       height="100%"
       width="100%"
       transform="translate(1024,0)"
       id="use10607"
       xlink:href="#rect10555"
       y="0"
       x="0" />
    <g
       id="text10609"
       style="font-style:normal;font-variant:normal;font-weight:normal;font-stretch:normal;font-size:195.71716309px;line-height:125%;font-family:FreeSerif;-inkscape-font-specification:'FreeSerif, Normal';text-align:start;letter-spacing:0px;word-spacing:0px;writing-mode:lr-tb;text-anchor:start;fill:#1f1f1f;fill-opacity:1;stroke:none;stroke-width:1px;stroke-linecap:butt;stroke-linejoin:miter;stroke-opacity:1"
       transform="matrix(0.99300334,-0.11808625,0.11808625,0.99300334,0,0)">
      <path
         id="path4156"
         style=""
         d="m 1069.8188,1073.5019 -4.5015,0 q -1.7615,-11.9388 -5.6758,-15.266 -3.9144,-3.5229 -15.8531,-3.5229 l -28.379,0 0,40.7092 q 0,11.9387 3.1315,15.4616 3.3272,3.5229 14.6788,4.1101 l 0,3.7186 -54.80085,0 0,-3.7186 q 11.15588,-0.7829 14.09164,-4.1101 2.93575,-3.5229 2.93575,-15.6573 l 0,-84.7456 q 0,-10.373 -3.13147,-13.50445 -3.13148,-3.32719 -13.89592,-4.11006 l 0,-3.71863 103.92585,0 0.5871,27.98754 -4.8929,0 q -2.5443,-13.113 -7.8287,-16.8317 -5.2844,-3.71859 -21.9203,-3.71859 l -26.6176,0 q -3.9143,0 -5.0886,1.37002 -1.1743,1.17431 -1.1743,5.28437 l 0,43.4492 28.379,0 q 11.743,0 15.6574,-3.3272 4.11,-3.5229 5.8715,-15.2659 l 4.5015,0 0,45.4064 z" />
    </g>
    <use
       x="0"
       y="0"
       xlink:href="#rect10555"
       id="use10616"
       transform="translate(1280,0)"
       width="100%"
       height="100%" />
    <g
       id="text10618"
       style="font-style:normal;font-variant:normal;font-weight:normal;font-stretch:normal;font-size:195.71716309px;line-height:125%;font-family:FreeSerif;-inkscape-font-specification:'FreeSerif, Normal';text-align:start;letter-spacing:0px;word-spacing:0px;writing-mode:lr-tb;text-anchor:start;fill:#1f1f1f;fill-opacity:1;stroke:none;stroke-width:1px;stroke-linecap:butt;stroke-linejoin:miter;stroke-opacity:1"
       transform="matrix(0.90969768,-0.41527114,0.41527114,0.90969768,0,0)">
      <path
         id="path4153"
         style=""
         d="m 932.02671,1445.1637 -4.50149,0 q -1.76146,-11.9387 -5.6758,-15.2659 -3.91434,-3.5229 -15.85309,-3.5229 l -28.37899,0 0,40.7091 q 0,11.9388 3.13148,15.4617 3.32719,3.5229 14.67878,4.1101 l 0,3.7186 -54.8008,0 0,-3.7186 q 11.15588,-0.7829 14.09163,-4.1101 2.93576,-3.5229 2.93576,-15.6574 l 0,-84.7455 q 0,-10.373 -3.13147,-13.5045 -3.13148,-3.3272 -13.89592,-4.11 l 0,-3.7187 103.92581,0 0.58715,27.9876 -4.89293,0 q -2.54432,-13.1131 -7.82868,-16.8317 -5.28437,-3.7186 -21.92033,-3.7186 l -26.61753,0 q -3.91434,0 -5.08865,1.37 -1.1743,1.1743 -1.1743,5.2844 l 0,43.4492 28.37899,0 q 11.74303,0 15.65737,-3.3272 4.11006,-3.5229 5.87152,-15.266 l 4.50149,0 0,45.4064 z" />
    </g>
  </g>
</svg>
