<?xml version="1.0" encoding="UTF-8" standalone="no"?>
<svg
   xmlns:dc="http://purl.org/dc/elements/1.1/"
   xmlns:cc="http://creativecommons.org/ns#"
   xmlns:rdf="http://www.w3.org/1999/02/22-rdf-syntax-ns#"
   xmlns:svg="http://www.w3.org/2000/svg"
   xmlns="http://www.w3.org/2000/svg"
   xmlns:xlink="http://www.w3.org/1999/xlink"
   width="1536"
   height="256"
   viewBox="0 0 1536 256"
   id="svg2"
   version="1.1">
  <defs
     id="defs4" />
  <metadata
     id="metadata7">
    <rdf:RDF>
      <cc:Work
         rdf:about="">
        <dc:format>image/svg+xml</dc:format>
        <dc:type
           rdf:resource="http://purl.org/dc/dcmitype/StillImage" />
        <dc:title></dc:title>
      </cc:Work>
    </rdf:RDF>
  </metadata>
  <g
     id="layer1"
     transform="translate(0,-796.36218)">
    <rect
       style="color:#000000;clip-rule:nonzero;display:inline;overflow:visible;visibility:visible;opacity:0;isolation:auto;mix-blend-mode:normal;color-interpolation:sRGB;color-interpolation-filters:linearRGB;solid-color:#000000;solid-opacity:1;fill:#d8b028;fill-opacity:1;fill-rule:nonzero;marker:none;color-rendering:auto;image-rendering:auto;shape-rendering:auto;text-rendering:auto;enable-background:accumulate"
       id="rect10555"
       width="256"
       height="256"
       x="0"
       y="796.36218" />
    <g
       id="text10549"
       style="font-style:normal;font-variant:normal;font-weight:normal;font-stretch:normal;font-size:211.43074036px;line-height:125%;font-family:FreeSerif;-inkscape-font-specification:'FreeSerif, Normal';text-align:start;letter-spacing:0px;word-spacing:0px;writing-mode:lr-tb;text-anchor:start;opacity:1;fill:#1f1f1f;fill-opacity:1;stroke:none;stroke-width:1px;stroke-linecap:butt;stroke-linejoin:miter;stroke-opacity:1"
       transform="matrix(0.97232454,0.23363432,-0.23363432,0.97232454,0,0)">
      <path
         id="path4148"
         style=""
         d="m 361.29093,799.60457 q -12.05155,0 -21.3545,4.44005 -9.30296,4.22861 -15.01159,10.9944 -5.70863,6.76578 -9.30295,15.8573 -3.59432,9.09152 -5.07434,17.54875 -1.26858,8.2458 -1.26858,16.70303 0,29.38888 14.80015,46.51477 15.01158,16.91445 40.80613,16.91445 11.41726,0 19.66306,-3.59432 8.45723,-3.80575 8.45723,-8.88009 l 0,-34.25178 q 0,-11.84012 -3.38289,-14.80015 -3.17146,-3.17146 -15.22301,-4.01718 l 0,-3.80576 53.91483,0 0,3.80576 q -9.30295,0.84572 -12.05155,4.01718 -2.7486,2.96003 -2.7486,12.26298 l 0,42.92044 q -6.34292,5.4972 -23.04595,10.14868 -16.4916,4.65147 -30.02316,4.65147 -9.51439,0 -19.02877,-1.90287 -9.51438,-1.90288 -19.87449,-6.97722 -10.36011,-5.07433 -18.18304,-12.68584 -7.82294,-7.82294 -13.10871,-20.72021 -5.07434,-12.89728 -5.07434,-29.38888 0,-32.3489 20.29735,-53.28054 20.50879,-20.93165 52.2234,-20.93165 12.26298,0 24.1031,3.59433 12.05155,3.38289 13.95443,3.38289 3.38289,0 5.92006,-1.90288 2.53717,-2.11431 3.59432,-5.07434 l 4.65148,0 1.69145,44.61189 -4.86291,0 q -6.76578,-16.4916 -16.91446,-26.21741 -10.14868,-9.93725 -28.54315,-9.93725 z" />
    </g>
    <use
       x="0"
       y="0"
       xlink:href="#rect10555"
       id="use10557"
       transform="translate(256,0)"
       width="100%"
       height="100%"
       style="opacity:1" />
    <use
       x="0"
       y="0"
       xlink:href="#text10549"
       id="use4289"
       transform="matrix(0.99471044,-0.1027187,0.1027187,0.99471044,161.72778,42.037459)"
       width="100%"
       height="100%" />
    <use
       style="opacity:1"
       height="100%"
       width="100%"
       transform="translate(512,0)"
       id="use4291"
       xlink:href="#rect10555"
       y="0"
       x="0" />
    <use
       height="100%"
       width="100%"
       transform="matrix(0.97288849,-0.23127472,0.23127472,0.97288849,305.68867,78.664016)"
       id="use4293"
       xlink:href="#text10549"
       y="0"
       x="0" />
    <use
       x="0"
       y="0"
       xlink:href="#rect10555"
       id="use4301"
       transform="translate(768,0)"
       width="100%"
       height="100%"
       style="opacity:1" />
    <use
       x="0"
       y="0"
       xlink:href="#text10549"
       id="use4303"
       transform="matrix(0.90080746,-0.43421878,0.43421878,0.90080746,389.32122,161.26984)"
       width="100%"
       height="100%" />
    <use
       style="opacity:1"
       height="100%"
       width="100%"
       transform="translate(1024,0)"
       id="use4311"
       xlink:href="#rect10555"
       y="0"
       x="0" />
    <use
       height="100%"
       width="100%"
       transform="matrix(0.83057291,-0.55690993,0.55690993,0.83057291,543.3005,235.29017)"
       id="use4313"
       xlink:href="#text10549"
       y="0"
       x="0" />
    <use
       x="0"
       y="0"
       xlink:href="#rect10555"
       id="use4321"
       transform="translate(1280,0)"
       width="100%"
       height="100%"
       style="opacity:1" />
    <use
       x="0"
       y="0"
       xlink:href="#text10549"
       id="use4323"
       transform="matrix(0.97239949,-0.2333222,0.2333222,0.97239949,1073.8587,59.378115)"
       width="100%"
       height="100%" />
  </g>
</svg>
