<?xml version="1.0" encoding="UTF-8" standalone="no"?>
<svg
   xmlns:dc="http://purl.org/dc/elements/1.1/"
   xmlns:cc="http://creativecommons.org/ns#"
   xmlns:rdf="http://www.w3.org/1999/02/22-rdf-syntax-ns#"
   xmlns:svg="http://www.w3.org/2000/svg"
   xmlns="http://www.w3.org/2000/svg"
   xmlns:xlink="http://www.w3.org/1999/xlink"
   version="1.1"
   id="svg2"
   viewBox="0 0 1536 256"
   height="256"
   width="1536">
  <defs
     id="defs4" />
  <metadata
     id="metadata7">
    <rdf:RDF>
      <cc:Work
         rdf:about="">
        <dc:format>image/svg+xml</dc:format>
        <dc:type
           rdf:resource="http://purl.org/dc/dcmitype/StillImage" />
        <dc:title></dc:title>
      </cc:Work>
    </rdf:RDF>
  </metadata>
  <g
     transform="translate(0,-796.36218)"
     id="layer1">
    <rect
       y="796.36218"
       x="0"
       height="256"
       width="256"
       id="rect10555"
       style="color:#000000;clip-rule:nonzero;display:inline;overflow:visible;visibility:visible;opacity:0;isolation:auto;mix-blend-mode:normal;color-interpolation:sRGB;color-interpolation-filters:linearRGB;solid-color:#000000;solid-opacity:1;fill:#d8b028;fill-opacity:1;fill-rule:nonzero;marker:none;color-rendering:auto;image-rendering:auto;shape-rendering:auto;text-rendering:auto;enable-background:accumulate" />
    <g
       id="text10549"
       style="color:#000000;font-style:normal;font-variant:normal;font-weight:normal;font-stretch:normal;font-size:203.2040863px;line-height:125%;font-family:FreeSerif;-inkscape-font-specification:'FreeSerif, Normal';text-align:start;letter-spacing:0px;word-spacing:0px;writing-mode:lr-tb;text-anchor:start;clip-rule:nonzero;display:inline;overflow:visible;visibility:visible;opacity:1;isolation:auto;mix-blend-mode:normal;color-interpolation:sRGB;color-interpolation-filters:linearRGB;solid-color:#000000;solid-opacity:1;fill:#1f1f1f;fill-opacity:1;fill-rule:nonzero;stroke:none;stroke-width:1px;stroke-linecap:butt;stroke-linejoin:miter;stroke-miterlimit:4;stroke-dasharray:none;stroke-dashoffset:0;stroke-opacity:1;color-rendering:auto;image-rendering:auto;shape-rendering:auto;text-rendering:auto;enable-background:accumulate">
      <path
         id="path4169"
         style=""
         d="m 101.07546,918.67247 61.57084,0 0,-39.42159 q 0,-10.97302 -3.04806,-14.02108 -3.04807,-3.25127 -14.8339,-4.26729 l 0,-3.86087 56.49073,0 0,3.86087 q -11.78583,1.01602 -14.83389,4.26729 -3.04807,3.04806 -3.04807,14.02108 l 0,90.22262 q 0,10.76981 3.25127,14.02108 3.25126,3.25126 14.63069,4.26728 l 0,3.86088 -56.49073,0 0,-3.86088 q 11.78583,-0.81281 14.8339,-4.26728 3.04806,-3.45447 3.04806,-16.25633 l 0,-39.6248 -61.57084,0 0,41.86005 q 0,10.76981 3.25126,14.02108 3.25127,3.25126 14.6307,4.26728 l 0,3.86088 -56.490738,0 0,-3.86088 q 11.785837,-0.81281 14.833899,-4.26728 3.048061,-3.45447 3.048061,-16.25633 l 0,-87.98737 q 0,-10.97302 -3.048061,-14.02108 -3.048062,-3.25127 -14.833899,-4.26729 l 0,-3.86087 56.490738,0 0,3.86087 q -11.78584,1.01602 -14.8339,4.26729 -3.04806,3.04806 -3.04806,14.02108 l 0,39.42159 z" />
    </g>
    <use
       height="100%"
       width="100%"
       transform="translate(256,0)"
       id="use13570"
       xlink:href="#rect10555"
       y="0"
       x="0" />
    <g
       id="text13572"
       style="color:#000000;font-style:normal;font-variant:normal;font-weight:normal;font-stretch:normal;font-size:203.2040863px;line-height:125%;font-family:FreeSerif;-inkscape-font-specification:'FreeSerif, Normal';text-align:start;letter-spacing:0px;word-spacing:0px;writing-mode:lr-tb;text-anchor:start;clip-rule:nonzero;display:inline;overflow:visible;visibility:visible;opacity:1;isolation:auto;mix-blend-mode:normal;color-interpolation:sRGB;color-interpolation-filters:linearRGB;solid-color:#000000;solid-opacity:1;fill:#1f1f1f;fill-opacity:1;fill-rule:nonzero;stroke:none;stroke-width:1px;stroke-linecap:butt;stroke-linejoin:miter;stroke-miterlimit:4;stroke-dasharray:none;stroke-dashoffset:0;stroke-opacity:1;color-rendering:auto;image-rendering:auto;shape-rendering:auto;text-rendering:auto;enable-background:accumulate"
       transform="matrix(0.98904258,-0.14763055,0.14763055,0.98904258,0,0)">
      <path
         id="path4166"
         style=""
         d="m 214.92741,975.12432 61.57083,0 0,-39.42159 q 0,-10.97303 -3.04806,-14.02109 -3.04806,-3.25126 -14.83389,-4.26728 l 0,-3.86088 56.49073,0 0,3.86088 q -11.78584,1.01602 -14.8339,4.26728 -3.04806,3.04806 -3.04806,14.02109 l 0,90.22257 q 0,10.7699 3.25127,14.0211 3.25126,3.2513 14.63069,4.2673 l 0,3.8609 -56.49073,0 0,-3.8609 q 11.78583,-0.8128 14.83389,-4.2673 3.04806,-3.4544 3.04806,-16.2563 l 0,-39.6248 -61.57083,0 0,41.86 q 0,10.7699 3.25126,14.0211 3.25127,3.2513 14.6307,4.2673 l 0,3.8609 -56.49074,0 0,-3.8609 q 11.78584,-0.8128 14.8339,-4.2673 3.04806,-3.4544 3.04806,-16.2563 l 0,-87.98737 q 0,-10.97303 -3.04806,-14.02109 -3.04806,-3.25126 -14.8339,-4.26728 l 0,-3.86088 56.49074,0 0,3.86088 q -11.78584,1.01602 -14.8339,4.26728 -3.04806,3.04806 -3.04806,14.02109 l 0,39.42159 z" />
    </g>
    <use
       x="0"
       y="0"
       xlink:href="#rect10555"
       id="use13576"
       transform="translate(512,0)"
       width="100%"
       height="100%" />
    <g
       id="text13578"
       style="color:#000000;font-style:normal;font-variant:normal;font-weight:normal;font-stretch:normal;font-size:203.2040863px;line-height:125%;font-family:FreeSerif;-inkscape-font-specification:'FreeSerif, Normal';text-align:start;letter-spacing:0px;word-spacing:0px;writing-mode:lr-tb;text-anchor:start;clip-rule:nonzero;display:inline;overflow:visible;visibility:visible;opacity:1;isolation:auto;mix-blend-mode:normal;color-interpolation:sRGB;color-interpolation-filters:linearRGB;solid-color:#000000;solid-opacity:1;fill:#1f1f1f;fill-opacity:1;fill-rule:nonzero;stroke:none;stroke-width:1px;stroke-linecap:butt;stroke-linejoin:miter;stroke-miterlimit:4;stroke-dasharray:none;stroke-dashoffset:0;stroke-opacity:1;color-rendering:auto;image-rendering:auto;shape-rendering:auto;text-rendering:auto;enable-background:accumulate"
       transform="matrix(0.961677,-0.27418489,0.27418489,0.961677,0,0)">
      <path
         id="path4163"
         style=""
         d="m 327.97379,1083.7299 61.57084,0 0,-39.4216 q 0,-10.973 -3.04806,-14.0211 -3.04806,-3.2512 -14.8339,-4.2673 l 0,-3.8608 56.49074,0 0,3.8608 q -11.78584,1.0161 -14.8339,4.2673 -3.04806,3.0481 -3.04806,14.0211 l 0,90.2226 q 0,10.7698 3.25126,14.0211 3.25127,3.2513 14.6307,4.2673 l 0,3.8609 -56.49074,0 0,-3.8609 q 11.78584,-0.8128 14.8339,-4.2673 3.04806,-3.4545 3.04806,-16.2563 l 0,-39.6248 -61.57084,0 0,41.86 q 0,10.7698 3.25127,14.0211 3.25126,3.2513 14.63069,4.2673 l 0,3.8609 -56.49073,0 0,-3.8609 q 11.78583,-0.8128 14.8339,-4.2673 3.04806,-3.4545 3.04806,-16.2563 l 0,-87.9874 q 0,-10.973 -3.04806,-14.0211 -3.04807,-3.2512 -14.8339,-4.2673 l 0,-3.8608 56.49073,0 0,3.8608 q -11.78583,1.0161 -14.8339,4.2673 -3.04806,3.0481 -3.04806,14.0211 l 0,39.4216 z" />
    </g>
    <use
       x="0"
       y="0"
       xlink:href="#rect10555"
       id="use13590"
       transform="translate(768,0)"
       width="100%"
       height="100%" />
    <g
       id="text13592"
       style="color:#000000;font-style:normal;font-variant:normal;font-weight:normal;font-stretch:normal;font-size:203.2040863px;line-height:125%;font-family:FreeSerif;-inkscape-font-specification:'FreeSerif, Normal';text-align:start;letter-spacing:0px;word-spacing:0px;writing-mode:lr-tb;text-anchor:start;clip-rule:nonzero;display:inline;overflow:visible;visibility:visible;opacity:1;isolation:auto;mix-blend-mode:normal;color-interpolation:sRGB;color-interpolation-filters:linearRGB;solid-color:#000000;solid-opacity:1;fill:#1f1f1f;fill-opacity:1;fill-rule:nonzero;stroke:none;stroke-width:1px;stroke-linecap:butt;stroke-linejoin:miter;stroke-miterlimit:4;stroke-dasharray:none;stroke-dashoffset:0;stroke-opacity:1;color-rendering:auto;image-rendering:auto;shape-rendering:auto;text-rendering:auto;enable-background:accumulate"
       transform="matrix(0.98904258,-0.14763055,0.14763055,0.98904258,0,0)">
      <path
         id="path4160"
         style=""
         d="m 721.31718,1050.7111 61.57084,0 0,-39.4216 q 0,-10.973 -3.04807,-14.02106 -3.04806,-3.25127 -14.83389,-4.26729 l 0,-3.86088 56.49073,0 0,3.86088 q -11.78584,1.01602 -14.8339,4.26729 -3.04806,3.04806 -3.04806,14.02106 l 0,90.2226 q 0,10.7698 3.25127,14.0211 3.25126,3.2513 14.63069,4.2673 l 0,3.8609 -56.49073,0 0,-3.8609 q 11.78583,-0.8128 14.83389,-4.2673 3.04807,-3.4545 3.04807,-16.2563 l 0,-39.6248 -61.57084,0 0,41.86 q 0,10.7698 3.25126,14.0211 3.25127,3.2513 14.6307,4.2673 l 0,3.8609 -56.49074,0 0,-3.8609 q 11.78584,-0.8128 14.8339,-4.2673 3.04806,-3.4545 3.04806,-16.2563 l 0,-87.9874 q 0,-10.973 -3.04806,-14.02106 -3.04806,-3.25127 -14.8339,-4.26729 l 0,-3.86088 56.49074,0 0,3.86088 q -11.78584,1.01602 -14.8339,4.26729 -3.04806,3.04806 -3.04806,14.02106 l 0,39.4216 z" />
    </g>
    <use
       height="100%"
       width="100%"
       transform="translate(1024,0)"
       id="use13603"
       xlink:href="#rect10555"
       y="0"
       x="0" />
    <g
       id="text13605"
       style="color:#000000;font-style:normal;font-variant:normal;font-weight:normal;font-stretch:normal;font-size:203.2040863px;line-height:125%;font-family:FreeSerif;-inkscape-font-specification:'FreeSerif, Normal';text-align:start;letter-spacing:0px;word-spacing:0px;writing-mode:lr-tb;text-anchor:start;clip-rule:nonzero;display:inline;overflow:visible;visibility:visible;opacity:1;isolation:auto;mix-blend-mode:normal;color-interpolation:sRGB;color-interpolation-filters:linearRGB;solid-color:#000000;solid-opacity:1;fill:#1f1f1f;fill-opacity:1;fill-rule:nonzero;stroke:none;stroke-width:1px;stroke-linecap:butt;stroke-linejoin:miter;stroke-miterlimit:4;stroke-dasharray:none;stroke-dashoffset:0;stroke-opacity:1;color-rendering:auto;image-rendering:auto;shape-rendering:auto;text-rendering:auto;enable-background:accumulate"
       transform="matrix(0.9958334,0.09119126,-0.09119126,0.9958334,0,0)">
      <path
         id="path4157"
         style=""
         d="m 1204.2047,805.78557 61.5708,0 0,-39.42159 q 0,-10.97302 -3.048,-14.02108 -3.0481,-3.25127 -14.8339,-4.26729 l 0,-3.86088 56.4907,0 0,3.86088 q -11.7858,1.01602 -14.8339,4.26729 -3.0481,3.04806 -3.0481,14.02108 l 0,90.22261 q 0,10.76982 3.2513,14.02109 3.2513,3.25126 14.6307,4.26728 l 0,3.86088 -56.4907,0 0,-3.86088 q 11.7858,-0.81281 14.8339,-4.26728 3.048,-3.45447 3.048,-16.25633 l 0,-39.6248 -61.5708,0 0,41.86004 q 0,10.76982 3.2513,14.02109 3.2512,3.25126 14.6306,4.26728 l 0,3.86088 -56.4907,0 0,-3.86088 q 11.7858,-0.81281 14.8339,-4.26728 3.0481,-3.45447 3.0481,-16.25633 l 0,-87.98737 q 0,-10.97302 -3.0481,-14.02108 -3.0481,-3.25127 -14.8339,-4.26729 l 0,-3.86088 56.4907,0 0,3.86088 q -11.7858,1.01602 -14.8338,4.26729 -3.0481,3.04806 -3.0481,14.02108 l 0,39.42159 z" />
    </g>
    <use
       x="0"
       y="0"
       xlink:href="#rect10555"
       id="use13615"
       transform="translate(1280,0)"
       width="100%"
       height="100%" />
    <g
       id="text13617"
       style="color:#000000;font-style:normal;font-variant:normal;font-weight:normal;font-stretch:normal;font-size:203.2040863px;line-height:125%;font-family:FreeSerif;-inkscape-font-specification:'FreeSerif, Normal';text-align:start;letter-spacing:0px;word-spacing:0px;writing-mode:lr-tb;text-anchor:start;clip-rule:nonzero;display:inline;overflow:visible;visibility:visible;opacity:1;isolation:auto;mix-blend-mode:normal;color-interpolation:sRGB;color-interpolation-filters:linearRGB;solid-color:#000000;solid-opacity:1;fill:#1f1f1f;fill-opacity:1;fill-rule:nonzero;stroke:none;stroke-width:1px;stroke-linecap:butt;stroke-linejoin:miter;stroke-miterlimit:4;stroke-dasharray:none;stroke-dashoffset:0;stroke-opacity:1;color-rendering:auto;image-rendering:auto;shape-rendering:auto;text-rendering:auto;enable-background:accumulate"
       transform="matrix(0.94861372,0.31643641,-0.31643641,0.94861372,0,0)">
      <path
         id="path4154"
         style=""
         d="m 1596.7956,412.35006 61.5709,0 0,-39.4216 q 0,-10.97302 -3.0481,-14.02108 -3.0481,-3.25126 -14.8339,-4.26728 l 0,-3.86088 56.4907,0 0,3.86088 q -11.7858,1.01602 -14.8339,4.26728 -3.048,3.04806 -3.048,14.02108 l 0,90.22262 q 0,10.76981 3.2513,14.02108 3.2512,3.25127 14.6306,4.26729 l 0,3.86087 -56.4907,0 0,-3.86087 q 11.7858,-0.81282 14.8339,-4.26729 3.0481,-3.45447 3.0481,-16.25633 l 0,-39.62479 -61.5709,0 0,41.86004 q 0,10.76981 3.2513,14.02108 3.2513,3.25127 14.6307,4.26729 l 0,3.86087 -56.4907,0 0,-3.86087 q 11.7858,-0.81282 14.8339,-4.26729 3.048,-3.45447 3.048,-16.25633 l 0,-87.98737 q 0,-10.97302 -3.048,-14.02108 -3.0481,-3.25126 -14.8339,-4.26728 l 0,-3.86088 56.4907,0 0,3.86088 q -11.7858,1.01602 -14.8339,4.26728 -3.0481,3.04806 -3.0481,14.02108 l 0,39.4216 z" />
    </g>
    <rect
       y="503.64731"
       x="-45.254833"
       height="70.710678"
       width="66.46804"
       id="rect13629"
       style="color:#000000;clip-rule:nonzero;display:inline;overflow:visible;visibility:visible;opacity:1;isolation:auto;mix-blend-mode:normal;color-interpolation:sRGB;color-interpolation-filters:linearRGB;solid-color:#000000;solid-opacity:1;fill:#f4f2ee;fill-opacity:1;fill-rule:nonzero;stroke:none;stroke-width:1px;stroke-linecap:butt;stroke-linejoin:miter;stroke-miterlimit:4;stroke-dasharray:none;stroke-dashoffset:0;stroke-opacity:1;marker:none;color-rendering:auto;image-rendering:auto;shape-rendering:auto;text-rendering:auto;enable-background:accumulate" />
    <rect
       y="618.19861"
       x="-50.91169"
       height="60.811184"
       width="67.882248"
       id="rect13631"
       style="color:#000000;clip-rule:nonzero;display:inline;overflow:visible;visibility:visible;opacity:1;isolation:auto;mix-blend-mode:normal;color-interpolation:sRGB;color-interpolation-filters:linearRGB;solid-color:#000000;solid-opacity:1;fill:#1f1f1f;fill-opacity:1;fill-rule:nonzero;stroke:none;stroke-width:1px;stroke-linecap:butt;stroke-linejoin:miter;stroke-miterlimit:4;stroke-dasharray:none;stroke-dashoffset:0;stroke-opacity:1;marker:none;color-rendering:auto;image-rendering:auto;shape-rendering:auto;text-rendering:auto;enable-background:accumulate" />
  </g>
</svg>
