<?xml version="1.0" encoding="UTF-8" standalone="no"?>
<svg
   xmlns:dc="http://purl.org/dc/elements/1.1/"
   xmlns:cc="http://creativecommons.org/ns#"
   xmlns:rdf="http://www.w3.org/1999/02/22-rdf-syntax-ns#"
   xmlns:svg="http://www.w3.org/2000/svg"
   xmlns="http://www.w3.org/2000/svg"
   xmlns:xlink="http://www.w3.org/1999/xlink"
   version="1.1"
   id="svg2"
   viewBox="0 0 1536 256"
   height="256"
   width="1536">
  <defs
     id="defs4" />
  <metadata
     id="metadata7">
    <rdf:RDF>
      <cc:Work
         rdf:about="">
        <dc:format>image/svg+xml</dc:format>
        <dc:type
           rdf:resource="http://purl.org/dc/dcmitype/StillImage" />
        <dc:title></dc:title>
      </cc:Work>
    </rdf:RDF>
  </metadata>
  <g
     transform="translate(0,-796.36218)"
     id="layer1">
    <rect
       y="796.36218"
       x="0"
       height="256"
       width="256"
       id="rect10555"
       style="color:#000000;clip-rule:nonzero;display:inline;overflow:visible;visibility:visible;opacity:0;isolation:auto;mix-blend-mode:normal;color-interpolation:sRGB;color-interpolation-filters:linearRGB;solid-color:#000000;solid-opacity:1;fill:#d8b028;fill-opacity:1;fill-rule:nonzero;marker:none;color-rendering:auto;image-rendering:auto;shape-rendering:auto;text-rendering:auto;enable-background:accumulate" />
    <g
       id="text10549"
       style="font-style:normal;font-variant:normal;font-weight:normal;font-stretch:normal;font-size:195.71716309px;line-height:125%;font-family:FreeSerif;-inkscape-font-specification:'FreeSerif, Normal';text-align:start;letter-spacing:0px;word-spacing:0px;writing-mode:lr-tb;text-anchor:start;fill:#1f1f1f;fill-opacity:1;stroke:none;stroke-width:1px;stroke-linecap:butt;stroke-linejoin:miter;stroke-opacity:1">
      <path
         id="path4167"
         style=""
         d="m 145.81026,863.29846 0,-3.71863 51.2779,0 0,3.71863 q -10.17729,0.78287 -15.26594,3.32719 -4.89293,2.3486 -14.48307,11.93875 l -37.18626,36.79482 45.6021,48.92929 q 13.30877,14.28736 18.20169,17.61455 4.89293,3.32719 12.5259,3.52291 l 0,3.71862 -59.69373,0 0,-3.71862 q 0.58715,0 2.3486,0 1.76146,-0.19572 2.74004,-0.19572 0.97859,-0.19572 2.34861,-0.39144 1.56574,-0.19571 2.54432,-0.39143 0.97859,-0.39143 1.76146,-0.78287 0.97858,-0.58715 1.37002,-1.1743 0.58715,-0.78287 0.58715,-1.56574 0,-3.52291 -7.24154,-12.91733 -7.04581,-9.39443 -18.20169,-20.35459 l -20.74602,-20.5503 -5.08865,4.11006 0,36.59911 q 0,10.76445 2.93576,13.89592 3.13148,2.93576 14.67879,3.71863 l 0,3.71862 -55.192242,0 0,-3.71862 q 11.547313,-0.78287 14.48307,-4.11006 3.131475,-3.52291 3.131475,-15.65738 l 0,-84.74553 q 0,-10.37301 -3.131475,-13.50448 -3.131475,-3.32719 -14.48307,-4.11006 l 0,-3.71863 55.583672,0 0,3.71863 q -11.93874,0.78287 -15.07022,3.91434 -2.93576,2.93576 -2.93576,13.7002 l 0,40.12202 34.64194,-31.51046 q 15.26594,-14.09164 15.26594,-20.15887 0,-2.93576 -1.95717,-4.11006 -1.76146,-1.37002 -6.26295,-1.76146 -2.74004,0 -5.08865,-0.19571 z" />
    </g>
    <use
       height="100%"
       width="100%"
       transform="translate(256,0)"
       id="use10557"
       xlink:href="#rect10555"
       y="0"
       x="0" />
    <g
       id="text10563"
       style="font-style:normal;font-variant:normal;font-weight:normal;font-stretch:normal;font-size:195.71716309px;line-height:125%;font-family:FreeSerif;-inkscape-font-specification:'FreeSerif, Normal';text-align:start;letter-spacing:0px;word-spacing:0px;writing-mode:lr-tb;text-anchor:start;fill:#1f1f1f;fill-opacity:1;stroke:none;stroke-width:1px;stroke-linecap:butt;stroke-linejoin:miter;stroke-opacity:1"
       transform="matrix(0.97156803,0.23676058,-0.23676058,0.97156803,0,0)">
      <path
         id="path4164"
         style=""
         d="m 609.74489,746.10095 0,-3.71863 51.27789,0 0,3.71863 q -10.17729,0.78287 -15.26594,3.32719 -4.89292,2.3486 -14.48307,11.93875 l -37.18626,36.79482 45.6021,48.92929 q 13.30877,14.28736 18.2017,17.61455 4.89293,3.32719 12.5259,3.52291 l 0,3.71862 -59.69374,0 0,-3.71862 q 0.58715,0 2.34861,0 1.76145,-0.19572 2.74004,-0.19572 0.97858,-0.19572 2.3486,-0.39144 1.56574,-0.19571 2.54433,-0.39143 0.97858,-0.39143 1.76145,-0.78287 0.97859,-0.58715 1.37002,-1.1743 0.58715,-0.78287 0.58715,-1.56574 0,-3.52291 -7.24153,-12.91733 -7.04582,-9.39442 -18.2017,-20.35459 l -20.74602,-20.5503 -5.08864,4.11006 0,36.59911 q 0,10.76445 2.93575,13.89592 3.13148,2.93576 14.67879,3.71863 l 0,3.71862 -55.19224,0 0,-3.71862 q 11.54731,-0.78287 14.48307,-4.11006 3.13148,-3.52291 3.13148,-15.65738 l 0,-84.74553 q 0,-10.37301 -3.13148,-13.50448 -3.13147,-3.32719 -14.48307,-4.11006 l 0,-3.71863 55.58368,0 0,3.71863 q -11.93875,0.78287 -15.07023,3.91434 -2.93575,2.93576 -2.93575,13.7002 l 0,40.12202 34.64193,-31.51046 q 15.26594,-14.09164 15.26594,-20.15887 0,-2.93576 -1.95717,-4.11006 -1.76145,-1.37002 -6.26295,-1.76146 -2.74004,0 -5.08864,-0.19571 z" />
    </g>
    <use
       x="0"
       y="0"
       xlink:href="#rect10555"
       id="use10569"
       transform="translate(512,0)"
       width="100%"
       height="100%" />
    <g
       id="text10571"
       style="font-style:normal;font-variant:normal;font-weight:normal;font-stretch:normal;font-size:195.71716309px;line-height:125%;font-family:FreeSerif;-inkscape-font-specification:'FreeSerif, Normal';text-align:start;letter-spacing:0px;word-spacing:0px;writing-mode:lr-tb;text-anchor:start;fill:#1f1f1f;fill-opacity:1;stroke:none;stroke-width:1px;stroke-linecap:butt;stroke-linejoin:miter;stroke-opacity:1"
       transform="matrix(0.86809253,0.49640241,-0.49640241,0.86809253,0,0)">
      <path
         id="path4161"
         style=""
         d="m 1032.2451,423.67071 0,-3.71863 51.2779,0 0,3.71863 q -10.1773,0.78287 -15.2659,3.32719 -4.8929,2.34861 -14.4831,11.93875 l -37.1862,36.79483 45.6021,48.92929 q 13.3087,14.28735 18.2017,17.61454 4.8929,3.32719 12.5259,3.52291 l 0,3.71863 -59.6938,0 0,-3.71863 q 0.5872,0 2.3486,0 1.7615,-0.19572 2.7401,-0.19572 0.9785,-0.19571 2.3486,-0.39143 1.5657,-0.19572 2.5443,-0.39144 0.9786,-0.39143 1.7614,-0.78286 0.9786,-0.58716 1.3701,-1.17431 0.5871,-0.78287 0.5871,-1.56574 0,-3.5229 -7.2415,-12.91733 -7.0458,-9.39442 -18.2017,-20.35458 l -20.746,-20.5503 -5.08868,4.11006 0,36.5991 q 0,10.76445 2.93576,13.89592 3.13152,2.93576 14.67882,3.71863 l 0,3.71863 -55.19227,0 0,-3.71863 q 11.54731,-0.78287 14.48307,-4.11006 3.13147,-3.52291 3.13147,-15.65737 l 0,-84.74554 q 0,-10.37301 -3.13147,-13.50448 -3.13148,-3.32719 -14.48307,-4.11006 l 0,-3.71863 55.58367,0 0,3.71863 q -11.9387,0.78287 -15.07022,3.91434 -2.93576,2.93576 -2.93576,13.7002 l 0,40.12202 34.64198,-31.51046 q 15.2659,-14.09164 15.2659,-20.15887 0,-2.93576 -1.9572,-4.11006 -1.7614,-1.37002 -6.2629,-1.76145 -2.7401,0 -5.0887,-0.19572 z" />
    </g>
    <use
       x="0"
       y="0"
       xlink:href="#rect10555"
       id="use10594"
       transform="translate(768,0)"
       width="100%"
       height="100%" />
    <g
       id="text10596"
       style="font-style:normal;font-variant:normal;font-weight:normal;font-stretch:normal;font-size:195.71716309px;line-height:125%;font-family:FreeSerif;-inkscape-font-specification:'FreeSerif, Normal';text-align:start;letter-spacing:0px;word-spacing:0px;writing-mode:lr-tb;text-anchor:start;fill:#1f1f1f;fill-opacity:1;stroke:none;stroke-width:1px;stroke-linecap:butt;stroke-linejoin:miter;stroke-opacity:1"
       transform="matrix(0.97156803,0.23676058,-0.23676058,0.97156803,0,0)">
      <path
         id="path4158"
         style=""
         d="m 1107.1878,624.87951 0,-3.71862 51.2779,0 0,3.71862 q -10.1773,0.78287 -15.266,3.32719 -4.8929,2.34861 -14.4831,11.93875 l -37.1862,36.79483 45.6021,48.92929 q 13.3088,14.28735 18.2017,17.61454 4.8929,3.32719 12.5259,3.52291 l 0,3.71863 -59.6938,0 0,-3.71863 q 0.5872,0 2.3486,0 1.7615,-0.19572 2.7401,-0.19572 0.9786,-0.19571 2.3486,-0.39143 1.5657,-0.19572 2.5443,-0.39143 0.9786,-0.39144 1.7615,-0.78287 0.9786,-0.58716 1.37,-1.17431 0.5871,-0.78287 0.5871,-1.56573 0,-3.52291 -7.2415,-12.91734 -7.0458,-9.39442 -18.2017,-20.35458 l -20.746,-20.5503 -5.0887,4.11006 0,36.59911 q 0,10.76444 2.9358,13.89591 3.1315,2.93576 14.6788,3.71863 l 0,3.71863 -55.1922,0 0,-3.71863 q 11.5473,-0.78287 14.483,-4.11006 3.1315,-3.52291 3.1315,-15.65737 l 0,-84.74553 q 0,-10.37301 -3.1315,-13.50449 -3.1315,-3.32719 -14.483,-4.11006 l 0,-3.71862 55.5836,0 0,3.71862 q -11.9387,0.78287 -15.0702,3.91434 -2.9358,2.93576 -2.9358,13.70021 l 0,40.12201 34.642,-31.51046 q 15.2659,-14.09163 15.2659,-20.15887 0,-2.93575 -1.9571,-4.11006 -1.7615,-1.37002 -6.263,-1.76145 -2.74,0 -5.0886,-0.19572 z" />
    </g>
    <use
       height="100%"
       width="100%"
       transform="translate(1024,0)"
       id="use10607"
       xlink:href="#rect10555"
       y="0"
       x="0" />
    <g
       id="text10609"
       style="font-style:normal;font-variant:normal;font-weight:normal;font-stretch:normal;font-size:195.71716309px;line-height:125%;font-family:FreeSerif;-inkscape-font-specification:'FreeSerif, Normal';text-align:start;letter-spacing:0px;word-spacing:0px;writing-mode:lr-tb;text-anchor:start;fill:#1f1f1f;fill-opacity:1;stroke:none;stroke-width:1px;stroke-linecap:butt;stroke-linejoin:miter;stroke-opacity:1"
       transform="matrix(0.99300334,-0.11808625,0.11808625,0.99300334,0,0)">
      <path
         id="path4155"
         style=""
         d="m 1052.5957,992.86639 0,-3.71863 51.2779,0 0,3.71863 q -10.1773,0.78287 -15.266,3.32719 -4.8929,2.34861 -14.4831,11.93872 l -37.1862,36.7949 45.6021,48.9292 q 13.3087,14.2874 18.2017,17.6146 4.8929,3.3272 12.5259,3.5229 l 0,3.7186 -59.6938,0 0,-3.7186 q 0.5872,0 2.3486,0 1.7615,-0.1957 2.7401,-0.1957 0.9786,-0.1957 2.3486,-0.3915 1.5657,-0.1957 2.5443,-0.3914 0.9786,-0.3914 1.7615,-0.7829 0.9786,-0.5871 1.37,-1.1743 0.5871,-0.7828 0.5871,-1.5657 0,-3.5229 -7.2415,-12.9173 -7.0458,-9.3945 -18.2017,-20.3546 l -20.746,-20.5503 -5.0887,4.11 0,36.5992 q 0,10.7644 2.9358,13.8959 3.1315,2.9357 14.6788,3.7186 l 0,3.7186 -55.19225,0 0,-3.7186 q 11.54731,-0.7829 14.48307,-4.1101 3.13148,-3.5229 3.13148,-15.6573 l 0,-84.7456 q 0,-10.373 -3.13148,-13.50445 -3.13147,-3.32719 -14.48307,-4.11006 l 0,-3.71863 55.58365,0 0,3.71863 q -11.9387,0.78287 -15.0702,3.91434 -2.9358,2.93576 -2.9358,13.70017 l 0,40.1221 34.642,-31.5105 q 15.2659,-14.0916 15.2659,-20.15888 0,-2.93576 -1.9571,-4.11006 -1.7615,-1.37002 -6.263,-1.76145 -2.74,0 -5.0886,-0.19572 z" />
    </g>
    <use
       x="0"
       y="0"
       xlink:href="#rect10555"
       id="use10616"
       transform="translate(1280,0)"
       width="100%"
       height="100%" />
    <g
       id="text10618"
       style="font-style:normal;font-variant:normal;font-weight:normal;font-stretch:normal;font-size:195.71716309px;line-height:125%;font-family:FreeSerif;-inkscape-font-specification:'FreeSerif, Normal';text-align:start;letter-spacing:0px;word-spacing:0px;writing-mode:lr-tb;text-anchor:start;fill:#1f1f1f;fill-opacity:1;stroke:none;stroke-width:1px;stroke-linecap:butt;stroke-linejoin:miter;stroke-opacity:1"
       transform="matrix(0.90969768,-0.41527114,0.41527114,0.90969768,0,0)">
      <path
         id="path4152"
         style=""
         d="m 914.8036,1364.5283 0,-3.7187 51.2779,0 0,3.7187 q -10.17729,0.7828 -15.26594,3.3271 -4.89293,2.3487 -14.48307,11.9388 l -37.18626,36.7948 45.6021,48.9293 q 13.30877,14.2874 18.20169,17.6146 4.89293,3.3271 12.5259,3.5229 l 0,3.7186 -59.69373,0 0,-3.7186 q 0.58715,0 2.3486,0 1.76146,-0.1958 2.74004,-0.1958 0.97859,-0.1957 2.34861,-0.3914 1.56574,-0.1957 2.54432,-0.3914 0.97859,-0.3915 1.76146,-0.7829 0.97858,-0.5871 1.37002,-1.1743 0.58715,-0.7829 0.58715,-1.5657 0,-3.5229 -7.24154,-12.9174 -7.04581,-9.3944 -18.20169,-20.3545 l -20.74602,-20.5504 -5.08865,4.1101 0,36.5991 q 0,10.7645 2.93576,13.8959 3.13147,2.9358 14.67879,3.7187 l 0,3.7186 -55.19224,0 0,-3.7186 q 11.54731,-0.7829 14.48307,-4.1101 3.13147,-3.5229 3.13147,-15.6574 l 0,-84.7455 q 0,-10.373 -3.13147,-13.5045 -3.13148,-3.3272 -14.48307,-4.11 l 0,-3.7187 55.58367,0 0,3.7187 q -11.93875,0.7828 -15.07022,3.9143 -2.93576,2.9358 -2.93576,13.7002 l 0,40.122 34.64194,-31.5104 q 15.26594,-14.0917 15.26594,-20.1589 0,-2.9358 -1.95717,-4.1101 -1.76146,-1.37 -6.26295,-1.7614 -2.74004,0 -5.08865,-0.1957 z" />
    </g>
  </g>
</svg>
