<?xml version="1.0" encoding="UTF-8" standalone="no"?>
<svg
   xmlns:dc="http://purl.org/dc/elements/1.1/"
   xmlns:cc="http://creativecommons.org/ns#"
   xmlns:rdf="http://www.w3.org/1999/02/22-rdf-syntax-ns#"
   xmlns:svg="http://www.w3.org/2000/svg"
   xmlns="http://www.w3.org/2000/svg"
   xmlns:xlink="http://www.w3.org/1999/xlink"
   width="1536"
   height="256"
   viewBox="0 0 1536 256"
   id="svg2"
   version="1.1">
  <defs
     id="defs4" />
  <metadata
     id="metadata7">
    <rdf:RDF>
      <cc:Work
         rdf:about="">
        <dc:format>image/svg+xml</dc:format>
        <dc:type
           rdf:resource="http://purl.org/dc/dcmitype/StillImage" />
        <dc:title></dc:title>
      </cc:Work>
    </rdf:RDF>
  </metadata>
  <g
     id="layer1"
     transform="translate(0,-796.36218)">
    <rect
       style="color:#000000;clip-rule:nonzero;display:inline;overflow:visible;visibility:visible;opacity:0;isolation:auto;mix-blend-mode:normal;color-interpolation:sRGB;color-interpolation-filters:linearRGB;solid-color:#000000;solid-opacity:1;fill:#d8b028;fill-opacity:1;fill-rule:nonzero;marker:none;color-rendering:auto;image-rendering:auto;shape-rendering:auto;text-rendering:auto;enable-background:accumulate"
       id="rect10555"
       width="256"
       height="256"
       x="0"
       y="796.36218" />
    <g
       id="text10549"
       style="font-style:normal;font-variant:normal;font-weight:normal;font-stretch:normal;font-size:211.43074036px;line-height:125%;font-family:FreeSerif;-inkscape-font-specification:'FreeSerif, Normal';text-align:start;letter-spacing:0px;word-spacing:0px;writing-mode:lr-tb;text-anchor:start;opacity:1;fill:#1f1f1f;fill-opacity:1;stroke:none;stroke-width:1px;stroke-linecap:butt;stroke-linejoin:miter;stroke-opacity:1"
       transform="matrix(0.99743019,-0.0716451,0.0716451,0.99743019,0,0)">
      <path
         id="path4148"
         style=""
         d="m 75.613236,989.08519 q 5.497199,0 10.148675,-0.63429 4.862907,-0.63429 8.45723,-1.26858 3.594323,-0.84572 6.977219,-2.53717 3.38289,-1.69145 5.49719,-2.7486 2.11431,-1.05715 4.22862,-3.38289 2.32574,-2.53717 3.38289,-3.59432 1.26859,-1.05716 2.7486,-3.80576 1.48002,-2.96003 1.90288,-3.80575 0.42286,-0.84572 1.69144,-3.59432 1.26859,-2.96003 1.26859,-3.17147 l 5.28577,0 -10.14868,36.78895 -113.7497374,0 0,-4.01718 q 11.6286904,-0.84572 15.0115824,-4.22862 3.382892,-3.59432 3.382892,-14.80015 l 0,-93.87525 q 0,-11.20583 -3.382892,-14.58872 -3.382892,-3.59432 -15.0115824,-4.44004 l 0,-4.01719 59.6234684,0 0,4.01719 q -12.474413,0.84572 -16.068736,4.44004 -3.594323,3.38289 -3.594323,14.58872 l 0,100.00674 q 0,5.4972 3.171462,7.18865 3.382891,1.48001 15.011582,1.48001 l 14.16586,0 z" />
    </g>
    <use
       x="0"
       y="0"
       xlink:href="#rect10555"
       id="use10557"
       transform="translate(256,0)"
       width="100%"
       height="100%"
       style="opacity:1" />
    <use
       x="0"
       y="0"
       xlink:href="#text10549"
       id="use4289"
       transform="matrix(0.99471044,-0.1027187,0.1027187,0.99471044,161.72778,-9.9625411)"
       width="100%"
       height="100%" />
    <use
       style="opacity:1"
       height="100%"
       width="100%"
       transform="translate(512,0)"
       id="use4291"
       xlink:href="#rect10555"
       y="0"
       x="0" />
    <use
       height="100%"
       width="100%"
       transform="matrix(0.97288849,-0.23127472,0.23127472,0.97288849,305.68867,34.664016)"
       id="use4293"
       xlink:href="#text10549"
       y="0"
       x="0" />
    <use
       x="0"
       y="0"
       xlink:href="#rect10555"
       id="use4301"
       transform="translate(768,0)"
       width="100%"
       height="100%"
       style="opacity:1" />
    <use
       x="0"
       y="0"
       xlink:href="#text10549"
       id="use4303"
       transform="matrix(0.90080746,-0.43421878,0.43421878,0.90080746,389.32122,131.26984)"
       width="100%"
       height="100%" />
    <use
       style="opacity:1"
       height="100%"
       width="100%"
       transform="translate(1024,0)"
       id="use4311"
       xlink:href="#rect10555"
       y="0"
       x="0" />
    <use
       height="100%"
       width="100%"
       transform="matrix(0.83057291,-0.55690993,0.55690993,0.83057291,543.3005,235.29017)"
       id="use4313"
       xlink:href="#text10549"
       y="0"
       x="0" />
    <use
       x="0"
       y="0"
       xlink:href="#rect10555"
       id="use4321"
       transform="translate(1280,0)"
       width="100%"
       height="100%"
       style="opacity:1" />
    <use
       x="0"
       y="0"
       xlink:href="#text10549"
       id="use4323"
       transform="matrix(0.97239949,-0.2333222,0.2333222,0.97239949,1073.8587,59.378115)"
       width="100%"
       height="100%" />
  </g>
</svg>
