<?xml version="1.0" encoding="UTF-8" standalone="no"?>
<svg
   xmlns:dc="http://purl.org/dc/elements/1.1/"
   xmlns:cc="http://creativecommons.org/ns#"
   xmlns:rdf="http://www.w3.org/1999/02/22-rdf-syntax-ns#"
   xmlns:svg="http://www.w3.org/2000/svg"
   xmlns="http://www.w3.org/2000/svg"
   xmlns:xlink="http://www.w3.org/1999/xlink"
   version="1.1"
   id="svg2"
   viewBox="0 0 1536 256"
   height="256"
   width="1536">
  <defs
     id="defs4" />
  <metadata
     id="metadata7">
    <rdf:RDF>
      <cc:Work
         rdf:about="">
        <dc:format>image/svg+xml</dc:format>
        <dc:type
           rdf:resource="http://purl.org/dc/dcmitype/StillImage" />
        <dc:title></dc:title>
      </cc:Work>
    </rdf:RDF>
  </metadata>
  <g
     transform="translate(0,-796.36218)"
     id="layer1">
    <rect
       y="796.36218"
       x="0"
       height="256"
       width="256"
       id="rect10555"
       style="color:#000000;clip-rule:nonzero;display:inline;overflow:visible;visibility:visible;opacity:0;isolation:auto;mix-blend-mode:normal;color-interpolation:sRGB;color-interpolation-filters:linearRGB;solid-color:#000000;solid-opacity:1;fill:#d8b028;fill-opacity:1;fill-rule:nonzero;marker:none;color-rendering:auto;image-rendering:auto;shape-rendering:auto;text-rendering:auto;enable-background:accumulate" />
    <g
       id="text10549"
       style="color:#000000;font-style:normal;font-variant:normal;font-weight:normal;font-stretch:normal;font-size:203.2040863px;line-height:125%;font-family:FreeSerif;-inkscape-font-specification:'FreeSerif, Normal';text-align:start;letter-spacing:0px;word-spacing:0px;writing-mode:lr-tb;text-anchor:start;clip-rule:nonzero;display:inline;overflow:visible;visibility:visible;opacity:1;isolation:auto;mix-blend-mode:normal;color-interpolation:sRGB;color-interpolation-filters:linearRGB;solid-color:#000000;solid-opacity:1;fill:#1f1f1f;fill-opacity:1;fill-rule:nonzero;stroke:none;stroke-width:1px;stroke-linecap:butt;stroke-linejoin:miter;stroke-miterlimit:4;stroke-dasharray:none;stroke-dashoffset:0;stroke-opacity:1;color-rendering:auto;image-rendering:auto;shape-rendering:auto;text-rendering:auto;enable-background:accumulate">
      <path
         id="path4169"
         style=""
         d="m 203.69352,860.96251 q -5.68971,0.60962 -8.53457,1.42243 -2.64165,0.60962 -5.68971,3.04806 -2.84486,2.43845 -4.06409,7.72176 -1.01602,5.0801 -1.01602,13.81788 l 0,106.88535 -3.45447,0 -89.816201,-111.76225 0,79.656 q 0,15.44351 3.657673,20.52361 3.657674,4.8769 15.443508,5.48651 l 0,3.86088 -47.752958,0 0,-3.86088 q 12.598654,-0.81281 16.053123,-5.48651 3.657674,-4.87689 3.657674,-20.52361 l 0,-89.613 q -6.096123,-7.11214 -9.753796,-9.14418 -3.45447,-2.03205 -9.957001,-2.03205 l 0,-3.86087 34.747899,0 78.233569,98.35077 0,-68.47977 q 0,-15.44351 -3.86087,-20.11721 -3.65768,-4.8769 -15.64672,-5.89292 l 0,-3.86087 47.75296,0 0,3.86087 z" />
    </g>
    <use
       height="100%"
       width="100%"
       transform="translate(256,0)"
       id="use13570"
       xlink:href="#rect10555"
       y="0"
       x="0" />
    <g
       id="text13572"
       style="color:#000000;font-style:normal;font-variant:normal;font-weight:normal;font-stretch:normal;font-size:203.2040863px;line-height:125%;font-family:FreeSerif;-inkscape-font-specification:'FreeSerif, Normal';text-align:start;letter-spacing:0px;word-spacing:0px;writing-mode:lr-tb;text-anchor:start;clip-rule:nonzero;display:inline;overflow:visible;visibility:visible;opacity:1;isolation:auto;mix-blend-mode:normal;color-interpolation:sRGB;color-interpolation-filters:linearRGB;solid-color:#000000;solid-opacity:1;fill:#1f1f1f;fill-opacity:1;fill-rule:nonzero;stroke:none;stroke-width:1px;stroke-linecap:butt;stroke-linejoin:miter;stroke-miterlimit:4;stroke-dasharray:none;stroke-dashoffset:0;stroke-opacity:1;color-rendering:auto;image-rendering:auto;shape-rendering:auto;text-rendering:auto;enable-background:accumulate"
       transform="matrix(0.98904258,-0.14763055,0.14763055,0.98904258,0,0)">
      <path
         id="path4166"
         style=""
         d="m 317.54547,917.41436 q -5.68971,0.60961 -8.53457,1.42243 -2.64165,0.60961 -5.68972,3.04806 -2.84485,2.43845 -4.06408,7.72175 -1.01602,5.0801 -1.01602,13.81788 l 0,106.88532 -3.45447,0 -89.8162,-111.76222 0,79.65602 q 0,15.4435 3.65767,20.5236 3.65767,4.8769 15.44351,5.4865 l 0,3.8609 -47.75296,0 0,-3.8609 q 12.59865,-0.8128 16.05312,-5.4865 3.65768,-4.8769 3.65768,-20.5236 l 0,-89.61302 q -6.09613,-7.11214 -9.7538,-9.14418 -3.45447,-2.03204 -9.957,-2.03204 l 0,-3.86088 34.7479,0 78.23357,98.35082 0,-68.47982 q 0,-15.44351 -3.86088,-20.1172 -3.65767,-4.8769 -15.64671,-5.89292 l 0,-3.86088 47.75296,0 0,3.86088 z" />
    </g>
    <use
       x="0"
       y="0"
       xlink:href="#rect10555"
       id="use13576"
       transform="translate(512,0)"
       width="100%"
       height="100%" />
    <g
       id="text13578"
       style="color:#000000;font-style:normal;font-variant:normal;font-weight:normal;font-stretch:normal;font-size:203.2040863px;line-height:125%;font-family:FreeSerif;-inkscape-font-specification:'FreeSerif, Normal';text-align:start;letter-spacing:0px;word-spacing:0px;writing-mode:lr-tb;text-anchor:start;clip-rule:nonzero;display:inline;overflow:visible;visibility:visible;opacity:1;isolation:auto;mix-blend-mode:normal;color-interpolation:sRGB;color-interpolation-filters:linearRGB;solid-color:#000000;solid-opacity:1;fill:#1f1f1f;fill-opacity:1;fill-rule:nonzero;stroke:none;stroke-width:1px;stroke-linecap:butt;stroke-linejoin:miter;stroke-miterlimit:4;stroke-dasharray:none;stroke-dashoffset:0;stroke-opacity:1;color-rendering:auto;image-rendering:auto;shape-rendering:auto;text-rendering:auto;enable-background:accumulate"
       transform="matrix(0.961677,-0.27418489,0.27418489,0.961677,0,0)">
      <path
         id="path4163"
         style=""
         d="m 430.59186,1026.0199 q -5.68972,0.6097 -8.53457,1.4225 -2.64166,0.6096 -5.68972,3.048 -2.84486,2.4385 -4.06408,7.7218 -1.01602,5.0801 -1.01602,13.8179 l 0,106.8853 -3.45447,0 -89.81621,-111.7622 0,79.656 q 0,15.4435 3.65768,20.5236 3.65767,4.8769 15.44351,5.4865 l 0,3.8609 -47.75296,0 0,-3.8609 q 12.59865,-0.8128 16.05312,-5.4865 3.65767,-4.8769 3.65767,-20.5236 l 0,-89.613 q -6.09612,-7.1122 -9.75379,-9.1442 -3.45447,-2.0321 -9.957,-2.0321 l 0,-3.8608 34.7479,0 78.23357,98.3507 0,-68.4797 q 0,-15.4435 -3.86088,-20.1172 -3.65767,-4.8769 -15.64671,-5.893 l 0,-3.8608 47.75296,0 0,3.8608 z" />
    </g>
    <use
       x="0"
       y="0"
       xlink:href="#rect10555"
       id="use13590"
       transform="translate(768,0)"
       width="100%"
       height="100%" />
    <g
       id="text13592"
       style="color:#000000;font-style:normal;font-variant:normal;font-weight:normal;font-stretch:normal;font-size:203.2040863px;line-height:125%;font-family:FreeSerif;-inkscape-font-specification:'FreeSerif, Normal';text-align:start;letter-spacing:0px;word-spacing:0px;writing-mode:lr-tb;text-anchor:start;clip-rule:nonzero;display:inline;overflow:visible;visibility:visible;opacity:1;isolation:auto;mix-blend-mode:normal;color-interpolation:sRGB;color-interpolation-filters:linearRGB;solid-color:#000000;solid-opacity:1;fill:#1f1f1f;fill-opacity:1;fill-rule:nonzero;stroke:none;stroke-width:1px;stroke-linecap:butt;stroke-linejoin:miter;stroke-miterlimit:4;stroke-dasharray:none;stroke-dashoffset:0;stroke-opacity:1;color-rendering:auto;image-rendering:auto;shape-rendering:auto;text-rendering:auto;enable-background:accumulate"
       transform="matrix(0.98904258,-0.14763055,0.14763055,0.98904258,0,0)">
      <path
         id="path4160"
         style=""
         d="m 823.93524,993.00115 q -5.68971,0.60961 -8.53457,1.42243 -2.64165,0.60961 -5.68972,3.04806 -2.84485,2.43845 -4.06408,7.72176 -1.01602,5.0801 -1.01602,13.8179 l 0,106.8853 -3.45447,0 -89.8162,-111.7622 0,79.656 q 0,15.4435 3.65767,20.5236 3.65767,4.8769 15.44351,5.4865 l 0,3.8609 -47.75296,0 0,-3.8609 q 12.59865,-0.8128 16.05312,-5.4865 3.65768,-4.8769 3.65768,-20.5236 l 0,-89.613 q -6.09613,-7.11217 -9.7538,-9.14421 -3.45447,-2.03204 -9.957,-2.03204 l 0,-3.86088 34.7479,0 78.23357,98.35073 0,-68.4797 q 0,-15.4435 -3.86088,-20.11723 -3.65767,-4.8769 -15.64671,-5.89292 l 0,-3.86088 47.75296,0 0,3.86088 z" />
    </g>
    <use
       height="100%"
       width="100%"
       transform="translate(1024,0)"
       id="use13603"
       xlink:href="#rect10555"
       y="0"
       x="0" />
    <g
       id="text13605"
       style="color:#000000;font-style:normal;font-variant:normal;font-weight:normal;font-stretch:normal;font-size:203.2040863px;line-height:125%;font-family:FreeSerif;-inkscape-font-specification:'FreeSerif, Normal';text-align:start;letter-spacing:0px;word-spacing:0px;writing-mode:lr-tb;text-anchor:start;clip-rule:nonzero;display:inline;overflow:visible;visibility:visible;opacity:1;isolation:auto;mix-blend-mode:normal;color-interpolation:sRGB;color-interpolation-filters:linearRGB;solid-color:#000000;solid-opacity:1;fill:#1f1f1f;fill-opacity:1;fill-rule:nonzero;stroke:none;stroke-width:1px;stroke-linecap:butt;stroke-linejoin:miter;stroke-miterlimit:4;stroke-dasharray:none;stroke-dashoffset:0;stroke-opacity:1;color-rendering:auto;image-rendering:auto;shape-rendering:auto;text-rendering:auto;enable-background:accumulate"
       transform="matrix(0.9958334,0.09119126,-0.09119126,0.9958334,0,0)">
      <path
         id="path4157"
         style=""
         d="m 1306.8228,748.07561 q -5.6898,0.60961 -8.5346,1.42243 -2.6417,0.60961 -5.6897,3.04806 -2.8449,2.43845 -4.0641,7.72176 -1.016,5.0801 -1.016,13.81788 l 0,106.88534 -3.4545,0 -89.8162,-111.76224 0,79.656 q 0,15.44351 3.6577,20.52361 3.6576,4.8769 15.4435,5.48651 l 0,3.86088 -47.753,0 0,-3.86088 q 12.5987,-0.81281 16.0531,-5.48651 3.6577,-4.8769 3.6577,-20.52361 l 0,-89.613 q -6.0961,-7.11215 -9.7538,-9.14419 -3.4545,-2.03204 -9.957,-2.03204 l 0,-3.86088 34.7479,0 78.2336,98.35078 0,-68.47977 q 0,-15.44352 -3.8609,-20.11721 -3.6577,-4.8769 -15.6467,-5.89292 l 0,-3.86088 47.753,0 0,3.86088 z" />
    </g>
    <use
       x="0"
       y="0"
       xlink:href="#rect10555"
       id="use13615"
       transform="translate(1280,0)"
       width="100%"
       height="100%" />
    <g
       id="text13617"
       style="color:#000000;font-style:normal;font-variant:normal;font-weight:normal;font-stretch:normal;font-size:203.2040863px;line-height:125%;font-family:FreeSerif;-inkscape-font-specification:'FreeSerif, Normal';text-align:start;letter-spacing:0px;word-spacing:0px;writing-mode:lr-tb;text-anchor:start;clip-rule:nonzero;display:inline;overflow:visible;visibility:visible;opacity:1;isolation:auto;mix-blend-mode:normal;color-interpolation:sRGB;color-interpolation-filters:linearRGB;solid-color:#000000;solid-opacity:1;fill:#1f1f1f;fill-opacity:1;fill-rule:nonzero;stroke:none;stroke-width:1px;stroke-linecap:butt;stroke-linejoin:miter;stroke-miterlimit:4;stroke-dasharray:none;stroke-dashoffset:0;stroke-opacity:1;color-rendering:auto;image-rendering:auto;shape-rendering:auto;text-rendering:auto;enable-background:accumulate"
       transform="matrix(0.94861372,0.31643641,-0.31643641,0.94861372,0,0)">
      <path
         id="path4154"
         style=""
         d="m 1699.4137,354.6401 q -5.6897,0.60961 -8.5346,1.42242 -2.6416,0.60962 -5.6897,3.04807 -2.8448,2.43844 -4.0641,7.72175 -1.016,5.0801 -1.016,13.81788 l 0,106.88535 -3.4545,0 -89.8162,-111.76225 0,79.656 q 0,15.44351 3.6577,20.52362 3.6577,4.87689 15.4435,5.48651 l 0,3.86087 -47.7529,0 0,-3.86087 q 12.5986,-0.81282 16.0531,-5.48651 3.6577,-4.8769 3.6577,-20.52362 l 0,-89.613 q -6.0962,-7.11214 -9.7538,-9.14418 -3.4545,-2.03204 -9.957,-2.03204 l 0,-3.86088 34.7479,0 78.2335,98.35078 0,-68.47978 q 0,-15.44351 -3.8609,-20.11721 -3.6576,-4.87689 -15.6467,-5.89291 l 0,-3.86088 47.753,0 0,3.86088 z" />
    </g>
    <rect
       y="503.64731"
       x="-45.254833"
       height="70.710678"
       width="66.46804"
       id="rect13629"
       style="color:#000000;clip-rule:nonzero;display:inline;overflow:visible;visibility:visible;opacity:1;isolation:auto;mix-blend-mode:normal;color-interpolation:sRGB;color-interpolation-filters:linearRGB;solid-color:#000000;solid-opacity:1;fill:#f4f2ee;fill-opacity:1;fill-rule:nonzero;stroke:none;stroke-width:1px;stroke-linecap:butt;stroke-linejoin:miter;stroke-miterlimit:4;stroke-dasharray:none;stroke-dashoffset:0;stroke-opacity:1;marker:none;color-rendering:auto;image-rendering:auto;shape-rendering:auto;text-rendering:auto;enable-background:accumulate" />
    <rect
       y="618.19861"
       x="-50.91169"
       height="60.811184"
       width="67.882248"
       id="rect13631"
       style="color:#000000;clip-rule:nonzero;display:inline;overflow:visible;visibility:visible;opacity:1;isolation:auto;mix-blend-mode:normal;color-interpolation:sRGB;color-interpolation-filters:linearRGB;solid-color:#000000;solid-opacity:1;fill:#1f1f1f;fill-opacity:1;fill-rule:nonzero;stroke:none;stroke-width:1px;stroke-linecap:butt;stroke-linejoin:miter;stroke-miterlimit:4;stroke-dasharray:none;stroke-dashoffset:0;stroke-opacity:1;marker:none;color-rendering:auto;image-rendering:auto;shape-rendering:auto;text-rendering:auto;enable-background:accumulate" />
  </g>
</svg>
