<?xml version="1.0" encoding="UTF-8" standalone="no"?>
<svg
   xmlns:dc="http://purl.org/dc/elements/1.1/"
   xmlns:cc="http://creativecommons.org/ns#"
   xmlns:rdf="http://www.w3.org/1999/02/22-rdf-syntax-ns#"
   xmlns:svg="http://www.w3.org/2000/svg"
   xmlns="http://www.w3.org/2000/svg"
   xmlns:xlink="http://www.w3.org/1999/xlink"
   width="1536"
   height="256"
   viewBox="0 0 1536 256"
   id="svg2"
   version="1.1">
  <defs
     id="defs4" />
  <metadata
     id="metadata7">
    <rdf:RDF>
      <cc:Work
         rdf:about="">
        <dc:format>image/svg+xml</dc:format>
        <dc:type
           rdf:resource="http://purl.org/dc/dcmitype/StillImage" />
        <dc:title></dc:title>
      </cc:Work>
    </rdf:RDF>
  </metadata>
  <rect
     y="2.6171874e-06"
     x="0"
     height="256"
     width="256"
     id="rect10555"
     style="color:#000000;clip-rule:nonzero;display:inline;overflow:visible;visibility:visible;opacity:0;isolation:auto;mix-blend-mode:normal;color-interpolation:sRGB;color-interpolation-filters:linearRGB;solid-color:#000000;solid-opacity:1;fill:#d8b028;fill-opacity:1;fill-rule:nonzero;marker:none;color-rendering:auto;image-rendering:auto;shape-rendering:auto;text-rendering:auto;enable-background:accumulate" />
  <g
     id="text10549"
     style="font-style:normal;font-variant:normal;font-weight:normal;font-stretch:normal;font-size:306.46807861px;line-height:125%;font-family:FreeSerif;-inkscape-font-specification:'FreeSerif, Normal';text-align:start;letter-spacing:0px;word-spacing:0px;writing-mode:lr-tb;text-anchor:start;opacity:1;fill:#c0392b;fill-opacity:1;stroke:none;stroke-width:1px;stroke-linecap:butt;stroke-linejoin:miter;stroke-opacity:1"
     transform="matrix(0.96256235,0.27106036,-0.27106036,0.96256235,0,0)">
    <path
       id="path4146"
       style="fill:#c0392b"
       d="m 213.76122,27.19653 q -0.30647,18.388084 -6.7423,23.291574 -6.43583,4.903489 -22.9851,4.903489 l -8.58111,0 0,86.730467 q 0,21.1463 12.87166,21.1463 9.50051,0 12.87166,-11.95226 3.67761,-11.95225 3.67761,-24.82391 l 7.35524,0 q 0,47.80902 -32.17915,47.80902 -15.3234,0 -22.98511,-9.80698 -7.35523,-9.80698 -7.35523,-25.43685 l 0,-83.665787 -41.06672,0 q 0,2.451744 0,12.565191 0.30647,9.806979 0.30647,16.549276 0,89.79515 -31.259748,89.79515 -7.96817,0 -12.871659,-3.06468 -4.597022,-3.37115 -6.742298,-10.11345 -1.838809,-6.7423 -2.451745,-11.95226 -0.306468,-5.51642 -0.306468,-15.01693 l 7.355234,0 q 0,6.43583 3.064681,12.25872 3.064681,5.51643 8.887574,5.51643 25.130383,0 25.130383,-85.504596 l 0,-11.032851 -15.323404,0 q -15.93634,0 -19.307489,14.710468 l -7.355234,0 q 3.677617,-23.291574 13.791063,-30.033872 10.113447,-7.048766 34.63089,-7.048766 15.01694,0 45.05081,1.225872 30.03387,0.919405 45.05081,0.919405 10.72638,0 11.64579,-7.96817 l 5.82289,0 z" />
  </g>
  <use
     style="opacity:1"
     height="100%"
     width="100%"
     transform="translate(256,0)"
     id="use10557"
     xlink:href="#rect10555"
     y="0"
     x="0" />
  <use
     height="100%"
     width="100%"
     transform="matrix(0.95450611,0.29819135,-0.29819135,0.95450611,332.00812,-38.858491)"
     id="use4289"
     xlink:href="#text10549"
     y="0"
     x="0" />
  <use
     x="0"
     y="0"
     xlink:href="#rect10555"
     id="use4291"
     transform="translate(512,0)"
     width="100%"
     height="100%"
     style="opacity:1" />
  <use
     x="0"
     y="0"
     xlink:href="#text10549"
     id="use4293"
     transform="matrix(0.99686181,-0.07916158,0.07916158,0.99686181,542.87477,6.123586)"
     width="100%"
     height="100%" />
  <use
     style="opacity:1"
     height="100%"
     width="100%"
     transform="translate(768,0)"
     id="use4301"
     xlink:href="#rect10555"
     y="0"
     x="0" />
  <use
     height="100%"
     width="100%"
     transform="matrix(0.97908216,-0.20346533,0.20346533,0.97908216,769.62694,34.073868)"
     id="use4303"
     xlink:href="#text10549"
     y="0"
     x="0" />
  <use
     x="0"
     y="0"
     xlink:href="#rect10555"
     id="use4311"
     transform="translate(1024,0)"
     width="100%"
     height="100%"
     style="opacity:1" />
  <use
     x="0"
     y="0"
     xlink:href="#text10549"
     id="use4313"
     transform="matrix(0.98107274,0.19363964,-0.19363964,0.98107274,1073.3479,-23.722878)"
     width="100%"
     height="100%" />
  <use
     style="opacity:1"
     height="100%"
     width="100%"
     transform="translate(1280,0)"
     id="use4321"
     xlink:href="#rect10555"
     y="0"
     x="0" />
  <use
     height="100%"
     width="100%"
     transform="matrix(0.97724128,-0.21213086,0.21213086,0.97724128,1259.8368,24.270551)"
     id="use4323"
     xlink:href="#text10549"
     y="0"
     x="0" />
</svg>
