<?xml version="1.0" encoding="UTF-8" standalone="no"?>
<svg
   xmlns:dc="http://purl.org/dc/elements/1.1/"
   xmlns:cc="http://creativecommons.org/ns#"
   xmlns:rdf="http://www.w3.org/1999/02/22-rdf-syntax-ns#"
   xmlns:svg="http://www.w3.org/2000/svg"
   xmlns="http://www.w3.org/2000/svg"
   xmlns:xlink="http://www.w3.org/1999/xlink"
   width="1536"
   height="256"
   viewBox="0 0 1536 256"
   id="svg2"
   version="1.1">
  <defs
     id="defs4" />
  <metadata
     id="metadata7">
    <rdf:RDF>
      <cc:Work
         rdf:about="">
        <dc:format>image/svg+xml</dc:format>
        <dc:type
           rdf:resource="http://purl.org/dc/dcmitype/StillImage" />
        <dc:title></dc:title>
      </cc:Work>
    </rdf:RDF>
  </metadata>
  <g
     id="layer1"
     transform="translate(0,-796.36218)">
    <rect
       style="color:#000000;clip-rule:nonzero;display:inline;overflow:visible;visibility:visible;opacity:0;isolation:auto;mix-blend-mode:normal;color-interpolation:sRGB;color-interpolation-filters:linearRGB;solid-color:#000000;solid-opacity:1;fill:#d8b028;fill-opacity:1;fill-rule:nonzero;marker:none;color-rendering:auto;image-rendering:auto;shape-rendering:auto;text-rendering:auto;enable-background:accumulate"
       id="rect10555"
       width="256"
       height="256"
       x="0"
       y="796.36218" />
    <g
       id="text10549"
       style="color:#000000;font-style:normal;font-variant:normal;font-weight:normal;font-stretch:normal;font-size:189.7197876px;line-height:125%;font-family:FreeSerif;-inkscape-font-specification:'FreeSerif, Normal';text-align:start;letter-spacing:0px;word-spacing:0px;writing-mode:lr-tb;text-anchor:start;clip-rule:nonzero;display:inline;overflow:visible;visibility:visible;opacity:1;isolation:auto;mix-blend-mode:normal;color-interpolation:sRGB;color-interpolation-filters:linearRGB;solid-color:#000000;solid-opacity:1;fill:#f4f2ee;fill-opacity:1;fill-rule:nonzero;stroke:none;stroke-width:1px;stroke-linecap:butt;stroke-linejoin:miter;stroke-miterlimit:4;stroke-dasharray:none;stroke-dashoffset:0;stroke-opacity:1;marker:none;color-rendering:auto;image-rendering:auto;shape-rendering:auto;text-rendering:auto;enable-background:accumulate"
       transform="matrix(0.97232454,0.23363432,-0.23363432,0.97232454,0,0)">
      <path
         id="path4148"
         style=""
         d="m 414.49907,855.34002 q 0,10.43459 -2.27664,19.54114 -2.27664,9.10655 -5.88131,15.3673 -3.41496,6.07103 -8.34767,11.19347 -4.743,5.12243 -9.29627,8.15795 -4.55328,3.03551 -9.67571,5.31215 -5.12244,2.27664 -8.34767,3.22524 -3.03552,0.75888 -5.88132,1.32804 11.57291,14.98786 23.71498,21.62805 12.14206,6.82991 28.45797,7.20935 l 0,3.41496 q -3.03552,0.18972 -7.77852,0.18972 -7.20935,0 -14.03926,-0.75888 -6.64019,-0.56916 -11.95235,-1.51776 -5.12243,-0.75888 -10.24486,-2.84579 -5.12244,-1.8972 -8.5374,-3.22524 -3.41495,-1.13832 -7.58879,-3.98412 -3.98411,-2.84579 -6.07103,-4.17383 -1.8972,-1.32804 -5.12243,-4.55328 -3.22524,-3.22523 -4.17384,-4.36355 -0.9486,-0.9486 -3.98412,-4.36356 -2.84579,-3.41495 -3.22523,-3.79439 -18.97198,-6.45047 -31.49349,-21.62806 -12.33178,-15.17758 -12.33178,-40.97947 0,-28.83741 17.45422,-47.24023 17.45422,-18.59254 44.58415,-18.59254 27.12993,0 44.58415,18.40282 17.45422,18.40282 17.45422,47.05051 z m -21.62806,-0.37944 q 0,-26.56077 -11.00374,-42.30751 -10.81403,-15.93647 -28.83741,-15.93647 -9.48599,0 -16.88506,3.98412 -7.39908,3.7944 -11.76263,9.86543 -4.36356,5.88131 -7.39907,13.84954 -2.8458,7.96823 -3.98412,15.36731 -0.9486,7.20935 -0.9486,14.79814 0,16.69534 3.7944,29.02713 3.79439,12.14206 10.05515,18.40282 6.26075,6.26075 12.71122,9.10655 6.6402,2.84579 13.84955,2.84579 9.29627,0 16.50562,-3.79439 7.39907,-3.98412 11.76263,-10.05515 4.36355,-6.07103 7.20935,-14.03927 2.8458,-8.15795 3.79439,-15.74674 1.13832,-7.58879 1.13832,-15.3673 z" />
    </g>
    <use
       x="0"
       y="0"
       xlink:href="#rect10555"
       id="use10557"
       transform="translate(256,0)"
       width="100%"
       height="100%"
       style="opacity:1" />
    <use
       x="0"
       y="0"
       xlink:href="#text10549"
       id="use4289"
       transform="matrix(0.99471044,-0.1027187,0.1027187,0.99471044,161.72778,34.037459)"
       width="100%"
       height="100%" />
    <use
       style="opacity:1"
       height="100%"
       width="100%"
       transform="translate(512,0)"
       id="use4291"
       xlink:href="#rect10555"
       y="0"
       x="0" />
    <use
       height="100%"
       width="100%"
       transform="matrix(0.97288849,-0.23127472,0.23127472,0.97288849,305.68867,74.664016)"
       id="use4293"
       xlink:href="#text10549"
       y="0"
       x="0" />
    <use
       x="0"
       y="0"
       xlink:href="#rect10555"
       id="use4301"
       transform="translate(768,0)"
       width="100%"
       height="100%"
       style="opacity:1" />
    <use
       x="0"
       y="0"
       xlink:href="#text10549"
       id="use4303"
       transform="matrix(0.90080746,-0.43421878,0.43421878,0.90080746,389.32122,173.26984)"
       width="100%"
       height="100%" />
    <use
       style="opacity:1"
       height="100%"
       width="100%"
       transform="translate(1024,0)"
       id="use4311"
       xlink:href="#rect10555"
       y="0"
       x="0" />
    <use
       height="100%"
       width="100%"
       transform="matrix(0.90080746,-0.43421878,0.43421878,0.90080746,645.32122,153.26984)"
       id="use4313"
       xlink:href="#text10549"
       y="0"
       x="0" />
    <use
       x="0"
       y="0"
       xlink:href="#rect10555"
       id="use4321"
       transform="translate(1280,0)"
       width="100%"
       height="100%"
       style="opacity:1" />
    <use
       x="0"
       y="0"
       xlink:href="#text10549"
       id="use4323"
       transform="matrix(0.97239949,-0.2333222,0.2333222,0.97239949,1073.8587,59.378115)"
       width="100%"
       height="100%" />
  </g>
</svg>
