<?xml version="1.0" encoding="UTF-8" standalone="no"?>
<svg
   xmlns:dc="http://purl.org/dc/elements/1.1/"
   xmlns:cc="http://creativecommons.org/ns#"
   xmlns:rdf="http://www.w3.org/1999/02/22-rdf-syntax-ns#"
   xmlns:svg="http://www.w3.org/2000/svg"
   xmlns="http://www.w3.org/2000/svg"
   xmlns:xlink="http://www.w3.org/1999/xlink"
   width="1536"
   height="256"
   viewBox="0 0 1536 256"
   id="svg2"
   version="1.1">
  <defs
     id="defs4" />
  <metadata
     id="metadata7">
    <rdf:RDF>
      <cc:Work
         rdf:about="">
        <dc:format>image/svg+xml</dc:format>
        <dc:type
           rdf:resource="http://purl.org/dc/dcmitype/StillImage" />
        <dc:title></dc:title>
      </cc:Work>
    </rdf:RDF>
  </metadata>
  <g
     id="layer1"
     transform="translate(0,-796.36218)">
    <rect
       style="color:#000000;clip-rule:nonzero;display:inline;overflow:visible;visibility:visible;opacity:0;isolation:auto;mix-blend-mode:normal;color-interpolation:sRGB;color-interpolation-filters:linearRGB;solid-color:#000000;solid-opacity:1;fill:#d8b028;fill-opacity:1;fill-rule:nonzero;marker:none;color-rendering:auto;image-rendering:auto;shape-rendering:auto;text-rendering:auto;enable-background:accumulate"
       id="rect10555"
       width="256"
       height="256"
       x="0"
       y="796.36218" />
    <g
       id="text10549"
       style="color:#000000;font-style:normal;font-variant:normal;font-weight:normal;font-stretch:normal;font-size:228.30314636px;line-height:125%;font-family:FreeSerif;-inkscape-font-specification:'FreeSerif, Normal';text-align:start;letter-spacing:0px;word-spacing:0px;writing-mode:lr-tb;text-anchor:start;clip-rule:nonzero;display:inline;overflow:visible;visibility:visible;opacity:1;isolation:auto;mix-blend-mode:normal;color-interpolation:sRGB;color-interpolation-filters:linearRGB;solid-color:#000000;solid-opacity:1;fill:#f4f2ee;fill-opacity:1;fill-rule:nonzero;stroke:none;stroke-width:1px;stroke-linecap:butt;stroke-linejoin:miter;stroke-miterlimit:4;stroke-dasharray:none;stroke-dashoffset:0;stroke-opacity:1;marker:none;color-rendering:auto;image-rendering:auto;shape-rendering:auto;text-rendering:auto;enable-background:accumulate"
       transform="matrix(0.97513613,0.2216067,-0.2216067,0.97513613,0,0)">
      <path
         id="path8255"
         style=""
         d="m 326.07055,806.07969 q 9.81704,0 18.72086,1.59812 8.90382,1.59812 18.26425,5.70758 9.58874,3.88115 15.29631,12.32837 5.70758,8.44721 5.70758,20.54728 0,30.36432 -40.18135,37.89832 -0.68491,0.22831 -1.14152,0.22831 l 47.03045,57.76069 q 4.79437,5.70758 8.90382,7.99061 4.33776,2.28303 10.95856,2.73964 l 0,4.33776 -36.75681,0 -54.33615,-70.31737 -12.78498,0.45661 0,44.97572 q 0,12.32837 3.65285,15.98122 3.65285,3.65285 16.89444,4.56606 l 0,4.33776 -63.23997,0 0,-4.33776 q 12.78497,-0.91321 15.98122,-4.79437 3.42454,-4.10945 3.42454,-18.26425 l 0,-98.85526 q 0,-12.10007 -3.42454,-15.52461 -3.19625,-3.65285 -15.98122,-5.02267 l 0,-4.33776 63.01166,0 z m -20.31898,72.8287 q 27.62468,-0.45661 40.40966,-7.3057 13.01328,-6.84909 13.01328,-25.79826 0,-15.98122 -10.27364,-23.51522 -10.04534,-7.76231 -31.50584,-7.76231 -6.84909,0 -9.36042,1.82643 -2.28304,1.59812 -2.28304,6.39249 l 0,56.16257 z" />
    </g>
    <use
       x="0"
       y="0"
       xlink:href="#rect10555"
       id="use10557"
       transform="translate(256,0)"
       width="100%"
       height="100%"
       style="opacity:1" />
    <use
       x="0"
       y="0"
       xlink:href="#text10549"
       id="use4289"
       transform="matrix(0.99471044,-0.1027187,0.1027187,0.99471044,139.72778,-9.9625411)"
       width="100%"
       height="100%" />
    <use
       style="opacity:1"
       height="100%"
       width="100%"
       transform="translate(512,0)"
       id="use4291"
       xlink:href="#rect10555"
       y="0"
       x="0" />
    <use
       height="100%"
       width="100%"
       transform="matrix(0.97288849,-0.23127472,0.23127472,0.97288849,285.68867,54.664016)"
       id="use4293"
       xlink:href="#text10549"
       y="0"
       x="0" />
    <use
       x="0"
       y="0"
       xlink:href="#rect10555"
       id="use4301"
       transform="translate(768,0)"
       width="100%"
       height="100%"
       style="opacity:1" />
    <use
       x="0"
       y="0"
       xlink:href="#text10549"
       id="use4303"
       transform="matrix(0.90080746,-0.43421878,0.43421878,0.90080746,397.32122,125.26984)"
       width="100%"
       height="100%" />
    <use
       style="opacity:1"
       height="100%"
       width="100%"
       transform="translate(1024,0)"
       id="use4311"
       xlink:href="#rect10555"
       y="0"
       x="0" />
    <use
       height="100%"
       width="100%"
       transform="matrix(0.83057291,-0.55690993,0.55690993,0.83057291,543.3005,235.29017)"
       id="use4313"
       xlink:href="#text10549"
       y="0"
       x="0" />
    <use
       x="0"
       y="0"
       xlink:href="#rect10555"
       id="use4321"
       transform="translate(1280,0)"
       width="100%"
       height="100%"
       style="opacity:1" />
    <use
       x="0"
       y="0"
       xlink:href="#text10549"
       id="use4323"
       transform="matrix(0.97239949,-0.2333222,0.2333222,0.97239949,1073.8587,59.378115)"
       width="100%"
       height="100%" />
  </g>
</svg>
