<?xml version="1.0" encoding="UTF-8" standalone="no"?>
<svg
   xmlns:dc="http://purl.org/dc/elements/1.1/"
   xmlns:cc="http://creativecommons.org/ns#"
   xmlns:rdf="http://www.w3.org/1999/02/22-rdf-syntax-ns#"
   xmlns:svg="http://www.w3.org/2000/svg"
   xmlns="http://www.w3.org/2000/svg"
   xmlns:xlink="http://www.w3.org/1999/xlink"
   width="1536"
   height="256"
   viewBox="0 0 1536 256"
   id="svg2"
   version="1.1">
  <defs
     id="defs4" />
  <metadata
     id="metadata7">
    <rdf:RDF>
      <cc:Work
         rdf:about="">
        <dc:format>image/svg+xml</dc:format>
        <dc:type
           rdf:resource="http://purl.org/dc/dcmitype/StillImage" />
        <dc:title></dc:title>
      </cc:Work>
    </rdf:RDF>
  </metadata>
  <g
     id="layer1"
     transform="translate(0,-796.36218)">
    <rect
       style="color:#000000;clip-rule:nonzero;display:inline;overflow:visible;visibility:visible;opacity:0;isolation:auto;mix-blend-mode:normal;color-interpolation:sRGB;color-interpolation-filters:linearRGB;solid-color:#000000;solid-opacity:1;fill:#d8b028;fill-opacity:1;fill-rule:nonzero;marker:none;color-rendering:auto;image-rendering:auto;shape-rendering:auto;text-rendering:auto;enable-background:accumulate"
       id="rect10555"
       width="256"
       height="256"
       x="0"
       y="796.36218" />
    <g
       id="text10549"
       style="color:#000000;font-style:normal;font-variant:normal;font-weight:normal;font-stretch:normal;font-size:264.55636597px;line-height:125%;font-family:FreeSerif;-inkscape-font-specification:'FreeSerif, Normal';text-align:start;letter-spacing:0px;word-spacing:0px;writing-mode:lr-tb;text-anchor:start;clip-rule:nonzero;display:inline;overflow:visible;visibility:visible;opacity:1;isolation:auto;mix-blend-mode:normal;color-interpolation:sRGB;color-interpolation-filters:linearRGB;solid-color:#000000;solid-opacity:1;fill:#f4f2ee;fill-opacity:1;fill-rule:nonzero;stroke:none;stroke-width:1px;stroke-linecap:butt;stroke-linejoin:miter;stroke-miterlimit:4;stroke-dasharray:none;stroke-dashoffset:0;stroke-opacity:1;marker:none;color-rendering:auto;image-rendering:auto;shape-rendering:auto;text-rendering:auto;enable-background:accumulate"
       transform="matrix(0.97513613,0.2216067,-0.2216067,0.97513613,0,0)">
      <path
         id="path8233"
         style=""
         d="m 350.4102,933.50108 q 0,-12.43415 -8.73036,-21.95818 -8.73036,-9.78859 -21.16451,-16.66705 -12.43414,-6.87847 -24.86829,-14.02149 -12.1696,-7.40758 -20.89996,-18.7835 -8.73036,-11.37593 -8.73036,-26.45564 0,-20.10628 13.49238,-32.54043 13.75693,-12.69871 32.27587,-12.69871 11.11137,0 24.07463,4.49746 12.96327,4.49746 15.60883,4.49746 6.87847,0 8.4658,-8.99492 l 5.55569,0 5.82024,56.35051 -6.61391,0 q -6.34935,-23.28096 -19.57717,-34.39233 -12.96326,-11.11137 -28.83665,-11.11137 -12.16959,0 -19.84172,6.87847 -7.67214,6.87847 -7.67214,17.72528 0,10.58225 8.99492,20.10628 8.99491,9.52403 29.89487,21.16451 26.19108,14.02149 37.83156,27.77842 11.64048,13.49237 11.64048,29.89487 0,20.37084 -15.60883,34.39232 -15.60882,13.75694 -38.36067,13.75694 -13.22782,0 -26.98475,-4.49746 -13.49238,-4.49746 -16.66705,-4.49746 -2.91012,0 -5.02657,2.64556 -2.11645,2.38101 -2.38101,6.0848 l -5.82024,0 -7.93669,-56.08595 6.0848,0 q 9.78858,24.07463 22.75184,35.45055 12.96326,11.37593 30.68854,11.37593 14.5506,0 23.54552,-8.20125 8.99491,-8.4658 8.99491,-21.69362 z" />
    </g>
    <use
       x="0"
       y="0"
       xlink:href="#rect10555"
       id="use10557"
       transform="translate(256,0)"
       width="100%"
       height="100%"
       style="opacity:1" />
    <use
       x="0"
       y="0"
       xlink:href="#text10549"
       id="use4289"
       transform="matrix(0.99471044,-0.1027187,0.1027187,0.99471044,139.72778,12.037459)"
       width="100%"
       height="100%" />
    <use
       style="opacity:1"
       height="100%"
       width="100%"
       transform="translate(512,0)"
       id="use4291"
       xlink:href="#rect10555"
       y="0"
       x="0" />
    <use
       height="100%"
       width="100%"
       transform="matrix(0.97288849,-0.23127472,0.23127472,0.97288849,269.68867,52.664016)"
       id="use4293"
       xlink:href="#text10549"
       y="0"
       x="0" />
    <use
       x="0"
       y="0"
       xlink:href="#rect10555"
       id="use4301"
       transform="translate(768,0)"
       width="100%"
       height="100%"
       style="opacity:1" />
    <use
       x="0"
       y="0"
       xlink:href="#text10549"
       id="use4303"
       transform="matrix(0.90080746,-0.43421878,0.43421878,0.90080746,369.32122,141.26984)"
       width="100%"
       height="100%" />
    <use
       style="opacity:1"
       height="100%"
       width="100%"
       transform="translate(1024,0)"
       id="use4311"
       xlink:href="#rect10555"
       y="0"
       x="0" />
    <use
       height="100%"
       width="100%"
       transform="matrix(0.99880112,0.04895256,-0.04895256,0.99880112,1083.5821,-16.531477)"
       id="use4313"
       xlink:href="#text10549"
       y="0"
       x="0" />
    <use
       x="0"
       y="0"
       xlink:href="#rect10555"
       id="use4321"
       transform="translate(1280,0)"
       width="100%"
       height="100%"
       style="opacity:1" />
    <use
       x="0"
       y="0"
       xlink:href="#text10549"
       id="use4323"
       transform="matrix(0.97239949,-0.2333222,0.2333222,0.97239949,1069.8587,47.378115)"
       width="100%"
       height="100%" />
  </g>
</svg>
