<?xml version="1.0" encoding="UTF-8" standalone="no"?>
<svg
   xmlns:dc="http://purl.org/dc/elements/1.1/"
   xmlns:cc="http://creativecommons.org/ns#"
   xmlns:rdf="http://www.w3.org/1999/02/22-rdf-syntax-ns#"
   xmlns:svg="http://www.w3.org/2000/svg"
   xmlns="http://www.w3.org/2000/svg"
   xmlns:xlink="http://www.w3.org/1999/xlink"
   width="1536"
   height="256"
   viewBox="0 0 1536 256"
   id="svg2"
   version="1.1">
  <defs
     id="defs4" />
  <metadata
     id="metadata7">
    <rdf:RDF>
      <cc:Work
         rdf:about="">
        <dc:format>image/svg+xml</dc:format>
        <dc:type
           rdf:resource="http://purl.org/dc/dcmitype/StillImage" />
        <dc:title></dc:title>
      </cc:Work>
    </rdf:RDF>
  </metadata>
  <g
     id="layer1"
     transform="translate(0,-796.36218)">
    <rect
       style="color:#000000;clip-rule:nonzero;display:inline;overflow:visible;visibility:visible;opacity:0;isolation:auto;mix-blend-mode:normal;color-interpolation:sRGB;color-interpolation-filters:linearRGB;solid-color:#000000;solid-opacity:1;fill:#d8b028;fill-opacity:1;fill-rule:nonzero;marker:none;color-rendering:auto;image-rendering:auto;shape-rendering:auto;text-rendering:auto;enable-background:accumulate"
       id="rect10555"
       width="256"
       height="256"
       x="0"
       y="796.36218" />
    <g
       id="text10549"
       style="color:#000000;font-style:normal;font-variant:normal;font-weight:normal;font-stretch:normal;font-size:264.55636597px;line-height:125%;font-family:FreeSerif;-inkscape-font-specification:'FreeSerif, Normal';text-align:start;letter-spacing:0px;word-spacing:0px;writing-mode:lr-tb;text-anchor:start;clip-rule:nonzero;display:inline;overflow:visible;visibility:visible;opacity:1;isolation:auto;mix-blend-mode:normal;color-interpolation:sRGB;color-interpolation-filters:linearRGB;solid-color:#000000;solid-opacity:1;fill:#f4f2ee;fill-opacity:1;fill-rule:nonzero;stroke:none;stroke-width:1px;stroke-linecap:butt;stroke-linejoin:miter;stroke-miterlimit:4;stroke-dasharray:none;stroke-dashoffset:0;stroke-opacity:1;marker:none;color-rendering:auto;image-rendering:auto;shape-rendering:auto;text-rendering:auto;enable-background:accumulate"
       transform="matrix(0.99989328,-0.01460931,0.01460931,0.99989328,0,0)">
      <path
         id="path8211"
         style=""
         d="m 99.833995,858.28163 -14.286044,0 q -22.222735,0 -29.894869,6.0848 -7.407579,6.0848 -12.169593,27.77842 l -6.349353,0 1.587338,-44.97458 149.209786,0 1.58734,44.97458 -6.34935,0 q -4.49746,-21.95818 -12.16959,-27.77842 -7.40758,-6.0848 -29.89487,-6.0848 l -14.28605,0 0,135.18831 q 0,14.55056 4.49746,18.78346 4.49746,4.2329 20.89996,5.0266 l 0,5.0266 -77.250464,0 0,-5.0266 q 16.402495,-1.0582 20.635397,-5.2911 4.232902,-4.4975 4.232902,-21.42908 l 0,-132.27819 z" />
    </g>
    <use
       x="0"
       y="0"
       xlink:href="#rect10555"
       id="use10557"
       transform="translate(256,0)"
       width="100%"
       height="100%"
       style="opacity:1" />
    <use
       x="0"
       y="0"
       xlink:href="#text10549"
       id="use4289"
       transform="matrix(0.99471044,-0.1027187,0.1027187,0.99471044,161.72778,10.037459)"
       width="100%"
       height="100%" />
    <use
       style="opacity:1"
       height="100%"
       width="100%"
       transform="translate(512,0)"
       id="use4291"
       xlink:href="#rect10555"
       y="0"
       x="0" />
    <use
       height="100%"
       width="100%"
       transform="matrix(0.97288849,-0.23127472,0.23127472,0.97288849,291.68867,60.664016)"
       id="use4293"
       xlink:href="#text10549"
       y="0"
       x="0" />
    <use
       x="0"
       y="0"
       xlink:href="#rect10555"
       id="use4301"
       transform="translate(768,0)"
       width="100%"
       height="100%"
       style="opacity:1" />
    <use
       x="0"
       y="0"
       xlink:href="#text10549"
       id="use4303"
       transform="matrix(0.99720128,-0.07476384,0.07476384,0.99720128,692.44744,5.6959876)"
       width="100%"
       height="100%" />
    <use
       style="opacity:1"
       height="100%"
       width="100%"
       transform="translate(1024,0)"
       id="use4311"
       xlink:href="#rect10555"
       y="0"
       x="0" />
    <use
       height="100%"
       width="100%"
       transform="matrix(0.95508744,0.29632416,-0.29632416,0.95508744,1319.9259,-7.1561682)"
       id="use4313"
       xlink:href="#text10549"
       y="0"
       x="0" />
    <use
       x="0"
       y="0"
       xlink:href="#rect10555"
       id="use4321"
       transform="translate(1280,0)"
       width="100%"
       height="100%"
       style="opacity:1" />
    <use
       x="0"
       y="0"
       xlink:href="#text10549"
       id="use4323"
       transform="matrix(0.97239949,-0.2333222,0.2333222,0.97239949,1069.8587,47.378115)"
       width="100%"
       height="100%" />
  </g>
</svg>
