<?xml version="1.0" encoding="UTF-8" standalone="no"?>
<svg
   xmlns:dc="http://purl.org/dc/elements/1.1/"
   xmlns:cc="http://creativecommons.org/ns#"
   xmlns:rdf="http://www.w3.org/1999/02/22-rdf-syntax-ns#"
   xmlns:svg="http://www.w3.org/2000/svg"
   xmlns="http://www.w3.org/2000/svg"
   xmlns:xlink="http://www.w3.org/1999/xlink"
   width="1536"
   height="256"
   viewBox="0 0 1536 256"
   id="svg2"
   version="1.1">
  <defs
     id="defs4" />
  <metadata
     id="metadata7">
    <rdf:RDF>
      <cc:Work
         rdf:about="">
        <dc:format>image/svg+xml</dc:format>
        <dc:type
           rdf:resource="http://purl.org/dc/dcmitype/StillImage" />
        <dc:title></dc:title>
      </cc:Work>
    </rdf:RDF>
  </metadata>
  <rect
     y="2.6171874e-06"
     x="0"
     height="256"
     width="256"
     id="rect10555"
     style="color:#000000;clip-rule:nonzero;display:inline;overflow:visible;visibility:visible;opacity:0;isolation:auto;mix-blend-mode:normal;color-interpolation:sRGB;color-interpolation-filters:linearRGB;solid-color:#000000;solid-opacity:1;fill:#d8b028;fill-opacity:1;fill-rule:nonzero;marker:none;color-rendering:auto;image-rendering:auto;shape-rendering:auto;text-rendering:auto;enable-background:accumulate" />
  <g
     id="text10549"
     style="font-style:normal;font-variant:normal;font-weight:normal;font-stretch:normal;font-size:378.756073px;line-height:125%;font-family:FreeSerif;-inkscape-font-specification:'FreeSerif, Normal';text-align:start;letter-spacing:0px;word-spacing:0px;writing-mode:lr-tb;text-anchor:start;opacity:1;fill:#c0392b;fill-opacity:1;stroke:none;stroke-width:1px;stroke-linecap:butt;stroke-linejoin:miter;stroke-opacity:1"
     transform="matrix(0.99691401,-0.07850128,0.07850128,0.99691401,0,0)">
    <path
       id="path4146"
       style="fill:#c0392b"
       d="m 81.657647,91.501746 q 18.937803,0 42.799433,12.877704 23.86164,12.87771 37.1181,12.87771 8.71139,0 14.39273,-4.16632 6.0601,-4.16631 13.63522,-15.150241 l 20.45283,12.120191 q -12.87771,18.1803 -23.10412,25.37666 -10.22642,6.81761 -23.48288,6.81761 -18.9378,0 -42.79944,-12.87771 -23.86163,-12.8777 -37.118093,-12.8777 -8.711389,0 -14.771486,4.16631 -5.681341,4.16632 -13.256463,15.15025 L 35.07065,123.69601 Q 47.948357,105.51572 58.174771,98.698112 68.401185,91.501746 81.657647,91.501746 Z" />
  </g>
  <use
     style="opacity:1"
     height="100%"
     width="100%"
     transform="translate(256,0)"
     id="use10557"
     xlink:href="#rect10555"
     y="0"
     x="0" />
  <use
     height="100%"
     width="100%"
     transform="matrix(0.99471044,-0.1027187,0.1027187,0.99471044,267.92465,34.043245)"
     id="use4289"
     xlink:href="#text10549"
     y="0"
     x="0" />
  <use
     x="0"
     y="0"
     xlink:href="#rect10555"
     id="use4291"
     transform="translate(512,0)"
     width="100%"
     height="100%"
     style="opacity:1" />
  <use
     x="0"
     y="0"
     xlink:href="#text10549"
     id="use4293"
     transform="matrix(0.99686181,-0.07916158,0.07916158,0.99686181,519.60204,-26.846111)"
     width="100%"
     height="100%" />
  <use
     style="opacity:1"
     height="100%"
     width="100%"
     transform="translate(768,0)"
     id="use4301"
     xlink:href="#rect10555"
     y="0"
     x="0" />
  <use
     height="100%"
     width="100%"
     transform="matrix(0.97908216,-0.20346533,0.20346533,0.97908216,769.62694,34.073868)"
     id="use4303"
     xlink:href="#text10549"
     y="0"
     x="0" />
  <use
     x="0"
     y="0"
     xlink:href="#rect10555"
     id="use4311"
     transform="translate(1024,0)"
     width="100%"
     height="100%"
     style="opacity:1" />
  <use
     x="0"
     y="0"
     xlink:href="#text10549"
     id="use4313"
     transform="matrix(0.98107274,0.19363964,-0.19363964,0.98107274,1073.3479,-23.722878)"
     width="100%"
     height="100%" />
  <use
     style="opacity:1"
     height="100%"
     width="100%"
     transform="translate(1280,0)"
     id="use4321"
     xlink:href="#rect10555"
     y="0"
     x="0" />
  <use
     height="100%"
     width="100%"
     transform="matrix(0.97724128,-0.21213086,0.21213086,0.97724128,1267.5944,-18.396116)"
     id="use4323"
     xlink:href="#text10549"
     y="0"
     x="0" />
</svg>
