<?xml version="1.0" encoding="UTF-8" standalone="no"?>
<svg
   xmlns:dc="http://purl.org/dc/elements/1.1/"
   xmlns:cc="http://creativecommons.org/ns#"
   xmlns:rdf="http://www.w3.org/1999/02/22-rdf-syntax-ns#"
   xmlns:svg="http://www.w3.org/2000/svg"
   xmlns="http://www.w3.org/2000/svg"
   xmlns:xlink="http://www.w3.org/1999/xlink"
   width="1536"
   height="256"
   viewBox="0 0 1536 256"
   id="svg2"
   version="1.1">
  <defs
     id="defs4" />
  <metadata
     id="metadata7">
    <rdf:RDF>
      <cc:Work
         rdf:about="">
        <dc:format>image/svg+xml</dc:format>
        <dc:type
           rdf:resource="http://purl.org/dc/dcmitype/StillImage" />
        <dc:title></dc:title>
      </cc:Work>
    </rdf:RDF>
  </metadata>
  <g
     id="layer1"
     transform="translate(0,-796.36218)">
    <rect
       style="color:#000000;clip-rule:nonzero;display:inline;overflow:visible;visibility:visible;opacity:0;isolation:auto;mix-blend-mode:normal;color-interpolation:sRGB;color-interpolation-filters:linearRGB;solid-color:#000000;solid-opacity:1;fill:#d8b028;fill-opacity:1;fill-rule:nonzero;marker:none;color-rendering:auto;image-rendering:auto;shape-rendering:auto;text-rendering:auto;enable-background:accumulate"
       id="rect10555"
       width="256"
       height="256"
       x="0"
       y="796.36218" />
    <g
       id="text10549"
       style="color:#000000;font-style:normal;font-variant:normal;font-weight:normal;font-stretch:normal;font-size:238.97355652px;line-height:125%;font-family:FreeSerif;-inkscape-font-specification:'FreeSerif, Normal';text-align:start;letter-spacing:0px;word-spacing:0px;writing-mode:lr-tb;text-anchor:start;clip-rule:nonzero;display:inline;overflow:visible;visibility:visible;opacity:1;isolation:auto;mix-blend-mode:normal;color-interpolation:sRGB;color-interpolation-filters:linearRGB;solid-color:#000000;solid-opacity:1;fill:#f4f2ee;fill-opacity:1;fill-rule:nonzero;stroke:none;stroke-width:1px;stroke-linecap:butt;stroke-linejoin:miter;stroke-miterlimit:4;stroke-dasharray:none;stroke-dashoffset:0;stroke-opacity:1;marker:none;color-rendering:auto;image-rendering:auto;shape-rendering:auto;text-rendering:auto;enable-background:accumulate"
       transform="matrix(0.99989328,-0.01460931,0.01460931,0.99989328,0,0)">
      <path
         id="path8189"
         style=""
         d="m 199.49982,864.10248 0,4.5405 q -11.7097,0.71692 -18.16199,4.77947 -6.21331,3.82358 -17.44507,17.68405 l -34.89014,43.49318 45.88292,65.47872 q 7.16921,10.2759 11.94868,13.3826 4.77947,3.1066 14.57739,4.3015 l 0,4.5405 -70.97515,0 0,-4.5405 q 9.79792,-0.9559 14.09944,-2.3898 4.30153,-1.6728 4.30153,-5.0184 0,-5.2574 -12.18766,-23.41941 l -22.70248,-33.4563 -28.437856,35.36809 q -12.426625,15.53332 -12.426625,20.55172 0,4.0626 3.823577,5.9743 3.823577,1.6729 14.338413,2.3898 l 0,4.5405 -55.680839,0 0,-4.5405 q 9.319969,-0.7169 14.338414,-4.5405 5.018444,-3.8236 20.312752,-22.7025 L 107.73397,944.3976 81.685857,906.16183 Q 64.957708,881.54755 57.549528,875.33424 50.380321,869.12093 38.431643,868.64298 l 0,-4.5405 72.170017,0 0,4.5405 -6.69126,0.23898 q -11.470733,0.23897 -11.470733,6.93023 0,7.64715 20.312753,35.84603 l 10.03689,14.09944 27.00401,-32.97835 q 9.55894,-11.94868 9.55894,-16.48917 0,-4.06255 -3.5846,-5.4964 -3.34563,-1.67281 -13.14355,-2.15076 l 0,-4.5405 56.87571,0 z" />
    </g>
    <use
       x="0"
       y="0"
       xlink:href="#rect10555"
       id="use10557"
       transform="translate(256,0)"
       width="100%"
       height="100%"
       style="opacity:1" />
    <use
       x="0"
       y="0"
       xlink:href="#text10549"
       id="use4289"
       transform="matrix(0.99471044,-0.1027187,0.1027187,0.99471044,163.72778,-9.962541)"
       width="100%"
       height="100%" />
    <use
       style="opacity:1"
       height="100%"
       width="100%"
       transform="translate(512,0)"
       id="use4291"
       xlink:href="#rect10555"
       y="0"
       x="0" />
    <use
       height="100%"
       width="100%"
       transform="matrix(0.99383886,0.11083474,-0.11083474,0.99383886,610.96982,-4.3036287)"
       id="use4293"
       xlink:href="#text10549"
       y="0"
       x="0" />
    <use
       x="0"
       y="0"
       xlink:href="#rect10555"
       id="use4301"
       transform="translate(768,0)"
       width="100%"
       height="100%"
       style="opacity:1" />
    <use
       x="0"
       y="0"
       xlink:href="#text10549"
       id="use4303"
       transform="matrix(0.95097155,-0.30927841,0.30927841,0.95097155,477.79631,80.230968)"
       width="100%"
       height="100%" />
    <use
       style="opacity:1"
       height="100%"
       width="100%"
       transform="translate(1024,0)"
       id="use4311"
       xlink:href="#rect10555"
       y="0"
       x="0" />
    <use
       height="100%"
       width="100%"
       transform="matrix(0.95508744,0.29632416,-0.29632416,0.95508744,1319.9259,-7.1561682)"
       id="use4313"
       xlink:href="#text10549"
       y="0"
       x="0" />
    <use
       x="0"
       y="0"
       xlink:href="#rect10555"
       id="use4321"
       transform="translate(1280,0)"
       width="100%"
       height="100%"
       style="opacity:1" />
    <use
       x="0"
       y="0"
       xlink:href="#text10549"
       id="use4323"
       transform="matrix(0.97239949,-0.2333222,0.2333222,0.97239949,1069.8587,47.378115)"
       width="100%"
       height="100%" />
  </g>
</svg>
